<svg preserveAspectRatio="none" width="117" height="119" viewBox="0 0 117 119" fill="none" xmlns="http://www.w3.org/2000/svg">
<g filter="url(#filter0_d_344_1276)">
<path fill-rule="evenodd" clip-rule="evenodd" d="M28.7855 1.69648C30.842 0.381758 33.5748 0.983013 34.8895 3.03942L36.9801 6.30933C37.7629 6.02396 38.6171 5.96337 39.4436 6.14522C40.5883 6.39708 41.5861 7.09337 42.2175 8.08092L46.569 14.8874L62.041 39.088C62.325 39.028 62.5964 38.9567 62.8493 38.8799C63.2456 38.7596 63.5601 38.6368 63.7601 38.5518C63.8591 38.5097 63.9271 38.4781 63.9598 38.4626L63.977 38.4542C66.1348 37.3503 68.7832 38.1911 69.907 40.3438C71.0308 42.4965 70.2066 45.1501 68.0673 46.2894L68.0535 46.2971C68.0254 46.3131 67.9658 46.3477 67.8811 46.4004C67.7102 46.5069 67.4468 46.6815 67.1379 46.9208L67.0784 46.9673L87.68 79.1913C87.7006 79.2231 87.7207 79.2552 87.7405 79.2875L87.882 79.5089C88.5766 80.5954 88.7364 81.8707 88.4293 83.026L88.8398 98.1491C93.6691 102.123 93.0218 111.234 85.4343 113.124L78.084 114.955C75.7156 115.545 73.3174 114.103 72.7274 111.735C72.1374 109.366 73.5791 106.968 75.9476 106.378L81.0446 105.108L30.2022 104.687C29.5498 104.681 28.3677 104.615 27.194 104.139C26.5822 103.891 25.6933 103.42 24.9497 102.521C24.1221 101.521 23.6937 100.249 23.7664 98.913C23.9056 96.3512 25.7056 94.7476 27.0824 93.8669C27.9805 93.2924 29.0923 92.7634 30.4371 92.2632C21.3445 92.4235 12.6091 92.5702 7.37799 92.1704C6.0937 92.0723 4.73756 91.8935 3.60681 91.4629C3.0602 91.2547 2.10007 90.8188 1.30509 89.8964C0.317754 88.7509 -0.118872 87.1848 0.25121 85.6137C0.547768 84.3547 1.2651 83.5171 1.65102 83.1173C2.09061 82.6619 2.56439 82.3056 2.94844 82.0439C3.72033 81.5181 4.63828 81.0357 5.50207 80.6163C6.82901 79.9719 8.46863 79.2694 10.0305 78.6003C10.5026 78.398 10.9677 78.1988 11.4149 78.0051C13.4823 77.1096 15.195 76.3223 16.2975 75.655C18.3855 74.391 21.1028 75.0591 22.3668 77.1471C23.6307 79.2351 22.9627 81.9524 20.8746 83.2164C20.6763 83.3364 20.4703 83.4563 20.2579 83.5757C23.2979 83.5472 26.5882 83.4884 29.9923 83.4276L29.9934 83.4276L29.9947 83.4276C34.6922 83.3437 39.6063 83.2559 44.378 83.2384C46.9727 83.2289 51.0503 84.2686 52.0595 88.254C53.0953 92.3442 49.9241 94.9233 47.5248 95.9912L61.5503 96.1074L61.2764 95.6791L61.25 95.6373L61.2307 95.606L20.3443 31.6535L15.9928 24.8469C14.8564 23.0694 15.1515 20.7866 16.5804 19.351L14.49 16.0814C13.8587 15.0939 13.6455 13.896 13.8973 12.7512C14.1492 11.6065 14.8455 10.6087 15.833 9.97735L28.7855 1.69648ZM44.1763 87.803C44.1763 87.803 44.1742 87.8046 44.1696 87.8074C44.1739 87.8044 44.1762 87.803 44.1763 87.803ZM30.1558 95.8411C30.1517 95.8406 30.1495 95.8406 30.1494 95.8408C30.1492 95.8412 30.1587 95.8428 30.1788 95.8444C30.1685 95.8427 30.1608 95.8416 30.1558 95.8411ZM31.7489 101.378C31.7266 101.397 31.7136 101.406 31.7126 101.406C31.7117 101.406 31.7228 101.396 31.7489 101.378Z" fill="white"/>
</g>
<path d="M77.6049 110.666V110.666C83.4029 109.222 82.3927 100.695 76.4178 100.645L31.781 100.275C30.259 100.263 28.1607 99.4496 29.17 98.3102C29.8463 97.5468 31.5111 96.6051 35.1551 95.5714C36.8008 95.1045 38.3102 94.6548 39.6943 94.2233C46.047 92.2428 44.9237 87.6278 38.2701 87.7216C26.6718 87.8851 14.7572 88.2569 8.30392 87.7637C-1.35422 87.0255 13.586 82.8189 19.1752 79.4355" stroke="#EB602F" stroke-width="6" stroke-linecap="square"/>
<path d="M31.0895 5.62684L18.137 13.9077L48.6316 61.6051L61.5841 53.3242L31.0895 5.62684Z" fill="black" stroke="black" stroke-width="1.2" stroke-miterlimit="10"/>
<path d="M42.7689 17.475L23.9912 29.48L65.1149 93.8036L83.8925 81.7986L42.7689 17.475Z" fill="#FCCB4C" stroke="black" stroke-width="1.2" stroke-miterlimit="10"/>
<path d="M83.8919 81.7988L84.3935 100.276L65.1143 93.8038L19.6389 22.6735L29.0277 16.671L38.4166 10.6685L83.8919 81.7988Z" fill="#FCCB4C" stroke="black" stroke-width="1.2" stroke-miterlimit="10"/>
<path d="M65.1138 93.8033L83.8914 81.7983" stroke="black" stroke-width="1.2" stroke-miterlimit="10"/>
<path d="M73.6055 96.6537L84.1122 89.915L84.3935 100.275L73.6055 96.6537Z" fill="black" stroke="black" stroke-width="1.2" stroke-miterlimit="10"/>
<path d="M51.853 65.6523L60.389 78.7074" stroke="black" stroke-width="1.2" stroke-miterlimit="10"/>
<path d="M46.3301 57.1162L50.5016 63.652" stroke="black" stroke-width="1.2" stroke-miterlimit="10"/>
<path d="M27.4056 18.4424L22.1802 21.7832L41.2279 51.5767L46.4533 48.2359L27.4056 18.4424Z" fill="black" stroke="black" stroke-width="1.2" stroke-miterlimit="10"/>
<path d="M26.4501 16.9468L21.2246 20.2876L39.3952 48.7091L44.6206 45.3683L26.4501 16.9468Z" fill="#FCCB4C" stroke="black" stroke-width="1.2" stroke-miterlimit="10"/>
<path d="M65.9124 42.5957C65.9124 42.5957 56.3722 47.5759 61.3524 57.1161C56.3722 47.5759 46.832 52.5561 46.832 52.5561C46.832 52.5561 56.3723 47.5759 51.3921 38.0356C56.3723 47.5759 65.9124 42.5957 65.9124 42.5957Z" fill="#EB602F" stroke="black" stroke-width="1.2" stroke-miterlimit="10"/>
<defs>
<filter id="filter0_d_344_1276" x="0.120605" y="0" width="95.7976" height="118.087" filterUnits="userSpaceOnUse" color-interpolation-filters="sRGB">
<feFlood flood-opacity="0" result="BackgroundImageFix"/>
<feColorMatrix in="SourceAlpha" type="matrix" values="0 0 0 0 0 0 0 0 0 0 0 0 0 0 0 0 0 0 127 0" result="hardAlpha"/>
<feOffset dx="2" dy="1"/>
<feGaussianBlur stdDeviation="1"/>
<feComposite in2="hardAlpha" operator="out"/>
<feColorMatrix type="matrix" values="0 0 0 0 0 0 0 0 0 0 0 0 0 0 0 0 0 0 0.25 0"/>
<feBlend mode="normal" in2="BackgroundImageFix" result="effect1_dropShadow_344_1276"/>
<feBlend mode="normal" in="SourceGraphic" in2="effect1_dropShadow_344_1276" result="shape"/>
</filter>
</defs>
</svg>
