<svg width="218" height="266" viewBox="0 0 218 266" fill="none" xmlns="http://www.w3.org/2000/svg">
<g opacity="0.1">
<path fill-rule="evenodd" clip-rule="evenodd" d="M152.177 28.6598C152.161 25.5476 151.92 14.3516 149.34 8.33143C142.886 5.07113 131.817 6.18272 131.817 6.18272C131.817 6.18272 122.912 20.8273 108.261 8.33143L87.1219 12.2929C87.1219 12.2929 82.4078 30.4505 63.8968 18.4863C63.8968 18.4863 52.6763 20.8273 47.6399 28.0717C49.5716 38.8178 55.0311 46.8842 56.4126 48.7928C57.1225 50.0917 59.3706 50.7155 65.2117 50.6999L74.8618 62.9451C74.4725 63.1453 74.4723 63.1448 74.4721 63.1443L74.4764 63.1531C74.481 63.1623 74.489 63.1784 74.5001 63.2015C74.5224 63.2477 74.5575 63.322 74.6044 63.4257C74.6982 63.6332 74.839 63.9586 75.0187 64.4134C75.378 65.3231 75.8923 66.7503 76.4955 68.7866C77.7019 72.8595 79.2628 79.3671 80.6481 89.0418C83.4189 108.393 85.4847 140.398 82.6151 190.903L83.8284 190.972C83.8263 191.013 83.8452 191.056 83.8855 191.083L89.5935 194.773C83.8276 196.777 79.1712 198.754 75.9982 200.594C74.4053 201.518 73.1255 202.441 72.2679 203.359C71.5826 204.093 71.0375 204.968 71.0027 205.924C70.8517 206.494 70.672 207.23 70.4913 208.106C70.0403 210.292 69.5801 213.363 69.5429 216.905C69.4698 223.872 71.0343 232.752 77.6184 240.285C36.2935 241.449 6.00024 245.251 6.00024 249.761C6.00024 255.198 50.0159 259.605 104.312 259.605C158.608 259.605 202.623 255.198 202.623 249.761C202.623 244.474 160.989 240.16 108.755 239.927C119.486 238.665 132.362 236.693 146.145 234.118C179.493 227.887 206.62 220.276 210.596 216.227L212.054 216.398C213.162 206.954 211.495 198.101 209.566 191.632C208.601 188.393 207.566 185.738 206.77 183.89C206.373 182.966 206.034 182.243 205.794 181.747C205.674 181.5 205.579 181.309 205.512 181.179L205.474 181.104C205.176 180.004 204.221 179.271 203.161 178.775C202.013 178.237 200.47 177.845 198.634 177.565C195.258 177.052 190.664 176.887 185.158 177.044L187.107 170.968C187.143 170.855 187.113 170.741 187.043 170.661L187.245 170.538L188.017 170.067C188.175 169.971 188.175 169.971 188.174 169.97L188.173 169.968L188.167 169.958L188.142 169.916L188.041 169.75C187.952 169.603 187.82 169.384 187.648 169.095C187.302 168.518 186.796 167.666 186.15 166.565C184.86 164.363 183.016 161.17 180.804 157.206C176.381 149.277 170.489 138.271 164.617 125.959C161.955 120.377 159.298 114.53 156.784 108.582L144.562 73.1573C142.584 65.092 141.453 57.5123 141.543 50.8782L141.316 50.8751L144.763 35.051C150.485 32.6455 152.751 30.8387 152.426 29.1883C152.388 28.9983 152.305 28.8223 152.177 28.6598ZM139.824 59.4247C139.538 56.875 139.379 54.4078 139.362 52.042C138.797 51.978 138.082 51.9108 137.211 51.8534L139.824 59.4247ZM129.737 51.7397C127.484 51.7969 124.868 51.9322 121.869 52.1859L121.893 52.3189C121.907 52.3957 121.925 52.4913 121.946 52.6053L129.737 51.7397ZM119.775 52.8465C119.766 52.7974 119.758 52.7532 119.751 52.7137L119.718 52.537L119.71 52.492L119.708 52.4805L119.708 52.4775C119.708 52.4768 119.707 52.4764 120.779 52.2823L120.785 52.2813C116.685 52.6559 111.905 53.2473 106.395 54.1495C105.35 54.3205 104.339 54.4943 103.36 54.6704L119.775 52.8465ZM79.5657 61.4226C78.3133 62.0109 77.3979 62.5199 76.7574 62.9123C76.8402 63.1065 76.9364 63.3395 77.0445 63.6133C77.4288 64.5862 77.9638 66.0741 78.584 68.168C79.6011 71.6018 80.8478 76.6667 82.0347 83.7638L79.5657 61.4226ZM85.1573 112.02C85.9545 124.087 86.3714 138.782 86.084 156.555C86.3825 156.398 86.7203 156.223 87.0972 156.034C87.8624 155.649 88.7889 155.201 89.8748 154.707L85.1573 112.02ZM90.1269 156.989C89.344 157.353 88.66 157.686 88.0757 157.98C87.22 158.41 86.5784 158.756 86.1536 158.993L86.0393 159.057C85.8519 168.623 85.4627 179.058 84.8235 190.429C86.2857 189.752 89.1707 188.481 93.4319 186.894L90.1269 156.989ZM178.284 170.894C180.807 170.764 183.377 170.657 185.995 170.575C185.932 170.469 185.86 170.349 185.779 170.214C185.43 169.631 184.92 168.773 184.271 167.666C182.974 165.453 181.122 162.246 178.902 158.267C174.863 151.028 169.603 141.229 164.246 130.208L178.284 170.894ZM136.49 185.164C154.724 181.74 171.433 179.742 183.698 179.273C189.84 179.038 194.82 179.188 198.306 179.719C200.056 179.985 201.363 180.338 202.238 180.747C203.148 181.174 203.345 181.541 203.378 181.704L204.444 181.487C203.489 181.997 203.484 182 203.484 181.999L136.49 185.164ZM210.073 214.278C204.481 212.068 176.677 214.775 143.682 220.941C110.35 227.169 83.232 234.776 79.2367 238.826C73.1411 231.837 71.6513 223.565 71.7209 216.928C71.7563 213.556 72.1949 210.629 72.6245 208.546C72.8391 207.505 73.051 206.679 73.2079 206.115C73.2863 205.834 73.351 205.619 73.3953 205.476L73.4198 205.398C73.5211 205.24 73.6629 205.057 73.8597 204.846C74.5051 204.155 75.5744 203.358 77.0909 202.478C80.1111 200.727 84.6646 198.786 90.4462 196.783C101.993 192.78 118.256 188.588 136.49 185.164L210.073 214.278ZM210.073 214.278C210.731 205.924 209.227 198.118 207.479 192.254C206.541 189.109 205.538 186.535 204.77 184.751C204.386 183.86 204.062 183.166 203.835 182.698C203.721 182.464 203.632 182.287 203.572 182.169C203.542 182.11 203.519 182.067 203.504 182.038L203.488 182.007L203.485 182.001L203.484 181.999L210.073 214.278ZM78.3633 240.264L78.9161 240.249C78.8293 240.146 78.7724 240.036 78.7462 239.919L78.3633 240.264Z" fill="white"/>
<path d="M149.34 8.33143L154.345 6.18639C153.84 5.00972 152.938 4.04834 151.795 3.47109L149.34 8.33143ZM152.177 28.6598L146.732 28.6877C146.738 29.8977 147.147 31.0712 147.895 32.0229L152.177 28.6598ZM131.817 6.18272L131.273 0.764606C129.573 0.935303 128.052 1.89382 127.164 3.3535L131.817 6.18272ZM108.261 8.33143L111.795 4.18842C110.543 3.12063 108.876 2.67617 107.258 2.97924L108.261 8.33143ZM87.1219 12.2929L86.119 6.94069C84.0446 7.32941 82.3817 8.88175 81.8513 10.9245L87.1219 12.2929ZM63.8968 18.4863L66.8526 13.913C65.6491 13.1351 64.1874 12.863 62.7846 13.1557L63.8968 18.4863ZM47.6399 28.0717L43.1688 24.9634C42.3445 26.1491 42.0249 27.6138 42.2804 29.0351L47.6399 28.0717ZM56.4126 48.7928L61.1908 46.1812C61.0808 45.98 60.9582 45.786 60.8238 45.6002L56.4126 48.7928ZM65.2117 50.6999L69.4886 47.3294C68.4529 46.0152 66.8704 45.2501 65.1972 45.2546L65.2117 50.6999ZM74.8618 62.9451L77.3518 67.7878C78.7985 67.044 79.8368 65.6923 80.1827 64.1027C80.5285 62.5132 80.1455 60.8523 79.1387 59.5746L74.8618 62.9451ZM74.4721 63.1443L79.3254 60.6751C77.9647 58.0006 74.6968 56.931 72.0181 58.2833C69.3394 59.6355 68.2594 62.9 69.6033 65.583L74.4721 63.1443ZM74.4764 63.1531L79.3493 60.7226L79.3452 60.7144L74.4764 63.1531ZM74.5001 63.2015L79.4045 60.8352L79.4038 60.8339L74.5001 63.2015ZM74.6044 63.4257L79.5667 61.1834L79.5666 61.1832L74.6044 63.4257ZM75.0187 64.4134L80.0833 62.4131L80.0833 62.4131L75.0187 64.4134ZM76.4955 68.7866L81.7166 67.2401V67.24L76.4955 68.7866ZM80.6481 89.0418L86.0385 88.27L80.6481 89.0418ZM82.6151 190.903L77.1785 190.594C77.0079 193.596 79.3037 196.169 82.3062 196.339L82.6151 190.903ZM83.8284 190.972L89.2671 191.241C89.4152 188.253 87.1245 185.705 84.1373 185.535L83.8284 190.972ZM83.8855 191.083L80.9287 195.655L80.929 195.655L83.8855 191.083ZM89.5935 194.773L91.3813 199.916C93.347 199.233 94.7514 197.489 94.9999 195.423C95.2484 193.357 94.2976 191.33 92.55 190.2L89.5935 194.773ZM75.9982 200.594L78.7298 205.305H78.7299L75.9982 200.594ZM72.2679 203.359L76.2473 207.076L76.2473 207.076L72.2679 203.359ZM71.0027 205.924L76.266 207.32C76.3699 206.929 76.4298 206.527 76.4445 206.122L71.0027 205.924ZM70.4913 208.106L75.8244 209.206V209.206L70.4913 208.106ZM69.5429 216.905L64.0979 216.848L69.5429 216.905ZM77.6184 240.285L77.7718 245.728C79.8793 245.669 81.7632 244.398 82.6078 242.466C83.4523 240.534 83.1058 238.288 81.7183 236.701L77.6184 240.285ZM108.755 239.927L108.119 234.519C105.26 234.856 103.157 237.36 103.319 240.234C103.481 243.108 105.852 245.36 108.731 245.373L108.755 239.927ZM146.145 234.118L147.145 239.471L146.145 234.118ZM210.596 216.227L211.231 210.818C209.559 210.622 207.89 211.21 206.711 212.412L210.596 216.227ZM212.054 216.398L211.419 221.806C214.406 222.157 217.112 220.019 217.462 217.033L212.054 216.398ZM209.566 191.632L204.348 193.188L209.566 191.632ZM206.77 183.89L211.772 181.738L211.772 181.738L206.77 183.89ZM205.794 181.747L210.694 179.371L210.693 179.37L205.794 181.747ZM205.512 181.179L210.363 178.704L210.357 178.694L205.512 181.179ZM205.474 181.104L200.217 182.525C200.316 182.893 200.454 183.25 200.628 183.589L205.474 181.104ZM203.161 178.775L205.471 173.843V173.843L203.161 178.775ZM198.634 177.565L199.453 172.182H199.453L198.634 177.565ZM185.158 177.044L179.973 175.381C179.433 177.064 179.744 178.904 180.805 180.316C181.867 181.728 183.548 182.538 185.314 182.487L185.158 177.044ZM187.107 170.968L181.922 169.305L181.922 169.305L187.107 170.968ZM187.043 170.661L184.21 166.01C182.839 166.845 181.907 168.243 181.662 169.828C181.416 171.414 181.883 173.028 182.937 174.238L187.043 170.661ZM187.245 170.538L190.078 175.188L190.079 175.187L187.245 170.538ZM188.017 170.067L190.851 174.717L190.853 174.715L188.017 170.067ZM188.174 169.97L183.518 172.793C183.521 172.799 183.525 172.804 183.528 172.81L188.174 169.97ZM188.173 169.968L192.829 167.145L192.828 167.142L188.173 169.968ZM188.167 169.958L192.821 167.131L192.821 167.131L188.167 169.958ZM188.142 169.916L183.483 172.736L183.487 172.743L188.142 169.916ZM188.041 169.75L183.38 172.566L183.383 172.57L188.041 169.75ZM186.15 166.565L190.848 163.811L190.848 163.811L186.15 166.565ZM180.804 157.206L185.559 154.553V154.553L180.804 157.206ZM164.617 125.959L169.532 123.615L164.617 125.959ZM156.784 108.582L151.637 110.359C151.677 110.475 151.721 110.589 151.769 110.702L156.784 108.582ZM144.562 73.1573L139.273 74.454C139.313 74.6159 139.36 74.7758 139.414 74.9334L144.562 73.1573ZM141.543 50.8782L146.988 50.9528C147.029 47.9457 144.625 45.4746 141.618 45.4334L141.543 50.8782ZM141.316 50.8751L135.995 49.716C135.647 51.3132 136.035 52.9822 137.052 54.2621C138.069 55.5421 139.607 56.2976 141.241 56.32L141.316 50.8751ZM144.763 35.051L142.653 30.0313C141.018 30.7187 139.82 32.1591 139.443 33.8919L144.763 35.051ZM152.426 29.1883L147.083 30.2417L147.083 30.2418L152.426 29.1883ZM139.362 52.042L144.807 52.0032C144.787 49.2479 142.713 46.9414 139.975 46.6313L139.362 52.042ZM139.824 59.4247L134.676 61.2008C135.581 63.8243 138.315 65.3473 141.022 64.7366C143.729 64.1258 145.544 61.5766 145.235 58.8185L139.824 59.4247ZM137.211 51.8534L137.569 46.4198C135.749 46.3 133.99 47.0992 132.883 48.5487C131.777 49.9981 131.469 51.9055 132.064 53.6295L137.211 51.8534ZM121.869 52.1859L121.41 46.7599C119.879 46.8894 118.474 47.6593 117.542 48.8799C116.609 50.1005 116.235 51.6582 116.513 53.1691L121.869 52.1859ZM129.737 51.7397L130.338 57.1517C133.238 56.8296 135.368 54.2799 135.17 51.3696C134.971 48.4592 132.515 46.222 129.599 46.2961L129.737 51.7397ZM121.893 52.3189L116.537 53.3021L116.538 53.306L121.893 52.3189ZM121.946 52.6053L116.592 53.6009C117.114 56.4057 119.712 58.3324 122.547 58.0174L121.946 52.6053ZM119.751 52.7137L114.395 53.6969L114.396 53.7006L119.751 52.7137ZM119.775 52.8465L120.377 58.2586C121.88 58.0915 123.246 57.3066 124.148 56.092C125.05 54.8773 125.405 53.3424 125.13 51.855L119.775 52.8465ZM119.718 52.537L114.361 53.5135L114.363 53.5202L119.718 52.537ZM119.71 52.492L114.353 53.4658L114.353 53.4685L119.71 52.492ZM119.708 52.4805L114.35 53.4522L114.351 53.4543L119.708 52.4805ZM119.708 52.4775L114.349 53.4466L114.35 53.4492L119.708 52.4775ZM120.779 52.2823L121.749 57.6405L121.752 57.6401L120.779 52.2823ZM120.785 52.2813L121.757 57.6391C124.624 57.1187 126.574 54.4337 126.18 51.5466C125.787 48.6594 123.191 46.5934 120.289 46.8585L120.785 52.2813ZM106.395 54.1495L107.274 59.5233H107.274L106.395 54.1495ZM103.36 54.6704L102.396 49.3111C99.5065 49.8309 97.5493 52.548 97.9715 55.4536C98.3938 58.3591 101.044 60.4067 103.962 60.0825L103.36 54.6704ZM76.7574 62.9123L73.9126 58.2691C71.6104 59.6797 70.6894 62.5641 71.7482 65.0477L76.7574 62.9123ZM79.5657 61.4226L84.9781 60.8244C84.7851 59.0776 83.7609 57.5314 82.2278 56.6722C80.6947 55.8131 78.8412 55.7467 77.2505 56.4939L79.5657 61.4226ZM77.0445 63.6133L82.1092 61.613L82.1091 61.6129L77.0445 63.6133ZM78.584 68.168L83.8051 66.6214L78.584 68.168ZM82.0347 83.7638L76.6639 84.662C77.1502 87.57 79.8627 89.5627 82.7831 89.1575C85.7036 88.7522 87.771 86.0962 87.4471 83.1657L82.0347 83.7638ZM85.1573 112.02L90.5697 111.422C90.2445 108.479 87.6278 106.335 84.6787 106.595C81.7295 106.856 79.5286 109.424 79.7238 112.379L85.1573 112.02ZM86.084 156.555L80.6394 156.466C80.6083 158.389 81.5936 160.186 83.2316 161.193C84.8696 162.2 86.9174 162.269 88.6192 161.374L86.084 156.555ZM87.0972 156.034L84.6509 151.169L84.6508 151.169L87.0972 156.034ZM89.8748 154.707L92.131 159.663C94.2726 158.688 95.5457 156.448 95.2872 154.109L89.8748 154.707ZM90.1269 156.989L95.5393 156.39C95.3467 154.647 94.3261 153.103 92.7975 152.243C91.269 151.383 89.4197 151.312 87.8295 152.052L90.1269 156.989ZM88.0757 157.98L85.6295 153.115L85.6294 153.115L88.0757 157.98ZM86.1536 158.993L83.5034 154.236L83.4943 154.241L86.1536 158.993ZM86.0393 159.057L83.3799 154.305C81.6928 155.249 80.6328 157.017 80.5949 158.95L86.0393 159.057ZM84.8235 190.429L79.3868 190.123C79.2794 192.033 80.1818 193.859 81.764 194.933C83.3463 196.008 85.3763 196.174 87.1118 195.37L84.8235 190.429ZM93.4319 186.894L95.3319 191.997C97.6709 191.127 99.1184 188.777 98.8443 186.296L93.4319 186.894ZM178.284 170.894L173.136 172.67C173.928 174.964 176.142 176.458 178.565 176.333L178.284 170.894ZM185.995 170.575L186.165 176.017C188.097 175.957 189.851 174.878 190.776 173.181C191.701 171.485 191.658 169.426 190.662 167.77L185.995 170.575ZM185.779 170.214L190.452 167.418L190.451 167.418L185.779 170.214ZM184.271 167.666L179.574 170.42H179.574L184.271 167.666ZM178.902 158.267L174.147 160.92H174.147L178.902 158.267ZM164.246 130.208L169.143 127.828C167.884 125.237 164.825 124.076 162.164 125.177C159.502 126.278 158.159 129.262 159.098 131.985L164.246 130.208ZM183.698 179.273L183.49 173.831L183.698 179.273ZM198.306 179.719L199.125 174.335H199.125L198.306 179.719ZM202.238 180.747L199.928 185.679L199.928 185.679L202.238 180.747ZM203.378 181.704L198.042 182.788C198.641 185.735 201.515 187.639 204.463 187.04L203.378 181.704ZM204.444 181.487L207.009 186.29C209.394 185.017 210.484 182.187 209.568 179.643C208.653 177.099 206.009 175.612 203.36 176.151L204.444 181.487ZM203.484 181.999L207.84 178.732C206.758 177.288 205.03 176.475 203.227 176.56L203.484 181.999ZM143.682 220.941L144.683 226.294L143.682 220.941ZM210.073 214.278L208.072 219.343C209.679 219.977 211.491 219.812 212.956 218.898C214.422 217.983 215.366 216.428 215.502 214.706L210.073 214.278ZM79.2367 238.826L75.1327 242.405C76.1286 243.547 77.5552 244.223 79.0696 244.269C80.584 244.316 82.0494 243.729 83.1134 242.65L79.2367 238.826ZM71.7209 216.928L66.2759 216.871V216.871L71.7209 216.928ZM72.6245 208.546L67.2914 207.446V207.446L72.6245 208.546ZM73.2079 206.115L67.9624 204.654L67.9624 204.654L73.2079 206.115ZM73.3953 205.476L68.1989 203.848C68.1975 203.853 68.1961 203.857 68.1947 203.862L73.3953 205.476ZM73.4198 205.398L68.8393 202.453C68.5761 202.862 68.369 203.305 68.2235 203.77L73.4198 205.398ZM73.8597 204.846L69.8803 201.129L69.8803 201.129L73.8597 204.846ZM77.0909 202.478L74.3593 197.768H74.3592L77.0909 202.478ZM90.4462 196.783L88.663 191.637H88.663L90.4462 196.783ZM207.479 192.254L212.697 190.698V190.698L207.479 192.254ZM204.77 184.751L199.768 186.904V186.904L204.77 184.751ZM203.835 182.698L208.734 180.321L208.734 180.321L203.835 182.698ZM203.572 182.169L208.423 179.694L208.422 179.694L203.572 182.169ZM203.504 182.038L208.332 179.518L208.326 179.507L203.504 182.038ZM203.488 182.007L208.31 179.477C208.306 179.469 208.302 179.462 208.298 179.454L203.488 182.007ZM203.485 182.001L208.295 179.448L208.289 179.438L203.485 182.001ZM78.9161 240.249L79.0632 245.693C81.1513 245.636 83.0231 244.39 83.881 242.486C84.7389 240.581 84.4317 238.354 83.0903 236.752L78.9161 240.249ZM78.3633 240.264L74.7186 236.218C73.0238 237.745 72.4602 240.166 73.3067 242.285C74.1531 244.403 76.2301 245.769 78.5104 245.707L78.3633 240.264ZM78.7462 239.919L84.058 238.72C83.6323 236.834 82.2385 235.315 80.3958 234.73C78.5531 234.144 76.538 234.579 75.1015 235.873L78.7462 239.919ZM203.741 187.439C206.745 187.297 209.065 184.747 208.923 181.742C208.781 178.738 206.231 176.418 203.227 176.56L203.741 187.439ZM136.49 185.164L136.233 179.725C133.67 179.846 131.539 181.74 131.118 184.271C130.697 186.802 132.101 189.284 134.487 190.228L136.49 185.164ZM208.07 219.342C210.866 220.448 214.03 219.078 215.137 216.282C216.243 213.485 214.873 210.321 212.077 209.215L208.07 219.342ZM144.334 10.4765C145.273 12.6657 145.923 16.2549 146.3 20.1155C146.663 23.8247 146.724 27.2182 146.732 28.6877L157.623 28.6318C157.614 26.9891 157.547 23.2286 157.139 19.0567C156.747 15.0362 155.986 10.0173 154.345 6.18639L144.334 10.4765ZM131.817 6.18272C132.361 11.6008 132.36 11.6009 132.359 11.601C132.359 11.601 132.358 11.6011 132.357 11.6011C132.357 11.6012 132.356 11.6013 132.355 11.6014C132.354 11.6015 132.354 11.6015 132.354 11.6015C132.354 11.6015 132.357 11.6012 132.362 11.6007C132.373 11.5997 132.394 11.5977 132.425 11.595C132.486 11.5896 132.585 11.5811 132.719 11.5709C132.987 11.5505 133.391 11.5233 133.902 11.4994C134.928 11.4514 136.358 11.4181 137.961 11.4762C141.37 11.5999 144.757 12.1174 146.884 13.1918L151.795 3.47109C147.468 1.28514 142.094 0.728299 138.355 0.592679C136.384 0.521154 134.643 0.562057 133.393 0.620562C132.765 0.649935 132.254 0.684065 131.891 0.711704C131.71 0.725536 131.565 0.73778 131.46 0.747047C131.408 0.751683 131.366 0.755578 131.335 0.758561C131.319 0.760052 131.306 0.761316 131.296 0.762331C131.29 0.762838 131.286 0.763283 131.282 0.763663C131.28 0.763853 131.278 0.764027 131.277 0.764184C131.276 0.764263 131.275 0.764368 131.274 0.764408C131.273 0.764509 131.273 0.764606 131.817 6.18272ZM104.727 12.4745C108.999 16.1182 113.249 18.1136 117.406 18.6654C121.587 19.2205 125.192 18.2502 128.035 16.7795C130.821 15.3379 132.894 13.413 134.237 11.9257C134.921 11.1691 135.448 10.4891 135.817 9.97989C136.002 9.72425 136.149 9.50866 136.257 9.34432C136.312 9.26205 136.357 9.19234 136.392 9.13656C136.409 9.10866 136.425 9.08422 136.438 9.0634C136.444 9.05299 136.45 9.04348 136.455 9.03489C136.458 9.0306 136.46 9.02654 136.463 9.02271C136.464 9.0208 136.466 9.0181 136.466 9.01714C136.468 9.01451 136.469 9.01193 131.817 6.18272C127.164 3.3535 127.165 3.35104 127.167 3.34862C127.167 3.34789 127.169 3.34552 127.17 3.34406C127.171 3.34112 127.173 3.33839 127.175 3.33586C127.178 3.33081 127.18 3.32659 127.183 3.32317C127.187 3.31633 127.189 3.3127 127.189 3.31213C127.19 3.311 127.183 3.322 127.169 3.34395C127.14 3.38802 127.081 3.47486 126.994 3.59525C126.818 3.83809 126.536 4.20456 126.155 4.62563C125.371 5.49375 124.302 6.449 123.031 7.10655C121.816 7.73502 120.447 8.08288 118.839 7.86937C117.206 7.65259 114.848 6.79257 111.795 4.18842L104.727 12.4745ZM88.1249 17.6451L109.264 13.6836L107.258 2.97924L86.119 6.94069L88.1249 17.6451ZM60.9409 23.0596C66.1502 26.4265 70.9482 28.04 75.3704 28.0112C79.9015 27.9818 83.4475 26.231 86.0288 23.9812C88.5219 21.8083 90.0822 19.2125 91.0004 17.3095C91.4709 16.3344 91.804 15.4761 92.0247 14.8434C92.1356 14.5254 92.2198 14.2599 92.2799 14.0596C92.31 13.9593 92.3342 13.8749 92.3529 13.8081C92.3622 13.7747 92.3701 13.7457 92.3767 13.7211C92.38 13.7089 92.383 13.6977 92.3856 13.6877C92.387 13.6827 92.3882 13.678 92.3894 13.6736C92.3899 13.6714 92.3907 13.6683 92.391 13.6672C92.3918 13.6642 92.3926 13.6613 87.1219 12.2929C81.8513 10.9245 81.8521 10.9217 81.8528 10.9189C81.853 10.9181 81.8537 10.9154 81.8541 10.9138C81.855 10.9105 81.8558 10.9074 81.8565 10.9046C81.858 10.899 81.8592 10.8945 81.8602 10.8909C81.8621 10.8837 81.863 10.8805 81.8629 10.8811C81.8625 10.8823 81.858 10.8984 81.8491 10.9282C81.8311 10.988 81.7959 11.1009 81.7418 11.2561C81.6324 11.5696 81.4525 12.0364 81.1918 12.5766C80.6477 13.7043 79.8725 14.9002 78.8732 15.7711C77.9621 16.5652 76.8586 17.1106 75.2996 17.1207C73.6318 17.1316 70.8989 16.5282 66.8526 13.913L60.9409 23.0596ZM52.1109 31.18C53.7767 28.784 56.7455 26.8941 59.8251 25.5575C61.2924 24.9206 62.6339 24.474 63.6019 24.1892C64.0827 24.0477 64.4628 23.9487 64.7098 23.8877C64.833 23.8573 64.9224 23.8365 64.9738 23.8249C64.9994 23.8191 65.0156 23.8155 65.0216 23.8142C65.0246 23.8136 65.0251 23.8135 65.023 23.8139C65.022 23.8141 65.0203 23.8145 65.0179 23.815C65.0168 23.8152 65.0154 23.8155 65.0139 23.8158C65.0132 23.816 65.0119 23.8162 65.0115 23.8163C65.0103 23.8166 65.0089 23.8169 63.8968 18.4863C62.7846 13.1557 62.7832 13.156 62.7817 13.1563C62.7812 13.1564 62.7797 13.1567 62.7786 13.157C62.7764 13.1574 62.774 13.1579 62.7715 13.1585C62.7664 13.1595 62.7607 13.1608 62.7542 13.1621C62.7413 13.1649 62.7256 13.1682 62.7072 13.1722C62.6705 13.1802 62.623 13.1907 62.5653 13.2038C62.4499 13.23 62.2932 13.2666 62.0998 13.3143C61.7135 13.4097 61.1776 13.5501 60.5278 13.7413C59.2346 14.1218 57.4562 14.7133 55.4889 15.5672C51.6991 17.2121 46.5395 20.115 43.1688 24.9634L52.1109 31.18ZM60.8238 45.6002C59.6421 43.9675 54.7207 36.6843 52.9994 27.1083L42.2804 29.0351C44.4225 40.9513 50.4201 49.8008 52.0013 51.9855L60.8238 45.6002ZM65.1972 45.2546C62.367 45.2621 60.8556 45.1037 60.104 44.9315C59.3055 44.7485 60.4368 44.8018 61.1908 46.1812L51.6343 51.4044C53.0982 54.0827 55.7086 55.0974 57.6719 55.5472C59.6821 56.0077 62.2153 56.1533 65.2263 56.1453L65.1972 45.2546ZM79.1387 59.5746L69.4886 47.3294L60.9348 54.0704L70.5849 66.3156L79.1387 59.5746ZM69.6187 65.6136C69.6187 65.6136 69.623 65.622 69.6273 65.6303C69.6315 65.6386 69.6444 65.6634 69.6531 65.6799C69.6753 65.7222 69.7123 65.7913 69.761 65.8752C69.8579 66.0424 70.0201 66.3024 70.258 66.5931C70.7915 67.245 71.5233 67.8281 72.4422 68.1973C73.9787 68.8145 75.3069 68.5298 75.5209 68.4878C75.9267 68.4082 76.2314 68.2987 76.325 68.2649C76.4558 68.2175 76.5575 68.175 76.6077 68.1536C76.709 68.1104 76.787 68.0734 76.8095 68.0627C76.8426 68.047 76.869 68.0341 76.8829 68.0272C76.9282 68.0049 76.9731 67.982 76.9935 67.9716C77.0523 67.9417 77.1581 67.8874 77.3518 67.7878L72.3717 58.1024C72.1762 58.203 72.0872 58.2486 72.0486 58.2683C72.0202 58.2827 72.0407 58.2721 72.0737 58.2559C72.0846 58.2505 72.1087 58.2387 72.14 58.2238C72.1607 58.214 72.2376 58.1775 72.3381 58.1346C72.3879 58.1134 72.4893 58.071 72.6199 58.0238C72.7132 57.99 73.0178 57.8806 73.4235 57.8009C73.6374 57.759 74.9655 57.4743 76.5019 58.0915C77.4209 58.4606 78.1526 59.0437 78.6861 59.6956C78.924 59.9863 79.0862 60.2463 79.1831 60.4135C79.2318 60.4974 79.2688 60.5665 79.291 60.6087C79.2997 60.6253 79.3126 60.6501 79.3169 60.6584C79.3211 60.6667 79.3254 60.6751 79.3254 60.6751L69.6187 65.6136ZM79.3452 60.7144L79.3408 60.7057L69.6033 65.583L69.6076 65.5917L79.3452 60.7144ZM79.4038 60.8339C79.3831 60.791 79.3649 60.7539 79.3493 60.7226L69.6035 65.5835C69.5972 65.5707 69.5948 65.5658 69.5964 65.5691L79.4038 60.8339ZM79.5666 61.1832C79.5012 61.0386 79.4468 60.923 79.4045 60.8352L69.5958 65.5678C69.598 65.5724 69.6138 65.6054 69.6422 65.6682L79.5666 61.1832ZM80.0833 62.4131C79.8724 61.8791 79.6975 61.4729 79.5667 61.1834L69.6421 65.668C69.6988 65.7934 69.8056 66.0381 69.954 66.4138L80.0833 62.4131ZM81.7166 67.24C81.0709 65.0599 80.505 63.4808 80.0833 62.4131L69.954 66.4138C70.2509 67.1655 70.7138 68.4406 71.2744 70.3331L81.7166 67.24ZM86.0385 88.27C84.6208 78.3688 83.0078 71.5989 81.7166 67.2401L71.2744 70.3331C72.3961 74.12 73.9049 80.3655 75.2577 89.8136L86.0385 88.27ZM88.0517 191.212C90.9363 140.443 88.8728 108.064 86.0385 88.27L75.2577 89.8136C77.9651 108.722 80.0332 140.352 77.1785 190.594L88.0517 191.212ZM84.1373 185.535L82.924 185.466L82.3062 196.339L83.5195 196.408L84.1373 185.535ZM86.8424 186.51C88.5354 187.605 89.3551 189.465 89.2671 191.241L78.3897 190.702C78.2975 192.562 79.1549 194.508 80.9287 195.655L86.8424 186.51ZM92.55 190.2L86.842 186.51L80.929 195.655L86.637 199.346L92.55 190.2ZM78.7299 205.305C81.4599 203.722 85.7377 201.878 91.3813 199.916L87.8057 189.629C81.9175 191.676 76.8824 193.787 73.2666 195.883L78.7299 205.305ZM76.2473 207.076C76.5747 206.726 77.3285 206.117 78.7298 205.305L73.2666 195.883C71.4822 196.918 69.6764 198.156 68.2886 199.642L76.2473 207.076ZM76.4445 206.122C76.426 206.63 76.2758 206.969 76.21 207.094C76.1502 207.208 76.1342 207.197 76.2473 207.076L68.2886 199.642C67.2449 200.759 65.6657 202.843 65.5609 205.727L76.4445 206.122ZM75.8244 209.206C75.9829 208.437 76.1387 207.801 76.266 207.32L65.7394 204.528C65.5646 205.187 65.3612 206.022 65.1582 207.006L75.8244 209.206ZM74.988 216.963C75.0207 213.847 75.4268 211.133 75.8244 209.206L65.1582 207.006C64.6538 209.451 64.1395 212.878 64.0979 216.848L74.988 216.963ZM81.7183 236.701C76.3122 230.516 74.9233 223.126 74.988 216.963L64.0979 216.848C64.0163 224.618 65.7564 234.988 73.5185 243.868L81.7183 236.701ZM11.4456 249.761C11.4456 252.387 9.40311 253.239 10.1555 252.793C10.4781 252.603 11.3086 252.231 12.8932 251.772C15.9795 250.879 20.7347 249.987 27.016 249.168C39.5034 247.541 57.2074 246.308 77.7718 245.728L77.465 234.842C56.7045 235.427 38.5994 236.676 25.6089 238.369C19.1514 239.21 13.7504 240.187 9.86537 241.311C7.96424 241.861 6.10522 242.536 4.60972 243.42C3.54404 244.051 0.554883 246.008 0.554883 249.761H11.4456ZM104.312 254.16C77.2858 254.16 52.8976 253.062 35.3376 251.304C26.5247 250.421 19.6057 249.389 14.9805 248.294C12.6238 247.736 11.1558 247.228 10.3909 246.854C9.99539 246.66 10.0777 246.64 10.3309 246.89C10.5927 247.148 11.4456 248.123 11.4456 249.761H0.554883C0.554883 252.079 1.75166 253.725 2.68472 254.645C3.60925 255.557 4.69018 256.189 5.60426 256.636C7.45853 257.544 9.8535 258.272 12.4717 258.892C17.7961 260.152 25.2745 261.241 34.2525 262.14C52.2743 263.945 77.0419 265.05 104.312 265.05V254.16ZM197.178 249.761C197.178 248.123 198.031 247.148 198.293 246.89C198.546 246.64 198.628 246.66 198.233 246.854C197.468 247.228 196 247.736 193.643 248.294C189.018 249.389 182.099 250.421 173.286 251.304C155.726 253.062 131.338 254.16 104.312 254.16V265.05C131.582 265.05 156.349 263.945 174.371 262.14C183.349 261.241 190.828 260.152 196.152 258.892C198.77 258.272 201.165 257.544 203.019 256.636C203.934 256.189 205.014 255.557 205.939 254.645C206.872 253.725 208.069 252.079 208.069 249.761H197.178ZM108.731 245.373C134.731 245.489 158.007 246.621 174.712 248.365C183.097 249.24 189.648 250.252 194.011 251.317C196.236 251.86 197.595 252.347 198.284 252.694C198.639 252.873 198.532 252.875 198.266 252.606C197.986 252.322 197.178 251.353 197.178 249.761H208.069C208.069 247.509 206.936 245.887 206.02 244.958C205.119 244.045 204.066 243.412 203.181 242.966C201.389 242.064 199.087 241.345 196.593 240.737C191.517 239.498 184.395 238.426 175.843 237.533C158.671 235.74 135.014 234.599 108.78 234.482L108.731 245.373ZM145.145 228.765C131.463 231.322 118.709 233.274 108.119 234.519L109.392 245.336C120.262 244.057 133.262 242.065 147.145 239.471L145.145 228.765ZM206.711 212.412C206.848 212.271 206.634 212.512 205.572 213.055C204.624 213.541 203.306 214.115 201.599 214.765C198.194 216.063 193.564 217.538 187.924 219.108C176.664 222.244 161.704 225.671 145.145 228.765L147.145 239.471C163.934 236.334 179.212 232.839 190.846 229.6C196.653 227.983 201.635 226.406 205.476 224.943C207.393 224.213 209.108 223.48 210.534 222.75C211.847 222.078 213.35 221.194 214.481 220.042L206.711 212.412ZM212.689 210.99L211.231 210.818L209.961 221.635L211.419 221.806L212.689 210.99ZM204.348 193.188C206.149 199.23 207.639 207.3 206.646 215.763L217.462 217.033C218.686 206.608 216.841 196.973 214.785 190.076L204.348 193.188ZM201.769 186.043C202.495 187.731 203.453 190.185 204.348 193.188L214.785 190.076C213.749 186.6 212.636 183.746 211.772 181.738L201.769 186.043ZM200.895 184.124C201.102 184.551 201.406 185.2 201.769 186.043L211.772 181.738C211.339 180.732 210.967 179.934 210.694 179.371L200.895 184.124ZM200.662 183.654C200.712 183.753 200.791 183.911 200.895 184.124L210.693 179.37C210.557 179.089 210.445 178.866 210.363 178.704L200.662 183.654ZM200.628 183.589L200.667 183.664L210.357 178.694L210.319 178.619L200.628 183.589ZM200.852 183.706C201.05 183.799 201.017 183.815 200.879 183.686C200.714 183.531 200.385 183.148 200.217 182.525L210.73 179.683C209.798 176.235 207.007 174.562 205.471 173.843L200.852 183.706ZM197.814 182.949C199.434 183.195 200.389 183.489 200.852 183.706L205.471 173.843C203.638 172.985 201.506 172.494 199.453 172.182L197.814 182.949ZM185.314 182.487C190.685 182.334 194.907 182.506 197.815 182.949L199.453 172.182C195.608 171.597 190.643 171.44 185.002 171.601L185.314 182.487ZM181.922 169.305L179.973 175.381L190.344 178.707L192.292 172.631L181.922 169.305ZM182.937 174.238C181.847 172.986 181.334 171.137 181.922 169.305L192.292 172.632C192.952 170.574 192.379 168.496 191.149 167.084L182.937 174.238ZM184.412 165.887L184.21 166.01L189.876 175.311L190.078 175.188L184.412 165.887ZM185.183 165.417L184.411 165.888L190.079 175.187L190.851 174.717L185.183 165.417ZM183.528 172.81C183.528 172.81 183.525 172.804 183.522 172.799C183.519 172.794 183.509 172.779 183.503 172.768C183.487 172.742 183.461 172.698 183.43 172.644C183.37 172.536 183.274 172.357 183.175 172.128C182.964 171.639 182.754 170.954 182.731 170.121C182.685 168.441 183.411 167.271 183.742 166.807C184.083 166.329 184.425 166.019 184.54 165.915C184.692 165.779 184.82 165.68 184.883 165.632C185.011 165.535 185.115 165.466 185.142 165.448C185.183 165.42 185.217 165.398 185.232 165.389C185.279 165.358 185.317 165.335 185.3 165.346C185.291 165.351 185.262 165.369 185.181 165.418L190.853 174.715C190.93 174.668 190.979 174.638 191.01 174.62C191.013 174.618 191.061 174.589 191.113 174.555C191.129 174.545 191.163 174.523 191.205 174.494C191.233 174.476 191.337 174.406 191.465 174.309C191.529 174.261 191.657 174.162 191.809 174.025C191.924 173.922 192.266 173.612 192.607 173.134C192.938 172.669 193.664 171.5 193.618 169.82C193.595 168.986 193.385 168.302 193.174 167.812C193.075 167.583 192.979 167.405 192.919 167.297C192.888 167.242 192.862 167.199 192.846 167.172C192.84 167.162 192.83 167.146 192.827 167.141C192.824 167.136 192.821 167.131 192.821 167.131L183.528 172.81ZM183.517 172.791L183.518 172.793L192.831 167.147L192.829 167.145L183.517 172.791ZM183.512 172.784L183.519 172.794L192.828 167.142L192.821 167.131L183.512 172.784ZM183.487 172.743L183.512 172.784L192.821 167.131L192.796 167.09L183.487 172.743ZM183.383 172.57L183.483 172.736L192.8 167.097L192.7 166.931L183.383 172.57ZM182.975 171.891C183.151 172.186 183.287 172.412 183.38 172.566L192.702 166.935C192.617 166.794 192.489 166.581 192.321 166.299L182.975 171.891ZM181.453 169.319C182.107 170.434 182.622 171.301 182.975 171.891L192.321 166.299C191.983 165.736 191.485 164.897 190.848 163.811L181.453 169.319ZM176.049 159.859C178.281 163.86 180.145 167.088 181.453 169.319L190.848 163.811C189.575 161.639 187.75 158.479 185.559 154.553L176.049 159.859ZM159.702 128.303C165.637 140.747 171.586 151.86 176.049 159.859L185.559 154.553C181.175 146.694 175.341 135.794 169.532 123.615L159.702 128.303ZM151.769 110.702C154.319 116.737 157.01 122.66 159.702 128.303L169.532 123.615C166.899 118.095 164.277 112.323 161.8 106.463L151.769 110.702ZM139.414 74.9334L151.637 110.359L161.932 106.806L149.709 71.3813L139.414 74.9334ZM136.099 50.8036C135.999 58.063 137.233 66.1328 139.273 74.454L149.85 71.8607C147.936 64.0511 146.906 56.9615 146.988 50.9528L136.099 50.8036ZM141.241 56.32L141.469 56.3231L141.618 45.4334L141.391 45.4302L141.241 56.32ZM139.443 33.8919L135.995 49.716L146.637 52.0342L150.084 36.2101L139.443 33.8919ZM147.083 30.2418C146.866 29.1417 147.172 28.2244 147.467 27.7186C147.696 27.3248 147.854 27.279 147.533 27.5271C146.873 28.0373 145.414 28.8704 142.653 30.0313L146.874 40.0707C149.834 38.8261 152.369 37.5531 154.191 36.146C155.774 34.9228 158.57 32.1999 157.768 28.1348L147.083 30.2418ZM147.895 32.0229C147.539 31.5701 147.226 30.9664 147.083 30.2417L157.768 28.1349C157.55 27.0302 157.071 26.0745 156.46 25.2966L147.895 32.0229ZM133.916 52.0808C133.935 54.6617 134.108 57.32 134.412 60.0309L145.235 58.8185C144.967 56.43 144.822 54.1538 144.807 52.0032L133.916 52.0808ZM136.853 57.287C137.641 57.3389 138.271 57.3986 138.749 57.4528L139.975 46.6313C139.323 46.5575 138.524 46.4827 137.569 46.4198L136.853 57.287ZM132.064 53.6295L134.676 61.2008L144.971 57.6486L142.359 50.0774L132.064 53.6295ZM122.328 57.6119C125.224 57.3669 127.733 57.2377 129.875 57.1833L129.599 46.2961C127.235 46.3561 124.512 46.4975 121.41 46.7599L122.328 57.6119ZM127.249 51.3358L127.224 51.2028L116.513 53.1691L116.537 53.3021L127.249 51.3358ZM127.3 51.6098C127.279 51.4985 127.262 51.4057 127.248 51.3318L116.538 53.306C116.553 53.3857 116.571 53.4841 116.592 53.6009L127.3 51.6098ZM122.547 58.0174L130.338 57.1517L129.136 46.3276L121.345 47.1933L122.547 58.0174ZM114.396 53.7006C114.403 53.7415 114.412 53.7874 114.421 53.838L125.13 51.855C125.121 51.8075 125.113 51.7648 125.106 51.7268L114.396 53.7006ZM114.363 53.5202L114.395 53.6969L125.107 51.7305L125.074 51.5538L114.363 53.5202ZM114.353 53.4685L114.361 53.5135L125.076 51.5605L125.067 51.5155L114.353 53.4685ZM114.351 53.4543L114.353 53.4658L125.068 51.5182L125.066 51.5067L114.351 53.4543ZM114.35 53.4492L114.35 53.4522L125.066 51.5088L125.066 51.5058L114.35 53.4492ZM119.809 46.9241C119.274 47.021 119.002 47.0703 118.863 47.0956C118.8 47.1072 118.748 47.1168 118.709 47.124C118.698 47.1262 118.68 47.1296 118.659 47.1337C118.645 47.1366 118.596 47.1462 118.536 47.1596C118.506 47.1662 118.444 47.18 118.367 47.1997C118.315 47.213 118.126 47.2608 117.893 47.3434C117.775 47.3851 117.547 47.4698 117.273 47.6066C117.038 47.7242 116.49 48.015 115.927 48.558C115.265 49.1965 114.583 50.1888 114.346 51.5286C114.15 52.6351 114.373 53.5806 114.349 53.4466L125.066 51.5084C125.042 51.3744 125.265 52.3199 125.07 53.4264C124.833 54.7661 124.15 55.7584 123.488 56.3969C122.925 56.9398 122.378 57.2306 122.142 57.3481C121.869 57.4849 121.641 57.5696 121.523 57.6112C121.29 57.6938 121.102 57.7415 121.05 57.7546C120.974 57.7741 120.913 57.7878 120.884 57.7942C120.825 57.8071 120.78 57.8161 120.77 57.818C120.754 57.8212 120.742 57.8234 120.739 57.8239C120.734 57.8249 120.749 57.8221 120.819 57.8092C120.949 57.7856 121.213 57.7377 121.749 57.6405L119.809 46.9241ZM119.812 46.9235L119.807 46.9245L121.752 57.6401L121.757 57.6391L119.812 46.9235ZM107.274 59.5233C112.664 58.6409 117.315 58.0663 121.28 57.7041L120.289 46.8585C116.054 47.2455 111.146 47.8537 105.515 48.7757L107.274 59.5233ZM104.324 60.0298C105.275 59.8588 106.258 59.6898 107.274 59.5233L105.515 48.7757C104.443 48.9512 103.404 49.1298 102.396 49.3111L104.324 60.0298ZM103.962 60.0825L120.377 58.2586L119.174 47.4345L102.759 49.2584L103.962 60.0825ZM79.6022 67.5555C80.0605 67.2747 80.7981 66.8599 81.8809 66.3512L77.2505 56.4939C75.8286 57.1618 74.7352 57.7651 73.9126 58.2691L79.6022 67.5555ZM82.1091 61.6129C81.9835 61.2947 81.8688 61.0167 81.7666 60.7768L71.7482 65.0477C71.8116 65.1964 71.8893 65.3843 71.9799 65.6137L82.1091 61.6129ZM83.8051 66.6214C83.1423 64.3838 82.5558 62.7439 82.1092 61.613L71.9799 65.6136C72.3017 66.4285 72.7852 67.7645 73.3628 69.7145L83.8051 66.6214ZM87.4055 82.8656C86.186 75.5737 84.8919 70.2904 83.8051 66.6214L73.3628 69.7145C74.3103 72.9133 75.5097 77.7597 76.6639 84.662L87.4055 82.8656ZM87.4471 83.1657L84.9781 60.8244L74.1533 62.0207L76.6223 84.3619L87.4471 83.1657ZM79.7238 112.379C80.5102 124.281 80.9247 138.827 80.6394 156.466L91.5287 156.643C91.8182 138.738 91.3989 123.892 90.5908 111.661L79.7238 112.379ZM88.6192 161.374C88.8885 161.232 89.1967 161.073 89.5435 160.899L84.6508 151.169C84.2439 151.373 83.8765 151.563 83.5488 151.735L88.6192 161.374ZM89.5434 160.899C90.2475 160.545 91.1106 160.127 92.131 159.663L87.6185 149.751C86.4673 150.275 85.4774 150.753 84.6509 151.169L89.5434 160.899ZM95.2872 154.109L90.5697 111.422L79.7449 112.618L84.4624 155.305L95.2872 154.109ZM87.8295 152.052C86.9957 152.44 86.262 152.797 85.6295 153.115L90.5219 162.845C91.058 162.575 91.6924 162.266 92.4244 161.926L87.8295 152.052ZM85.6294 153.115C84.7031 153.581 83.9935 153.963 83.5034 154.236L88.8038 163.75C89.1633 163.549 89.737 163.239 90.522 162.845L85.6294 153.115ZM83.4943 154.241L83.3799 154.305L88.6986 163.808L88.813 163.744L83.4943 154.241ZM80.5949 158.95C80.409 168.446 80.0224 178.815 79.3868 190.123L90.2603 190.734C90.903 179.301 91.2949 168.799 91.4836 159.163L80.5949 158.95ZM87.1118 195.37C88.4529 194.749 91.2085 193.533 95.3319 191.997L91.5319 181.791C87.1329 183.429 84.1184 184.754 82.5352 185.487L87.1118 195.37ZM98.8443 186.296L95.5393 156.39L84.7145 157.587L88.0195 187.492L98.8443 186.296ZM178.565 176.333C181.051 176.204 183.585 176.098 186.165 176.017L185.825 165.132C183.17 165.215 180.562 165.324 178.003 165.456L178.565 176.333ZM190.662 167.77C190.601 167.668 190.531 167.55 190.452 167.418L181.106 173.009C181.188 173.148 181.263 173.271 181.328 173.38L190.662 167.77ZM190.451 167.418C190.111 166.849 189.609 166.004 188.969 164.913L179.574 170.42C180.231 171.542 180.749 172.414 181.106 173.009L190.451 167.418ZM188.969 164.913C187.689 162.729 185.856 159.555 183.657 155.614L174.147 160.92C176.388 164.937 178.259 168.177 179.574 170.42L188.969 164.913ZM183.657 155.614C179.655 148.44 174.445 138.734 169.143 127.828L159.349 132.589C164.761 143.724 170.071 153.615 174.147 160.92L183.657 155.614ZM159.098 131.985L173.136 172.67L183.431 169.118L169.394 128.432L159.098 131.985ZM183.49 173.831C170.884 174.313 153.899 176.355 135.485 179.812L137.495 190.516C155.55 187.126 171.982 185.17 183.907 184.714L183.49 173.831ZM199.125 174.335C195.138 173.729 189.76 173.591 183.49 173.831L183.907 184.714C189.919 184.484 194.502 184.648 197.487 185.102L199.125 174.335ZM204.547 175.816C202.987 175.085 201.091 174.635 199.125 174.335L197.487 185.102C198.215 185.213 198.784 185.332 199.212 185.445C199.653 185.561 199.87 185.651 199.928 185.679L204.547 175.816ZM208.715 180.619C208.163 177.905 205.997 176.495 204.547 175.816L199.928 185.679C200.007 185.715 199.708 185.592 199.306 185.195C198.894 184.786 198.287 183.995 198.042 182.788L208.715 180.619ZM203.36 176.151L202.294 176.367L204.463 187.04L205.529 186.823L203.36 176.151ZM199.128 185.267C199.85 186.229 200.918 186.983 202.211 187.294C203.224 187.537 204.045 187.425 204.362 187.374C204.996 187.27 205.471 187.069 205.502 187.057C205.639 187.003 205.743 186.954 205.781 186.936C205.83 186.914 205.869 186.895 205.89 186.884C205.931 186.864 205.963 186.848 205.974 186.842C205.989 186.835 206 186.829 206.007 186.825C206.027 186.815 206.046 186.804 206.053 186.801C206.073 186.79 206.108 186.771 206.168 186.739C206.29 186.674 206.532 186.545 207.009 186.29L201.879 176.684C201.402 176.939 201.163 177.066 201.044 177.13C200.983 177.162 200.957 177.176 200.947 177.181C200.938 177.186 200.949 177.18 200.966 177.171C200.971 177.169 200.982 177.163 200.996 177.156C201.006 177.151 201.038 177.134 201.079 177.114C201.099 177.104 201.138 177.085 201.187 177.062C201.225 177.045 201.329 176.996 201.466 176.942C201.497 176.93 201.973 176.729 202.606 176.625C202.923 176.574 203.745 176.462 204.757 176.705C206.051 177.016 207.118 177.77 207.84 178.732L199.128 185.267ZM136.747 190.603L203.741 187.439L203.227 176.56L136.233 179.725L136.747 190.603ZM144.683 226.294C161.066 223.232 176.108 221.04 187.693 219.887C193.494 219.31 198.349 219.002 202.035 218.965C203.881 218.946 205.356 218.997 206.468 219.099C207.681 219.211 208.106 219.356 208.072 219.343L212.074 209.214C210.642 208.648 208.976 208.394 207.468 208.255C205.861 208.107 203.988 208.054 201.925 208.075C197.794 208.116 192.587 208.456 186.615 209.05C174.651 210.24 159.294 212.484 142.682 215.588L144.683 226.294ZM83.1134 242.65C82.9807 242.785 83.2012 242.542 84.2643 241.999C85.215 241.513 86.5342 240.938 88.2419 240.288C91.6497 238.991 96.2794 237.516 101.919 235.946C113.177 232.812 128.131 229.386 144.683 226.294L142.682 215.588C125.901 218.724 110.63 222.216 98.9976 225.455C93.1913 227.071 88.2091 228.647 84.367 230.11C82.4497 230.84 80.7345 231.572 79.3072 232.302C77.9924 232.974 76.4915 233.855 75.3599 235.002L83.1134 242.65ZM66.2759 216.871C66.1978 224.311 67.8633 234.07 75.1327 242.405L83.3406 235.247C78.4189 229.604 77.1048 222.818 77.166 216.985L66.2759 216.871ZM67.2914 207.446C66.8084 209.788 66.3158 213.072 66.2759 216.871L77.166 216.985C77.1969 214.041 77.5814 211.47 77.9576 209.646L67.2914 207.446ZM67.9624 204.654C67.7758 205.323 67.5337 206.271 67.2914 207.446L77.9576 209.646C78.1445 208.74 78.3261 208.034 78.4534 207.577L67.9624 204.654ZM68.1947 203.862C68.1355 204.052 68.0558 204.319 67.9624 204.654L78.4534 207.577C78.5169 207.349 78.5665 207.185 78.596 207.09L68.1947 203.862ZM68.2235 203.77L68.1989 203.848L78.5917 207.104L78.6162 207.025L68.2235 203.77ZM69.8803 201.129C69.5038 201.532 69.1488 201.971 68.8393 202.453L78.0004 208.342C77.8935 208.508 77.8219 208.581 77.839 208.563L69.8803 201.129ZM74.3592 197.768C72.6524 198.757 71.0565 199.87 69.8803 201.129L77.839 208.563C77.868 208.532 78.0212 208.38 78.3765 208.118C78.7213 207.865 79.1954 207.553 79.8225 207.189L74.3592 197.768ZM88.663 191.637C82.7599 193.683 77.8252 195.758 74.3593 197.768L79.8225 207.189C82.397 205.696 86.5692 203.889 92.2295 201.928L88.663 191.637ZM135.485 179.812C117.072 183.27 100.535 187.523 88.663 191.637L92.2295 201.928C103.452 198.038 119.439 193.906 137.495 190.516L135.485 179.812ZM212.077 209.215L138.493 180.101L134.487 190.228L208.07 219.342L212.077 209.215ZM215.502 214.706C216.229 205.475 214.566 196.967 212.697 190.698L202.261 193.81C203.888 199.269 205.234 206.374 204.645 213.851L215.502 214.706ZM212.697 190.698C211.689 187.317 210.608 184.543 209.772 182.599L199.768 186.904C200.467 188.528 201.394 190.901 202.261 193.81L212.697 190.698ZM209.772 182.599C209.353 181.626 208.994 180.857 208.734 180.321L198.935 185.075C199.129 185.475 199.419 186.094 199.768 186.904L209.772 182.599ZM208.734 180.321C208.604 180.053 208.498 179.843 208.423 179.694L198.721 184.644C198.766 184.73 198.838 184.875 198.935 185.075L208.734 180.321ZM208.422 179.694C208.384 179.619 208.354 179.561 208.332 179.518L198.677 184.558C198.685 184.572 198.7 184.601 198.722 184.645L208.422 179.694ZM208.326 179.507L208.31 179.477L198.667 184.538L198.683 184.569L208.326 179.507ZM208.298 179.454L208.295 179.448L198.675 184.553L198.678 184.56L208.298 179.454ZM208.289 179.438L208.289 179.437L198.679 184.562L198.68 184.563L208.289 179.438ZM198.149 183.089L204.738 215.367L215.409 213.189L208.819 180.91L198.149 183.089ZM78.769 234.806L78.2162 234.821L78.5104 245.707L79.0632 245.693L78.769 234.806ZM73.4344 241.118C73.6776 242.196 74.18 243.075 74.7419 243.746L83.0903 236.752C83.4787 237.216 83.8673 237.875 84.058 238.72L73.4344 241.118ZM82.008 244.31L82.3908 243.965L75.1015 235.873L74.7186 236.218L82.008 244.31ZM203.227 176.56L136.233 179.725L136.747 190.603L203.741 187.439L203.227 176.56ZM134.487 190.228L208.07 219.342L212.077 209.215L138.493 180.101L134.487 190.228Z" fill="white"/>
<path d="M77.6901 239.265L70.5568 205.381H68.7734L146.17 178.275L203.951 181.485L207.517 212.871L77.6901 239.265Z" fill="white"/>
<path d="M152.176 29.7459C152.176 29.7459 152.356 15.6342 149.339 8.59633C142.886 5.33602 131.816 6.44761 131.816 6.44761C131.816 6.44761 122.911 21.0922 108.261 8.59633L87.1217 12.5578C87.1217 12.5578 82.4075 30.7154 63.8965 18.7512C63.8965 18.7512 52.6761 21.0922 47.6396 28.3366C49.8587 40.6811 57.424 48.5937 57.424 48.5937" stroke="#262626" stroke-width="1.16168" stroke-miterlimit="10" stroke-linecap="round" stroke-linejoin="round"/>
<path d="M75.4407 62.912C75.4407 62.912 89.4474 90.1138 83.7022 191.23" stroke="#262626" stroke-width="1.16168" stroke-miterlimit="10"/>
<path d="M187.245 170.802C187.245 170.802 139.88 93.0682 140.454 51.1282" stroke="#262626" stroke-width="1.16168" stroke-miterlimit="10"/>
<path d="M72.1215 206.599C71.0199 201.178 99.7486 191.22 136.289 184.359C172.829 177.498 203.344 176.331 204.445 181.752" stroke="#262626" stroke-width="1.16168" stroke-miterlimit="10"/>
<path d="M146.144 234.383C182.69 227.554 211.766 219.068 211.086 215.43C210.406 211.791 180.228 214.377 143.682 221.206C107.136 228.035 78.0607 236.521 78.7407 240.16C79.4206 243.798 109.598 241.212 146.144 234.383Z" fill="#262626" stroke="#262626" stroke-width="1.16168" stroke-miterlimit="10"/>
<path d="M72.429 205.187C72.429 205.187 65.5294 225.51 78.7479 240.183" stroke="#262626" stroke-width="1.16168" stroke-miterlimit="10"/>
<path d="M204.445 181.752C204.445 181.752 213.144 198.041 210.973 216.536" stroke="#262626" stroke-width="1.16168" stroke-miterlimit="10"/>
<path d="M104.312 259.87C158.608 259.87 202.623 255.463 202.623 250.026C202.623 244.59 158.608 240.182 104.312 240.182C50.0156 240.182 6 244.59 6 250.026C6 255.463 50.0156 259.87 104.312 259.87Z" fill="#262626"/>
<path d="M90.7324 57.7445C90.7324 57.7445 110.185 109.695 108.505 182.237" stroke="#262626" stroke-width="1.16168" stroke-miterlimit="10"/>
<path d="M120.779 52.5472C120.779 52.5472 135.474 133.698 158.848 172.688" stroke="#262626" stroke-width="1.16168" stroke-miterlimit="10"/>
<path d="M81.4443 87.5866C81.4443 87.5866 107.341 76.0185 144.226 76.5113" stroke="#262626" stroke-width="1.16168" stroke-miterlimit="10"/>
<path d="M116.305 118.186C116.305 118.186 143.801 110.43 157.177 112.618" stroke="#262626" stroke-width="1.16168" stroke-miterlimit="10"/>
<path d="M84.9651 158.685C84.9651 158.685 99.0682 150.072 125.783 145.763" stroke="#262626" stroke-width="1.16168" stroke-miterlimit="10"/>
<path d="M105.764 46.3249L144.763 35.3159L141.009 52.5472C141.009 52.5472 130.955 50.3927 106.394 54.4144C81.8335 58.436 75.5137 64.0376 75.5137 64.0376L65.2115 50.9648C58.4976 50.9827 56.5306 50.1559 56.1903 48.4301C55.3862 44.3525 75.5137 35.4552 102.852 31.5584C129.667 27.7362 151.621 25.3755 152.426 29.4531C152.751 31.1036 150.484 32.9104 144.763 35.3159" fill="#262626"/>
<path d="M105.764 46.3249L144.763 35.3159L141.009 52.5472C141.009 52.5472 130.955 50.3927 106.394 54.4144C81.8335 58.436 75.5137 64.0376 75.5137 64.0376L65.2115 50.9648C58.4976 50.9827 56.5306 50.1559 56.1903 48.4301C55.3862 44.3525 75.5137 35.4552 102.852 31.5584C129.667 27.7362 151.621 25.3755 152.426 29.4531C152.751 31.1036 150.484 32.9104 144.763 35.3159" stroke="#262626" stroke-width="1.16168" stroke-miterlimit="10"/>
<path d="M184.717 178.411C182.628 178.451 143.472 179.4 90.8773 195.815C90.8423 195.826 90.8042 195.821 90.7735 195.801L83.8852 191.348C83.8045 191.295 83.8098 191.176 83.8961 191.134C86.821 189.702 122.847 172.684 186.791 170.816C187.012 170.809 187.174 171.023 187.107 171.233L184.832 178.325C184.816 178.376 184.77 178.41 184.717 178.411Z" fill="#262626" stroke="#262626" stroke-width="1.16168" stroke-miterlimit="10"/>
</g>
</svg>
