<svg width="167" height="164" viewBox="0 0 167 164" fill="none" xmlns="http://www.w3.org/2000/svg">
<g filter="url(#filter0_d_943_2495)">
<path fill-rule="evenodd" clip-rule="evenodd" d="M79.9498 9.02536C76.986 9.21312 75.1734 9.3885 73.0821 9.68961C62.3434 11.236 52.255 15.1017 43.2395 21.1251C33.5509 27.5982 25.664 36.169 19.9486 46.436C19.169 47.8364 17.7351 50.7357 17.0803 52.2357C13.7544 59.854 11.8793 67.3367 11.1616 75.8537C11.0081 77.6759 10.9457 83.2176 11.0555 85.2758C11.4356 92.3988 12.7975 99.2749 15.1212 105.802C22.4301 126.334 38.6381 142.519 59.229 149.847C60.7043 150.373 61.358 150.481 62.36 150.367C63.7086 150.214 64.6399 149.613 65.1783 148.55C65.5894 147.738 65.581 147.935 65.5299 140.3C65.4934 134.828 65.4642 133.309 65.3958 133.309C65.3478 133.309 64.8353 133.387 64.2569 133.483C58.5333 134.434 53.6432 134.273 49.7919 133.008C45.7267 131.673 42.8393 129.054 41.3496 125.352C40.4335 123.075 38.8082 120.2 37.2211 118.049C36.1016 116.531 34.8123 115.235 33.8126 114.622C31.709 113.333 30.6677 112.392 30.351 111.494C29.9597 110.385 31.349 109.737 33.9292 109.824C35.4505 109.876 36.4904 110.138 37.9295 110.831C39.4112 111.545 40.6075 112.448 42.0713 113.955C43.1387 115.054 43.9686 116.116 44.8309 117.485C46.7329 120.506 48.7796 122.452 51.3816 123.714C54.507 125.23 58.0495 125.5 62.0379 124.526C63.4283 124.187 65.7628 123.343 65.8307 123.155C65.8461 123.113 65.9379 122.645 66.0347 122.116C66.6396 118.813 67.984 116.017 69.8992 114.079C70.2221 113.752 70.473 113.474 70.4567 113.46C70.4404 113.447 69.758 113.349 68.9402 113.243C59.7176 112.045 53.0146 109.503 47.9901 105.298C46.9336 104.414 45.2848 102.734 44.4541 101.696C40.6317 96.9178 38.4271 90.7895 37.7176 82.9692C37.4123 79.6047 37.4249 76.1711 37.7516 73.6589C38.4626 68.1933 40.7134 63.108 44.239 59.0019C44.507 58.6898 44.7684 58.3812 44.8197 58.3162C44.8989 58.2161 44.87 58.0694 44.6283 57.3465C43.8322 54.9655 43.4895 52.7226 43.4881 49.8856C43.4866 46.7511 43.9757 43.8171 45.0048 40.7875C45.6187 38.9804 45.604 39.0107 45.892 38.9492C46.0297 38.9198 46.684 38.8976 47.346 38.9C49.5692 38.908 51.8584 39.4483 55.0633 40.7213C57.8138 41.8138 61.9982 44.0783 64.9956 46.0964L65.5115 46.4437L67.2259 46.0178C71.5747 44.9372 75.5107 44.3482 80.0914 44.0925C82.0056 43.9856 87.2527 44.0486 89.0123 44.1996C93.075 44.5482 96.7454 45.1521 100.283 46.0541L101.819 46.4457L102.337 46.0972C109.111 41.5331 115.653 38.8603 120.052 38.8603C120.8 38.8603 121.617 38.9434 121.701 39.028C121.715 39.0418 121.885 39.4893 122.079 40.0226C123.836 44.847 124.322 49.9997 123.45 54.5427C123.284 55.4055 122.889 56.8842 122.639 57.5747L122.415 58.1931L122.672 58.4919C125.94 62.3013 127.887 65.975 128.979 70.3918C129.622 72.9886 129.829 74.8791 129.823 78.084C129.809 85.1682 128.687 90.9983 126.361 96.0674C123.855 101.529 119.704 105.852 114.251 108.68C109.716 111.031 104.255 112.556 97.5261 113.35C97.1269 113.397 96.8004 113.455 96.8004 113.48C96.8004 113.504 97.0266 113.746 97.3032 114.017C99.803 116.472 101.298 120.35 101.615 125.202C101.665 125.962 101.674 129.802 101.641 136.884C101.596 146.778 101.601 147.46 101.717 147.858C102.073 149.088 102.775 149.843 103.932 150.241C104.338 150.38 104.552 150.405 105.332 150.404C106.368 150.403 106.431 150.389 108.245 149.732C113.647 147.777 118.749 145.194 123.634 141.94C130.171 137.587 135.922 132.245 140.743 126.05C149.389 114.938 154.617 101.542 155.773 87.5359C156 84.7894 156.066 80.2029 155.917 77.5176C154.648 54.6073 142.816 33.8696 123.74 21.1251C113.348 14.1821 101.83 10.2032 89.0831 9.15273C87.799 9.04695 81.087 8.95335 79.9498 9.02536Z" fill="#262626"/>
<path d="M79.6969 5.03336L79.697 5.03335C80.4584 4.98514 82.6103 4.99617 84.5172 5.02276C86.4435 5.04963 88.6017 5.09953 89.4115 5.16623L89.4116 5.16624C102.819 6.27115 114.992 10.4696 125.962 17.7991C146.084 31.2425 158.573 53.1304 159.911 77.2963C160.07 80.1695 160.001 84.94 159.76 87.8649C158.54 102.647 153.023 116.782 143.9 128.506C138.815 135.041 132.746 140.678 125.851 145.27C120.705 148.697 115.317 151.427 109.606 153.494L109.468 153.543C108.721 153.814 108.023 154.067 107.396 154.212C106.563 154.404 105.89 154.404 105.393 154.404L105.335 154.404C104.413 154.405 103.671 154.38 102.634 154.024C102.633 154.024 102.633 154.024 102.633 154.024L103.932 150.241C102.775 149.843 102.073 149.088 101.717 147.858L79.6969 5.03336ZM79.6969 5.03336C76.6658 5.22539 74.741 5.4095 72.512 5.73044L72.512 5.73045M79.6969 5.03336L72.512 5.73045M72.512 5.73045C61.1826 7.36186 50.5298 11.4438 41.0174 17.7991C30.7963 24.6279 22.4751 33.6737 16.4537 44.4904C15.6103 46.0054 14.1195 49.0201 13.4144 50.6353C9.90845 58.666 7.92908 66.5771 7.17574 75.5179L7.17573 75.518M72.512 5.73045L7.17573 75.518M7.17573 75.518C7.00507 77.5439 6.9428 83.2703 7.06116 85.489L11.055 85.2759M7.17573 75.518L11.055 85.2759M11.055 85.2759L7.06117 85.489C7.46123 92.9856 8.89608 100.242 11.3529 107.144C19.0662 128.812 36.168 145.886 57.8878 153.616L59.229 149.847L11.055 85.2759ZM69.5908 124.519C69.3395 125.212 68.9592 125.665 68.781 125.861C68.5731 126.091 68.3787 126.252 68.2588 126.346C68.0202 126.533 67.8036 126.662 67.6889 126.727C67.4429 126.868 67.1984 126.981 67.0256 127.058C66.6554 127.222 66.2169 127.391 65.7903 127.545C64.9423 127.852 63.8667 128.197 62.9868 128.412L69.5908 124.519ZM69.5908 124.519C69.5912 124.518 69.5917 124.517 69.5921 124.516C69.6569 124.337 69.6959 124.187 69.7032 124.159L69.704 124.156C69.7181 124.102 69.7289 124.056 69.7353 124.029C69.7485 123.972 69.7603 123.918 69.7689 123.877C69.7869 123.792 69.8071 123.691 69.8272 123.589C69.8682 123.38 69.9185 123.114 69.9693 122.837L66.3809 122.18L69.9693 122.837C70.4633 120.139 71.5136 118.136 72.7444 116.89L72.7445 116.89C72.9348 116.698 73.1227 116.501 73.2761 116.33C73.3445 116.255 73.4499 116.136 73.554 116.005L73.5543 116.004C73.5917 115.957 73.7166 115.8 73.8466 115.591L73.848 115.589C73.8957 115.512 74.0775 115.22 74.2234 114.812C74.2903 114.625 74.4539 114.135 74.4574 113.484C74.461 112.809 74.2709 111.412 72.9881 110.363C72.9859 110.362 72.9838 110.36 72.9816 110.358C72.5489 110.006 72.1422 109.831 72.0439 109.789L72.0386 109.786C71.8796 109.718 71.7491 109.674 71.6815 109.652C71.5427 109.607 71.4308 109.58 71.3865 109.569C71.2854 109.545 71.2019 109.529 71.1691 109.522C71.09 109.507 71.0138 109.495 70.9626 109.486C70.8504 109.468 70.7121 109.448 70.5666 109.427C70.2698 109.384 69.8766 109.331 69.4554 109.276C60.686 108.137 54.8008 105.782 50.5572 102.231C49.6973 101.511 48.2363 100.021 47.5776 99.1973C44.367 95.1838 42.3598 89.8663 41.7012 82.6078C41.4142 79.4452 41.4395 76.3182 41.7182 74.1748M69.5908 124.519L41.7182 74.1748M41.7182 74.1748C41.7182 74.1749 41.7182 74.1749 41.7182 74.1749L37.9806 73.6887L41.7182 74.1748ZM47.2738 61.6077L44.2754 59.0332L47.2737 61.6078L47.2738 61.6077ZM47.2738 61.6077C47.5149 61.3269 47.8424 60.9425 47.9572 60.7974L47.2738 61.6077ZM48.4219 56.0781L48.4219 56.0781L48.4307 56.1044C48.5292 56.3988 48.6841 56.862 48.7687 57.2906C48.8153 57.527 48.9059 58.0516 48.8292 58.6968C48.7341 59.4955 48.4189 60.2134 47.9575 60.797L48.4219 56.0781ZM48.4219 56.0781C47.7788 54.1548 47.4893 52.3454 47.4881 49.8837C47.487 47.5051 47.8115 45.2738 48.5041 42.9732M48.4219 56.0781L48.5041 42.9732M48.5041 42.9732C49.788 43.1275 51.3428 43.5475 53.5866 44.4388L53.5867 44.4388C56.0204 45.4055 59.9516 47.5226 62.7617 49.4145L62.7618 49.4146L63.2777 49.7619L64.7516 50.7541L66.476 50.3257L68.1904 49.8998L68.1905 49.8997C72.2904 48.881 75.9778 48.3283 80.3143 48.0863L80.3144 48.0863C82.0562 47.989 87.1138 48.0514 88.6702 48.185L88.6704 48.185C92.5399 48.517 95.9921 49.088 99.2951 49.9301L100.831 50.3217L102.568 50.7646L104.055 49.7629L104.572 49.4145C104.572 49.4144 104.572 49.4144 104.572 49.4143C110.396 45.4906 115.529 43.3877 118.833 42.9479C119.935 46.6843 120.155 50.4913 119.522 53.7886C119.388 54.4838 119.044 55.7548 118.878 56.2137L118.878 56.2139L118.654 56.8323L117.86 59.0264L119.379 60.7975L119.636 61.0963L119.636 61.0964C122.54 64.4812 124.169 67.6025 125.096 71.3521C125.647 73.5771 125.828 75.1356 125.823 78.0764C125.81 84.737 124.757 89.9719 122.726 94.3991C120.6 99.0314 117.09 102.702 112.41 105.129L48.5041 42.9732ZM97.717 117.361C97.7175 117.361 97.718 117.361 97.7186 117.361C97.7076 117.363 97.7063 117.363 97.717 117.361ZM39.8635 116.099L39.8634 116.099L39.8635 116.099L39.8636 116.099L39.8635 116.099ZM51.0401 129.208C48.1923 128.272 46.3185 126.604 45.26 124.32L65.1783 148.55L68.747 150.357C68.747 150.357 68.747 150.357 68.747 150.357C68.7514 150.348 68.7575 150.336 68.7651 150.322C68.8483 150.162 69.1138 149.654 69.2837 149.004C69.4513 148.363 69.4994 147.726 69.5238 147.154C69.5691 146.091 69.5567 144.262 69.5344 140.961L69.5298 140.273C69.5116 137.542 69.495 135.769 69.4741 134.676C69.4638 134.14 69.4516 133.714 69.4341 133.405C69.4264 133.27 69.4123 133.05 69.38 132.822L69.3798 132.821C69.368 132.738 69.3272 132.45 69.2187 132.111C69.173 131.967 69.0322 131.539 68.7132 131.069C68.4751 130.718 67.4273 129.309 65.3958 129.309C65.2038 129.309 65.0472 129.323 65.0191 129.326L65.0162 129.326C64.9612 129.331 64.9148 129.337 64.8866 129.34L64.8662 129.342C64.8153 129.349 64.7669 129.355 64.7286 129.36C64.638 129.373 64.5304 129.389 64.4191 129.406C64.1929 129.441 63.9035 129.487 63.6019 129.537L63.6017 129.537C58.2582 130.424 54.071 130.203 51.0401 129.208ZM122.079 40.0226C123.836 44.847 124.322 49.9997 123.45 54.5427C123.284 55.4055 122.889 56.8842 122.639 57.5747L122.079 40.0226Z" stroke="white" stroke-width="8"/>
</g>
<mask id="path-3-inside-1_943_2495" fill="white">
<path fill-rule="evenodd" clip-rule="evenodd" d="M79.8504 9.04022C66.4511 9.77804 54.0613 13.8795 43.1671 21.184C31.618 28.9274 22.5403 39.7687 17.0031 52.4312C13.6311 60.1423 11.7362 67.9601 11.0892 76.8305C10.971 78.4498 10.9701 84.3806 11.0877 86.0346C11.8835 97.2258 14.8228 107.277 20.0421 116.656C24.4178 124.519 30.454 131.761 37.339 137.409C43.8966 142.788 51.2995 146.985 59.1675 149.785C60.6014 150.295 60.884 150.357 61.7528 150.356C63.8075 150.353 65.1752 149.258 65.4721 147.38C65.526 147.039 65.4517 133.383 65.3958 133.332C65.3825 133.321 64.9097 133.387 64.3451 133.48C59.9216 134.211 55.811 134.293 52.4959 133.718C46.9125 132.748 43.0561 129.832 41.2159 125.189C40.5525 123.515 39.3577 121.294 38.1292 119.453C37.1076 117.921 36.364 116.991 35.354 115.983C34.5213 115.152 34.2365 114.918 33.5905 114.532C31.5078 113.288 30.2185 111.99 30.2194 111.137C30.2203 110.23 31.3494 109.779 33.6168 109.782C36.4918 109.785 39.0416 110.95 41.6092 113.434C42.8799 114.663 43.7993 115.807 44.8176 117.424C47.9155 122.344 51.7369 124.754 56.911 125.049C59.2681 125.184 62.5142 124.547 65.1947 123.422L65.7965 123.17L65.9257 122.373C66.3648 119.665 67.4439 117.002 68.8537 115.147C69.0368 114.906 69.4538 114.434 69.7803 114.097C70.1068 113.76 70.3477 113.47 70.3155 113.451C70.2833 113.432 70.0339 113.394 69.7613 113.367C69.4887 113.34 68.7241 113.239 68.0621 113.144C59.3792 111.897 53.2783 109.575 48.3087 105.627C47.259 104.793 45.2553 102.794 44.4239 101.752C41.4847 98.0681 39.4761 93.5404 38.4037 88.1818C37.7083 84.7071 37.3853 80.9204 37.4628 77.1491C37.5181 74.4569 37.7375 72.6866 38.2994 70.3989C39.3474 66.1323 41.4015 62.17 44.2969 58.8294L44.8574 58.1827L44.6492 57.5945C43.8085 55.2195 43.429 52.8085 43.431 49.8554C43.4328 47.2716 43.6753 45.3542 44.3131 42.8816C44.5988 41.7739 45.2686 39.6972 45.4954 39.2154C45.6493 38.8885 45.8046 38.8555 47.2113 38.8503C51.3953 38.835 57.178 41.0798 63.8141 45.2955C64.476 45.716 65.1262 46.1355 65.2588 46.2277L65.4999 46.3953L66.9934 46.0163C77.9108 43.2462 90.0116 43.2863 100.748 46.1283L101.785 46.4029L102.624 45.8434C106.267 43.4125 110.371 41.26 113.451 40.1639C116.358 39.1292 119.083 38.6437 120.879 38.8404C121.427 38.9004 121.613 38.9487 121.701 39.0535C121.856 39.2392 122.767 42.0072 123.031 43.094C123.319 44.2783 123.57 45.6691 123.721 46.9172C123.876 48.1949 123.896 51.2986 123.758 52.5105C123.56 54.236 123.179 55.99 122.7 57.3799L122.425 58.175L123.053 58.9005C125.381 61.591 127.307 64.9883 128.421 68.3698C128.972 70.0417 129.405 72.0418 129.662 74.1047C129.907 76.0686 129.87 80.4639 129.584 83.415C128.472 94.8658 123.955 102.897 115.878 107.784C112.767 109.666 109.019 111.121 104.666 112.135C102.706 112.592 99.1579 113.197 97.4444 113.367C97.1718 113.394 96.9216 113.432 96.8883 113.452C96.855 113.471 97.0825 113.746 97.3938 114.063C99.7976 116.506 101.207 120.109 101.592 124.798C101.656 125.567 101.666 128.522 101.632 136.551C101.583 148.266 101.567 147.709 101.985 148.535C102.259 149.075 102.491 149.354 102.951 149.693C103.463 150.07 103.966 150.261 104.69 150.351C105.612 150.467 106.347 150.348 107.693 149.867C112.689 148.078 117.37 145.827 121.658 143.148C140.98 131.081 153.516 110.86 155.638 88.3357C156.035 84.1295 156.06 79.5659 155.71 75.3437C153.656 50.5621 138.864 28.4529 116.667 16.9888C107.885 12.453 98.5468 9.86371 88.2403 9.10628C86.873 9.00582 81.276 8.96171 79.8504 9.04022Z"/>
</mask>
<path fill-rule="evenodd" clip-rule="evenodd" d="M79.8504 9.04022C66.4511 9.77804 54.0613 13.8795 43.1671 21.184C31.618 28.9274 22.5403 39.7687 17.0031 52.4312C13.6311 60.1423 11.7362 67.9601 11.0892 76.8305C10.971 78.4498 10.9701 84.3806 11.0877 86.0346C11.8835 97.2258 14.8228 107.277 20.0421 116.656C24.4178 124.519 30.454 131.761 37.339 137.409C43.8966 142.788 51.2995 146.985 59.1675 149.785C60.6014 150.295 60.884 150.357 61.7528 150.356C63.8075 150.353 65.1752 149.258 65.4721 147.38C65.526 147.039 65.4517 133.383 65.3958 133.332C65.3825 133.321 64.9097 133.387 64.3451 133.48C59.9216 134.211 55.811 134.293 52.4959 133.718C46.9125 132.748 43.0561 129.832 41.2159 125.189C40.5525 123.515 39.3577 121.294 38.1292 119.453C37.1076 117.921 36.364 116.991 35.354 115.983C34.5213 115.152 34.2365 114.918 33.5905 114.532C31.5078 113.288 30.2185 111.99 30.2194 111.137C30.2203 110.23 31.3494 109.779 33.6168 109.782C36.4918 109.785 39.0416 110.95 41.6092 113.434C42.8799 114.663 43.7993 115.807 44.8176 117.424C47.9155 122.344 51.7369 124.754 56.911 125.049C59.2681 125.184 62.5142 124.547 65.1947 123.422L65.7965 123.17L65.9257 122.373C66.3648 119.665 67.4439 117.002 68.8537 115.147C69.0368 114.906 69.4538 114.434 69.7803 114.097C70.1068 113.76 70.3477 113.47 70.3155 113.451C70.2833 113.432 70.0339 113.394 69.7613 113.367C69.4887 113.34 68.7241 113.239 68.0621 113.144C59.3792 111.897 53.2783 109.575 48.3087 105.627C47.259 104.793 45.2553 102.794 44.4239 101.752C41.4847 98.0681 39.4761 93.5404 38.4037 88.1818C37.7083 84.7071 37.3853 80.9204 37.4628 77.1491C37.5181 74.4569 37.7375 72.6866 38.2994 70.3989C39.3474 66.1323 41.4015 62.17 44.2969 58.8294L44.8574 58.1827L44.6492 57.5945C43.8085 55.2195 43.429 52.8085 43.431 49.8554C43.4328 47.2716 43.6753 45.3542 44.3131 42.8816C44.5988 41.7739 45.2686 39.6972 45.4954 39.2154C45.6493 38.8885 45.8046 38.8555 47.2113 38.8503C51.3953 38.835 57.178 41.0798 63.8141 45.2955C64.476 45.716 65.1262 46.1355 65.2588 46.2277L65.4999 46.3953L66.9934 46.0163C77.9108 43.2462 90.0116 43.2863 100.748 46.1283L101.785 46.4029L102.624 45.8434C106.267 43.4125 110.371 41.26 113.451 40.1639C116.358 39.1292 119.083 38.6437 120.879 38.8404C121.427 38.9004 121.613 38.9487 121.701 39.0535C121.856 39.2392 122.767 42.0072 123.031 43.094C123.319 44.2783 123.57 45.6691 123.721 46.9172C123.876 48.1949 123.896 51.2986 123.758 52.5105C123.56 54.236 123.179 55.99 122.7 57.3799L122.425 58.175L123.053 58.9005C125.381 61.591 127.307 64.9883 128.421 68.3698C128.972 70.0417 129.405 72.0418 129.662 74.1047C129.907 76.0686 129.87 80.4639 129.584 83.415C128.472 94.8658 123.955 102.897 115.878 107.784C112.767 109.666 109.019 111.121 104.666 112.135C102.706 112.592 99.1579 113.197 97.4444 113.367C97.1718 113.394 96.9216 113.432 96.8883 113.452C96.855 113.471 97.0825 113.746 97.3938 114.063C99.7976 116.506 101.207 120.109 101.592 124.798C101.656 125.567 101.666 128.522 101.632 136.551C101.583 148.266 101.567 147.709 101.985 148.535C102.259 149.075 102.491 149.354 102.951 149.693C103.463 150.07 103.966 150.261 104.69 150.351C105.612 150.467 106.347 150.348 107.693 149.867C112.689 148.078 117.37 145.827 121.658 143.148C140.98 131.081 153.516 110.86 155.638 88.3357C156.035 84.1295 156.06 79.5659 155.71 75.3437C153.656 50.5621 138.864 28.4529 116.667 16.9888C107.885 12.453 98.5468 9.86371 88.2403 9.10628C86.873 9.00582 81.276 8.96171 79.8504 9.04022Z" fill="#0094FF"/>
<path d="M79.8504 9.04022L79.9604 11.0372L79.9604 11.0372L79.8504 9.04022ZM43.1671 21.184L44.2808 22.8451L44.2809 22.8451L43.1671 21.184ZM17.0031 52.4312L18.8356 53.2326L18.8356 53.2326L17.0031 52.4312ZM11.0892 76.8305L13.0839 76.9761L13.0839 76.976L11.0892 76.8305ZM11.0877 86.0346L9.09271 86.1765L9.09271 86.1765L11.0877 86.0346ZM20.0421 116.656L21.7897 115.683L21.7897 115.683L20.0421 116.656ZM37.339 137.409L36.0706 138.955H36.0706L37.339 137.409ZM59.1675 149.785L58.497 151.669H58.497L59.1675 149.785ZM61.7528 150.356L61.7495 148.356H61.7495L61.7528 150.356ZM65.4721 147.38L63.4967 147.067L63.4967 147.067L65.4721 147.38ZM65.3958 133.332L66.7316 131.844L66.7279 131.841L65.3958 133.332ZM64.3451 133.48L64.0192 131.507L64.0192 131.507L64.3451 133.48ZM52.4959 133.718L52.838 131.747L52.838 131.747L52.4959 133.718ZM41.2159 125.189L39.3565 125.925L39.3565 125.925L41.2159 125.189ZM38.1292 119.453L36.4653 120.562L36.4654 120.562L38.1292 119.453ZM35.354 115.983L33.9411 117.399L33.9411 117.399L35.354 115.983ZM33.5905 114.532L32.5649 116.249L32.565 116.249L33.5905 114.532ZM30.2194 111.137L32.2194 111.139V111.139L30.2194 111.137ZM33.6168 109.782L33.619 107.782H33.619L33.6168 109.782ZM41.6092 113.434L40.2186 114.872L40.2186 114.872L41.6092 113.434ZM44.8176 117.424L43.1252 118.49L43.1252 118.49L44.8176 117.424ZM56.911 125.049L57.0251 123.053H57.0251L56.911 125.049ZM65.1947 123.422L65.9682 125.267L65.9682 125.267L65.1947 123.422ZM65.7965 123.17L66.57 125.014L67.5931 124.585L67.7707 123.49L65.7965 123.17ZM65.9257 122.373L67.8999 122.694L67.8999 122.694L65.9257 122.373ZM68.8537 115.147L70.4461 116.357L70.4463 116.357L68.8537 115.147ZM69.7803 114.097L68.345 112.704L68.3448 112.704L69.7803 114.097ZM70.3155 113.451L69.3061 115.177L69.3089 115.179L70.3155 113.451ZM68.0621 113.144L67.7776 115.124L67.7778 115.124L68.0621 113.144ZM48.3087 105.627L49.5528 104.061L49.5527 104.061L48.3087 105.627ZM44.4239 101.752L42.8605 103L42.8605 103L44.4239 101.752ZM38.4037 88.1818L40.3648 87.7893L40.3648 87.7893L38.4037 88.1818ZM37.4628 77.1491L35.4632 77.1081L37.4628 77.1491ZM38.2994 70.3989L40.2417 70.876L40.2417 70.876L38.2994 70.3989ZM44.2969 58.8294L42.7856 57.5194L42.7856 57.5195L44.2969 58.8294ZM44.8574 58.1827L46.3687 59.4926L47.1314 58.6128L46.7428 57.5152L44.8574 58.1827ZM44.6492 57.5945L42.7639 58.2619L42.7639 58.262L44.6492 57.5945ZM43.431 49.8554L45.431 49.8568V49.8568L43.431 49.8554ZM44.3131 42.8816L46.2497 43.3811L46.2497 43.381L44.3131 42.8816ZM45.4954 39.2154L47.3048 40.0675L47.3049 40.0674L45.4954 39.2154ZM47.2113 38.8503L47.204 36.8503H47.2039L47.2113 38.8503ZM63.8141 45.2955L64.8865 43.6073L64.8865 43.6073L63.8141 45.2955ZM65.2588 46.2277L66.4004 44.5855L66.4004 44.5855L65.2588 46.2277ZM65.4999 46.3953L64.3583 48.0375L65.1074 48.5582L65.9917 48.3339L65.4999 46.3953ZM66.9934 46.0163L67.4853 47.9549L67.4853 47.9549L66.9934 46.0163ZM100.748 46.1283L100.236 48.0617H100.236L100.748 46.1283ZM101.785 46.4029L101.273 48.3363L102.145 48.5671L102.895 48.0667L101.785 46.4029ZM102.624 45.8434L103.734 47.5071L103.734 47.5071L102.624 45.8434ZM113.451 40.1639L114.121 42.0481L114.121 42.0481L113.451 40.1639ZM120.879 38.8404L121.097 36.8523H121.097L120.879 38.8404ZM121.701 39.0535L123.236 37.7721L123.236 37.772L121.701 39.0535ZM123.031 43.094L121.087 43.5661L121.087 43.5662L123.031 43.094ZM123.721 46.9172L125.707 46.6765L125.707 46.6764L123.721 46.9172ZM123.758 52.5105L125.745 52.7379L125.745 52.7379L123.758 52.5105ZM122.7 57.3799L124.59 58.032L124.59 58.032L122.7 57.3799ZM122.425 58.175L120.535 57.523L120.159 58.6123L120.913 59.4837L122.425 58.175ZM123.053 58.9005L124.566 57.5919L124.565 57.5918L123.053 58.9005ZM128.421 68.3698L130.32 67.7439V67.7439L128.421 68.3698ZM129.662 74.1047L131.647 73.857V73.857L129.662 74.1047ZM129.584 83.415L127.593 83.2217V83.2217L129.584 83.415ZM115.878 107.784L116.914 109.495L116.914 109.495L115.878 107.784ZM104.666 112.135L104.212 110.187L104.212 110.187L104.666 112.135ZM97.4444 113.367L97.6419 115.358L97.642 115.358L97.4444 113.367ZM96.8883 113.452L97.8983 115.178L97.901 115.177L96.8883 113.452ZM97.3938 114.063L95.968 115.465L95.9681 115.465L97.3938 114.063ZM101.592 124.798L99.5991 124.962L99.5991 124.962L101.592 124.798ZM101.632 136.551L103.632 136.559V136.559L101.632 136.551ZM101.985 148.535L103.769 147.632L103.769 147.632L101.985 148.535ZM102.951 149.693L101.764 151.303L101.764 151.303L102.951 149.693ZM104.69 150.351L104.939 148.367H104.939L104.69 150.351ZM107.693 149.867L107.019 147.984H107.019L107.693 149.867ZM121.658 143.148L122.718 144.845H122.718L121.658 143.148ZM155.638 88.3357L157.63 88.5233L155.638 88.3357ZM155.71 75.3437L153.717 75.5089L155.71 75.3437ZM116.667 16.9888L115.749 18.7658L115.749 18.7658L116.667 16.9888ZM88.2403 9.10628L88.3869 7.11166L88.3869 7.11166L88.2403 9.10628ZM79.7405 7.04325C65.9912 7.80034 53.2531 12.0135 42.0533 19.5228L44.2809 22.8451C54.8696 15.7456 66.911 11.7557 79.9604 11.0372L79.7405 7.04325ZM42.0533 19.5228C30.1896 27.4771 20.8616 38.6159 15.1707 51.6299L18.8356 53.2326C24.2191 40.9216 33.0463 30.3777 44.2808 22.8451L42.0533 19.5228ZM15.1707 51.6299C11.7027 59.5604 9.75706 67.6013 9.09446 76.685L13.0839 76.976C13.7153 68.3188 15.5595 60.7242 18.8356 53.2326L15.1707 51.6299ZM9.09446 76.685C8.96916 78.402 8.96845 84.4288 9.09271 86.1765L13.0826 85.8928C12.9717 84.3324 12.9728 78.4977 13.0839 76.9761L9.09446 76.685ZM9.09271 86.1765C9.90829 97.6457 12.9265 107.983 18.2945 117.629L21.7897 115.683C16.719 106.572 13.8587 96.8058 13.0826 85.8928L9.09271 86.1765ZM18.2945 117.629C22.7912 125.709 28.9891 133.146 36.0706 138.955L38.6075 135.862C31.9189 130.376 26.0445 123.329 21.7897 115.683L18.2945 117.629ZM36.0706 138.955C42.8037 144.478 50.4082 148.79 58.497 151.669L59.8381 147.901C52.1907 145.179 44.9895 141.097 38.6074 135.862L36.0706 138.955ZM58.497 151.669C59.195 151.917 59.7404 152.105 60.2405 152.215C60.8066 152.34 61.2616 152.357 61.756 152.356L61.7495 148.356C61.3752 148.357 61.2545 148.343 61.1036 148.309C60.8868 148.261 60.574 148.162 59.8381 147.901L58.497 151.669ZM61.756 152.356C63.1357 152.354 64.4602 151.982 65.5212 151.133C66.5957 150.273 67.2318 149.057 67.4476 147.692L63.4967 147.067C63.4155 147.581 63.2193 147.852 63.022 148.01C62.8113 148.178 62.4245 148.355 61.7495 148.356L61.756 152.356ZM67.4476 147.692C67.4783 147.498 67.4797 147.241 67.4804 147.207C67.483 147.075 67.485 146.901 67.4866 146.695C67.4896 146.281 67.4909 145.714 67.4908 145.048C67.4905 143.714 67.4845 141.97 67.4751 140.236C67.4657 138.503 67.4528 136.777 67.4387 135.479C67.4317 134.831 67.4244 134.285 67.4169 133.898C67.4132 133.706 67.4094 133.544 67.4052 133.425C67.4032 133.368 67.4006 133.304 67.3968 133.246C67.3952 133.222 67.3916 133.168 67.384 133.105C67.381 133.08 67.3719 133.006 67.3523 132.915C67.3433 132.873 67.3213 132.776 67.2786 132.657C67.2713 132.637 67.1362 132.207 66.7316 131.844L64.0599 134.821C63.6558 134.458 63.521 134.029 63.5142 134.01C63.4719 133.892 63.4504 133.797 63.4418 133.757C63.4231 133.67 63.4149 133.602 63.4127 133.584C63.4094 133.556 63.4075 133.535 63.4068 133.526C63.4059 133.515 63.4054 133.508 63.4053 133.506C63.4051 133.503 63.406 133.519 63.4076 133.565C63.4107 133.651 63.4141 133.788 63.4177 133.975C63.4248 134.345 63.432 134.877 63.439 135.522C63.4529 136.81 63.4657 138.529 63.4752 140.258C63.4846 141.987 63.4905 143.724 63.4908 145.049C63.4909 145.711 63.4896 146.267 63.4867 146.665C63.4852 146.866 63.4833 147.02 63.4812 147.126C63.4771 147.329 63.4728 147.219 63.4967 147.067L67.4476 147.692ZM66.7279 131.841C66.4398 131.583 66.1511 131.477 66.0405 131.439C65.9024 131.392 65.7874 131.37 65.7237 131.359C65.5958 131.338 65.4935 131.333 65.4521 131.332C65.3592 131.329 65.284 131.333 65.2561 131.335C65.188 131.339 65.1251 131.345 65.0871 131.349C65.0019 131.359 64.9005 131.372 64.7981 131.387C64.588 131.416 64.3124 131.459 64.0192 131.507L64.6709 135.454C64.9424 135.409 65.1855 135.372 65.3562 135.347C65.4443 135.335 65.4988 135.328 65.5237 135.326C65.5407 135.324 65.5213 135.326 65.4838 135.328C65.4712 135.329 65.4081 135.333 65.3239 135.33C65.2868 135.329 65.1879 135.325 65.0626 135.304C65.0002 135.294 64.8864 135.272 64.7491 135.225C64.6782 135.201 64.5819 135.163 64.473 135.107C64.3668 135.052 64.2183 134.962 64.0636 134.824L66.7279 131.841ZM64.0192 131.507C59.7479 132.213 55.8725 132.274 52.838 131.747L52.1537 135.688C55.7496 136.313 60.0952 136.209 64.671 135.454L64.0192 131.507ZM52.838 131.747C47.831 130.878 44.6204 128.351 43.0752 124.452L39.3565 125.925C41.4917 131.313 45.994 134.619 52.1537 135.688L52.838 131.747ZM43.0752 124.452C42.3498 122.621 41.0826 120.276 39.793 118.343L36.4654 120.562C37.6328 122.313 38.7553 124.408 39.3565 125.925L43.0752 124.452ZM39.793 118.343C38.718 116.731 37.8928 115.692 36.7669 114.568L33.9411 117.399C34.8352 118.291 35.4972 119.111 36.4653 120.562L39.793 118.343ZM36.7669 114.568C35.8754 113.678 35.4589 113.318 34.616 112.815L32.565 116.249C32.8371 116.412 32.9789 116.509 33.1313 116.635C33.3069 116.779 33.5277 116.986 33.9411 117.399L36.7669 114.568ZM34.6161 112.815C33.6667 112.248 32.9716 111.71 32.5427 111.278C32.3279 111.062 32.2205 110.913 32.1774 110.839C32.1247 110.75 32.2197 110.865 32.2194 111.139L28.2194 111.135C28.2186 111.836 28.4744 112.433 28.7283 112.865C28.9918 113.314 29.3367 113.727 29.7045 114.097C30.4407 114.838 31.4316 115.572 32.5649 116.249L34.6161 112.815ZM32.2194 111.139C32.2192 111.365 32.1349 111.622 31.9687 111.822C31.8318 111.986 31.7245 112.01 31.8093 111.976C31.8899 111.944 32.0699 111.89 32.3912 111.848C32.7056 111.806 33.1095 111.781 33.6145 111.782L33.619 107.782C32.4119 107.78 31.2536 107.891 30.327 108.261C29.846 108.453 29.3146 108.758 28.8948 109.262C28.4458 109.802 28.2201 110.456 28.2194 111.135L32.2194 111.139ZM33.6145 111.782C35.8526 111.784 37.9283 112.656 40.2186 114.872L42.9998 111.997C40.1549 109.245 37.131 107.786 33.619 107.782L33.6145 111.782ZM40.2186 114.872C41.3653 115.981 42.1854 116.997 43.1252 118.49L46.5101 116.359C45.4133 114.617 44.3945 113.346 42.9997 111.997L40.2186 114.872ZM43.1252 118.49C46.519 123.88 50.891 126.709 56.7969 127.046L57.0251 123.053C52.5828 122.799 49.3119 120.808 46.5101 116.359L43.1252 118.49ZM56.7969 127.046C59.5196 127.202 63.0708 126.482 65.9682 125.267L64.4212 121.578C61.9576 122.611 59.0166 123.166 57.0251 123.053L56.7969 127.046ZM65.9682 125.267L66.57 125.014L65.0229 121.326L64.4211 121.578L65.9682 125.267ZM67.7707 123.49L67.8999 122.694L63.9515 122.053L63.8223 122.85L67.7707 123.49ZM67.8999 122.694C68.2959 120.252 69.2669 117.909 70.4461 116.357L67.2613 113.937C65.6208 116.096 64.4337 119.079 63.9515 122.053L67.8999 122.694ZM70.4463 116.357C70.562 116.205 70.9184 115.796 71.2158 115.49L68.3448 112.704C67.9891 113.071 67.5117 113.607 67.2612 113.937L70.4463 116.357ZM71.2156 115.49C71.403 115.297 71.5825 115.1 71.7227 114.93C71.7855 114.855 71.8779 114.74 71.9618 114.612C71.992 114.566 72.0918 114.415 72.1734 114.21C72.2069 114.126 72.3097 113.86 72.3178 113.503C72.3267 113.118 72.2046 112.237 71.322 111.723L69.3089 115.179C68.4304 114.667 68.3102 113.79 68.3189 113.412C68.3269 113.061 68.4275 112.804 68.4569 112.731C68.5302 112.546 68.6139 112.423 68.621 112.412C68.6585 112.355 68.6764 112.338 68.6421 112.379C68.5883 112.444 68.4842 112.561 68.345 112.704L71.2156 115.49ZM71.3249 111.724C71.072 111.576 70.8346 111.517 70.827 111.515C70.7563 111.496 70.6947 111.482 70.6564 111.475C70.576 111.458 70.495 111.445 70.4279 111.435C70.2884 111.413 70.124 111.393 69.9608 111.377L69.5618 115.357C69.6712 115.368 69.7678 115.38 69.8292 115.39C69.8625 115.395 69.867 115.396 69.8509 115.393C69.8447 115.391 69.81 115.384 69.7602 115.37C69.7353 115.364 69.6886 115.35 69.6299 115.329C69.5998 115.318 69.558 115.302 69.5089 115.281C69.4623 115.26 69.3903 115.227 69.3061 115.177L71.3249 111.724ZM69.9608 111.377C69.7354 111.354 69.0089 111.26 68.3465 111.165L67.7778 115.124C68.4393 115.219 69.2421 115.325 69.5618 115.357L69.9608 111.377ZM68.3466 111.165C59.8865 109.949 54.1586 107.72 49.5528 104.061L47.0646 107.193C52.3981 111.43 58.872 113.844 67.7776 115.124L68.3466 111.165ZM49.5527 104.061C48.6206 103.32 46.7241 101.429 45.9873 100.505L42.8605 103C43.7864 104.16 45.8974 106.266 47.0646 107.193L49.5527 104.061ZM45.9874 100.505C43.2764 97.107 41.3846 92.8854 40.3648 87.7893L36.4426 88.5743C37.5675 94.1955 39.693 99.0292 42.8605 103L45.9874 100.505ZM40.3648 87.7893C39.6997 84.4662 39.3877 80.8253 39.4624 77.1902L35.4632 77.1081C35.383 81.0155 35.7168 84.9481 36.4426 88.5743L40.3648 87.7893ZM39.4624 77.1902C39.5151 74.6245 39.7194 73.0023 40.2417 70.876L36.3572 69.9218C35.7556 72.3709 35.5211 74.2894 35.4632 77.1081L39.4624 77.1902ZM40.2417 70.876C41.2136 66.9193 43.1191 63.2419 45.8082 60.1393L42.7856 57.5195C39.6839 61.098 37.4813 65.3454 36.3572 69.9219L40.2417 70.876ZM45.8082 60.1393L46.3687 59.4926L43.3461 56.8727L42.7856 57.5194L45.8082 60.1393ZM46.7428 57.5152L46.5345 56.9271L42.7639 58.262L42.9721 58.8502L46.7428 57.5152ZM46.5346 56.9271C45.7817 54.8002 45.4291 52.6204 45.431 49.8568L41.431 49.8541C41.4288 52.9966 41.8352 55.6387 42.7639 58.2619L46.5346 56.9271ZM45.431 49.8568C45.4327 47.439 45.6544 45.6891 46.2497 43.3811L42.3765 42.3821C41.6963 45.0193 41.4329 47.1041 41.431 49.8541L45.431 49.8568ZM46.2497 43.381C46.3786 42.8816 46.6041 42.1275 46.8298 41.4276C46.9415 41.0812 47.0492 40.7608 47.1403 40.5039C47.1858 40.3753 47.225 40.2689 47.2568 40.1865C47.2917 40.0963 47.3069 40.0632 47.3048 40.0675L43.686 38.3634C43.507 38.7435 43.2436 39.5156 43.0229 40.1999C42.7856 40.9357 42.5334 41.7739 42.3765 42.3821L46.2497 43.381ZM47.3049 40.0674C47.302 40.0735 47.1922 40.3202 46.9213 40.549C46.6416 40.7853 46.373 40.8529 46.2999 40.8684C46.2472 40.8796 46.2668 40.8697 46.4545 40.8619C46.6272 40.8547 46.8664 40.8516 47.2186 40.8503L47.2039 36.8503C46.5925 36.8526 45.9525 36.8528 45.4673 36.956C45.1602 37.0214 44.7361 37.1588 44.34 37.4934C43.9528 37.8205 43.7658 38.194 43.686 38.3634L47.3049 40.0674ZM47.2186 40.8503C50.8106 40.8372 56.1876 42.8202 62.7416 46.9836L64.8865 43.6073C58.1683 39.3395 51.9799 36.8329 47.204 36.8503L47.2186 40.8503ZM62.7416 46.9836C63.0691 47.1917 63.3932 47.3991 63.6506 47.5652C63.7795 47.6484 63.89 47.7201 63.975 47.7758C64.0176 47.8036 64.0522 47.8264 64.0786 47.844C64.1077 47.8633 64.1183 47.8706 64.1173 47.8699L66.4004 44.5855C66.225 44.4635 65.5309 44.0167 64.8865 43.6073L62.7416 46.9836ZM64.1172 47.8699L64.3583 48.0375L66.6415 44.7531L66.4004 44.5855L64.1172 47.8699ZM65.9917 48.3339L67.4853 47.9549L66.5016 44.0778L65.0081 44.4567L65.9917 48.3339ZM67.4853 47.9549C78.078 45.2671 89.8333 45.308 100.236 48.0617L101.259 44.1949C90.1899 41.2646 77.7436 41.2252 66.5015 44.0778L67.4853 47.9549ZM100.236 48.0617L101.273 48.3363L102.297 44.4695L101.259 44.1949L100.236 48.0617ZM102.895 48.0667L103.734 47.5071L101.514 44.1796L100.675 44.7392L102.895 48.0667ZM103.734 47.5071C107.284 45.1388 111.239 43.0741 114.121 42.0481L112.78 38.2797C109.503 39.446 105.251 41.6862 101.514 44.1796L103.734 47.5071ZM114.121 42.0481C116.919 41.0526 119.307 40.6802 120.662 40.8285L121.097 36.8523C118.859 36.6072 115.797 37.2058 112.78 38.2797L114.121 42.0481ZM120.662 40.8285C120.785 40.842 120.869 40.8528 120.925 40.8614C120.985 40.8706 120.989 40.8734 120.96 40.866C120.934 40.8593 120.824 40.8296 120.679 40.7532C120.517 40.6675 120.331 40.5333 120.165 40.335L123.236 37.772C122.801 37.2501 122.255 37.0695 121.965 36.9943C121.684 36.9212 121.37 36.8821 121.097 36.8523L120.662 40.8285ZM120.165 40.3349C120.068 40.218 120.009 40.1187 119.992 40.0891C119.967 40.0475 119.952 40.017 119.947 40.0064C119.936 39.9854 119.936 39.9834 119.948 40.0123C119.971 40.067 120.009 40.162 120.06 40.301C120.16 40.5742 120.289 40.948 120.425 41.3613C120.703 42.2042 120.975 43.1046 121.087 43.5661L124.974 42.6218C124.822 41.9965 124.507 40.9696 124.225 40.1104C124.08 39.6726 123.936 39.2516 123.814 38.9196C123.753 38.756 123.692 38.5959 123.635 38.4594C123.606 38.3927 123.571 38.3111 123.53 38.2287C123.514 38.1969 123.412 37.983 123.236 37.7721L120.165 40.3349ZM121.087 43.5662C121.356 44.6718 121.593 45.9854 121.736 47.158L125.707 46.6764C125.546 45.3529 125.281 43.8847 124.974 42.6218L121.087 43.5662ZM121.736 47.1579C121.873 48.2887 121.89 51.2351 121.77 52.2831L125.745 52.7379C125.902 51.3621 125.879 48.101 125.707 46.6765L121.736 47.1579ZM121.771 52.283C121.587 53.8892 121.233 55.4977 120.809 56.7279L124.59 58.032C125.125 56.4824 125.533 54.5829 125.745 52.7379L121.771 52.283ZM120.809 56.7279L120.535 57.523L124.316 58.8271L124.59 58.032L120.809 56.7279ZM120.913 59.4837L121.541 60.2091L124.565 57.5918L123.938 56.8663L120.913 59.4837ZM121.541 60.209C123.695 62.6997 125.49 65.8649 126.521 68.9958L130.32 67.7439C129.124 64.1117 127.066 60.4824 124.566 57.5919L121.541 60.209ZM126.521 68.9958C127.025 70.5249 127.433 72.3956 127.678 74.3524L131.647 73.857C131.376 71.6879 130.918 69.5586 130.32 67.7439L126.521 68.9958ZM127.678 74.3524C127.898 76.117 127.872 80.3524 127.593 83.2217L131.574 83.6083C131.869 80.5753 131.917 76.0203 131.647 73.857L127.678 74.3524ZM127.593 83.2217C126.527 94.198 122.259 101.585 114.843 106.073L116.914 109.495C125.65 104.209 130.416 95.5335 131.574 83.6083L127.593 83.2217ZM114.843 106.073C111.947 107.824 108.405 109.21 104.212 110.187L105.12 114.083C109.633 113.031 113.586 111.508 116.914 109.495L114.843 106.073ZM104.212 110.187C102.323 110.627 98.861 111.217 97.2468 111.377L97.642 115.358C99.4547 115.178 103.089 114.556 105.12 114.083L104.212 110.187ZM97.2469 111.377C97.0826 111.393 96.9168 111.414 96.7756 111.435C96.7076 111.446 96.6254 111.459 96.5435 111.476C96.5044 111.484 96.4418 111.498 96.37 111.518C96.3583 111.522 96.1251 111.581 95.8755 111.727L97.901 115.177C97.819 115.225 97.7487 115.258 97.7023 115.279C97.6537 115.3 97.6122 115.316 97.5821 115.327C97.5233 115.349 97.4764 115.362 97.4511 115.369C97.4004 115.384 97.365 115.391 97.3582 115.392C97.3412 115.396 97.3448 115.395 97.3776 115.39C97.438 115.381 97.5336 115.368 97.6419 115.358L97.2469 111.377ZM95.8783 111.726C95.0819 112.192 94.8974 112.976 94.8858 113.404C94.8756 113.778 94.9735 114.059 95.0086 114.156C95.0904 114.38 95.196 114.544 95.2273 114.593C95.3142 114.728 95.4097 114.847 95.4711 114.921C95.6099 115.089 95.786 115.28 95.968 115.465L98.8196 112.66C98.6903 112.529 98.597 112.425 98.5526 112.371C98.5223 112.334 98.5477 112.361 98.5916 112.429C98.6013 112.444 98.6923 112.582 98.7668 112.786C98.7982 112.872 98.8943 113.146 98.8843 113.513C98.8728 113.935 98.6904 114.715 97.8983 115.178L95.8783 111.726ZM95.9681 115.465C97.9394 117.469 99.2375 120.566 99.5991 124.962L103.586 124.634C103.176 119.652 101.656 115.543 98.8195 112.66L95.9681 115.465ZM99.5991 124.962C99.653 125.618 99.6659 128.437 99.6322 136.543L103.632 136.559C103.665 128.607 103.658 125.515 103.586 124.634L99.5991 124.962ZM99.6322 136.543C99.6078 142.371 99.591 145.213 99.6343 146.685C99.6554 147.4 99.6923 147.95 99.7971 148.408C99.9223 148.955 100.153 149.343 100.201 149.439L103.769 147.632C103.609 147.314 103.684 147.463 103.696 147.516C103.696 147.516 103.693 147.501 103.688 147.465C103.683 147.429 103.676 147.374 103.669 147.296C103.655 147.136 103.643 146.906 103.633 146.568C103.592 145.183 103.608 142.446 103.632 136.559L99.6322 136.543ZM100.201 149.439C100.607 150.241 101.038 150.767 101.764 151.303L104.138 148.083C103.992 147.976 103.951 147.928 103.934 147.908C103.914 147.885 103.866 147.822 103.769 147.632L100.201 149.439ZM101.764 151.303C102.59 151.911 103.429 152.209 104.441 152.336L104.939 148.367C104.504 148.312 104.335 148.229 104.138 148.083L101.764 151.303ZM104.441 152.336C105.797 152.506 106.87 152.285 108.367 151.75L107.019 147.984C105.824 148.411 105.426 148.428 104.939 148.367L104.441 152.336ZM108.367 151.75C113.491 149.915 118.302 147.602 122.718 144.845L120.599 141.452C116.437 144.051 111.887 146.241 107.019 147.984L108.367 151.75ZM122.718 144.845C142.564 132.45 155.448 111.674 157.63 88.5233L153.647 88.148C151.584 110.047 139.397 129.712 120.599 141.452L122.718 144.845ZM157.63 88.5233C158.037 84.1995 158.063 79.5178 157.703 75.1785L153.717 75.5089C154.057 79.6139 154.033 84.0595 153.647 88.148L157.63 88.5233ZM157.703 75.1786C155.592 49.7064 140.39 26.9903 117.585 15.2118L115.749 18.7658C137.338 29.9156 151.721 51.4178 153.717 75.5089L157.703 75.1786ZM117.585 15.2118C108.552 10.5465 98.95 7.88795 88.3869 7.11166L88.0937 11.1009C98.1436 11.8395 107.217 14.3594 115.749 18.7658L117.585 15.2118ZM88.3869 7.11166C86.9308 7.00467 81.248 6.96022 79.7404 7.04325L79.9604 11.0372C81.304 10.9632 86.8152 11.007 88.0938 11.1009L88.3869 7.11166Z" fill="black" mask="url(#path-3-inside-1_943_2495)"/>
<defs>
<filter id="filter0_d_943_2495" x="0" y="0" width="166.996" height="163.407" filterUnits="userSpaceOnUse" color-interpolation-filters="sRGB">
<feFlood flood-opacity="0" result="BackgroundImageFix"/>
<feColorMatrix in="SourceAlpha" type="matrix" values="0 0 0 0 0 0 0 0 0 0 0 0 0 0 0 0 0 0 127 0" result="hardAlpha"/>
<feOffset dy="2"/>
<feGaussianBlur stdDeviation="1.5"/>
<feComposite in2="hardAlpha" operator="out"/>
<feColorMatrix type="matrix" values="0 0 0 0 0 0 0 0 0 0 0 0 0 0 0 0 0 0 0.25 0"/>
<feBlend mode="normal" in2="BackgroundImageFix" result="effect1_dropShadow_943_2495"/>
<feBlend mode="normal" in="SourceGraphic" in2="effect1_dropShadow_943_2495" result="shape"/>
</filter>
</defs>
</svg>
