<svg  preserveAspectRatio="none" width="255" height="229" viewBox="0 0 255 229" fill="none" xmlns="http://www.w3.org/2000/svg">
<path d="M44.5886 93.5111C47.0178 93.5111 148.952 90.2486 181.633 89.2006C187.096 89.0255 191.605 93.4064 191.605 98.8715V200.535C191.605 206.538 186.564 211.31 180.569 210.981L44.0098 203.484L44.5886 93.5111Z" fill="white" stroke="white" stroke-width="27.6972" stroke-miterlimit="10" stroke-linejoin="round"/>
<path fill-rule="evenodd" clip-rule="evenodd" d="M190.54 98.8717C190.54 94.0061 186.527 90.1097 181.668 90.2655C150.611 91.2614 56.8807 94.2615 45.6487 94.5535L45.0806 202.476L180.628 209.918C186.012 210.213 190.54 205.927 190.54 200.535V98.8717ZM181.6 88.136C187.665 87.9415 192.67 92.8069 192.67 98.8717V200.535C192.67 207.15 187.116 212.407 180.511 212.045L42.9395 204.492L43.5292 92.4459H44.5889C46.9953 92.4459 148.897 89.1847 181.6 88.136Z" fill="white" stroke="white" stroke-width="27.6972" stroke-miterlimit="10" stroke-linejoin="round"/>
<path d="M37.3693 180.676L83.4775 37.7195L152.105 58.2253C152.105 58.2253 111.76 198.536 110.757 197.396C109.753 196.256 37.3693 180.676 37.3693 180.676Z" fill="white" stroke="white" stroke-width="27.6972" stroke-miterlimit="10" stroke-linejoin="round"/>
<path fill-rule="evenodd" clip-rule="evenodd" d="M82.7827 36.3988L153.419 57.5048L153.128 58.5181L152.104 58.2237C153.128 58.5181 153.128 58.517 153.128 58.5181L152.675 60.0938C152.379 61.1213 151.945 62.6281 151.392 64.5454C150.287 68.3801 148.707 73.8568 146.808 80.4253C143.01 93.5621 137.935 111.066 132.829 128.535C127.723 146.004 122.584 163.439 118.66 176.438C116.698 182.936 115.037 188.331 113.835 192.068C113.234 193.934 112.744 195.399 112.387 196.383C112.21 196.87 112.056 197.265 111.932 197.537C111.875 197.662 111.8 197.818 111.709 197.95C111.677 197.995 111.565 198.159 111.369 198.287C111.263 198.357 111.041 198.475 110.738 198.466C110.502 198.459 110.302 198.379 110.146 198.269C110.129 198.261 110.107 198.253 110.08 198.243C109.947 198.192 109.743 198.124 109.458 198.039C108.894 197.868 108.082 197.647 107.048 197.38C104.985 196.848 102.085 196.148 98.623 195.338C91.7022 193.719 82.5651 191.666 73.4554 189.647C64.3466 187.629 55.2687 185.646 48.4678 184.167C45.0674 183.428 42.2364 182.815 40.2555 182.387C39.2651 182.173 38.4872 182.005 37.957 181.891L37.145 181.716C37.1445 181.716 37.1442 181.716 37.3684 180.674L37.145 181.716L35.9931 181.468L82.7827 36.3988ZM38.7436 179.881C39.2475 179.99 39.9076 180.132 40.7057 180.305C42.6872 180.733 45.5191 181.346 48.9204 182.085C55.7228 183.564 64.8037 185.548 73.9163 187.567C83.028 189.586 92.1751 191.641 99.1085 193.264C102.574 194.075 105.493 194.779 107.58 195.317C108.622 195.586 109.468 195.816 110.074 195.999C110.13 196.016 110.185 196.033 110.238 196.049C110.283 195.932 110.332 195.8 110.384 195.656C110.728 194.71 111.208 193.277 111.806 191.415C113.003 187.697 114.659 182.318 116.62 175.822C120.542 162.833 125.678 145.405 130.784 127.938C135.889 110.471 140.963 92.9693 144.761 79.8335C146.66 73.2657 148.24 67.7895 149.345 63.9554C149.898 62.0383 150.332 60.5317 150.627 59.5045L150.789 58.9425L84.1704 39.0371L38.7436 179.881Z" fill="white"/>
<path d="M153.128 58.5181L153.419 57.5048L82.7827 36.3988L35.9931 181.468L37.145 181.716M153.128 58.5181L152.104 58.2237C153.128 58.5181 153.128 58.517 153.128 58.5181ZM153.128 58.5181L152.675 60.0938C152.379 61.1213 151.945 62.6281 151.392 64.5454C150.287 68.3801 148.707 73.8568 146.808 80.4253C143.01 93.5621 137.935 111.066 132.829 128.535C127.723 146.004 122.584 163.439 118.66 176.438C116.698 182.936 115.037 188.331 113.835 192.068C113.234 193.934 112.744 195.399 112.387 196.383C112.21 196.87 112.056 197.265 111.932 197.537C111.875 197.662 111.8 197.818 111.709 197.95C111.677 197.995 111.565 198.159 111.369 198.287C111.263 198.357 111.041 198.475 110.738 198.466C110.502 198.459 110.302 198.379 110.146 198.269C110.129 198.261 110.107 198.253 110.08 198.243C109.947 198.192 109.743 198.124 109.458 198.039C108.894 197.868 108.082 197.647 107.048 197.38C104.985 196.848 102.085 196.148 98.623 195.338C91.7022 193.719 82.5651 191.666 73.4554 189.647C64.3466 187.629 55.2687 185.646 48.4678 184.167C45.0674 183.428 42.2364 182.815 40.2555 182.387C39.2651 182.173 38.4872 182.005 37.957 181.891L37.145 181.716M37.145 181.716C37.1445 181.716 37.1442 181.716 37.3684 180.674L37.145 181.716ZM40.7057 180.305C39.9076 180.132 39.2475 179.99 38.7436 179.881L84.1704 39.0371L150.789 58.9425L150.627 59.5045C150.332 60.5317 149.898 62.0383 149.345 63.9554C148.24 67.7895 146.66 73.2657 144.761 79.8335C140.963 92.9693 135.889 110.471 130.784 127.938C125.678 145.405 120.542 162.833 116.62 175.822C114.659 182.318 113.003 187.697 111.806 191.415C111.208 193.277 110.728 194.71 110.384 195.656C110.332 195.8 110.283 195.932 110.238 196.049C110.185 196.033 110.13 196.016 110.074 195.999C109.468 195.816 108.622 195.586 107.58 195.317C105.493 194.779 102.574 194.075 99.1085 193.264C92.1751 191.641 83.028 189.586 73.9163 187.567C64.8037 185.548 55.7228 183.564 48.9204 182.085C45.5191 181.346 42.6872 180.733 40.7057 180.305Z" stroke="white" stroke-width="27.6972" stroke-miterlimit="10" stroke-linejoin="round"/>
<path d="M48.7576 111.726L187.682 54.6083L216.346 120.249C216.346 120.249 83.1632 180.058 83.3854 178.556C83.6077 177.054 48.7576 111.726 48.7576 111.726Z" fill="white" stroke="white" stroke-width="27.6972" stroke-miterlimit="10" stroke-linejoin="round"/>
<path fill-rule="evenodd" clip-rule="evenodd" d="M188.241 53.2261L217.744 120.788L216.782 121.22L216.346 120.248C216.782 121.22 216.783 121.219 216.782 121.22L215.286 121.891C214.311 122.329 212.88 122.971 211.059 123.787C207.418 125.42 202.216 127.75 195.975 130.542C183.492 136.126 166.85 143.556 150.214 150.939C133.58 158.321 116.949 165.658 104.49 171.056C98.2617 173.754 93.0703 175.971 89.4406 177.466C87.628 178.213 86.1936 178.785 85.2109 179.147C84.7247 179.327 84.3242 179.464 84.036 179.546C83.9045 179.583 83.7364 179.625 83.5767 179.641C83.5219 179.647 83.3242 179.667 83.0996 179.6C82.9781 179.564 82.7447 179.471 82.5555 179.233C82.4086 179.049 82.341 178.844 82.3243 178.654C82.3186 178.636 82.3112 178.614 82.3016 178.587C82.2542 178.453 82.1738 178.253 82.0557 177.981C81.8215 177.44 81.466 176.677 81.002 175.715C80.0757 173.796 78.737 171.13 77.12 167.964C73.887 161.634 69.5539 153.332 65.212 145.073C60.8705 136.815 56.5219 128.603 53.2586 122.456C51.6269 119.382 50.2667 116.825 49.3143 115.036C48.8382 114.142 48.464 113.439 48.2089 112.961L47.8181 112.228C47.8179 112.227 47.8177 112.227 48.7576 111.726L47.8181 112.228L47.2635 111.188L188.241 53.2261ZM50.2514 112.263C50.4938 112.718 50.8113 113.314 51.195 114.035C52.1477 115.825 53.5083 118.383 55.1404 121.457C58.4045 127.606 62.7545 135.82 67.0978 144.081C71.4407 152.342 75.7785 160.653 79.0174 166.995C80.6363 170.165 81.9837 172.848 82.9207 174.789C83.3884 175.758 83.7589 176.552 84.0107 177.134C84.034 177.188 84.0566 177.24 84.0784 177.291C84.1971 177.25 84.3286 177.202 84.4732 177.149C85.417 176.8 86.8212 176.241 88.629 175.496C92.2402 174.008 97.4172 171.798 103.643 169.101C116.093 163.707 132.717 156.373 149.35 148.991C165.983 141.61 182.623 134.181 195.105 128.597C201.345 125.806 206.547 123.475 210.188 121.843C212.008 121.027 213.439 120.385 214.414 119.947L214.948 119.708L187.123 55.9894L50.2514 112.263Z" fill="white"/>
<path d="M216.782 121.22L217.744 120.788L188.241 53.2261L47.2635 111.188L47.8181 112.228M216.782 121.22L216.346 120.248C216.782 121.22 216.783 121.219 216.782 121.22ZM216.782 121.22L215.286 121.891C214.311 122.329 212.88 122.971 211.059 123.787C207.418 125.42 202.216 127.75 195.975 130.542C183.492 136.126 166.85 143.556 150.214 150.939C133.58 158.321 116.949 165.658 104.49 171.056C98.2617 173.754 93.0703 175.971 89.4406 177.466C87.628 178.213 86.1936 178.785 85.2109 179.147C84.7247 179.327 84.3242 179.464 84.036 179.546C83.9046 179.583 83.7364 179.625 83.5767 179.641C83.522 179.647 83.3242 179.667 83.0996 179.6C82.9781 179.564 82.7447 179.471 82.5555 179.233C82.4086 179.049 82.341 178.844 82.3243 178.654C82.3186 178.636 82.3112 178.614 82.3016 178.587C82.2542 178.453 82.1738 178.253 82.0557 177.981C81.8214 177.44 81.466 176.677 81.002 175.715C80.0757 173.796 78.737 171.13 77.12 167.964C73.887 161.634 69.5539 153.332 65.212 145.073C60.8705 136.815 56.5219 128.603 53.2586 122.456C51.6269 119.382 50.2667 116.825 49.3143 115.036C48.8382 114.142 48.464 113.439 48.2089 112.961L47.8181 112.228M47.8181 112.228C47.8179 112.227 47.8177 112.227 48.7576 111.726L47.8181 112.228ZM51.195 114.035C50.8113 113.314 50.4938 112.718 50.2514 112.263L187.123 55.9894L214.948 119.708L214.414 119.947C213.439 120.385 212.008 121.027 210.188 121.843C206.547 123.475 201.345 125.806 195.105 128.597C182.623 134.181 165.983 141.61 149.35 148.991C132.717 156.373 116.093 163.707 103.643 169.101C97.4172 171.798 92.2402 174.008 88.629 175.496C86.8212 176.241 85.417 176.8 84.4732 177.149C84.3286 177.202 84.1971 177.25 84.0784 177.291C84.0566 177.24 84.0341 177.188 84.0107 177.134C83.7589 176.552 83.3884 175.758 82.9207 174.789C81.9837 172.848 80.6363 170.165 79.0174 166.995C75.7785 160.653 71.4407 152.342 67.0978 144.081C62.7545 135.82 58.4045 127.606 55.1404 121.457C53.5083 118.383 52.1477 115.825 51.195 114.035Z" stroke="white" stroke-width="27.6972" stroke-miterlimit="10" stroke-linejoin="round"/>
<path fill-rule="evenodd" clip-rule="evenodd" d="M96.7439 47.4732L136.338 58.4999L136.316 59.3256L136.316 59.3281L136.316 59.3313L136.317 59.3571C136.317 59.387 136.318 59.4376 136.322 59.5077C136.329 59.6478 136.347 59.8653 136.387 60.1492C136.468 60.717 136.642 61.5497 137.015 62.5602C137.759 64.5746 139.302 67.3235 142.525 70.1043L143 70.5141L142.872 71.1282C141.88 75.8891 135.712 97.345 129.817 117.531C126.865 127.641 123.974 137.458 121.821 144.746C120.744 148.39 119.852 151.403 119.229 153.504L118.254 156.792L118.253 156.795C118.253 156.796 118.253 156.796 117.232 156.493L118.253 156.795L118.069 157.414L45.978 171.515L56.5897 136.236L83.0457 57.5438L83.5667 57.3832L83.5689 57.3825L83.5823 57.3783L83.6442 57.3582C83.7007 57.3395 83.7871 57.3104 83.9004 57.2703C84.1272 57.1902 84.4615 57.0664 84.8799 56.8954C85.7175 56.5532 86.8875 56.0239 88.2041 55.2803C90.8473 53.7874 94.0253 51.4619 96.3137 48.1044L96.7439 47.4732ZM84.7236 59.2387L58.6201 136.883L49.0358 168.746L116.394 155.571L117.187 152.899C117.809 150.798 118.701 147.786 119.777 144.143C121.93 136.855 124.82 127.041 127.772 116.934C133.461 97.4501 139.351 76.9638 140.654 71.294C137.464 68.4071 135.839 65.5264 135.016 63.2978C134.586 62.1324 134.378 61.1521 134.278 60.4509C134.261 60.3349 134.248 60.2265 134.237 60.1262L97.6298 49.9316C95.141 53.313 91.8979 55.6409 89.2519 57.1354C87.8435 57.9309 86.5903 58.4981 85.6857 58.8677C85.296 59.027 84.9702 59.1498 84.7236 59.2387Z" fill="white"/>
<path d="M118.253 156.795L118.254 156.792L119.229 153.504C119.852 151.403 120.744 148.39 121.821 144.746C123.974 137.458 126.865 127.641 129.817 117.531C135.712 97.345 141.88 75.8891 142.872 71.1282L143 70.5141L142.525 70.1043C139.302 67.3235 137.759 64.5746 137.015 62.5602C136.642 61.5497 136.468 60.717 136.387 60.1492C136.347 59.8653 136.329 59.6478 136.322 59.5077C136.318 59.4376 136.317 59.387 136.317 59.3571L136.316 59.3313L136.316 59.3281L136.317 59.3256L136.338 58.4999L96.7439 47.4732L96.3137 48.1044C94.0253 51.4619 90.8473 53.7874 88.2041 55.2803C86.8875 56.0239 85.7174 56.5532 84.8799 56.8954C84.4615 57.0664 84.1272 57.1902 83.9004 57.2703C83.7871 57.3104 83.7007 57.3395 83.6442 57.3582L83.5823 57.3783L83.5689 57.3825L83.5667 57.3832L83.0457 57.5438L56.5897 136.236L45.978 171.515L118.069 157.414L118.253 156.795ZM118.253 156.795C118.253 156.796 118.253 156.796 117.232 156.493L118.253 156.795ZM58.6201 136.883L84.7236 59.2387C84.9702 59.1498 85.296 59.027 85.6857 58.8677C86.5903 58.4981 87.8435 57.9309 89.2519 57.1354C91.8979 55.6409 95.141 53.313 97.6298 49.9316L134.237 60.1262C134.248 60.2265 134.261 60.3349 134.278 60.4509C134.378 61.1521 134.586 62.1324 135.016 63.2978C135.839 65.5264 137.464 68.4071 140.654 71.294C139.351 76.9638 133.461 97.4501 127.772 116.934C124.82 127.041 121.93 136.855 119.777 144.143C118.701 147.786 117.809 150.798 117.187 152.899L116.394 155.571L49.0358 168.746L58.6201 136.883Z" stroke="white" stroke-width="27.6972" stroke-miterlimit="10" stroke-linejoin="round"/>
<path fill-rule="evenodd" clip-rule="evenodd" d="M188.801 71.037L205.952 108.389L205.308 108.905L205.306 108.907L205.303 108.909L205.284 108.925C205.261 108.945 205.223 108.979 205.172 109.027C205.07 109.123 204.915 109.277 204.725 109.491C204.343 109.92 203.82 110.59 203.289 111.528C202.231 113.396 201.129 116.349 201.087 120.606L201.081 121.233L200.53 121.532C196.254 123.849 175.889 132.996 156.67 141.532C147.044 145.807 137.682 149.939 130.727 153.002C127.25 154.534 124.374 155.798 122.367 156.68L119.226 158.059L119.224 158.06C119.223 158.06 119.223 158.06 118.795 157.084L119.224 158.06L118.632 158.319L61.31 112.383L95.0982 97.7026L172.266 67.0819L172.725 67.376L172.727 67.3773L172.739 67.3848L172.794 67.419C172.845 67.4501 172.923 67.4973 173.026 67.5579C173.234 67.6793 173.545 67.8546 173.945 68.0637C174.747 68.4821 175.907 69.0337 177.325 69.5586C180.172 70.6126 184 71.5373 188.041 71.1162L188.801 71.037ZM172.055 69.4576L95.9158 99.6703L65.3988 112.93L118.958 155.85L121.51 154.729C123.516 153.848 126.392 152.584 129.869 151.053C136.823 147.99 146.182 143.859 155.806 139.585C174.356 131.346 193.801 122.613 198.971 119.946C199.115 115.646 200.265 112.545 201.435 110.478C202.047 109.397 202.662 108.605 203.132 108.075C203.21 107.988 203.284 107.907 203.353 107.834L187.496 73.301C183.307 73.5845 179.435 72.6118 176.585 71.5567C175.069 70.9951 173.826 70.4046 172.96 69.9526C172.587 69.7579 172.282 69.5885 172.055 69.4576Z" fill="white"/>
<path d="M119.224 158.06L119.226 158.059L122.367 156.68C124.374 155.798 127.25 154.534 130.727 153.002C137.682 149.939 147.044 145.807 156.67 141.532C175.889 132.996 196.254 123.849 200.53 121.532L201.081 121.233L201.087 120.606C201.129 116.349 202.231 113.396 203.289 111.528C203.82 110.59 204.343 109.92 204.725 109.491C204.915 109.277 205.07 109.123 205.172 109.027C205.223 108.979 205.261 108.945 205.284 108.925L205.303 108.909L205.306 108.907L205.308 108.905L205.952 108.389L188.801 71.037L188.041 71.1162C184 71.5373 180.172 70.6126 177.325 69.5586C175.907 69.0337 174.747 68.4821 173.945 68.0637C173.545 67.8546 173.234 67.6793 173.026 67.5579C172.923 67.4973 172.845 67.4501 172.794 67.419L172.739 67.3848L172.727 67.3773L172.725 67.376L172.266 67.0819L95.0982 97.7026L61.31 112.383L118.632 158.319L119.224 158.06ZM119.224 158.06C119.223 158.06 119.223 158.06 118.795 157.084L119.224 158.06ZM95.9158 99.6703L172.055 69.4576C172.282 69.5885 172.587 69.7579 172.96 69.9526C173.826 70.4046 175.069 70.9951 176.585 71.5567C179.435 72.6118 183.307 73.5845 187.496 73.301L203.353 107.834C203.284 107.907 203.21 107.988 203.132 108.075C202.662 108.605 202.047 109.397 201.435 110.478C200.265 112.545 199.115 115.646 198.971 119.946C193.801 122.613 174.356 131.346 155.806 139.585C146.182 143.859 136.823 147.99 129.869 151.053C126.392 152.584 123.516 153.848 121.51 154.729L118.958 155.85L65.3988 112.93L95.9158 99.6703Z" stroke="white" stroke-width="27.6972" stroke-miterlimit="10" stroke-linejoin="round"/>
<path d="M98.8431 40.0283C98.1373 45.5102 88.0055 47.5362 76.4723 45.3546C64.9391 43.1731 55.5659 39.3965 56.2718 33.9147L57.1562 29.3755L99.9084 36.8324L98.8431 40.0283Z" fill="white" stroke="white" stroke-width="27.6972" stroke-miterlimit="10" stroke-linejoin="round"/>
<path fill-rule="evenodd" clip-rule="evenodd" d="M56.3114 28.146L101.311 35.995L99.8858 40.2713C99.3851 43.6669 96.0543 45.6761 91.954 46.6037C87.7097 47.5638 82.1397 47.51 76.2753 46.4008C70.4717 45.303 65.1277 43.7904 61.296 41.8189C59.3816 40.8339 57.7763 39.7001 56.689 38.3869C55.5832 37.0514 54.9944 35.501 55.2162 33.778L55.2206 33.744L56.3114 28.146ZM58.0031 30.6038L57.3254 34.082C57.205 35.0885 57.5249 36.0558 58.33 37.0281C59.162 38.0329 60.4886 39.0074 62.2708 39.9244C65.8326 41.7571 70.9417 43.2236 76.6713 44.3073C82.3401 45.3796 87.6026 45.4036 91.4839 44.5256C95.4661 43.6248 97.5273 41.9127 97.7876 39.8916L97.8008 39.789L98.5075 37.6687L58.0031 30.6038Z" fill="white" stroke="white" stroke-width="27.6972" stroke-miterlimit="10" stroke-linejoin="round"/>
<path d="M67.3461 114.035L181.312 16.1875L229.136 69.509C229.136 69.509 121.466 168.109 121.205 166.613C120.945 165.117 67.3461 114.035 67.3461 114.035Z" fill="white" stroke="white" stroke-width="27.6972" stroke-miterlimit="10" stroke-linejoin="round"/>
<path fill-rule="evenodd" clip-rule="evenodd" d="M181.41 14.7011L230.634 69.5835L229.856 70.2956L229.137 69.5099C229.856 70.2956 229.857 70.2948 229.856 70.2956L229.851 70.3001L228.647 71.4027C227.858 72.1246 226.701 73.1831 225.229 74.5298C222.284 77.2232 218.077 81.0691 213.028 85.6795C202.929 94.9003 189.461 107.179 175.985 119.412C162.51 131.644 149.024 143.831 138.889 152.868C133.823 157.385 129.59 161.12 126.613 163.679C125.127 164.957 123.945 165.95 123.125 166.603C122.72 166.926 122.383 167.183 122.135 167.35C122.022 167.427 121.876 167.52 121.729 167.585C121.677 167.608 121.495 167.689 121.263 167.696C121.136 167.7 120.886 167.685 120.631 167.519C120.434 167.39 120.305 167.217 120.23 167.041C120.219 167.026 120.205 167.008 120.187 166.985C120.1 166.873 119.961 166.708 119.763 166.486C119.371 166.046 118.794 165.433 118.052 164.666C116.57 163.135 114.462 161.024 111.932 158.526C106.875 153.531 100.155 147.009 93.4394 140.531C86.7247 134.053 80.0178 127.623 74.9894 122.811C72.4753 120.405 70.3809 118.404 68.915 117.005C68.1821 116.305 67.6064 115.755 67.2138 115.381L66.6127 114.808C66.6123 114.807 66.6121 114.807 67.3471 114.036L66.6127 114.808L65.7598 113.995L181.41 14.7011ZM68.9341 114.078C69.3071 114.433 69.7957 114.9 70.3863 115.463C71.8526 116.863 73.9476 118.865 76.4625 121.271C81.492 126.084 88.2011 132.517 94.9186 138.998C101.635 145.477 108.363 152.006 113.43 157.01C115.962 159.511 118.084 161.636 119.583 163.185C120.331 163.958 120.932 164.596 121.354 165.068C121.393 165.112 121.431 165.155 121.467 165.197C121.567 165.12 121.677 165.033 121.797 164.937C122.584 164.31 123.742 163.338 125.224 162.064C128.186 159.517 132.407 155.794 137.471 151.278C147.599 142.248 161.079 130.065 174.553 117.834C188.027 105.604 201.493 93.3262 211.591 84.1062C216.64 79.4962 220.846 75.6507 223.791 72.9577C225.263 71.6112 226.42 70.5528 227.208 69.8311L227.64 69.4362L181.216 17.6758L68.9341 114.078ZM120.254 167.076C120.253 167.074 120.255 167.078 120.254 167.076V167.076Z" fill="white"/>
<path d="M229.856 70.2956L230.634 69.5835L181.41 14.7011L65.7598 113.995L66.6127 114.808M229.856 70.2956L229.137 69.5099C229.856 70.2956 229.857 70.2948 229.856 70.2956ZM229.856 70.2956L229.851 70.3001L228.647 71.4027C227.858 72.1246 226.701 73.1831 225.229 74.5298C222.284 77.2232 218.077 81.0691 213.028 85.6795C202.929 94.9003 189.461 107.179 175.985 119.412C162.51 131.644 149.024 143.831 138.889 152.868C133.823 157.385 129.59 161.12 126.613 163.679C125.127 164.957 123.945 165.95 123.125 166.603C122.72 166.926 122.383 167.183 122.135 167.35C122.022 167.427 121.876 167.52 121.729 167.585C121.677 167.608 121.495 167.689 121.263 167.696C121.136 167.7 120.886 167.685 120.631 167.519C120.434 167.39 120.305 167.217 120.23 167.041C120.219 167.026 120.205 167.008 120.187 166.985C120.1 166.873 119.961 166.708 119.763 166.486C119.371 166.046 118.794 165.433 118.052 164.666C116.57 163.135 114.462 161.024 111.932 158.526C106.875 153.531 100.155 147.009 93.4394 140.531C86.7247 134.053 80.0178 127.623 74.9894 122.811C72.4753 120.405 70.3809 118.404 68.915 117.005C68.1821 116.305 67.6064 115.755 67.2138 115.381L66.6127 114.808M66.6127 114.808C66.6123 114.807 66.6121 114.807 67.3471 114.036L66.6127 114.808ZM120.254 167.076C120.255 167.077 120.252 167.073 120.252 167.073M120.254 167.076C120.255 167.078 120.253 167.074 120.254 167.076ZM70.3863 115.463C69.7957 114.9 69.3071 114.433 68.9341 114.078L181.216 17.6758L227.64 69.4362L227.208 69.8311C226.42 70.5528 225.263 71.6112 223.791 72.9577C220.846 75.6507 216.64 79.4962 211.591 84.1062C201.493 93.3262 188.027 105.604 174.553 117.834C161.079 130.065 147.599 142.248 137.471 151.278C132.407 155.794 128.186 159.517 125.224 162.064C123.742 163.338 122.584 164.31 121.797 164.937C121.677 165.033 121.567 165.12 121.467 165.197C121.431 165.155 121.393 165.112 121.354 165.068C120.932 164.596 120.331 163.958 119.583 163.185C118.084 161.636 115.962 159.511 113.43 157.01C108.363 152.006 101.635 145.477 94.9186 138.998C88.2011 132.517 81.492 126.084 76.4625 121.271C73.9476 118.865 71.8526 116.863 70.3863 115.463Z" stroke="white" stroke-width="27.6972" stroke-miterlimit="10" stroke-linejoin="round"/>
<path fill-rule="evenodd" clip-rule="evenodd" d="M171.124 33.007L171.139 33.0108L171.202 33.0259C171.26 33.0395 171.349 33.0598 171.467 33.0848C171.702 33.1348 172.052 33.2038 172.498 33.2765C173.391 33.4219 174.665 33.5815 176.176 33.6347C179.21 33.7415 183.135 33.4176 186.839 31.7489L187.536 31.4352L215.547 61.5131L215.097 62.2058L215.096 62.2079L215.094 62.2106L215.081 62.2327C215.072 62.2483 215.059 62.2708 215.042 62.2999C215.032 62.3185 215.02 62.3398 215.007 62.3638C214.94 62.4872 214.841 62.6818 214.728 62.9451C214.5 63.4718 214.214 64.2728 214.004 65.3294C213.587 67.4355 213.467 70.5856 214.764 74.6401L214.955 75.2376L214.525 75.6945C211.193 79.2369 194.73 94.3154 179.163 108.453C171.366 115.535 163.775 122.397 158.133 127.489C155.313 130.035 152.979 132.139 151.351 133.606L148.802 135.901L148.8 135.903C148.799 135.903 148.799 135.903 148.086 135.111L148.8 135.903L148.319 136.334L79.4731 110.719L106.943 86.1722L170.595 32.8717L171.124 33.007ZM171.141 35.1933L108.338 87.7837L83.5268 109.954L147.853 133.888L149.925 132.023C151.553 130.556 153.886 128.453 156.706 125.908C162.347 120.817 169.936 113.956 177.731 106.876C192.756 93.2301 208.476 78.8335 212.547 74.6777C211.334 70.5502 211.452 67.2449 211.915 64.9148C212.156 63.6963 212.491 62.7515 212.771 62.1012C212.818 61.9936 212.863 61.8941 212.905 61.8026L187.008 33.9944C183.12 35.5788 179.138 35.8709 176.101 35.7639C174.485 35.707 173.12 35.5364 172.155 35.3793C171.74 35.3116 171.398 35.2463 171.141 35.1933Z" fill="white"/>
<path d="M148.8 135.903L148.802 135.901L151.351 133.606C152.979 132.139 155.313 130.035 158.133 127.489C163.775 122.397 171.366 115.535 179.163 108.453C194.73 94.3154 211.193 79.2369 214.525 75.6945L214.955 75.2376L214.764 74.6401C213.467 70.5856 213.587 67.4355 214.004 65.3294C214.214 64.2728 214.5 63.4718 214.728 62.9451C214.841 62.6818 214.94 62.4872 215.007 62.3638C215.02 62.3398 215.032 62.3185 215.042 62.2999C215.059 62.2708 215.072 62.2483 215.081 62.2327L215.094 62.2106L215.096 62.2079L215.097 62.2058L215.547 61.5131L187.536 31.4352L186.839 31.7489C183.135 33.4176 179.21 33.7415 176.176 33.6347C174.665 33.5815 173.391 33.4219 172.498 33.2765C172.052 33.2038 171.702 33.1348 171.467 33.0848C171.349 33.0598 171.26 33.0395 171.202 33.0259L171.139 33.0108L171.124 33.007L170.595 32.8717L106.943 86.1722L79.4731 110.719L148.319 136.334L148.8 135.903ZM148.8 135.903C148.799 135.903 148.799 135.903 148.086 135.111L148.8 135.903ZM108.338 87.7837L171.141 35.1933C171.398 35.2463 171.74 35.3116 172.155 35.3793C173.12 35.5364 174.485 35.707 176.101 35.7639C179.138 35.8709 183.12 35.5788 187.008 33.9944L212.905 61.8026C212.863 61.8941 212.818 61.9936 212.771 62.1012C212.491 62.7515 212.156 63.6963 211.915 64.9148C211.452 67.2449 211.334 70.5502 212.547 74.6777C208.476 78.8335 192.756 93.2301 177.731 106.876C169.936 113.956 162.347 120.817 156.706 125.908C153.886 128.453 151.553 130.556 149.925 132.023L147.853 133.888L83.5268 109.954L108.338 87.7837Z" stroke="white" stroke-width="27.6972" stroke-miterlimit="10" stroke-linejoin="round"/>
<path d="M22.7499 90.108C25.2991 90.108 132.268 86.6844 166.563 85.5847C172.295 85.4009 177.026 89.9981 177.026 95.7331V202.417C177.026 208.717 171.736 213.724 165.446 213.379L22.1426 205.511L22.7499 90.108Z" fill="white" stroke="white" stroke-width="27.6972" stroke-miterlimit="10" stroke-linejoin="round"/>
<path fill-rule="evenodd" clip-rule="evenodd" d="M175.961 95.7332C175.961 90.5978 171.725 86.4851 166.597 86.6495C133.957 87.6962 35.3542 90.8523 23.81 91.1507L23.2135 204.503L165.505 212.315C171.184 212.627 175.961 208.106 175.961 202.417V95.7332ZM166.529 84.52C172.864 84.3169 178.092 89.3986 178.092 95.7332V202.417C178.092 209.328 172.288 214.822 165.388 214.443L21.0723 206.52L21.6905 89.0428H22.7502C25.2766 89.0428 132.212 85.6205 166.529 84.52Z" fill="white" stroke="white" stroke-width="27.6972" stroke-miterlimit="10" stroke-linejoin="round"/>
<path fill-rule="evenodd" clip-rule="evenodd" d="M29.6753 95.9246C29.981 95.9166 30.3461 95.9066 30.7662 95.8949L30.7065 93.7651C29.4832 93.7994 28.7741 93.8169 28.6155 93.8169H27.5558L27.5391 97.007L29.6696 97.0182L29.6753 95.9246Z" fill="white" stroke="white" stroke-width="27.6972" stroke-miterlimit="10" stroke-linejoin="round"/>
<path fill-rule="evenodd" clip-rule="evenodd" d="M160.837 89.6573C161.544 89.6346 162.238 89.6831 162.911 89.7967L162.557 91.8976C162.023 91.8074 161.47 91.7686 160.905 91.7868L158.831 91.8533L158.763 89.7238L160.837 89.6573ZM150.376 89.9925L154.564 89.8584L154.632 91.9878L150.444 92.122L150.376 89.9925ZM141.973 90.2615L146.175 90.127L146.244 92.2565L142.041 92.391L141.973 90.2615ZM133.576 90.5301L137.773 90.3959L137.842 92.5254L133.644 92.6596L133.576 90.5301ZM125.185 90.7982L129.38 90.6642L129.448 92.7936L125.253 92.9276L125.185 90.7982ZM116.794 91.066L120.99 90.9321L121.058 93.0616L116.862 93.1954L116.794 91.066ZM108.399 91.3335L112.597 91.1998L112.665 93.3293L108.467 93.463L108.399 91.3335ZM166.773 91.2915C167.945 92.0436 168.955 93.0249 169.742 94.1733L167.985 95.3776C167.358 94.4636 166.554 93.6825 165.622 93.0843L166.773 91.2915ZM100.004 91.6008L104.201 91.4672L104.269 93.5967L100.072 93.7302L100.004 91.6008ZM91.613 91.8674L95.8078 91.7342L95.8754 93.8636L91.6806 93.9969L91.613 91.8674ZM83.2172 92.1337L87.4155 92.0006L87.483 94.1301L83.2846 94.2632L83.2172 92.1337ZM74.8202 92.3994L79.0186 92.2666L79.086 94.3961L74.8875 94.5289L74.8202 92.3994ZM66.4242 92.6643L70.622 92.532L70.6892 94.6615L66.4912 94.7938L66.4242 92.6643ZM58.0293 92.9281L62.2265 92.7964L62.2934 94.9259L58.096 95.0576L58.0293 92.9281ZM49.6459 93.19L53.8342 93.0594L53.9007 95.1889L49.7121 95.3195L49.6459 93.19ZM41.2355 93.4501L45.4529 93.3201L45.5188 95.4496L41.3009 95.5797L41.2355 93.4501ZM34.9762 93.6402L37.0628 93.5774L37.1272 95.7069L35.04 95.7698L34.9762 93.6402ZM171.354 97.9868C171.488 98.6558 171.559 99.3475 171.559 100.055V102.285H169.428V100.055C169.428 99.4893 169.372 98.9383 169.265 98.407L171.354 97.9868ZM171.559 106.744V111.204H169.428V106.744H171.559ZM171.559 115.663V120.123H169.428V115.663H171.559ZM171.559 124.582V129.042H169.428V124.582H171.559ZM171.559 133.502V137.961H169.428V133.502H171.559ZM171.559 142.421V146.88H169.428V142.421H171.559ZM171.559 151.34V155.799H169.428V151.34H171.559ZM171.559 160.259V164.719H169.428V160.259H171.559ZM171.559 169.178V173.638H169.428V169.178H171.559ZM171.559 178.097V182.557H169.428V178.097H171.559ZM171.559 187.016V191.476H169.428V187.016H171.559ZM171.559 195.935V198.165C171.559 198.936 171.481 199.69 171.332 200.417L169.245 199.99C169.365 199.402 169.428 198.792 169.428 198.165V195.935H171.559ZM34.4044 202.426L32.2793 202.309L32.3961 200.182L34.5212 200.299L34.4044 202.426ZM42.9048 202.893L38.6546 202.659L38.7714 200.532L43.0216 200.765L42.9048 202.893ZM51.4053 203.359L47.1551 203.126L47.2719 200.999L51.5221 201.232L51.4053 203.359ZM59.9057 203.826L55.6555 203.593L55.7723 201.465L60.0225 201.699L59.9057 203.826ZM68.4061 204.293L64.1559 204.059L64.2727 201.932L68.5229 202.165L68.4061 204.293ZM76.9066 204.759L72.6564 204.526L72.7732 202.399L77.0234 202.632L76.9066 204.759ZM85.407 205.226L81.1568 204.993L81.2736 202.865L85.5238 203.099L85.407 205.226ZM93.9074 205.693L89.6572 205.459L89.774 203.332L94.0242 203.565L93.9074 205.693ZM169.549 204.557C168.68 205.799 167.566 206.854 166.278 207.653L165.154 205.843C166.197 205.196 167.1 204.341 167.803 203.335L169.549 204.557ZM102.408 206.16L98.1577 205.926L98.2745 203.799L102.525 204.032L102.408 206.16ZM110.908 206.626L106.658 206.393L106.775 204.266L111.025 204.499L110.908 206.626ZM119.409 207.093L115.159 206.86L115.275 204.732L119.526 204.966L119.409 207.093ZM127.909 207.56L123.659 207.326L123.776 205.199L128.026 205.432L127.909 207.56ZM136.41 208.026L132.159 207.793L132.276 205.666L136.526 205.899L136.41 208.026ZM144.91 208.493L140.66 208.26L140.777 206.132L145.027 206.366L144.91 208.493ZM153.411 208.96L149.16 208.726L149.277 206.599L153.527 206.832L153.411 208.96ZM159.786 209.31L157.661 209.193L157.778 207.066L159.903 207.182C160.528 207.217 161.141 207.187 161.735 207.099L162.047 209.206C161.312 209.315 160.556 209.352 159.786 209.31Z" fill="white" stroke="white" stroke-width="27.6972" stroke-miterlimit="10" stroke-linejoin="round" stroke-dasharray="4.28 4.28"/>
<path fill-rule="evenodd" clip-rule="evenodd" d="M29.1275 200.002L29.1334 198.885L27.0028 198.874L26.9863 202.018L30.1258 202.19L30.2426 200.063L29.1275 200.002Z" fill="white" stroke="white" stroke-width="27.6972" stroke-miterlimit="10" stroke-linejoin="round"/>
<path fill-rule="evenodd" clip-rule="evenodd" d="M29.659 99.2319L29.6476 101.396L27.5171 101.385L27.5285 99.2207L29.659 99.2319ZM29.6249 105.724L29.6021 110.053L27.4716 110.042L27.4943 105.713L29.6249 105.724ZM29.5793 114.381L29.5565 118.71L27.426 118.698L27.4488 114.37L29.5793 114.381ZM29.5337 123.038L29.511 127.366L27.3804 127.355L27.4032 123.027L29.5337 123.038ZM29.4882 131.695L29.4654 136.023L27.3349 136.012L27.3577 131.684L29.4882 131.695ZM29.4426 140.352L29.4198 144.68L27.2893 144.669L27.3121 140.34L29.4426 140.352ZM29.3971 149.008L29.3743 153.337L27.2438 153.325L27.2665 148.997L29.3971 149.008ZM29.3515 157.665L29.3287 161.993L27.1982 161.982L27.221 157.654L29.3515 157.665ZM29.3059 166.322L29.2832 170.65L27.1526 170.639L27.1754 166.311L29.3059 166.322ZM29.2604 174.979L29.2376 179.307L27.1071 179.296L27.1299 174.967L29.2604 174.979ZM29.2148 183.635L29.192 187.964L27.0615 187.952L27.0843 183.624L29.2148 183.635ZM29.1693 192.292L29.1579 194.456L27.0273 194.445L27.0387 192.281L29.1693 192.292Z" fill="white" stroke="white" stroke-width="27.6972" stroke-miterlimit="10" stroke-linejoin="round" stroke-dasharray="4.43 4.43"/>
<path d="M197.643 168.039C197.662 169.26 196.655 170.246 195.435 170.202L147.882 168.462C145.529 168.462 143.621 166.554 143.621 164.201V138.102C143.621 135.749 145.529 133.841 147.882 133.841L194.87 131.52C196.073 131.461 197.087 132.41 197.105 133.615L197.643 168.039Z" fill="white" stroke="white" stroke-width="27.6972" stroke-miterlimit="10" stroke-linejoin="round"/>
<path fill-rule="evenodd" clip-rule="evenodd" d="M196.041 133.632C196.032 133.029 195.525 132.555 194.923 132.584L147.909 134.906H147.883C146.118 134.906 144.687 136.337 144.687 138.102V164.201C144.687 165.966 146.118 167.397 147.883 167.397H147.903L195.475 169.138C196.085 169.16 196.589 168.667 196.579 168.056L196.041 133.632ZM194.818 130.456C196.623 130.367 198.143 131.791 198.171 133.598L198.709 168.023C198.738 169.853 197.226 171.334 195.397 171.267L147.862 169.527C144.93 169.516 142.557 167.136 142.557 164.201V138.102C142.557 135.17 144.926 132.791 147.855 132.776L194.818 130.456Z" fill="white"/>
<path d="M194.818 130.456C196.623 130.367 198.143 131.791 198.171 133.598L198.709 168.023C198.738 169.853 197.226 171.334 195.397 171.267L147.862 169.527C144.93 169.516 142.557 167.136 142.557 164.201V138.102C142.557 135.17 144.926 132.791 147.855 132.776L194.818 130.456ZM194.818 130.456L194.871 131.52M194.923 132.584C195.525 132.555 196.032 133.029 196.041 133.632L196.579 168.056C196.589 168.667 196.085 169.16 195.475 169.138L147.903 167.397H147.883C146.118 167.397 144.687 165.966 144.687 164.201V138.102C144.687 136.337 146.118 134.906 147.883 134.906H147.909L194.923 132.584Z" stroke="white" stroke-width="27.6972" stroke-miterlimit="10" stroke-linejoin="round"/>
<path d="M161.842 161.972C168.322 161.972 173.574 156.719 173.574 150.239C173.574 143.759 168.322 138.507 161.842 138.507C155.362 138.507 150.109 143.759 150.109 150.239C150.109 156.719 155.362 161.972 161.842 161.972Z" fill="white" stroke="white" stroke-width="27.6972" stroke-miterlimit="10" stroke-linejoin="round"/>
<path fill-rule="evenodd" clip-rule="evenodd" d="M161.841 139.572C155.949 139.572 151.174 144.348 151.174 150.239C151.174 156.13 155.949 160.906 161.841 160.906C167.732 160.906 172.508 156.13 172.508 150.239C172.508 144.348 167.732 139.572 161.841 139.572ZM149.043 150.239C149.043 143.171 154.773 137.441 161.841 137.441C168.909 137.441 174.639 143.171 174.639 150.239C174.639 157.307 168.909 163.037 161.841 163.037C154.773 163.037 149.043 157.307 149.043 150.239Z" fill="white" stroke="white" stroke-width="27.6972" stroke-miterlimit="10" stroke-linejoin="round"/>
<path d="M239.386 108.653C241.31 114.587 233.557 122.417 222.069 126.142C210.582 129.866 199.71 128.075 197.786 122.141L196.465 117.073L238.17 104.01L239.386 108.653Z" fill="white" stroke="white" stroke-width="27.6972" stroke-miterlimit="10" stroke-linejoin="round"/>
<path fill-rule="evenodd" clip-rule="evenodd" d="M238.92 102.659L240.41 108.355C241.538 111.887 239.739 115.72 236.515 118.976C233.239 122.285 228.271 125.252 222.399 127.155C216.528 129.059 210.764 129.572 206.17 128.815C201.636 128.068 197.922 126.01 196.774 122.47L196.764 122.44L195.18 116.36L238.92 102.659ZM197.753 117.787L198.81 121.841C199.598 124.221 202.278 126.014 206.516 126.713C210.711 127.404 216.127 126.949 221.742 125.129C227.358 123.308 232.01 120.498 235.001 117.477C238.035 114.413 239.15 111.376 238.374 108.982L238.364 108.953L237.424 105.36L197.753 117.787Z" fill="white" stroke="white" stroke-width="27.6972" stroke-miterlimit="10" stroke-linejoin="round"/>
<path d="M220.789 120.737C232.276 117.013 239.932 108.882 237.887 102.577C235.843 96.272 224.873 94.18 213.386 97.9046C201.898 101.629 194.243 109.76 196.287 116.065C198.332 122.37 209.301 124.462 220.789 120.737Z" fill="white" stroke="white" stroke-width="27.6972" stroke-miterlimit="10" stroke-linejoin="round"/>
<path fill-rule="evenodd" clip-rule="evenodd" d="M200.54 106.747C197.56 109.912 196.456 113.125 197.303 115.736C198.149 118.348 200.929 120.302 205.199 121.116C209.425 121.922 214.856 121.542 220.462 119.724C226.069 117.906 230.689 115.027 233.639 111.895C236.619 108.73 237.723 105.517 236.876 102.906C236.029 100.295 233.25 98.3406 228.98 97.5263C224.754 96.7204 219.323 97.1003 213.716 98.9181C208.11 100.736 203.489 103.615 200.54 106.747ZM198.989 105.287C202.228 101.847 207.178 98.7982 213.059 96.8914C218.94 94.9847 224.738 94.5484 229.379 95.4335C233.977 96.3103 237.705 98.5547 238.903 102.249C240.1 105.943 238.399 109.947 235.19 113.355C231.951 116.795 227 119.844 221.119 121.751C215.239 123.658 209.441 124.094 204.799 123.209C200.202 122.332 196.474 120.087 195.276 116.394C194.078 112.7 195.78 108.695 198.989 105.287Z" fill="white" stroke="white" stroke-width="27.6972" stroke-miterlimit="10" stroke-linejoin="round"/>
<path fill-rule="evenodd" clip-rule="evenodd" d="M204.572 108.372C202.153 110.642 201.371 112.727 201.854 114.216C202.337 115.704 204.193 116.933 207.483 117.352C210.682 117.759 214.858 117.329 219.227 115.913C223.595 114.497 227.229 112.395 229.58 110.188C231.999 107.918 232.781 105.833 232.298 104.345C231.815 102.856 229.959 101.627 226.669 101.208C223.47 100.801 219.294 101.231 214.925 102.647C210.557 104.064 206.923 106.166 204.572 108.372ZM203.114 106.819C205.741 104.353 209.67 102.112 214.268 100.621C218.867 99.1297 223.363 98.6395 226.938 99.0945C230.421 99.5379 233.438 100.954 234.325 103.688C235.211 106.422 233.598 109.339 231.038 111.741C228.411 114.207 224.482 116.449 219.884 117.94C215.285 119.431 210.789 119.921 207.214 119.466C203.731 119.022 200.714 117.607 199.827 114.873C198.941 112.139 200.553 109.222 203.114 106.819Z" fill="white" stroke="white" stroke-width="27.6972" stroke-miterlimit="10" stroke-linejoin="round"/>
<path d="M100.233 35.7786C101.009 30.807 91.9649 25.2673 80.0331 23.4052C68.1013 21.5432 57.7998 24.064 57.0239 29.0355C56.2481 34.0071 65.2918 39.5468 77.2235 41.4089C89.1553 43.2709 99.4569 40.7501 100.233 35.7786Z" fill="white" stroke="white" stroke-width="27.6972" stroke-miterlimit="10" stroke-linejoin="round"/>
<path fill-rule="evenodd" clip-rule="evenodd" d="M62.9168 35.48C66.4255 37.6293 71.5281 39.4417 77.3897 40.3565C83.2514 41.2712 88.6636 41.0997 92.6603 40.1217C94.6612 39.6321 96.2541 38.9533 97.3684 38.1526C98.4785 37.3549 99.0454 36.4907 99.1821 35.6144C99.3189 34.7382 99.0423 33.7424 98.228 32.6444C97.4107 31.5422 96.1003 30.4103 94.3438 29.3344C90.835 27.1851 85.7325 25.3727 79.8708 24.4579C74.0092 23.5432 68.597 23.7147 64.6002 24.6927C62.5994 25.1823 61.0065 25.8611 59.8921 26.6618C58.782 27.4595 58.2152 28.3237 58.0784 29.1999C57.9417 30.0762 58.2183 31.072 59.0325 32.17C59.8499 33.2722 61.1602 34.4041 62.9168 35.48ZM57.3212 33.4391C56.2851 32.0419 55.7222 30.481 55.9733 28.8714C56.2245 27.2619 57.2363 25.9467 58.6488 24.9316C60.0571 23.9197 61.9308 23.1525 64.0938 22.6232C68.4247 21.5634 74.1292 21.4056 80.1993 22.3529C86.2694 23.3001 91.6546 25.1886 95.4567 27.5176C97.3555 28.6807 98.9064 29.9824 99.9394 31.3753C100.975 32.7725 101.538 34.3334 101.287 35.943C101.036 37.5525 100.024 38.8677 98.6117 39.8828C97.2034 40.8947 95.3297 41.6619 93.1668 42.1912C88.8359 43.251 83.1313 43.4088 77.0612 42.4615C70.9911 41.5143 65.6059 39.6258 61.8039 37.2968C59.905 36.1337 58.3542 34.832 57.3212 33.4391Z" fill="white" stroke="white" stroke-width="27.6972" stroke-miterlimit="10" stroke-linejoin="round"/>
<path fill-rule="evenodd" clip-rule="evenodd" d="M66.6707 32.7786C69.4599 34.1233 73.4799 35.3291 78.0628 36.0443C82.6457 36.7595 86.8419 36.8359 89.9082 36.4049C91.4483 36.1885 92.6411 35.8524 93.4443 35.4472C94.2758 35.0277 94.4761 34.6512 94.5075 34.4502C94.5388 34.2492 94.4628 33.8296 93.7987 33.1767C93.1571 32.546 92.1234 31.8624 90.7225 31.187C87.9334 29.8423 83.9134 28.6365 79.3305 27.9213C74.7475 27.2061 70.5513 27.1297 67.485 27.5607C65.945 27.7771 64.7521 28.1132 63.9489 28.5184C63.1174 28.9379 62.9171 29.3144 62.8858 29.5154C62.8544 29.7165 62.9304 30.136 63.5946 30.7889C64.2361 31.4196 65.2699 32.1032 66.6707 32.7786ZM62.101 32.3083C61.2494 31.4711 60.5917 30.3981 60.7807 29.1869C60.9697 27.9757 61.9231 27.1541 62.9893 26.6163C64.0837 26.0641 65.5324 25.6836 67.1885 25.4509C70.5144 24.9834 74.9285 25.078 79.659 25.8162C84.3894 26.5544 88.6225 27.8093 91.6478 29.2679C93.1542 29.9942 94.4181 30.798 95.2922 31.6573C96.1438 32.4945 96.8016 33.5675 96.6125 34.7787C96.4235 35.9899 95.4701 36.8115 94.404 37.3494C93.3095 37.9015 91.8608 38.282 90.2048 38.5148C86.8789 38.9822 82.4647 38.8876 77.7343 38.1494C73.0038 37.4112 68.7708 36.1563 65.7454 34.6977C64.239 33.9714 62.9752 33.1676 62.101 32.3083Z" fill="white" stroke="white" stroke-width="27.6972" stroke-miterlimit="10" stroke-linejoin="round"/>
<path d="M42.153 93.5704C44.5822 93.5704 146.517 90.3079 179.198 89.26C184.66 89.0848 189.169 93.4657 189.169 98.9309V200.595C189.169 206.598 184.128 211.369 178.134 211.04L41.5742 203.543L42.153 93.5704Z" fill="black" stroke="black" stroke-width="2.13055" stroke-miterlimit="10"/>
<path d="M34.9358 180.735L81.0439 37.7789L149.672 58.2846C149.672 58.2846 109.327 198.595 108.323 197.455C107.32 196.316 34.9358 180.735 34.9358 180.735Z" fill="#43C37E" stroke="black" stroke-width="2.13055" stroke-miterlimit="10"/>
<path d="M46.324 111.786L185.248 54.6677L213.912 120.308C213.912 120.308 80.7296 180.117 80.9518 178.615C81.1741 177.113 46.324 111.786 46.324 111.786Z" fill="#43C37E" stroke="black" stroke-width="2.13055" stroke-miterlimit="10"/>
<path d="M55.1722 136.62L81.4487 58.4613C81.4487 58.4613 89.9354 55.8454 94.7613 48.7647L132.819 59.3634C132.819 59.3634 132.665 65.1634 139.396 70.9712C137.434 80.3859 114.799 156.553 114.799 156.553L45.0742 170.191L55.1722 136.62Z" stroke="black" stroke-width="2.13055" stroke-miterlimit="10"/>
<path d="M93.0751 98.7471L169.719 68.3342C169.719 68.3342 177.197 73.1245 185.72 72.2364L202.205 108.138C202.205 108.138 197.677 111.766 197.59 120.656C189.135 125.238 116.363 157.145 116.363 157.145L60.9224 112.717L93.0751 98.7471Z" stroke="black" stroke-width="2.13055" stroke-miterlimit="10"/>
<path d="M96.4095 40.0878C95.7037 45.5697 85.5719 47.5958 74.0387 45.4142C62.5055 43.2327 53.1323 39.4561 53.8382 33.9743L54.7227 29.4351L97.4748 36.892L96.4095 40.0878Z" fill="black" stroke="black" stroke-width="2.13055" stroke-miterlimit="10"/>
<path d="M64.9164 114.094L178.883 16.2468L226.706 69.5683C226.706 69.5683 119.036 168.169 118.776 166.673C118.515 165.177 64.9164 114.094 64.9164 114.094Z" fill="#43C37E" stroke="black" stroke-width="2.13055" stroke-miterlimit="10"/>
<path d="M105.206 87.0372L168.426 34.0983C168.426 34.0983 177.03 36.2985 184.843 32.7794L211.766 61.6897C211.766 61.6897 208.607 66.556 211.315 75.0238C204.726 82.0289 145.652 135.17 145.652 135.17L79.0657 110.396L105.206 87.0372Z" stroke="black" stroke-width="2.13055" stroke-miterlimit="10"/>
<path d="M20.3183 90.1693C22.8674 90.1693 129.836 86.7457 164.131 85.646C169.863 85.4621 174.594 90.0594 174.594 95.7944V202.479C174.594 208.778 169.304 213.786 163.014 213.44L19.7109 205.573L20.3183 90.1693Z" fill="white" stroke="black" stroke-width="2.13055" stroke-miterlimit="10"/>
<path d="M26.1719 97.0717L26.1831 94.9413C26.361 94.9413 27.0916 94.9231 28.3039 94.8892" stroke="black" stroke-width="2.13055" stroke-miterlimit="10"/>
<path d="M32.5747 94.7637C55.231 94.0858 131.398 91.6479 158.438 90.7808C163.709 90.6117 168.06 94.8396 168.06 100.114V198.224C168.06 204.017 163.195 208.622 157.411 208.305L29.9043 201.304" stroke="black" stroke-width="2.13055" stroke-miterlimit="10" stroke-dasharray="4.28 4.28"/>
<path d="M27.7504 201.186L25.623 201.069L25.6342 198.939" stroke="black" stroke-width="2.13055" stroke-miterlimit="10"/>
<path d="M25.6562 194.51L26.1574 99.2856" stroke="black" stroke-width="2.13055" stroke-miterlimit="10" stroke-dasharray="4.43 4.43"/>
<path d="M195.21 168.099C195.229 169.319 194.221 170.306 193.002 170.261L145.449 168.521C143.095 168.521 141.188 166.613 141.188 164.26V138.161C141.188 135.808 143.095 133.9 145.449 133.9L192.437 131.579C193.64 131.52 194.653 132.469 194.672 133.674L195.21 168.099Z" fill="white" stroke="black" stroke-width="2.13055" stroke-miterlimit="10"/>
<path d="M159.41 162.033C165.89 162.033 171.143 156.78 171.143 150.3C171.143 143.82 165.89 138.568 159.41 138.568C152.931 138.568 147.678 143.82 147.678 150.3C147.678 156.78 152.931 162.033 159.41 162.033Z" fill="#FCCB4C" stroke="black" stroke-width="2.13055" stroke-miterlimit="10"/>
<path d="M236.956 108.712C238.88 114.646 231.127 122.476 219.64 126.201C208.152 129.925 197.28 128.134 195.356 122.2L194.035 117.132L235.741 104.069L236.956 108.712Z" fill="black" stroke="black" stroke-width="2.13055" stroke-miterlimit="10"/>
<path d="M218.359 120.799C229.847 117.074 237.502 108.943 235.458 102.638C233.413 96.3332 222.444 94.2413 210.956 97.9658C199.469 101.69 191.813 109.821 193.858 116.126C195.902 122.431 206.872 124.523 218.359 120.799Z" fill="#FCCB4C" stroke="black" stroke-width="2.13055" stroke-miterlimit="10"/>
<path d="M217.121 116.987C226.088 114.08 232.247 108.3 230.878 104.077C229.509 99.8544 221.13 98.7878 212.163 101.695C203.197 104.602 197.038 110.382 198.407 114.605C199.776 118.828 208.155 119.895 217.121 116.987Z" stroke="black" stroke-width="2.13055" stroke-miterlimit="10"/>
<path d="M97.803 35.8376C98.5789 30.8661 89.5352 25.3264 77.6034 23.4643C65.6717 21.6023 55.3701 24.1231 54.5942 29.0946C53.8184 34.0662 62.8621 39.6059 74.7938 41.4679C86.7256 43.33 97.0272 40.8092 97.803 35.8376Z" fill="#FCCB4C" stroke="black" stroke-width="2.13055" stroke-miterlimit="10"/>
<path d="M93.1284 34.6734C93.5691 31.849 86.3765 28.3811 77.0631 26.9277C67.7497 25.4743 59.8424 26.5857 59.4016 29.4101C58.9608 32.2345 66.1535 35.7024 75.4669 37.1558C84.7803 38.6092 92.6876 37.4978 93.1284 34.6734Z" stroke="black" stroke-width="2.13055" stroke-miterlimit="10"/>
</svg>
