<svg preserveAspectRatio="none" width="110" height="213" viewBox="0 0 110 213" fill="none" xmlns="http://www.w3.org/2000/svg">
<ellipse cx="54.7793" cy="206.826" rx="54.3789" ry="5.82632" fill="black"/>
<path fill-rule="evenodd" clip-rule="evenodd" d="M45.7298 111.738C46.625 108.794 49.8118 107.204 52.8098 108.115L78.7097 115.992C81.6739 116.894 83.4295 119.93 82.6035 122.844V122.847L82.5742 122.943C82.2182 124.114 81.4958 125.072 80.5684 125.743C88.4592 134.302 91.7969 146.434 88.257 158.074C82.8508 175.85 63.5018 185.661 45.0778 180.058C26.6537 174.455 16.0437 155.532 21.4499 137.756C24.9899 126.116 34.517 117.897 45.837 115.181C45.4515 114.137 45.3778 112.976 45.7005 111.838V111.834L45.7298 111.738Z" fill="white"/>
<path d="M52.8098 108.115C49.8118 107.204 46.625 108.794 45.7298 111.738L45.7005 111.834V111.838C45.3778 112.976 45.4515 114.137 45.837 115.181C34.517 117.897 24.9899 126.116 21.4499 137.756M52.8098 108.115L52.6128 108.763M52.8098 108.115L78.7097 115.992C81.6739 116.894 83.4295 119.93 82.6035 122.844V122.847L82.5742 122.943C82.2182 124.114 81.4958 125.072 80.5684 125.743C88.4592 134.302 91.7968 146.434 88.2569 158.074C82.8508 175.85 63.5018 185.661 45.0778 180.058C26.6537 174.455 16.0437 155.532 21.4499 137.756M21.4499 137.756L22.0948 137.952M47.0295 112.118C47.0281 112.123 47.0267 112.127 47.0253 112.132C46.6916 113.229 46.8523 114.367 47.3907 115.324L47.8412 116.125L46.9428 116.318C35.7059 118.732 26.2164 126.737 22.7454 138.15C17.5713 155.163 27.7148 173.362 45.4718 178.763C63.2287 184.163 81.7873 174.693 86.9614 157.68C90.4323 146.267 87.0068 134.334 79.0167 126.072L78.3778 125.412L79.198 124.997C80.1742 124.504 80.9389 123.653 81.2747 122.562C81.276 122.558 81.2774 122.554 81.2787 122.549C81.9419 120.369 80.6467 117.997 78.3157 117.288" stroke="white" stroke-width="17.6035" stroke-miterlimit="10" stroke-linecap="round" stroke-linejoin="round"/>
<path fill-rule="evenodd" clip-rule="evenodd" d="M31.707 138.988C34.0746 131.203 40.5416 125.766 48.1589 124.129L48.4433 125.453C41.2679 126.995 35.2157 132.104 33.0026 139.382L31.707 138.988Z" fill="white" stroke="white" stroke-width="17.6035" stroke-miterlimit="10" stroke-linecap="round" stroke-linejoin="round"/>
<path fill-rule="evenodd" clip-rule="evenodd" d="M65.8333 72.5675C73.1068 86.1986 72.9459 101.602 66.6235 113.186L65.4349 112.537C71.5233 101.382 71.713 86.4629 64.6387 73.205L65.8333 72.5675Z" fill="white" stroke="white" stroke-width="17.6035" stroke-miterlimit="10" stroke-linecap="round" stroke-linejoin="round"/>
<path fill-rule="evenodd" clip-rule="evenodd" d="M52.6221 9L61.8466 31.8419L79.8156 14.9908L73.8523 38.8923L98.2943 35.8214L79.421 51.6529L101 63.5352L76.4256 65.2497L86.8992 87.5465L66.0103 74.489L61.378 98.6837L52.1534 75.8419L34.1844 92.693L40.1477 68.7915L15.7057 71.8624L34.579 56.0308L13 44.1486L37.5745 42.4341L27.1008 20.1373L47.9897 33.1947L52.6221 9Z" fill="white"/>
<path d="M60.9123 93.9146L52.6688 73.5021L36.6109 88.561L41.94 67.2015L20.0975 69.9459L36.9636 55.798L17.6796 45.1795L39.6405 43.6474L30.2807 23.7219L48.948 35.3906L53.0877 13.7691L61.3312 34.1817L77.3891 19.1227L72.06 40.4822L93.9025 37.7379L77.0364 51.8857L96.3204 62.5042L74.3596 64.0364L83.7193 83.9619M52.6221 9L61.8466 31.8419L79.8156 14.9908L73.8523 38.8923L98.2943 35.8214L79.421 51.6529L101 63.5352L76.4256 65.2497L86.8992 87.5465L66.0103 74.489L61.378 98.6837L52.1534 75.8419L34.1844 92.693L40.1477 68.7915L15.7057 71.8624L34.579 56.0308L13 44.1486L37.5745 42.4341L27.1008 20.1373L47.9897 33.1947L52.6221 9Z" stroke="white" stroke-width="17.6035" stroke-miterlimit="10" stroke-linecap="round" stroke-linejoin="round"/>
<path d="M86.3922 119.887C87.8465 119.152 88.9983 117.874 89.4997 116.225V116.225C90.4991 112.939 88.5389 109.433 85.1217 108.394L51.9057 98.2922C48.4885 97.2529 44.9085 99.074 43.9091 102.36V102.36C43.4077 104.008 43.6527 105.712 44.4516 107.132C29.7572 110.289 17.3211 120.765 12.7707 135.727C5.98619 158.035 19.2942 181.839 42.4948 188.896C65.6954 195.952 90.0032 183.587 96.7877 161.279C101.338 146.317 96.8408 130.691 86.3922 119.887Z" fill="white" stroke="white" stroke-width="18" stroke-miterlimit="10"/>
<path d="M66.3967 111.831C72.6021 100.461 72.7774 85.3003 65.6035 71.8558" stroke="black" stroke-width="1.35411" stroke-miterlimit="10"/>
<path d="M85.6785 84.7237L65.9003 72.3606L61.5144 95.2687L52.7803 73.6415L35.7669 89.5965L41.4131 66.966L18.2708 69.8737L36.1405 54.884L15.709 43.6336L38.9767 42.0103L29.0599 20.8991L48.8381 33.2622L53.2241 10.3541L61.9581 31.9813L78.9715 16.0263L73.3253 38.6568L96.4677 35.7491L78.5979 50.7389L99.0294 61.9892L75.7618 63.6126L85.6785 84.7237Z" fill="#F6E06B" stroke="black" stroke-width="1.35411" stroke-miterlimit="10" stroke-linejoin="round"/>
<path d="M72.5908 70.4217L62.3146 63.9982L60.0357 75.9007L55.4976 64.6637L46.6579 72.9535L49.5916 61.1953L37.5674 62.706L46.852 54.9177L36.2363 49.0723L48.3257 48.2289L43.1732 37.26L53.4494 43.6836L55.7282 31.7811L60.2662 43.018L69.106 34.7282L66.1724 46.4865L78.1966 44.9757L68.9118 52.764L79.5276 58.6094L67.4383 59.4529L72.5908 70.4217Z" fill="#F0523B" stroke="black" stroke-width="1.35411" stroke-miterlimit="10"/>
<path d="M86.8355 119.163C88.2899 118.428 89.4416 117.15 89.9431 115.501C90.9424 112.216 88.9823 108.71 85.5651 107.67L52.3491 97.5683C48.9319 96.5291 45.3518 98.3502 44.3525 101.636C43.851 103.284 44.0961 104.988 44.895 106.408C30.2006 109.565 17.7644 120.042 13.2141 135.003C6.42955 157.311 19.7375 181.116 42.9382 188.172C66.1388 195.228 90.4466 182.863 97.2311 160.555C101.781 145.594 97.2842 129.967 86.8355 119.163Z" fill="black" stroke="black" stroke-width="1.73662" stroke-miterlimit="10"/>
<path d="M47.6224 112.77C38.1076 113.113 29.2994 118.575 24.9993 127.947" stroke="white" stroke-width="1.52389" stroke-miterlimit="10" stroke-linecap="round"/>
<rect x="29.6055" y="127.832" width="61.0541" height="23.8951" rx="2.63032" transform="rotate(16.9745 29.6055 127.832)" fill="white" stroke="black" stroke-width="1.88023"/>
<path d="M34.6364 150.634L39.5818 134.433L36.2721 133.422C34.5753 134.423 33.0692 134.798 30.8378 134.648L30.0889 137.101L32.4265 137.815L29.0354 148.924L34.6364 150.634Z" fill="black"/>
<path d="M42.3012 153.126C46.5598 154.425 49.1866 154.772 50.4301 150.698C50.8116 149.449 51.1468 148.185 51.5283 146.935C51.9098 145.685 52.3375 144.449 52.719 143.199C53.9625 139.126 51.59 137.946 47.2156 136.611C42.7024 135.234 39.9509 134.798 38.7263 139.308C38.4264 140.456 38.0802 141.59 37.734 142.724C37.3878 143.858 37.0417 144.992 36.6492 146.112C35.1327 150.583 37.6491 151.705 42.3012 153.126ZM42.9266 150.331C41.9545 150.034 41.7216 149.305 42.1455 147.917L42.6894 146.134C42.974 145.285 43.3696 143.989 43.6381 143.109C43.7935 142.6 43.9348 142.137 44.0388 141.714L44.3144 140.811C44.717 139.492 45.3103 139.04 46.2824 139.337L46.3286 139.351C47.3007 139.648 47.5407 140.354 47.138 141.673L46.8625 142.576C46.7122 142.985 46.5709 143.448 46.4155 143.957C46.147 144.837 45.7514 146.133 45.5131 146.996L44.9691 148.778C44.5452 150.167 43.9449 150.642 42.9729 150.345L42.9266 150.331Z" fill="black"/>
<path d="M56.6482 157.505C60.9069 158.805 63.5336 159.151 64.7771 155.078C65.1586 153.828 65.4938 152.564 65.8753 151.314C66.2568 150.064 66.6846 148.829 67.0661 147.579C68.3095 143.505 65.937 142.326 61.5626 140.991C57.0494 139.613 54.2979 139.178 53.0733 143.687C52.7734 144.835 52.4272 145.969 52.081 147.104C51.7348 148.238 51.3887 149.372 50.9962 150.492C49.4797 154.962 51.9961 156.085 56.6482 157.505ZM57.2736 154.71C56.3015 154.413 56.0686 153.685 56.4925 152.296L57.0365 150.514C57.321 149.664 57.7166 148.368 57.9851 147.489C58.1405 146.98 58.2818 146.517 58.3858 146.093L58.6614 145.19C59.0641 143.871 59.6573 143.42 60.6294 143.716L60.6756 143.731C61.6477 144.027 61.8877 144.733 61.485 146.052L61.2095 146.955C61.0592 147.365 60.9179 147.827 60.7625 148.337C60.494 149.216 60.0984 150.512 59.8601 151.376L59.3161 153.158C58.8922 154.546 58.2919 155.021 57.3199 154.724L57.2736 154.71Z" fill="black"/>
<path d="M69.5795 161.3L71.8191 153.963L71.9116 153.992L73.5373 162.508L79.3929 164.296L77.3065 154.222L84.3614 148.102L78.5983 146.342L72.6393 151.608L72.5467 151.579L74.5249 145.099L68.9701 143.403L64.0248 159.605L69.5795 161.3Z" fill="black"/>
</svg>
