<svg  preserveAspectRatio="none" width="157" height="149" viewBox="0 0 157 149" fill="none" xmlns="http://www.w3.org/2000/svg">
<path d="M10.4277 58.0096C10.4277 58.0096 33.1181 64.8167 39.358 62.5477C45.5979 60.2786 50.1359 27.3776 50.1359 27.3776C50.1359 27.3776 78.4989 43.8281 85.3061 41.5591C92.1132 39.29 99.4876 14.3306 99.4876 14.3306L124.447 71.6238L33.1181 107.361L10.4277 58.0096Z" fill="black" stroke="black" stroke-width="1.67117" stroke-miterlimit="10"/>
<path d="M37.2308 116.296L10.4277 58.0096C10.4277 58.0096 39.9252 76.0201 46.1651 73.7511C52.405 71.4821 58.6448 42.1263 58.6448 42.1263C58.6448 42.1263 86.5604 57.3123 90.8368 55.0315C97.2186 51.628 99.4876 14.8979 99.4876 14.8979C99.4876 14.8979 118.774 58.5769 126.716 75.5947C93.2477 110.765 37.2308 116.296 37.2308 116.296Z" fill="#FCCB4C" stroke="black" stroke-width="1.67117" stroke-miterlimit="10"/>
<path d="M8.72671 59.7115C12.7211 59.7115 15.9592 56.4733 15.9592 52.4789C15.9592 48.4844 12.7211 45.2463 8.72671 45.2463C4.73227 45.2463 1.49414 48.4844 1.49414 52.4789C1.49414 56.4733 4.73227 59.7115 8.72671 59.7115Z" fill="#FCCB4C" stroke="black" stroke-width="1.67117" stroke-miterlimit="10"/>
<path d="M49.0197 31.881C53.0141 31.881 56.2522 28.6429 56.2522 24.6484C56.2522 20.654 53.0141 17.4159 49.0197 17.4159C45.0252 17.4159 41.7871 20.654 41.7871 24.6484C41.7871 28.6429 45.0252 31.881 49.0197 31.881Z" fill="black" stroke="black" stroke-width="1.67117" stroke-miterlimit="10"/>
<path d="M97.217 15.4651C101.211 15.4651 104.45 12.227 104.45 8.23254C104.45 4.23811 101.211 1 97.217 1C93.2225 1 89.9844 4.23811 89.9844 8.23254C89.9844 12.227 93.2225 15.4651 97.217 15.4651Z" fill="#FCCB4C" stroke="black" stroke-width="1.67117" stroke-miterlimit="10"/>
<path d="M56.297 43.1008C60.2914 43.1008 63.5296 39.8627 63.5296 35.8683C63.5296 31.8738 60.2914 28.6357 56.297 28.6357C52.3026 28.6357 49.0645 31.8738 49.0645 35.8683C49.0645 39.8627 52.3026 43.1008 56.297 43.1008Z" fill="#FCCB4C" stroke="black" stroke-width="1.67117" stroke-miterlimit="10"/>
<ellipse cx="80.4023" cy="143" rx="76" ry="6" fill="black"/>
</svg>
