<svg preserveAspectRatio="none" width="149" height="98" viewBox="0 0 149 98" fill="none" xmlns="http://www.w3.org/2000/svg">
<g filter="url(#filter0_d_344_1243)">
<path fill-rule="evenodd" clip-rule="evenodd" d="M38.2079 9.13728C38.0163 9.4285 37.8347 9.77232 37.6736 10.1627H40.9617C40.8006 9.77233 40.619 9.42851 40.4274 9.13729C40.1019 8.64274 39.8017 8.37673 39.6017 8.2483C39.4193 8.13126 39.331 8.13158 39.3182 8.13163L39.3176 8.13163L39.317 8.13163C39.3043 8.13158 39.216 8.13126 39.0336 8.24829C38.8335 8.37672 38.5333 8.64273 38.2079 9.13728ZM60.5665 9.13727C60.7581 9.4285 60.9397 9.77232 61.1009 10.1627H57.8128C57.9739 9.77232 58.1555 9.42849 58.3471 9.13727C58.6725 8.64272 58.9727 8.37672 59.1728 8.24829C59.3551 8.13126 59.4435 8.13158 59.4562 8.13163L59.4568 8.13163L59.4574 8.13163C59.4702 8.13158 59.5585 8.13126 59.7408 8.24829C59.9409 8.37671 60.2411 8.64272 60.5665 9.13727ZM87.2787 4.66733C88.3264 6.25955 89.0666 8.14146 89.467 10.1627H90.1795C90.5799 8.14146 91.32 6.25955 92.3678 4.66733C93.9927 2.19801 96.7008 0 100.27 0C103.84 0 106.548 2.198 108.173 4.66731C109.221 6.25954 109.961 8.14145 110.361 10.1627L114.625 10.1627C114.771 10.1627 114.915 10.1715 115.059 10.189C116.323 10.0613 117.595 10.4057 118.63 11.1212C120.41 12.3526 121.267 14.4346 121.192 16.5917L121.196 85.8126H140.869C142.85 85.8126 144.456 87.4188 144.456 89.4001V89.9741C144.456 91.9554 142.85 93.5616 140.869 93.5616H119.159H7.29455L3.58748 93.5616C1.60617 93.5616 0 91.9554 0 89.9741V89.4001C0 87.4188 1.60617 85.8126 3.58748 85.8126H5.57446L20.4663 27.0498C20.49 26.5573 20.6131 26.0909 20.8159 25.6701L24.06 12.8689C24.4634 11.2773 25.8957 10.1627 27.5376 10.1627L29.2267 10.1627C29.6271 8.14145 30.3673 6.25954 31.4151 4.66732C33.04 2.19801 35.7481 0 39.3176 0C42.8871 0 45.5953 2.198 47.2202 4.66731C48.2496 6.23169 48.9822 8.07571 49.3872 10.0568C49.7923 8.07572 50.5248 6.2317 51.5542 4.66733C53.1791 2.19801 55.8873 0 59.4568 0C63.0263 0 65.7345 2.19801 67.3594 4.66733C68.3016 6.09924 68.9951 7.76544 69.4165 9.55655C69.8378 7.76544 70.5313 6.09924 71.4735 4.66733C73.0984 2.19801 75.8066 0 79.3761 0C82.9456 0 85.6538 2.19801 87.2787 4.66733ZM81.0201 10.1627H77.732C77.8932 9.77232 78.0747 9.4285 78.2664 9.13727C78.5918 8.64272 78.892 8.37672 79.0921 8.24829C79.2744 8.13126 79.3627 8.13158 79.3755 8.13163L79.3761 8.13163L79.3767 8.13163C79.3894 8.13158 79.4778 8.13126 79.6601 8.24829C79.8602 8.37672 80.1604 8.64272 80.4858 9.13726C80.6774 9.42849 80.859 9.77232 81.0201 10.1627ZM101.914 10.1627H98.6263C98.7874 9.77232 98.969 9.4285 99.1606 9.13727C99.4861 8.64272 99.7863 8.37672 99.9863 8.24829C100.169 8.13126 100.257 8.13158 100.27 8.13163L100.27 8.13163L100.271 8.13163C100.284 8.13158 100.372 8.13126 100.554 8.2483C100.754 8.37673 101.055 8.64275 101.38 9.13729C101.572 9.42851 101.753 9.77233 101.914 10.1627Z" fill="white"/>
<path d="M27.3303 13.1541H114.56L104.276 89.687H8.13159L27.3303 13.1541Z" fill="white" stroke="black" stroke-width="1.2" stroke-miterlimit="10"/>
<path d="M95.6763 89.8478C96.5294 87.6142 107.235 42.5619 113.73 15.1022C114.425 12.1643 117.753 12.9713 117.604 16.0406L117.609 89.8478H95.6763Z" fill="black" stroke="black" stroke-width="1.2" stroke-miterlimit="10"/>
<path d="M24.0493 27.0342H112.653" stroke="black" stroke-width="1.2" stroke-miterlimit="10"/>
<path d="M26.3152 63.1641C26.3152 63.1641 48.2826 70.5314 61.2691 53.046C78.685 35.8009 92.0783 35.8008 92.0783 35.8008" stroke="#EB602F" stroke-width="9" stroke-miterlimit="10"/>
<path d="M34.7969 76.771L35.3901 74.4683" stroke="black" stroke-width="1.2" stroke-miterlimit="10"/>
<path d="M35.9988 72.1023L36.9127 68.5542" stroke="black" stroke-width="1.2" stroke-miterlimit="10" stroke-dasharray="3.67 3.67"/>
<path d="M37.2173 67.3717L37.8105 65.0688" stroke="black" stroke-width="1.2" stroke-miterlimit="10"/>
<path d="M55.0344 76.9506L55.6344 74.6509" stroke="black" stroke-width="1.2" stroke-miterlimit="10"/>
<path d="M56.6423 70.7901L60.1682 57.2769" stroke="black" stroke-width="1.2" stroke-miterlimit="10" stroke-dasharray="6.01 6.01"/>
<path d="M60.6714 55.3461L61.2715 53.0464" stroke="black" stroke-width="1.2" stroke-miterlimit="10"/>
<path d="M79.9434 77.1525L80.585 74.8721" stroke="black" stroke-width="1.2" stroke-miterlimit="10"/>
<path d="M81.927 70.1001L89.3113 43.8584" stroke="black" stroke-width="1.2" stroke-miterlimit="10" stroke-dasharray="7.49 7.49"/>
<path d="M89.9846 41.4728L90.6263 39.1924" stroke="black" stroke-width="1.2" stroke-miterlimit="10"/>
<path d="M32.9446 13.2717C32.9446 7.92324 35.7977 3.5874 39.3172 3.5874C42.8368 3.5874 45.6899 7.92324 45.6899 13.2717" stroke="black" stroke-width="2" stroke-miterlimit="10"/>
<path d="M53.0837 13.2717C53.0837 7.92324 55.9369 3.5874 59.4564 3.5874C62.9759 3.5874 65.829 7.92324 65.829 13.2717" stroke="black" stroke-width="2" stroke-miterlimit="10"/>
<path d="M73.0037 13.2717C73.0037 7.92324 75.8568 3.5874 79.3763 3.5874C82.8958 3.5874 85.7489 7.92324 85.7489 13.2717" stroke="black" stroke-width="2" stroke-miterlimit="10"/>
<path d="M93.8975 13.2717C93.8975 7.92324 96.7506 3.5874 100.27 3.5874C103.79 3.5874 106.643 7.92324 106.643 13.2717" stroke="black" stroke-width="2" stroke-miterlimit="10"/>
<path d="M30.4893 37.7349H47.1112" stroke="black" stroke-width="1.2" stroke-miterlimit="10"/>
<path d="M29.8032 43.1074H46.4252" stroke="black" stroke-width="1.2" stroke-miterlimit="10"/>
<path d="M24.7412 76.6851L89.7232 77.2223" stroke="black" stroke-width="1.2" stroke-miterlimit="10"/>
<path d="M3.5874 89.687H140.868" stroke="black" stroke-width="4" stroke-miterlimit="10" stroke-linecap="round"/>
</g>
<defs>
<filter id="filter0_d_344_1243" x="0" y="0" width="148.456" height="97.5615" filterUnits="userSpaceOnUse" color-interpolation-filters="sRGB">
<feFlood flood-opacity="0" result="BackgroundImageFix"/>
<feColorMatrix in="SourceAlpha" type="matrix" values="0 0 0 0 0 0 0 0 0 0 0 0 0 0 0 0 0 0 127 0" result="hardAlpha"/>
<feOffset dx="2" dy="2"/>
<feGaussianBlur stdDeviation="1"/>
<feComposite in2="hardAlpha" operator="out"/>
<feColorMatrix type="matrix" values="0 0 0 0 0 0 0 0 0 0 0 0 0 0 0 0 0 0 0.25 0"/>
<feBlend mode="normal" in2="BackgroundImageFix" result="effect1_dropShadow_344_1243"/>
<feBlend mode="normal" in="SourceGraphic" in2="effect1_dropShadow_344_1243" result="shape"/>
</filter>
</defs>
</svg>
