<svg width="219" height="271" viewBox="0 0 219 271" fill="none" xmlns="http://www.w3.org/2000/svg">
<g opacity="0.1" filter="url(#filter0_d_653_1418)">
<path d="M141.658 149.754C149.5 152.534 155.116 160.017 155.116 168.811C155.116 174.766 152.541 180.12 148.443 183.819" fill="white"/>
<path d="M141.658 149.754C149.5 152.534 155.116 160.017 155.116 168.811C155.116 174.766 152.541 180.12 148.443 183.819" stroke="white" stroke-width="10.8784" stroke-miterlimit="10" stroke-linecap="round" stroke-linejoin="round"/>
<path d="M73.7786 125.043H145.916V56.451C145.916 41.3548 140.206 26.6871 129.529 16.0146C123.909 10.3969 117.171 6.00049 109.847 6.00049C102.523 6.00049 95.7856 10.3969 90.1656 16.0146C79.4888 26.6871 73.7786 41.3548 73.7786 56.451V125.043Z" fill="white" stroke="white" stroke-width="10.8784" stroke-miterlimit="10" stroke-linecap="round" stroke-linejoin="round"/>
<path d="M73.7792 61.1329L54.1949 87.322C50.3188 92.5054 47.8077 98.5799 46.8923 104.987L41.903 139.913C41.518 142.608 44.5 144.491 46.7676 142.984L73.7792 125.043V61.1329Z" fill="white" stroke="white" stroke-width="10.8784" stroke-miterlimit="10" stroke-linecap="round" stroke-linejoin="round"/>
<path d="M145.917 61.1329L165.501 87.322C169.377 92.5054 171.888 98.5799 172.804 104.987L177.793 139.913C178.178 142.608 175.196 144.491 172.928 142.984L145.917 125.043V61.1329Z" fill="white" stroke="white" stroke-width="10.8784" stroke-miterlimit="10" stroke-linecap="round" stroke-linejoin="round"/>
<path d="M109.847 73.9025C116.9 73.9025 122.617 68.1851 122.617 61.1323C122.617 54.0796 116.9 48.3622 109.847 48.3622C102.795 48.3622 97.0771 54.0796 97.0771 61.1323C97.0771 68.1851 102.795 73.9025 109.847 73.9025Z" fill="white" stroke="white" stroke-width="10.8784" stroke-miterlimit="10" stroke-linecap="round" stroke-linejoin="round"/>
<path d="M139.246 136.655H80.4489C76.765 136.655 73.7786 133.668 73.7786 129.984V125.042H145.916V129.984C145.916 133.668 142.93 136.655 139.246 136.655Z" fill="white" stroke="white" stroke-width="10.8784" stroke-miterlimit="10" stroke-linecap="round" stroke-linejoin="round"/>
<path d="M80.449 136.655L54.6599 257.9H164.006L139.246 136.655H80.449Z" fill="white" stroke="white" stroke-width="10.8784" stroke-miterlimit="10" stroke-linecap="round" stroke-linejoin="round"/>
<path d="M73.7792 173.71C80.0776 173.71 85.1835 168.604 85.1835 162.305C85.1835 156.007 80.0776 150.901 73.7792 150.901C67.4808 150.901 62.375 156.007 62.375 162.305C62.375 168.604 67.4808 173.71 73.7792 173.71Z" fill="white" stroke="white" stroke-width="10.8784" stroke-miterlimit="10" stroke-linecap="round" stroke-linejoin="round"/>
<path d="M60.866 232.344L55.6328 256.948H80.7892C80.7892 244.85 72.2463 234.754 60.866 232.344Z" fill="white" stroke="white" stroke-width="10.8784" stroke-miterlimit="10" stroke-linecap="round" stroke-linejoin="round"/>
<path d="M101.954 223.89C113.367 223.89 122.618 214.638 122.618 203.226C122.618 191.814 113.367 182.562 101.954 182.562C90.542 182.562 81.2905 191.814 81.2905 203.226C81.2905 214.638 90.542 223.89 101.954 223.89Z" fill="white" stroke="white" stroke-width="10.8784" stroke-miterlimit="10" stroke-linecap="round" stroke-linejoin="round"/>
<path d="M114.688 257.899C116.812 250.256 123.822 244.646 132.142 244.646C140.167 244.646 146.759 250.67 149.136 257.899" fill="white"/>
<path d="M114.688 257.899C116.812 250.256 123.822 244.646 132.142 244.646C140.167 244.646 146.759 250.67 149.136 257.899" stroke="white" stroke-width="10.8784" stroke-miterlimit="10" stroke-linecap="round" stroke-linejoin="round"/>
<path d="M140.648 237.115C143.062 237.115 145.02 235.158 145.02 232.744C145.02 230.33 143.062 228.372 140.648 228.372C138.234 228.372 136.277 230.33 136.277 232.744C136.277 235.158 138.234 237.115 140.648 237.115Z" fill="white" stroke="white" stroke-width="10.8784" stroke-miterlimit="10" stroke-linecap="round" stroke-linejoin="round"/>
<path d="M78.2532 33.9103H141.657" stroke="white" stroke-width="10.8784" stroke-miterlimit="10" stroke-linecap="round" stroke-linejoin="round"/>
<path d="M136.277 145.868L148.387 207.585" stroke="white" stroke-width="10.8784" stroke-miterlimit="10" stroke-linecap="round" stroke-linejoin="round"/>
<path d="M73.7785 190.144L68.2104 219.66" stroke="white" stroke-width="10.8784" stroke-miterlimit="10" stroke-linecap="round" stroke-linejoin="round"/>
<line x1="6.1284" y1="261.758" x2="210.561" y2="261.758" stroke="white" stroke-width="10.8784" stroke-linecap="round" stroke-linejoin="round"/>
<path d="M140.48 149.754C148.322 152.534 153.938 160.017 153.938 168.811C153.938 174.766 151.363 180.12 147.265 183.819" fill="white"/>
<path d="M140.48 149.754C148.322 152.534 153.938 160.017 153.938 168.811C153.938 174.766 151.363 180.12 147.265 183.819" stroke="#262626" stroke-width="0.725225" stroke-miterlimit="10"/>
<path d="M72.6016 125.042H144.739V56.4505C144.739 41.3543 139.029 26.6866 128.352 16.0141C122.732 10.3965 115.994 6 108.67 6C101.346 6 94.6086 10.3965 88.9886 16.0141C78.3118 26.6866 72.6016 41.3543 72.6016 56.4505V125.042Z" stroke="#262626" stroke-width="0.725225" stroke-miterlimit="10"/>
<path d="M72.6014 61.1326L53.0172 87.3217C49.141 92.505 46.6299 98.5795 45.7146 104.987L40.7252 139.912C40.3402 142.607 43.3223 144.49 45.5899 142.984L72.6014 125.042V61.1326Z" fill="#262626" stroke="#262626" stroke-width="0.725225" stroke-miterlimit="10"/>
<path d="M144.739 61.1326L164.323 87.3217C168.199 92.505 170.711 98.5795 171.626 104.987L176.615 139.912C177 142.607 174.018 144.49 171.751 142.984L144.739 125.042V61.1326Z" fill="#262626" stroke="#262626" stroke-width="0.725225" stroke-miterlimit="10"/>
<path d="M108.67 73.9024C115.723 73.9024 121.44 68.185 121.44 61.1322C121.44 54.0795 115.723 48.3621 108.67 48.3621C101.617 48.3621 95.8999 54.0795 95.8999 61.1322C95.8999 68.185 101.617 73.9024 108.67 73.9024Z" fill="#262626" stroke="#262626" stroke-width="0.725225" stroke-miterlimit="10"/>
<path d="M138.069 136.655H79.2719C75.588 136.655 72.6016 133.668 72.6016 129.984V125.042H144.739V129.984C144.739 133.668 141.753 136.655 138.069 136.655Z" fill="#262626" stroke="#262626" stroke-width="0.725225" stroke-miterlimit="10"/>
<path d="M79.2725 136.655L53.4834 257.899H162.83L138.07 136.655H79.2725Z" stroke="#262626" stroke-width="0.725225" stroke-miterlimit="10"/>
<path d="M72.6013 173.709C78.8996 173.709 84.0055 168.603 84.0055 162.305C84.0055 156.006 78.8996 150.901 72.6013 150.901C66.3029 150.901 61.197 156.006 61.197 162.305C61.197 168.603 66.3029 173.709 72.6013 173.709Z" fill="white" stroke="#262626" stroke-width="0.725225" stroke-miterlimit="10"/>
<path d="M59.6885 232.344L54.4553 256.948H79.6117C79.6117 244.85 71.0688 234.754 59.6885 232.344Z" fill="#262626" stroke="#262626" stroke-width="0.725225" stroke-miterlimit="10"/>
<path d="M100.776 223.889C112.189 223.889 121.44 214.638 121.44 203.226C121.44 191.813 112.189 182.562 100.776 182.562C89.364 182.562 80.1125 191.813 80.1125 203.226C80.1125 214.638 89.364 223.889 100.776 223.889Z" fill="#262626" stroke="#262626" stroke-width="0.725225" stroke-miterlimit="10"/>
<path d="M113.51 257.899C115.634 250.256 122.644 244.646 130.964 244.646C138.989 244.646 145.581 250.67 147.958 257.899" fill="white"/>
<path d="M113.51 257.899C115.634 250.256 122.644 244.646 130.964 244.646C138.989 244.646 145.581 250.67 147.958 257.899" stroke="#262626" stroke-width="0.725225" stroke-miterlimit="10"/>
<path d="M139.47 237.115C141.885 237.115 143.842 235.158 143.842 232.744C143.842 230.33 141.885 228.372 139.47 228.372C137.056 228.372 135.099 230.33 135.099 232.744C135.099 235.158 137.056 237.115 139.47 237.115Z" fill="#262626" stroke="#262626" stroke-width="0.725225" stroke-miterlimit="10"/>
<path d="M77.0764 33.91H140.481" stroke="#262626" stroke-width="0.725225" stroke-miterlimit="10"/>
<path d="M135.099 145.867L147.209 207.584" stroke="#262626" stroke-width="0.725225" stroke-miterlimit="10"/>
<path d="M72.6019 190.143L67.0339 219.66" stroke="#262626" stroke-width="0.725225" stroke-miterlimit="10"/>
<line x1="10.1008" y1="258.598" x2="205.41" y2="258.598" stroke="#262626" stroke-width="0.725225"/>
</g>
<defs>
<filter id="filter0_d_653_1418" x="0.689209" y="0.561279" width="218.212" height="269.536" filterUnits="userSpaceOnUse" color-interpolation-filters="sRGB">
<feFlood flood-opacity="0" result="BackgroundImageFix"/>
<feColorMatrix in="SourceAlpha" type="matrix" values="0 0 0 0 0 0 0 0 0 0 0 0 0 0 0 0 0 0 127 0" result="hardAlpha"/>
<feOffset dx="1.45045" dy="1.45045"/>
<feGaussianBlur stdDeviation="0.725225"/>
<feComposite in2="hardAlpha" operator="out"/>
<feColorMatrix type="matrix" values="0 0 0 0 0 0 0 0 0 0 0 0 0 0 0 0 0 0 0.25 0"/>
<feBlend mode="normal" in2="BackgroundImageFix" result="effect1_dropShadow_653_1418"/>
<feBlend mode="normal" in="SourceGraphic" in2="effect1_dropShadow_653_1418" result="shape"/>
</filter>
</defs>
</svg>
