<svg width="251" height="219" viewBox="0 0 251 219" fill="none" xmlns="http://www.w3.org/2000/svg">
<path fill-rule="evenodd" clip-rule="evenodd" d="M79.5211 14.3722L80.2619 13.7721C80.2616 13.7718 80.2619 13.7721 79.5211 14.3722ZM125.847 56.7719C124.119 55.4281 122.436 54.0921 120.797 52.7674C107.832 42.2871 97.6916 32.5302 90.7946 25.3962C87.3464 21.8294 84.7095 18.9188 82.9365 16.9022C82.0499 15.8938 81.3794 15.109 80.9315 14.5774C80.7075 14.3116 80.5392 14.1092 80.4273 13.9737L80.3019 13.8212L80.2712 13.7836L80.2619 13.7721L79.6365 13L17.3915 67.8348L17.8445 68.5262C18.3365 69.2772 18.8332 70.0246 19.3345 70.7685L15.1573 73.7465L15.6773 74.5168C16.3284 75.4811 16.9883 76.4398 17.6569 77.3931L13 80.8145L13.4952 81.5702C24.9514 99.0561 39.2835 114.618 54.8043 128.302C51.9703 130.549 48.815 133.127 45.6494 135.861C40.6526 140.177 35.6081 144.899 31.7597 149.332C29.8359 151.547 28.1934 153.711 27.0038 155.731C25.8233 157.736 25.0408 159.68 24.9372 161.44C24.5585 167.877 27.7583 177.442 32.8264 184.77C35.3704 188.449 38.4357 191.64 41.8458 193.603C45.2755 195.577 49.0847 196.321 53.0062 195.014C56.4021 193.882 58.2752 192.313 59.0365 190.323C59.7752 188.391 59.3545 186.317 58.831 184.473C58.6807 183.944 58.523 183.434 58.3702 182.94L58.3701 182.94L58.3701 182.94L58.37 182.939C57.9577 181.606 57.5802 180.386 57.4764 179.198C57.4084 178.42 57.4702 177.726 57.7048 177.099C57.9362 176.48 58.3566 175.872 59.0935 175.29C60.8474 173.905 62.2862 173.539 63.5609 173.586C64.8845 173.636 66.1202 174.127 67.5412 174.692L67.5805 174.708C68.9621 175.257 70.5295 175.876 72.2678 175.871C74.061 175.865 75.9249 175.204 77.9667 173.454L78.0187 173.409L78.0638 173.357C79.9047 171.253 80.4976 169.275 80.381 167.377C80.2738 165.632 79.5619 164.032 78.9469 162.65L78.8666 162.469C78.201 160.971 77.6945 159.747 77.733 158.533C77.7687 157.412 78.2871 156.137 80.1266 154.622C81.5007 153.49 82.6281 153.223 83.6536 153.292C84.7398 153.366 85.7944 153.815 87.0823 154.363L87.1396 154.387C88.0888 154.791 89.1498 155.238 90.3232 155.477C101.433 162.912 112.518 169.496 123.05 175.243C141.784 185.468 158.793 193.059 171.12 198.095C177.284 200.613 182.278 202.492 185.733 203.743C187.461 204.368 188.804 204.837 189.716 205.149C190.173 205.305 190.521 205.422 190.756 205.5L190.873 205.539L191.023 205.589L191.091 205.611L191.108 205.617L191.113 205.618C191.114 205.619 191.115 205.619 191.409 204.712L191.115 205.619L191.929 205.883L194.676 199.757C195.335 199.995 195.895 200.195 196.35 200.355C196.817 200.52 197.173 200.643 197.413 200.726L197.602 200.791L197.686 200.819L197.755 200.843L197.773 200.849L197.778 200.85C197.779 200.851 197.78 200.851 198.083 199.947L197.78 200.851L198.591 201.123L238.14 115.19L237.022 114.913C234.206 114.213 231.368 113.512 228.511 112.809L230.197 109.408L229.056 109.116C204.267 102.77 181.867 92.7165 162.412 81.4681C162.93 81.3192 163.426 81.0667 163.866 80.6725C165.683 79.0474 166.549 77.5463 166.687 76.0579C166.824 74.5883 166.222 73.35 165.639 72.342C165.479 72.0649 165.323 71.8088 165.176 71.5668C164.743 70.8539 164.385 70.2631 164.193 69.6169C163.976 68.888 163.996 68.1194 164.726 67.1149C166.118 65.2006 167.186 64.4843 168.008 64.2409C168.822 64.0002 169.576 64.1626 170.551 64.473C170.664 64.5089 170.781 64.5475 170.903 64.5874C171.764 64.8707 172.829 65.2214 173.992 65.1621C175.396 65.0905 176.83 64.4498 178.4 62.8797L178.426 62.8538L178.449 62.826C180.171 60.8179 180.953 59.0419 181.163 57.3883C181.371 55.7493 181 54.3396 180.63 53.1376C180.578 52.9698 180.527 52.8077 180.478 52.6506L180.476 52.6433L180.474 52.6374L180.474 52.6373C180.156 51.6231 179.902 50.8148 179.902 49.9755C179.902 49.0956 180.193 48.1203 181.322 46.9116C182.711 45.4233 183.876 44.8598 184.876 44.6673C185.912 44.4677 186.878 44.6384 188.001 44.8399L188.035 44.8462C189.097 45.0366 190.353 45.262 191.657 44.9024C193.02 44.5265 194.285 43.5657 195.544 41.7262C197.551 38.7929 197.631 35.5777 196.47 32.5447C195.322 29.5477 192.967 26.7168 190.059 24.3667C187.144 22.01 183.613 20.0879 180.03 18.9366C176.455 17.7883 172.755 17.3848 169.532 18.1557C165.156 19.2021 160.202 22.2497 155.292 26.1183C150.359 30.005 145.375 34.7974 140.929 39.4473C136.481 44.0999 132.559 48.6251 129.749 51.9861C128.343 53.6671 127.215 55.058 126.438 56.0294C126.21 56.3139 126.013 56.5625 125.847 56.7719Z" fill="white"/>
<path d="M71.7204 4.74168C66.4016 9.04988 65.5824 16.8541 69.8906 22.1729C74.1988 27.4916 82.003 28.3109 87.3218 24.0027L71.7204 4.74168ZM120.797 52.7674L113.006 62.4056L120.797 52.7674ZM125.847 56.7719L118.239 66.555C123.61 70.7319 131.344 69.798 135.566 64.4626L125.847 56.7719ZM90.7946 25.3962L81.8844 34.0104V34.0104L90.7946 25.3962ZM82.9365 16.9022L92.2441 8.71898L92.2441 8.71893L82.9365 16.9022ZM80.9315 14.5774L71.4542 22.5636L71.4543 22.5637L80.9315 14.5774ZM80.4273 13.9737L70.8547 21.8454C70.8603 21.8522 70.866 21.859 70.8716 21.8658L80.4273 13.9737ZM80.3019 13.8212L70.6993 21.6563C70.7093 21.6685 70.7193 21.6807 70.7294 21.6929L80.3019 13.8212ZM80.2712 13.7836L70.6555 21.6026C70.6599 21.6079 70.6642 21.6133 70.6686 21.6186L80.2712 13.7836ZM79.6365 13L89.267 5.19932C87.1421 2.57603 84.0391 0.933059 80.675 0.650155C77.311 0.367252 73.9772 1.4689 71.444 3.70047L79.6365 13ZM17.3915 67.8348L9.19906 58.5353C4.57218 62.6114 3.64562 69.4689 7.02487 74.6268L17.3915 67.8348ZM17.8445 68.5262L7.47786 75.3182L7.47787 75.3182L17.8445 68.5262ZM19.3345 70.7685L26.529 80.8599C31.9986 76.9604 33.366 69.4132 29.6121 63.8426L19.3345 70.7685ZM15.1573 73.7465L7.96279 63.6551C2.48967 67.5571 1.12458 75.1106 4.88576 80.6815L15.1573 73.7465ZM15.6773 74.5168L5.40579 81.4517L5.4058 81.4517L15.6773 74.5168ZM17.6569 77.3931L24.9948 87.3807C30.4253 83.3909 31.6728 75.7933 27.8034 70.2765L17.6569 77.3931ZM13 80.8145L5.66212 70.8268C0.354154 74.7266 -0.976231 82.097 2.63336 87.6064L13 80.8145ZM13.4952 81.5702L3.12852 88.3621L3.12853 88.3622L13.4952 81.5702ZM54.8043 128.302L62.5037 138.014C65.38 135.734 67.0976 132.296 67.1935 128.626C67.2894 124.957 65.7538 121.434 63.0005 119.006L54.8043 128.302ZM45.6494 135.861L53.75 145.241H53.75L45.6494 135.861ZM31.7597 149.332L22.4013 141.206L22.4013 141.206L31.7597 149.332ZM27.0038 155.731L16.3243 149.442L16.3243 149.442L27.0038 155.731ZM24.9372 161.44L37.3093 162.168L37.3093 162.168L24.9372 161.44ZM32.8264 184.77L22.6331 191.82L22.6331 191.82L32.8264 184.77ZM41.8458 193.603L48.0289 182.862L48.0288 182.862L41.8458 193.603ZM53.0062 195.014L56.9253 206.772L56.9253 206.772L53.0062 195.014ZM59.0365 190.323L70.6122 194.75L70.6122 194.75L59.0365 190.323ZM58.831 184.473L46.9088 187.858L46.9088 187.858L58.831 184.473ZM58.3702 182.94L70.2101 179.277C70.1835 179.192 70.156 179.106 70.1276 179.021L58.3702 182.94ZM58.37 182.939L46.5302 186.602C46.5567 186.688 46.5842 186.773 46.6126 186.859L58.37 182.939ZM57.4764 179.198L45.13 180.277L45.13 180.277L57.4764 179.198ZM57.7048 177.099L46.0975 172.755L46.0974 172.755L57.7048 177.099ZM59.0935 175.29L66.773 185.017H66.773L59.0935 175.29ZM63.5609 173.586L63.097 185.971L63.0972 185.971L63.5609 173.586ZM67.5412 174.692L72.1216 163.176L72.1204 163.176L67.5412 174.692ZM67.5805 174.708L63 186.224L63.0016 186.225L67.5805 174.708ZM72.2678 175.871L72.3075 188.264H72.3076L72.2678 175.871ZM77.9667 173.454L69.9019 164.043L69.9012 164.044L77.9667 173.454ZM78.0187 173.409L86.0835 182.819C86.5336 182.434 86.9554 182.016 87.3457 181.57L78.0187 173.409ZM78.0638 173.357L87.3908 181.519L87.3908 181.519L78.0638 173.357ZM80.381 167.377L92.7511 166.618V166.617L80.381 167.377ZM78.9469 162.65L67.6225 167.686L67.6241 167.689L78.9469 162.65ZM78.8666 162.469L67.5398 167.5L67.5422 167.505L78.8666 162.469ZM77.733 158.533L90.1202 158.927V158.926L77.733 158.533ZM80.1266 154.622L88.0051 164.189L88.0051 164.189L80.1266 154.622ZM83.6536 153.292L84.4919 140.927L84.4917 140.927L83.6536 153.292ZM87.0823 154.363L91.9383 142.961L91.937 142.96L87.0823 154.363ZM87.1396 154.387L82.2836 165.79L82.2856 165.791L87.1396 154.387ZM90.3232 155.477L97.2159 145.178C95.879 144.283 94.3807 143.657 92.8046 143.335L90.3232 155.477ZM123.05 175.243L128.987 164.365L128.987 164.365L123.05 175.243ZM171.12 198.095L175.807 186.622H175.807L171.12 198.095ZM185.733 203.743L189.952 192.09L189.952 192.089L185.733 203.743ZM189.716 205.149L185.703 216.875L185.703 216.875L189.716 205.149ZM190.756 205.5L186.839 217.258L186.846 217.261L190.756 205.5ZM190.873 205.539L186.963 217.3C186.971 217.302 186.979 217.305 186.987 217.308L190.873 205.539ZM191.023 205.589L187.137 217.357C187.146 217.36 187.155 217.363 187.164 217.366L191.023 205.589ZM191.091 205.611L187.232 217.388C187.238 217.39 187.243 217.392 187.249 217.394L191.091 205.611ZM191.108 205.617L187.266 217.4C187.279 217.404 187.293 217.408 187.306 217.412L191.108 205.617ZM191.113 205.618L195.08 193.877C195.025 193.858 194.971 193.84 194.916 193.823L191.113 205.618ZM203.198 208.537C205.31 202.026 201.744 195.036 195.234 192.924C188.723 190.811 181.733 194.377 179.621 200.887L203.198 208.537ZM191.115 205.619L179.326 201.794C178.312 204.921 178.581 208.322 180.075 211.25C181.568 214.178 184.164 216.393 187.29 217.407L191.115 205.619ZM191.929 205.883L188.104 217.671C194.124 219.624 200.648 216.728 203.237 210.954L191.929 205.883ZM194.676 199.757L198.891 188.102C192.79 185.896 186.021 188.767 183.367 194.686L194.676 199.757ZM196.35 200.355L192.228 212.043L192.229 212.043L196.35 200.355ZM197.413 200.726L193.383 212.446C193.388 212.447 193.392 212.449 193.397 212.451L197.413 200.726ZM197.602 200.791L193.586 212.515C193.592 212.518 193.599 212.52 193.605 212.522L197.602 200.791ZM197.686 200.819L193.689 212.551C193.696 212.553 193.703 212.555 193.71 212.558L197.686 200.819ZM197.755 200.843L193.78 212.581C193.785 212.583 193.79 212.585 193.794 212.586L197.755 200.843ZM197.773 200.849L193.812 212.592C193.819 212.594 193.825 212.597 193.831 212.599L197.773 200.849ZM197.778 200.85L193.836 212.6C193.859 212.608 193.882 212.616 193.905 212.623L197.778 200.85ZM209.833 203.89C212.01 197.4 208.515 190.375 202.025 188.198C195.536 186.02 188.511 189.516 186.333 196.005L209.833 203.89ZM197.78 200.851L186.03 196.909C183.853 203.398 187.348 210.423 193.838 212.601L197.78 200.851ZM198.591 201.123L194.649 212.873C200.65 214.886 207.203 212.055 209.85 206.305L198.591 201.123ZM238.14 115.19L249.398 120.372C250.942 117.017 250.909 113.15 249.31 109.822C247.711 106.494 244.711 104.053 241.127 103.162L238.14 115.19ZM237.022 114.913L234.034 126.94L234.034 126.94L237.022 114.913ZM228.511 112.809L217.407 107.306C215.737 110.675 215.687 114.62 217.271 118.03C218.855 121.44 221.901 123.946 225.552 124.844L228.511 112.809ZM230.197 109.408L241.302 114.911C242.962 111.561 243.021 107.64 241.462 104.241C239.903 100.842 236.893 98.329 233.271 97.4017L230.197 109.408ZM229.056 109.116L232.13 97.1097L232.13 97.1097L229.056 109.116ZM162.412 81.4681L158.983 69.5587C154.208 70.9339 150.715 75.0284 150.111 79.9609C149.507 84.8934 151.907 89.7099 156.209 92.1973L162.412 81.4681ZM163.866 80.6725L172.13 89.9086L172.13 89.9086L163.866 80.6725ZM166.687 76.0579L154.347 74.9144V74.9144L166.687 76.0579ZM165.639 72.342L176.366 66.1342L176.365 66.134L165.639 72.342ZM165.176 71.5668L175.771 65.1358L175.77 65.1357L165.176 71.5668ZM164.193 69.6169L152.312 73.1448L152.312 73.145L164.193 69.6169ZM164.726 67.1149L174.749 74.4044L174.749 74.4044L164.726 67.1149ZM168.008 64.2409L164.491 52.3569L168.008 64.2409ZM170.551 64.473L174.309 52.6631L174.309 52.663L170.551 64.473ZM170.903 64.5874L167.028 76.3597L167.028 76.3597L170.903 64.5874ZM173.992 65.1621L173.36 52.7848H173.36L173.992 65.1621ZM178.4 62.8797L169.637 54.1156L169.636 54.1162L178.4 62.8797ZM178.426 62.8538L187.189 71.618C187.414 71.3928 187.63 71.1591 187.837 70.9172L178.426 62.8538ZM178.449 62.826L169.04 54.7605L169.038 54.7626L178.449 62.826ZM181.163 57.3883L193.457 58.9495V58.9494L181.163 57.3883ZM180.63 53.1376L168.784 56.7819L168.784 56.7825L180.63 53.1376ZM180.478 52.6506L168.649 56.3472C168.65 56.3519 168.652 56.3567 168.653 56.3614L180.478 52.6506ZM180.476 52.6433L192.305 48.9466C192.302 48.9378 192.3 48.9289 192.297 48.9201L180.476 52.6433ZM180.474 52.6374L192.295 48.9143C192.201 48.6172 192.097 48.3238 191.981 48.0346L180.474 52.6374ZM180.474 52.6373L168.649 56.3482C168.744 56.6495 168.85 56.947 168.967 57.2401L180.474 52.6373ZM179.902 49.9755L192.295 49.9757V49.9757L179.902 49.9755ZM181.322 46.9116L190.382 55.368L190.382 55.3678L181.322 46.9116ZM184.876 44.6673L187.22 56.8371L187.22 56.8371L184.876 44.6673ZM188.001 44.8399L190.19 32.6414L190.189 32.6412L188.001 44.8399ZM188.035 44.8462L185.846 57.0447L185.846 57.0447L188.035 44.8462ZM191.657 44.9024L194.952 56.8498L194.952 56.8498L191.657 44.9024ZM195.544 41.7262L205.772 48.7247L205.773 48.7245L195.544 41.7262ZM196.47 32.5447L184.896 36.9762L184.896 36.9763L196.47 32.5447ZM190.059 24.3667L182.269 34.0053L182.269 34.0053L190.059 24.3667ZM180.03 18.9366L176.239 30.7362L176.239 30.7362L180.03 18.9366ZM169.532 18.1557L166.649 6.10211V6.10211L169.532 18.1557ZM155.292 26.1183L162.962 35.8533L162.962 35.8533L155.292 26.1183ZM140.929 39.4473L131.971 30.8831L131.971 30.8831L140.929 39.4473ZM129.749 51.9861L139.257 59.9355L129.749 51.9861ZM126.438 56.0294L136.115 63.7723L136.115 63.7723L126.438 56.0294ZM87.3218 24.0027L88.0626 23.4026L72.4612 4.14162L71.7204 4.74168L87.3218 24.0027ZM89.8511 5.92078C89.8511 5.92078 89.8179 5.88032 89.7844 5.84C89.7505 5.79952 89.6477 5.67867 89.5782 5.59875C89.399 5.39449 89.0944 5.06026 88.6841 4.68019C87.8101 3.87059 86.4969 2.88992 84.7008 2.20088C81.0499 0.800333 77.9281 1.53037 76.6768 1.90851C75.3925 2.29661 74.472 2.80907 74.1789 2.97419C73.7828 3.19731 73.4833 3.39526 73.3417 3.49059C73.0554 3.68328 72.84 3.84645 72.7893 3.88479C72.7065 3.94734 72.6422 3.99762 72.6139 4.01978C72.5557 4.06537 72.5099 4.10217 72.5006 4.10969C72.4837 4.12321 72.4697 4.13453 72.4626 4.14022C72.4396 4.15879 72.4036 4.18802 72.3641 4.22005C72.2726 4.2942 72.089 4.44308 71.7204 4.74168L87.3218 24.0027C87.6939 23.7012 87.8806 23.5499 87.9742 23.4739C87.9978 23.4548 88.014 23.4417 88.0258 23.4321C88.0392 23.4213 88.0407 23.4201 88.0377 23.4225C88.0365 23.4235 88.0268 23.4313 88.0132 23.4422C88.0071 23.4471 87.9635 23.4822 87.9068 23.5266C87.8793 23.5482 87.8155 23.598 87.7331 23.6603C87.6828 23.6983 87.4677 23.8613 87.1816 24.0538C87.04 24.1491 86.7407 24.347 86.3447 24.5701C86.0516 24.7352 85.1311 25.2476 83.8469 25.6357C82.5956 26.0138 79.4738 26.7439 75.8229 25.3433C72.3198 23.9995 70.4206 21.3157 70.6726 21.6235L89.8511 5.92078ZM113.006 62.4056C114.704 63.778 116.448 65.1624 118.239 66.555L133.456 46.9887C131.791 45.6939 130.168 44.4061 128.588 43.1292L113.006 62.4056ZM81.8844 34.0104C89.0689 41.4419 99.5816 51.5539 113.006 62.4056L128.588 43.1292C116.083 33.0202 106.314 23.6185 99.7049 16.782L81.8844 34.0104ZM73.6288 25.0853C75.5202 27.2367 78.2894 30.2919 81.8844 34.0104L99.7049 16.782C96.4033 13.3669 93.8988 10.601 92.2441 8.71898L73.6288 25.0853ZM71.4543 22.5637C71.9558 23.1589 72.6829 24.0095 73.6288 25.0854L92.2441 8.71893C91.417 7.77823 90.803 7.05918 90.4087 6.59121L71.4543 22.5637ZM70.8716 21.8658C71.0089 22.0321 71.2034 22.266 71.4542 22.5636L90.4087 6.59125C90.2116 6.35732 90.0694 6.18619 89.983 6.08156L70.8716 21.8658ZM70.7294 21.6929L70.8547 21.8454L89.9999 6.10203L89.8745 5.94957L70.7294 21.6929ZM70.6686 21.6186L70.6993 21.6563L89.9045 5.98622L89.8738 5.94856L70.6686 21.6186ZM70.6462 21.5911L70.6555 21.6026L89.8869 5.96463L89.8775 5.95315L70.6462 21.5911ZM70.006 20.8007L70.6314 21.5728L89.8924 5.97144L89.267 5.19932L70.006 20.8007ZM25.5839 77.1344L87.8289 22.2995L71.444 3.70047L9.19906 58.5353L25.5839 77.1344ZM28.2111 61.7343L27.7581 61.0429L7.02487 74.6268L7.47786 75.3182L28.2111 61.7343ZM29.6121 63.8426C29.1405 63.1428 28.6735 62.44 28.2111 61.7343L7.47787 75.3182C7.99947 76.1143 8.52585 76.9064 9.05685 77.6943L29.6121 63.8426ZM22.3518 83.838L26.529 80.8599L12.14 60.6771L7.96279 63.6551L22.3518 83.838ZM25.9488 67.5819L25.4288 66.8116L4.88576 80.6815L5.40579 81.4517L25.9488 67.5819ZM27.8034 70.2765C27.1765 69.3827 26.5583 68.4845 25.9488 67.5819L5.4058 81.4517C6.0985 82.4777 6.80016 83.497 7.51041 84.5097L27.8034 70.2765ZM20.3379 90.8021L24.9948 87.3807L10.319 67.4054L5.66212 70.8268L20.3379 90.8021ZM23.8618 74.7783L23.3666 74.0225L2.63336 87.6064L3.12852 88.3621L23.8618 74.7783ZM63.0005 119.006C48.1148 105.882 34.5809 91.1391 23.8618 74.7783L3.12853 88.3622C15.3219 106.973 30.4523 123.354 46.608 137.599L63.0005 119.006ZM53.75 145.241C56.7552 142.645 59.7719 140.18 62.5037 138.014L47.1049 118.591C44.1686 120.919 40.8748 123.609 37.5488 126.482L53.75 145.241ZM41.1181 157.457C44.4015 153.675 48.9377 149.397 53.75 145.241L37.5488 126.481C32.3675 130.956 26.8148 136.123 22.4013 141.206L41.1181 157.457ZM37.6834 162.019C38.3517 160.884 39.4726 159.352 41.1181 157.457L22.4013 141.206C20.1991 143.743 18.035 146.537 16.3243 149.442L37.6834 162.019ZM37.3093 162.168C37.2895 162.504 37.2438 162.744 37.2141 162.873C37.1845 163.001 37.1645 163.046 37.1813 163.001C37.1977 162.957 37.2408 162.85 37.326 162.676C37.4106 162.503 37.5271 162.285 37.6834 162.019L16.3243 149.442C14.7385 152.136 12.8372 156.087 12.5652 160.712L37.3093 162.168ZM43.0196 177.721C38.9702 171.865 37.1424 165.004 37.3093 162.168L12.5652 160.712C11.9746 170.751 16.5464 183.018 22.6331 191.82L43.0196 177.721ZM48.0288 182.862C46.7339 182.117 44.9239 180.474 43.0196 177.721L22.6331 191.82C25.817 196.423 30.1376 201.163 35.6628 204.344L48.0288 182.862ZM49.0871 183.257C49.0207 183.279 49.0038 183.277 49.0223 183.275C49.0393 183.274 49.0396 183.277 49.0075 183.272C48.9409 183.263 48.6176 183.201 48.0289 182.862L35.6628 204.344C41.4584 207.68 48.9473 209.431 56.9253 206.772L49.0871 183.257ZM47.4608 185.895C47.6894 185.298 47.9988 184.747 48.3593 184.269C48.7145 183.799 49.0615 183.476 49.3138 183.276C49.777 182.909 49.868 182.996 49.0871 183.257L56.9253 206.772C62.0591 205.06 67.9747 201.646 70.6122 194.75L47.4608 185.895ZM46.9088 187.858C46.9953 188.163 47.0374 188.337 47.0584 188.438C47.079 188.536 47.064 188.492 47.0521 188.341C47.028 188.035 47.0024 187.094 47.4608 185.895L70.6122 194.75C72.929 188.692 71.3146 183.065 70.7531 181.088L46.9088 187.858ZM46.5303 186.602C46.6889 187.115 46.8042 187.49 46.9088 187.858L70.7531 181.088C70.5571 180.398 70.3571 179.753 70.2101 179.277L46.5303 186.602ZM46.6127 186.859L46.6127 186.859L70.1276 179.021L70.1276 179.021L46.6127 186.859ZM46.6126 186.859L46.6127 186.859L70.1276 179.021L70.1275 179.02L46.6126 186.859ZM46.6126 186.859L46.6126 186.859L70.1275 179.02L70.1275 179.02L46.6126 186.859ZM45.13 180.277C45.371 183.035 46.2136 185.579 46.5302 186.602L70.2099 179.277C70.1028 178.93 70.0239 178.675 69.9533 178.437C69.8848 178.206 69.8416 178.05 69.8133 177.939C69.7522 177.7 69.7955 177.807 69.8228 178.119L45.13 180.277ZM46.0974 172.755C45.0391 175.583 44.9517 178.236 45.13 180.277L69.8228 178.119C69.8651 178.604 69.9012 179.868 69.3121 181.442L46.0974 172.755ZM51.4139 165.562C49.0672 167.415 47.1932 169.827 46.0975 172.755L69.3121 181.442C69.0223 182.217 68.6229 182.95 68.1326 183.606C67.6503 184.25 67.1614 184.711 66.773 185.017L51.4139 165.562ZM64.0248 161.202C59.4367 161.03 55.1726 162.595 51.4139 165.562L66.773 185.017C66.7745 185.016 66.677 185.093 66.4792 185.206C66.2777 185.32 65.9852 185.464 65.6054 185.597C64.7773 185.887 63.8983 186.001 63.097 185.971L64.0248 161.202ZM72.1204 163.176C71.1353 162.784 67.8654 161.346 64.0246 161.202L63.0972 185.971C62.3599 185.944 61.8946 185.799 61.8856 185.796C61.8848 185.796 61.9567 185.818 62.1494 185.891C62.2429 185.926 62.3532 185.968 62.4911 186.022C62.6318 186.078 62.7794 186.136 62.9619 186.209L72.1204 163.176ZM72.161 163.192L72.1216 163.176L62.9607 186.208L63 186.224L72.161 163.192ZM72.2281 163.477C72.8433 163.475 73.2102 163.585 73.185 163.578C73.1733 163.575 73.097 163.552 72.9204 163.487C72.8337 163.455 72.7313 163.417 72.6033 163.367C72.4717 163.316 72.3346 163.261 72.1594 163.192L63.0016 186.225C64.1233 186.671 67.8294 188.278 72.3075 188.264L72.2281 163.477ZM69.9012 164.044C69.7077 164.21 69.855 164.039 70.3517 163.837C70.8914 163.618 71.551 163.479 72.2281 163.477L72.3076 188.264C77.5624 188.247 82.1811 186.164 86.0322 182.863L69.9012 164.044ZM69.9538 163.999L69.9019 164.043L86.0316 182.864L86.0835 182.819L69.9538 163.999ZM68.7367 165.196L68.6917 165.248L87.3457 181.57L87.3908 181.519L68.7367 165.196ZM68.0109 168.137C67.9702 167.475 68.0627 166.729 68.3168 166.034C68.5569 165.377 68.818 165.103 68.7367 165.196L87.3908 181.519C91.1179 177.259 93.0911 172.153 92.7511 166.618L68.0109 168.137ZM67.6241 167.689C67.7862 168.053 67.8867 168.281 67.9761 168.495C68.0598 168.696 68.1 168.806 68.1177 168.858C68.1346 168.908 68.1175 168.866 68.0922 168.75C68.0663 168.632 68.0284 168.422 68.0109 168.137L92.7511 166.617C92.4852 162.289 90.7505 158.692 90.2696 157.611L67.6241 167.689ZM67.5422 167.505L67.6225 167.686L90.2712 157.615L90.1909 157.434L67.5422 167.505ZM65.3459 158.139C65.2019 162.669 67.1014 166.512 67.5398 167.5L90.1933 157.439C90.0364 157.086 89.9442 156.872 89.8791 156.713C89.8161 156.558 89.8186 156.551 89.8471 156.641C89.9005 156.809 90.1603 157.666 90.1202 158.927L65.3459 158.139ZM72.248 145.055C68.4696 148.167 65.5243 152.521 65.3458 158.14L90.1202 158.926C90.0773 160.279 89.7083 161.638 89.0598 162.793C88.4841 163.818 87.9303 164.251 88.0051 164.189L72.248 145.055ZM84.4917 140.927C79.9637 140.62 75.7823 142.145 72.248 145.055L88.0051 164.189C87.7764 164.377 87.1227 164.859 86.0445 165.229C84.9025 165.621 83.7698 165.722 82.8155 165.657L84.4917 140.927ZM91.937 142.96C91.1703 142.634 88.0771 141.17 84.4919 140.927L82.8153 165.657C81.932 165.597 81.3621 165.403 81.3132 165.387C81.2862 165.378 81.3324 165.392 81.501 165.461C81.6796 165.533 81.8848 165.62 82.2276 165.766L91.937 142.96ZM91.9956 142.985L91.9383 142.961L82.2263 165.765L82.2836 165.79L91.9956 142.985ZM92.8046 143.335C92.9686 143.368 93.0082 143.392 92.865 143.34C92.7955 143.315 92.6961 143.277 92.5492 143.217C92.396 143.155 92.2305 143.085 91.9937 142.984L82.2856 165.791C83.1526 166.16 85.284 167.097 87.8417 167.62L92.8046 143.335ZM128.987 164.365C118.734 158.769 107.973 152.376 97.2159 145.178L83.4304 165.777C94.8918 173.447 106.301 180.222 117.113 186.122L128.987 164.365ZM175.807 186.622C163.808 181.72 147.231 174.321 128.987 164.365L117.113 186.122C136.337 196.614 153.778 204.398 166.433 209.568L175.807 186.622ZM189.952 192.089C186.638 190.89 181.801 189.07 175.807 186.622L166.433 209.568C172.766 212.155 177.918 214.094 181.515 215.396L189.952 192.089ZM193.73 193.423C192.883 193.133 191.608 192.689 189.952 192.09L181.515 215.396C183.314 216.048 184.726 216.54 185.703 216.875L193.73 193.423ZM194.673 193.742C194.469 193.674 194.153 193.568 193.73 193.423L185.703 216.875C186.192 217.042 186.573 217.17 186.839 217.258L194.673 193.742ZM194.783 193.779L194.666 193.74L186.846 217.261L186.963 217.3L194.783 193.779ZM194.908 193.82L194.759 193.771L186.987 217.308L187.137 217.357L194.908 193.82ZM194.95 193.834L194.882 193.811L187.164 217.366L187.232 217.388L194.95 193.834ZM194.951 193.834L194.933 193.828L187.249 217.394L187.266 217.4L194.951 193.834ZM194.916 193.823L194.911 193.821L187.306 217.412L187.311 217.414L194.916 193.823ZM179.621 200.887C179.472 201.345 179.404 201.554 179.373 201.648C179.35 201.718 179.366 201.669 179.392 201.594C179.4 201.569 179.42 201.511 179.447 201.436C179.464 201.388 179.532 201.197 179.63 200.957C179.678 200.838 179.78 200.592 179.925 200.288C180.027 200.073 180.371 199.355 180.953 198.522C181.306 198.015 183.127 195.361 186.806 193.997C188.923 193.213 190.979 193.102 192.716 193.329C193.496 193.431 194.116 193.588 194.496 193.695C194.688 193.75 194.842 193.799 194.934 193.829C194.971 193.84 195.025 193.858 195.043 193.864C195.061 193.871 195.08 193.877 195.08 193.877L187.146 217.36C187.147 217.36 187.165 217.366 187.183 217.372C187.201 217.378 187.256 217.396 187.292 217.408C187.385 217.438 187.538 217.487 187.73 217.541C188.11 217.649 188.73 217.806 189.51 217.908C191.247 218.134 193.304 218.024 195.42 217.239C199.099 215.876 200.92 213.221 201.274 212.714C201.856 211.881 202.2 211.163 202.303 210.947C202.448 210.643 202.55 210.396 202.598 210.276C202.697 210.034 202.766 209.841 202.784 209.789C202.812 209.71 202.834 209.647 202.845 209.615C202.881 209.511 202.915 209.406 202.929 209.363C202.973 209.23 203.052 208.986 203.198 208.537L179.621 200.887ZM202.903 209.444L203.198 208.537L179.621 200.887L179.326 201.794L202.903 209.444ZM195.754 194.094L194.94 193.83L187.29 217.407L188.104 217.671L195.754 194.094ZM183.367 194.686L180.62 200.812L203.237 210.954L205.984 204.828L183.367 194.686ZM200.472 188.667C200.047 188.518 199.518 188.329 198.891 188.102L190.461 211.412C191.152 211.662 191.743 211.872 192.228 212.043L200.472 188.667ZM201.444 189.006C201.233 188.934 200.907 188.821 200.472 188.667L192.229 212.043C192.726 212.219 193.113 212.353 193.383 212.446L201.444 189.006ZM201.618 189.066L201.429 189.001L193.397 212.451L193.586 212.515L201.618 189.066ZM201.682 189.088L201.598 189.059L193.605 212.522L193.689 212.551L201.682 189.088ZM201.731 189.104L201.661 189.081L193.71 212.558L193.78 212.581L201.731 189.104ZM201.734 189.106L201.717 189.099L193.794 212.586L193.812 212.592L201.734 189.106ZM201.72 189.101L201.715 189.099L193.831 212.599L193.836 212.6L201.72 189.101ZM186.333 196.005C186.18 196.461 186.11 196.669 186.079 196.763C186.055 196.833 186.072 196.782 186.099 196.706C186.108 196.68 186.129 196.621 186.157 196.544C186.175 196.495 186.247 196.301 186.35 196.057C186.4 195.936 186.507 195.686 186.659 195.378C186.767 195.158 187.125 194.435 187.727 193.6C188.118 193.058 189.961 190.484 193.606 189.18C198.032 187.598 201.832 189.137 201.651 189.078L193.905 212.623C193.724 212.564 197.524 214.103 201.951 212.52C205.595 211.217 207.439 208.642 207.83 208.101C208.432 207.266 208.79 206.542 208.899 206.322C209.051 206.013 209.157 205.763 209.208 205.641C209.312 205.395 209.384 205.198 209.404 205.145C209.434 205.065 209.457 205 209.468 204.968C209.505 204.863 209.541 204.756 209.556 204.713C209.601 204.581 209.683 204.338 209.833 203.89L186.333 196.005ZM209.53 204.793L209.833 203.89L186.333 196.005L186.03 196.909L209.53 204.793ZM202.534 189.374L201.722 189.101L193.838 212.601L194.649 212.873L202.534 189.374ZM226.881 110.009L187.333 195.942L209.85 206.305L249.398 120.372L226.881 110.009ZM234.034 126.94L235.152 127.218L241.127 103.162L240.01 102.885L234.034 126.94ZM225.552 124.844C228.399 125.544 231.228 126.243 234.034 126.94L240.01 102.885C237.184 102.183 234.336 101.479 231.471 100.774L225.552 124.844ZM219.092 103.905L217.407 107.306L239.616 118.312L241.302 114.911L219.092 103.905ZM225.983 121.122L227.123 121.414L233.271 97.4017L232.13 97.1097L225.983 121.122ZM156.209 92.1973C176.445 103.898 199.895 114.444 225.983 121.122L232.13 97.1097C208.639 91.0958 187.288 81.5352 168.616 70.739L156.209 92.1973ZM155.602 71.4364C156.699 70.4557 157.907 69.8684 158.983 69.5587L165.842 93.3776C167.952 92.7701 170.153 91.6776 172.13 89.9086L155.602 71.4364ZM154.347 74.9144C154.61 72.0752 156.189 70.9119 155.602 71.4364L172.13 89.9086C175.177 87.1829 178.489 83.0174 179.028 77.2015L154.347 74.9144ZM154.912 78.5497C155.056 78.7987 154.863 78.5097 154.674 77.9424C154.459 77.2961 154.225 76.2312 154.347 74.9144L179.028 77.2015C179.542 71.6581 177.171 67.5268 176.366 66.1342L154.912 78.5497ZM154.582 77.9978C154.735 78.2506 154.826 78.4011 154.912 78.55L176.365 66.134C176.131 65.7287 175.911 65.367 175.771 65.1358L154.582 77.9978ZM152.312 73.145C153.046 75.6155 154.35 77.6166 154.582 77.9979L175.77 65.1357C175.653 64.9424 175.596 64.8474 175.55 64.7693C175.509 64.6993 175.519 64.7135 175.553 64.7788C175.622 64.909 175.863 65.381 176.074 66.0888L152.312 73.145ZM154.703 59.8254C153.474 61.516 152.339 63.7129 151.884 66.4044C151.422 69.1427 151.818 71.4788 152.312 73.1448L176.074 66.0891C176.352 67.0261 176.649 68.6134 176.325 70.5341C176.008 72.408 175.248 73.7183 174.749 74.4044L154.703 59.8254ZM164.491 52.3569C159.935 53.7052 156.842 56.8845 154.703 59.8254L174.749 74.4044C175.019 74.0331 174.943 74.2187 174.471 74.6087C173.947 75.0416 172.964 75.6991 171.525 76.1249L164.491 52.3569ZM174.309 52.663C173.079 52.2717 169.165 50.974 164.491 52.3569L171.525 76.1249C170.071 76.5552 168.736 76.5744 167.747 76.4559C166.953 76.361 166.474 76.1814 166.794 76.2831L174.309 52.663ZM174.777 52.8151C174.667 52.779 174.491 52.7208 174.309 52.6631L166.793 76.283C166.838 76.297 166.895 76.3159 167.028 76.3597L174.777 52.8151ZM173.36 52.7848C174.206 52.7416 174.809 52.8574 175.029 52.9062C175.142 52.9316 175.193 52.9484 175.149 52.935C175.089 52.9171 175.011 52.8922 174.777 52.8151L167.028 76.3597C167.661 76.5678 170.828 77.7331 174.624 77.5394L173.36 52.7848ZM169.636 54.1162C169.577 54.1759 169.883 53.8522 170.588 53.4994C171.355 53.1153 172.316 52.8381 173.36 52.7848L174.624 77.5394C179.852 77.2726 184.03 74.7765 187.163 71.6432L169.636 54.1162ZM169.663 54.0897L169.637 54.1156L187.163 71.6438L187.189 71.618L169.663 54.0897ZM169.038 54.7626L169.014 54.7904L187.837 70.9172L187.861 70.8894L169.038 54.7626ZM168.868 55.8272C168.941 55.2538 169.1 54.8178 169.22 54.5702C169.325 54.3524 169.334 54.4167 169.04 54.7605L187.859 70.8916C190.757 67.5103 192.873 63.5511 193.457 58.9495L168.868 55.8272ZM168.784 56.7825C169.055 57.6628 168.726 56.9435 168.868 55.8272L193.457 58.9494C194.015 54.555 192.944 51.0164 192.475 49.4928L168.784 56.7825ZM168.653 56.3614C168.704 56.5218 168.744 56.652 168.784 56.7819L192.475 49.4934C192.412 49.2875 192.351 49.0936 192.303 48.9398L168.653 56.3614ZM168.646 56.3399L168.649 56.3472L192.307 48.9539L192.305 48.9466L168.646 56.3399ZM168.653 56.3606L168.655 56.3664L192.297 48.9201L192.295 48.9143L168.653 56.3606ZM168.967 57.2401L168.967 57.2402L191.981 48.0346L191.981 48.0345L168.967 57.2401ZM167.509 49.9752C167.508 53.0724 168.47 55.7776 168.649 56.3482L192.299 48.9264C192.213 48.6525 192.169 48.5108 192.134 48.3935C192.102 48.2867 192.107 48.2956 192.126 48.3724C192.165 48.5366 192.295 49.1318 192.295 49.9757L167.509 49.9752ZM172.261 38.4552C169.307 41.6208 167.509 45.5225 167.509 49.9752L192.295 49.9757C192.295 51.0132 192.102 52.2165 191.6 53.4011C191.134 54.5032 190.584 55.151 190.382 55.368L172.261 38.4552ZM182.532 32.4975C178.444 33.2849 175.047 35.4707 172.261 38.4553L190.382 55.3678C190.435 55.3108 190.18 55.5984 189.581 55.9547C188.932 56.3408 188.122 56.6634 187.22 56.8371L182.532 32.4975ZM190.189 32.6412C189.417 32.5027 186.19 31.793 182.532 32.4975L187.22 56.8371C186.347 57.0052 185.666 56.9781 185.369 56.9532C185.24 56.9423 185.191 56.9322 185.277 56.9456C185.378 56.9614 185.511 56.9845 185.812 57.0386L190.189 32.6412ZM190.225 32.6477L190.19 32.6414L185.811 57.0384L185.846 57.0447L190.225 32.6477ZM188.362 32.955C189.354 32.6813 190.133 32.6883 190.47 32.7077C190.633 32.7172 190.715 32.7312 190.67 32.7245C190.605 32.715 190.515 32.6998 190.224 32.6476L185.846 57.0447C186.616 57.1829 190.559 58.0612 194.952 56.8498L188.362 32.955ZM185.316 34.7277C185.196 34.9033 185.357 34.6197 185.881 34.1989C186.461 33.7332 187.305 33.2466 188.362 32.955L194.952 56.8498C200.023 55.4513 203.465 52.0968 205.772 48.7247L185.316 34.7277ZM184.896 36.9763C184.922 37.0433 184.796 36.7456 184.842 36.1705C184.865 35.8869 184.927 35.5943 185.026 35.3164C185.125 35.039 185.238 34.8413 185.316 34.7279L205.773 48.7245C210.446 41.8947 210.41 34.2931 208.044 28.1131L184.896 36.9763ZM182.269 34.0053C184.114 35.4967 184.777 36.6649 184.896 36.9762L208.044 28.1131C205.868 22.4304 201.82 17.9369 197.85 14.728L182.269 34.0053ZM176.239 30.7362C178.343 31.4121 180.521 32.5931 182.269 34.0053L197.85 14.7281C193.766 11.4269 188.884 8.76366 183.82 7.13704L176.239 30.7362ZM172.414 30.2093C172.739 30.1315 174.026 30.0253 176.239 30.7362L183.82 7.13705C178.883 5.55124 172.771 4.63809 166.649 6.10211L172.414 30.2093ZM162.962 35.8533C167.538 32.2484 170.748 30.6076 172.414 30.2093L166.649 6.10211C159.563 7.79664 152.867 12.251 147.622 16.3834L162.962 35.8533ZM149.888 48.0115C154.123 43.5815 158.661 39.2423 162.962 35.8533L147.622 16.3833C142.057 20.7678 136.626 26.0134 131.971 30.8831L149.888 48.0115ZM139.257 59.9355C141.949 56.7157 145.684 52.409 149.888 48.0115L131.971 30.8831C127.279 35.7909 123.169 40.5345 120.241 44.0368L139.257 59.9355ZM136.115 63.7723C136.844 62.8613 137.916 61.54 139.257 59.9355L120.241 44.0368C118.771 45.7942 117.587 47.2546 116.761 48.2865L136.115 63.7723ZM135.566 64.4626C135.718 64.2701 135.902 64.0389 136.115 63.7723L116.761 48.2864C116.519 48.5889 116.308 48.8549 116.129 49.0811L135.566 64.4626Z" fill="white"/>
<path d="M16.8105 79.6775L25.6888 73.1547C25.6888 73.1547 140.018 98.3398 230.612 121.532L193.927 203.342C193.927 203.342 71.8917 163.749 16.8105 79.6775Z" fill="#44C37F" stroke="black" stroke-width="1.90668" stroke-miterlimit="10"/>
<path d="M18.9844 72.6119L28.1335 66.0892C28.1335 66.0892 145.951 91.2743 239.309 114.466L200.6 198.576C200.6 198.576 75.746 156.683 18.9844 72.6119Z" fill="#44C37F" stroke="black" stroke-width="1.90668" stroke-miterlimit="10"/>
<path d="M21.1621 66.6331L82.0412 13.0015C82.0412 13.0015 140.746 85.4767 231.34 108.669L190.754 190.566C190.754 190.566 76.2432 150.704 21.1621 66.6331Z" fill="#44C37F" stroke="black" stroke-width="1.90668" stroke-miterlimit="10"/>
<path d="M68.6294 119.54C68.6294 119.54 29.1304 147.805 28.4057 160.126C27.6809 172.447 40.7827 197.553 55.2215 192.74C68.267 188.391 54.1344 178.607 61.0195 173.171C68.6514 167.146 72.2532 177.882 79.8631 171.36C86.6461 163.607 74.0859 159.064 82.0373 152.516C88.1977 147.443 91.513 156.829 99.069 151.791C102.33 149.617 102.405 145.189 102.405 145.189C87.9104 136.129 68.6294 119.54 68.6294 119.54Z" fill="white" stroke="black" stroke-width="1.90668" stroke-miterlimit="10"/>
<path d="M128.502 56.768C128.502 56.768 155.6 21.6974 172.27 17.7112C184.273 14.8408 204.482 29.2805 197.274 39.8162C192.563 46.7013 189.126 38.4765 183.141 44.8894C178.068 50.3251 186.765 53.2241 180.242 60.8339C174.444 66.6319 172.27 57.2103 166.472 65.1825C162.842 70.1732 172.632 72.43 165.747 78.5904C163.087 80.9701 157.05 76.7785 157.05 76.7785C157.412 77.5033 128.502 56.768 128.502 56.768Z" fill="white" stroke="black" stroke-width="1.90668" stroke-miterlimit="10"/>
<path d="M47.25 64.4596L78.4143 35.8319C78.4143 35.8319 87.4737 39.0933 96.5331 36.9191C96.5331 36.9191 145.091 86.9269 200.173 106.858C200.173 106.858 199.448 117.729 207.058 126.426L193.287 153.967C193.287 153.967 173.357 153.242 164.66 165.2C164.66 165.2 92.9093 134.761 49.7866 88.7389C49.7866 88.7389 55.947 74.9685 47.25 64.4596Z" fill="#FCCB4C" stroke="black" stroke-width="1.90668" stroke-miterlimit="10"/>
</svg>
