<svg width="299" height="206" viewBox="0 0 299 206" fill="none" xmlns="http://www.w3.org/2000/svg">
<path d="M3.23442 159.647C-1.2357 170.077 -0.259442 184.167 1.35382 195.026C2.28478 201.293 7.82093 205.783 14.1561 205.783H178.091C191.111 205.783 203.555 200.419 212.495 190.953C273.46 205.783 299 164.59 299 131.636C299 105.453 284.994 96.2096 260.279 89.6188C252.637 87.5809 256.983 75.6132 247.921 73.9654C238.858 72.3176 231.444 84.6755 228.148 87.1471C224.853 89.6188 230.62 61.6075 219.91 39.3633C203.858 6.0259 148.234 -12.5398 98.8021 9.70437C59.2568 27.4997 56.5106 66.8253 65.0238 83.0279C62.003 79.7325 41.132 80.5563 29.5979 87.1471C10.6492 97.9749 4.88215 120.102 13.9446 142.346C13.9446 142.346 8.17755 148.113 3.23442 159.647Z" fill="white"/>
<path d="M32.3797 164.391C52.8114 164.391 51.3284 144.069 48.033 133.908C57.2602 133.908 73.298 130.613 80.1635 128.965C72.9136 133.579 74.2317 147.09 71.9249 152.857C68.6295 161.095 69.1787 167.137 71.9249 167.686C85.7658 174.277 92.796 158.075 94.1691 150.385C96.6407 156.427 109.822 173.482 124.652 177.573C143.765 182.845 155.135 170.982 158.43 164.391C165.845 180.044 180.674 185.811 190.561 184.163C198.47 182.845 203.193 172.629 204.566 167.686C226.811 173.453 244.935 172.629 259.765 167.686C274.594 162.743 285.305 133.908 280.361 118.255C276.407 105.732 254.547 98.7567 243.288 96.8344C242.464 91.0674 241.64 92.9505 236.697 99.306C232.083 105.238 247.407 114.41 255.646 118.255C274.594 148.738 228.458 142.147 222.691 141.323C216.924 140.499 209.509 133.908 211.981 110.016C213.958 90.9026 212.805 67.9993 211.981 58.9369C202.095 23.5109 178.203 16.92 161.726 14.4484C145.248 11.9769 119.709 10.3292 93.3453 30.1018C72.2545 45.9199 75.7696 81.1811 80.1635 96.8344C69.6181 92.8799 56.5462 91.8912 51.3284 91.8912C45.836 90.5181 33.0388 91.7264 25.7888 107.545C18.5388 123.363 27.1619 141.597 32.3797 148.738C18.7367 155.987 26.6951 162.194 32.3797 164.391Z" fill="#FCCB4C"/>
<path d="M46.0742 159.372C51.2249 161.632 56.5472 149.501 48.6496 143.172" stroke="black" stroke-width="1.64772"/>
<path d="M126.812 64.0805C129.078 68.2804 138.518 72.7014 144.937 64.0805" stroke="black" stroke-width="1.64772"/>
<path d="M41.6073 151.027C37.1026 147.515 29.7351 148.327 27.3425 151.027C20.2101 159.074 29.0943 164.073 32.9733 164.561C40.6063 165.048 54.2204 159.806 47.6135 134.932" stroke="black" stroke-width="1.64772"/>
<path d="M30.8844 146.969C27.8838 142.98 23.0078 130.593 23.0078 120.794C23.0078 109.202 29.7592 92.3753 48.1378 92.0013C62.8407 91.7022 76.0184 95.8652 80.7693 97.9842M80.7693 97.9842C75.6433 81.656 71.4675 44.8118 95.7723 28.0599C120.077 11.308 149.408 11.8564 161.035 14.2246C178.164 15.7203 212.571 30.0791 213.171 75.5486C213.921 132.385 207.169 135.751 223.298 141.36C239.426 146.969 270.932 139.864 255.554 118.924C248.803 112.567 235.45 111.146 236.05 102.471C236.422 97.0927 238.688 94.3589 240.863 93.0579C242.079 92.3305 242.857 93.7226 242.31 95.0295C241.659 96.5849 241.814 97.9842 244.302 97.9842C249.553 97.9842 276.558 106.211 280.309 118.924C284.06 131.638 285.935 189.596 206.419 168.282M80.7693 97.9842C81.692 101.275 84.4044 106.086 85.6453 108.08M206.419 146.969C207.169 162.05 203.933 187.778 181.664 183.987C166.286 181.37 157.66 167.161 158.41 162.674C157.41 166.787 151.783 173.687 144.907 176.135C134.405 179.874 121.652 183.239 95.7723 156.317M99.8981 117.054C92.2716 113.066 74.7681 105.687 65.7663 108.08C54.5141 111.072 50.3883 120.794 42.1366 118.924C33.885 117.054 32.3847 118.55 32.7598 123.037C33.1348 127.524 34.6351 133.507 44.7621 133.881C54.8892 134.255 63.891 132.759 74.7681 129.02" stroke="black" stroke-width="1.64772"/>
<path d="M189.426 159.009C183.06 141.564 166.209 112.664 146.738 119.474C138.125 122.487 130.636 140.56 138.125 163.151C141.495 169.175 155.725 169.251 160.218 136.418" stroke="black" stroke-width="1.64772"/>
<path d="M133.902 149.985C126.478 154.79 110.045 161.517 103.704 149.985C95.7765 135.57 119.558 138.157 123.71 127.439C127.862 116.72 134.657 101.935 152.776 103.783C167.271 105.262 179.954 114.009 184.484 118.198" stroke="black" stroke-width="1.64772"/>
<path d="M118.576 130.509C95.2348 117.516 84.6936 125.312 78.2935 130.509C71.8935 135.706 74.9053 150.184 70.3876 158.351C66.7735 164.884 71.8935 168.498 74.9053 169.488C81.5563 170.106 94.8583 164.884 94.8583 139.047" stroke="black" stroke-width="1.64772"/>
<circle cx="125.99" cy="45.1314" r="8.2386" fill="white" stroke="black" stroke-width="1.64772"/>
<circle r="1.64772" transform="matrix(1 0 0 -1 125.989 45.132)" fill="black" stroke="black" stroke-width="1.64772"/>
<circle cx="144.113" cy="45.1314" r="8.2386" fill="white" stroke="black" stroke-width="1.64772"/>
<circle r="1.64772" transform="matrix(1 0 0 -1 144.116 45.132)" fill="black" stroke="black" stroke-width="1.64772"/>
<path d="M12.7914 170.554C10.403 174.634 11.7962 185.854 12.7914 190.954H176.245V185.462L121.014 166.238L12.7914 170.554Z" fill="black"/>
<path d="M121.014 187.423V170.554M12.7914 190.954C11.7962 185.854 10.403 174.634 12.7914 170.554L121.014 166.238L176.245 185.462V190.954H12.7914Z" stroke="black" stroke-width="1.64772"/>
<path d="M157.618 163.103C157.318 155.891 165.494 158.22 167.37 161.225C176.747 170.239 174.496 175.873 169.62 178.127C164.744 180.381 157.993 172.117 157.618 163.103Z" fill="white"/>
<path d="M186.873 178.127C177.872 180.23 177.872 185.639 182.373 188.268C186.873 190.898 198.733 188.268 198.501 183.385C198.376 180.756 195.875 176.024 186.873 178.127Z" fill="white"/>
<path d="M111.109 161.225C110.271 158.705 106.233 151.834 97.982 152.21C89.8132 152.582 96.6327 166.698 104.802 167.06C109.329 167.261 112.022 163.965 111.109 161.225Z" fill="white"/>
<path d="M220.255 171.742C219.254 174.496 220.105 180.08 231.507 180.381C242.909 180.681 243.384 176.249 242.009 173.244M256.261 170.615C257.512 173.369 260.687 176.099 269.389 169.488C278.09 162.877 276.39 159.221 273.89 157.844M279.516 143.947C281.891 144.448 286.642 143.872 286.642 137.561C286.642 131.251 283.766 128.672 281.391 128.171M263.388 104.508C264.388 102.254 267.363 99.8506 272.764 105.259C278.165 110.668 276.515 111.645 275.39 112.396M47.7227 138.688C52.8486 139.189 64.1507 138.238 63.8506 131.927M167.37 161.225C165.494 158.22 157.318 155.891 157.618 163.103C157.993 172.117 164.744 180.381 169.62 178.127C174.496 175.873 176.747 170.239 167.37 161.225ZM182.373 188.268C177.872 185.639 177.872 180.23 186.873 178.127C195.875 176.024 198.376 180.756 198.501 183.385C198.733 188.268 186.873 190.898 182.373 188.268ZM97.982 152.21V152.21C89.8132 152.582 96.6327 166.698 104.802 167.06C109.329 167.261 112.022 163.965 111.109 161.225C110.271 158.705 106.233 151.834 97.982 152.21Z" stroke="black" stroke-width="1.64772"/>
<path d="M99.1502 156.258L105.618 162.507" stroke="black" stroke-width="1.64772"/>
<line x1="163.224" y1="160.681" x2="168.46" y2="172.649" stroke="black" stroke-width="1.64772"/>
<line x1="184.484" y1="183.54" x2="194.371" y2="183.54" stroke="black" stroke-width="1.64772"/>
<path d="M121.045 170.358V187.659" stroke="white" stroke-width="1.64772"/>
</svg>
