<svg preserveAspectRatio="none" width="192" height="179" viewBox="0 0 192 179" fill="none" xmlns="http://www.w3.org/2000/svg">
<path d="M25.1345 1.00043L1 16.4302L57.8206 105.305L81.9551 89.8749L25.1345 1.00043Z" fill="#262626" stroke="#262626" stroke-width="1.15671" stroke-miterlimit="10"/>
<path d="M46.8966 23.0769L11.9082 45.4458L88.5339 165.3L123.522 142.931L46.8966 23.0769Z" fill="#FCCB4C" stroke="#262626" stroke-width="1.15671" stroke-miterlimit="10"/>
<path d="M123.523 142.932L124.458 177.359L88.5345 165.3L3.80029 32.7632L21.2945 21.5787L38.7887 10.3943L123.523 142.932Z" fill="#FCCB4C" stroke="#262626" stroke-width="1.15671" stroke-miterlimit="10"/>
<path d="M88.5317 165.3L123.52 142.931" stroke="#262626" stroke-width="1.15671" stroke-miterlimit="10"/>
<path d="M104.354 170.611L123.932 158.055L124.456 177.359L104.354 170.611Z" fill="#262626" stroke="#262626" stroke-width="1.15671" stroke-miterlimit="10"/>
<path d="M63.8242 112.846L79.7293 137.171" stroke="#262626" stroke-width="1.15671" stroke-miterlimit="10"/>
<path d="M53.5327 96.9407L61.3055 109.119" stroke="#262626" stroke-width="1.15671" stroke-miterlimit="10"/>
<path d="M18.2703 24.8802L8.53369 31.105L44.0252 86.6191L53.7618 80.3943L18.2703 24.8802Z" fill="#262626" stroke="#262626" stroke-width="1.15671" stroke-miterlimit="10"/>
<path d="M16.489 22.0933L6.75244 28.3181L40.6096 81.2759L50.3462 75.0511L16.489 22.0933Z" fill="#FCCB4C" stroke="#262626" stroke-width="1.15671" stroke-miterlimit="10"/>
<path d="M86.7729 177.359H192" stroke="#262626" stroke-width="1.15671" stroke-miterlimit="10"/>
<path d="M43.521 177.359H80.0831" stroke="#262626" stroke-width="1.15671" stroke-miterlimit="10"/>
<path d="M90.0203 69.8849C90.0203 69.8849 72.2441 79.1645 81.5237 96.9407C72.2441 79.1645 54.4678 88.4441 54.4678 88.4441C54.4678 88.4441 72.2441 79.1645 62.9645 61.3882C72.2441 79.1645 90.0203 69.8849 90.0203 69.8849Z" fill="#EB602F" stroke="#262626" stroke-width="1.15671" stroke-miterlimit="10"/>
</svg>
