<svg preserveAspectRatio="none" width="291" height="187" viewBox="0 0 291 187" fill="none" xmlns="http://www.w3.org/2000/svg">
<path d="M63.0699 25.9004H245.135L222.208 185.99H22.4995L63.0699 25.9004Z" fill="white" stroke="#262626" stroke-width="1.2" stroke-miterlimit="10"/>
<path d="M205.521 185.99C207.305 181.321 229.686 87.1346 243.264 29.7271C244.717 23.5853 251.674 25.2724 251.364 31.689L251.374 185.99H205.521Z" fill="#262626" stroke="#262626" stroke-width="1.2" stroke-miterlimit="10"/>
<path d="M55.7778 54.6724H241.014" stroke="#262626" stroke-width="1.2" stroke-miterlimit="10"/>
<path d="M250.597 1L228.83 185.991" stroke="#FCCB4C" stroke-width="1.2" stroke-miterlimit="10"/>
<path d="M60.5156 130.206C60.5156 130.206 106.441 145.608 133.59 109.053C170 73.0002 198 73 198 73" stroke="#EB602F" stroke-width="9" stroke-miterlimit="10"/>
<path d="M78.2461 158.652L79.4862 153.838" stroke="#262626" stroke-width="1.2" stroke-miterlimit="10"/>
<path d="M80.7588 148.892L82.6695 141.474" stroke="#262626" stroke-width="1.2" stroke-miterlimit="10" stroke-dasharray="3.67 3.67"/>
<path d="M83.3057 139.002L84.5458 134.188" stroke="#262626" stroke-width="1.2" stroke-miterlimit="10"/>
<path d="M120.552 159.028L121.807 154.22" stroke="#262626" stroke-width="1.2" stroke-miterlimit="10"/>
<path d="M123.915 146.148L131.286 117.897" stroke="#262626" stroke-width="1.2" stroke-miterlimit="10" stroke-dasharray="6.01 6.01"/>
<path d="M132.337 113.862L133.591 109.054" stroke="#262626" stroke-width="1.2" stroke-miterlimit="10"/>
<path d="M172.628 159.449L173.97 154.682" stroke="#262626" stroke-width="1.2" stroke-miterlimit="10"/>
<path d="M176.775 144.705L192.212 89.8442" stroke="#262626" stroke-width="1.2" stroke-miterlimit="10" stroke-dasharray="7.49 7.49"/>
<path d="M193.619 84.8572L194.961 80.0898" stroke="#262626" stroke-width="1.2" stroke-miterlimit="10"/>
<path d="M79 26.2461C79 15.0645 84.9648 6 92.3227 6C99.6806 6 105.645 15.0645 105.645 26.2461" stroke="#262626" stroke-width="2" stroke-miterlimit="10"/>
<path d="M121.103 26.2461C121.103 15.0645 127.068 6 134.426 6C141.784 6 147.748 15.0645 147.748 26.2461" stroke="#262626" stroke-width="2" stroke-miterlimit="10"/>
<path d="M162.746 26.2461C162.746 15.0645 168.711 6 176.069 6C183.427 6 189.391 15.0645 189.391 26.2461" stroke="#262626" stroke-width="2" stroke-miterlimit="10"/>
<path d="M206.428 26.2461C206.428 15.0645 212.392 6 219.75 6C227.108 6 233.073 15.0645 233.073 26.2461" stroke="#262626" stroke-width="2" stroke-miterlimit="10"/>
<path d="M69.2407 77.043H103.991" stroke="#262626" stroke-width="1.2" stroke-miterlimit="10"/>
<path d="M67.8066 88.2744H102.556" stroke="#262626" stroke-width="1.2" stroke-miterlimit="10"/>
<path d="M57.2251 158.472L193.076 159.595" stroke="#262626" stroke-width="1.2" stroke-miterlimit="10"/>
<path d="M0 185.99H291" stroke="#262626" stroke-width="1.2" stroke-miterlimit="10"/>
</svg>
