<svg width="142" height="150" viewBox="0 0 142 150" fill="none" xmlns="http://www.w3.org/2000/svg">
<ellipse cx="81.0968" cy="142.582" rx="57.1652" ry="3.65591" fill="white" stroke="white" stroke-width="6.64711"/>
<ellipse cx="70.2858" cy="70.1563" rx="63.2955" ry="63.1476" transform="rotate(-6.7571 70.2858 70.1563)" fill="white" stroke="white" stroke-width="8.64124"/>
<path d="M133.241 63.0009C137.323 97.451 112.639 128.696 78.1064 132.788C43.5736 136.88 12.2715 112.268 8.1897 77.8174C4.10793 43.3672 28.7919 12.1218 63.3246 8.03026C97.8574 3.9387 129.16 28.5507 133.241 63.0009Z" fill="#0094FF" stroke="black" stroke-width="0.664711"/>
<path d="M26.4091 37.8902C22.8143 43.9926 20.2265 50.7237 18.8444 57.8315" stroke="black" stroke-width="0.664711"/>
<path d="M61.1894 16.6181C48.6045 18.1092 37.7225 24.3039 30.0932 33.2359" stroke="black" stroke-width="0.664711"/>
<path d="M38.5866 74.2438C42.6439 108.487 60.2664 134.549 77.9476 132.454C95.6287 130.359 106.673 100.901 102.616 66.6574C98.5584 32.4137 80.9359 6.35206 63.2548 8.44698" stroke="black" stroke-width="0.664711"/>
<mask id="path-7-inside-1_943_2617" fill="white">
<path fill-rule="evenodd" clip-rule="evenodd" d="M125.408 101.859C115.799 118.581 98.6803 130.706 78.0561 133.15C58.2188 135.5 39.4415 128.384 26.247 115.367C36.6662 105.919 54.6405 98.439 75.6541 95.9493C95.1267 93.6421 113.063 96.1117 125.408 101.859Z"/>
</mask>
<path d="M125.408 101.859L125.984 102.19L126.345 101.562L125.688 101.256L125.408 101.859ZM26.247 115.367L25.8005 114.875L25.2799 115.347L25.7801 115.84L26.247 115.367ZM124.831 101.528C115.323 118.076 98.3845 130.072 77.9779 132.489L78.1343 133.81C98.976 131.34 116.276 119.087 125.984 102.19L124.831 101.528ZM77.9779 132.489C58.3497 134.815 39.7706 127.775 26.7138 114.894L25.7801 115.84C39.1123 128.993 58.0879 136.185 78.1343 133.81L77.9779 132.489ZM26.6935 115.86C36.9801 106.532 54.8089 99.0884 75.7323 96.6094L75.5758 95.2892C54.4721 97.7896 36.3523 105.307 25.8005 114.875L26.6935 115.86ZM75.7323 96.6094C95.1171 94.3126 112.923 96.7795 125.127 102.461L125.688 101.256C113.204 95.444 95.1364 92.9716 75.5758 95.2892L75.7323 96.6094Z" fill="black" mask="url(#path-7-inside-1_943_2617)"/>
<mask id="path-9-inside-2_943_2617" fill="white">
<path fill-rule="evenodd" clip-rule="evenodd" d="M15.86 39.019C25.4682 22.2963 42.5873 10.1718 63.2115 7.72822C83.0488 5.37783 101.826 12.4935 115.021 25.5105C104.601 34.9583 86.6271 42.4387 65.6135 44.9285C46.1408 47.2357 28.2043 44.766 15.86 39.019Z"/>
</mask>
<path d="M15.86 39.019L15.2836 38.6878L14.9228 39.3159L15.5795 39.6216L15.86 39.019ZM115.021 25.5105L115.467 26.0029L115.988 25.5309L115.487 25.0373L115.021 25.5105ZM16.4364 39.3501C25.9443 22.8019 42.883 10.8062 63.2897 8.38831L63.1333 7.06813C42.2915 9.53753 24.992 21.7908 15.2836 38.6878L16.4364 39.3501ZM63.2897 8.38831C82.9179 6.0627 101.497 13.1024 114.554 25.9837L115.487 25.0373C102.155 11.8845 83.1797 4.69296 63.1333 7.06813L63.2897 8.38831ZM114.574 25.0181C104.287 34.3456 86.4587 41.7893 65.5353 44.2684L65.6917 45.5886C86.7954 43.0881 104.915 35.5709 115.467 26.0029L114.574 25.0181ZM65.5353 44.2684C46.1505 46.5652 28.3449 44.0983 16.1405 38.4164L15.5795 39.6216C28.0636 45.4337 46.1312 47.9062 65.6917 45.5886L65.5353 44.2684Z" fill="black" mask="url(#path-9-inside-2_943_2617)"/>
<line x1="63.3574" y1="7.71358" x2="78.2173" y2="133.131" stroke="black" stroke-width="0.664711"/>
<line x1="133.207" y1="63.3594" x2="7.78923" y2="78.2193" stroke="black" stroke-width="0.664711"/>
<rect x="18.8477" y="61.4468" width="101.713" height="30.0485" rx="6.31476" transform="rotate(-6.7571 18.8477 61.4468)" fill="black" stroke="black" stroke-width="0.664711"/>
<path d="M39.2842 81.2553L40.475 74.2224L43.4427 80.7625L51.95 79.7546L54.627 65.9431L47.7356 66.7596L46.8209 74.6995L43.6245 67.2467L36.3529 68.1083L34.9658 76.1282L32.2181 68.5982L24.8514 69.471L30.9432 82.2435L39.2842 81.2553ZM69.6985 77.6517L70.8894 70.6188L73.8571 77.1589L82.3644 76.151L85.0413 62.3395L78.1499 63.156L77.2352 71.0959L74.0389 63.6431L66.7673 64.5047L65.3801 72.5246L62.6324 64.9946L55.2658 65.8674L61.3575 78.6399L69.6985 77.6517ZM100.113 74.0481L101.304 67.0152L104.271 73.5554L112.779 72.5474L115.456 58.7359L108.564 59.5524L107.65 67.4923L104.453 60.0395L97.1816 60.9011L95.7944 68.921L93.0468 61.391L85.6801 62.2638L91.7719 75.0363L100.113 74.0481Z" fill="white"/>
<ellipse cx="81.7609" cy="142.582" rx="57.1652" ry="3.65591" fill="black"/>
</svg>
