<svg width="196" height="189" viewBox="0 0 196 189" fill="none" xmlns="http://www.w3.org/2000/svg">
<path d="M132.665 144.227C120.955 158.297 84.8761 160.052 96.776 139.334C107.903 119.962 136.043 114.659 131.732 127.127C127.421 139.595 103.452 153.3 87.8039 138.111C73.9679 124.681 111.687 96.3628 116.496 104.814C123.342 116.844 80.667 137.791 78.7144 118.594C77.1524 103.236 97.6575 86.5789 107.756 82.7333M42.2152 146.91L64.0049 149.881" stroke="black" stroke-width="1.2936"/>
<path d="M50.2559 131.035L83.2905 147.288" stroke="black" stroke-width="1.2936"/>
<path d="M123.078 90.0448L133.799 107.173" stroke="black" stroke-width="1.2936"/>
<path d="M142.449 86.8103L142.916 102.541" stroke="black" stroke-width="1.2936"/>
<path fill-rule="evenodd" clip-rule="evenodd" d="M71.6799 58.5889C70.6183 60.3089 70.0237 62.0455 69.5723 63.3641L69.5045 63.562L68.2427 60.4758C69.0067 59.8596 69.9105 59.3123 70.9896 58.8711L71.6799 58.5889ZM74.4486 103.409C67.8859 102.983 62.9484 98.9478 60.1791 92.1743L46.2367 58.0728C44.0731 52.7809 44.2757 46.4312 48.3838 41.2466C44.0278 43.5425 41.5372 46.5198 40.3176 49.5548C40.2339 49.7631 40.1558 49.9726 40.0833 50.1831L61.7852 103.263C62.0913 103.414 62.4029 103.551 62.7199 103.676C65.8243 104.894 69.7416 104.976 74.4486 103.409ZM63.0347 106.32C67.0083 107.507 71.764 107.134 77.1529 104.931L80.6542 103.499C81.9168 102.983 83.0913 102.394 84.175 101.74C84.4719 101.628 84.7708 101.511 85.0716 101.388L88.3943 100.029C99.2368 95.5962 103.67 85.7212 99.7019 76.0154L96.0507 67.0851L111.324 60.8406L119.306 80.3633L139.219 72.2217L139.203 72.1803L147.073 68.9625L139.108 49.4812L150.334 44.8913L150.249 44.6841L158.099 41.4746L151.259 24.7445L132.183 32.5439L124.217 13.0594L104.324 21.1925L104.377 21.3227L96.4862 24.549L104.399 43.9033L93.1119 48.5181L93.1821 48.6897L85.2707 51.9243L85.4867 52.4527C83.4267 51.8723 81.1313 51.9706 78.7387 52.9488L77.9518 53.2705C76.4602 53.8804 75.2439 54.6621 74.2434 55.5357C73.1553 55.6222 72.0297 55.8891 70.8818 56.3584L70.094 56.6805C69.0366 57.1127 68.1176 57.6315 67.3156 58.2081L66.4977 56.2076L78.8668 51.1505L78.7991 50.985L86.716 47.7482L84.428 42.152C80.8531 33.4081 72.9733 28.3632 60.2945 33.5469L57.7587 34.5836C56.617 35.0504 55.5611 35.5591 54.5871 36.1042C53.8771 36.339 53.1507 36.6076 52.4079 36.9113L49.8695 37.9491C44.2979 40.2271 40.7684 43.503 38.8375 47.1363L37.472 43.7964L22.5198 49.9096C22.5342 49.9512 22.5482 49.9928 22.5621 50.0343L14.5937 53.2921C16.1816 57.9033 14.7039 61.8414 8.5822 64.4432C8.39592 64.5223 8.20534 64.6003 8.01041 64.6769L13.8858 79.0475L21.2385 76.0414L38.8104 119.02L46.7886 115.758L46.8443 115.894L64.0699 108.852L63.0347 106.32ZM23.0739 52.3818L17.392 54.7049C17.7462 56.811 17.5309 58.9267 16.4783 60.9057C16.4438 60.9707 16.4084 61.0353 16.3724 61.0995C21.4641 58.9766 23.4048 55.9477 23.0739 52.3818ZM16.0721 61.597C14.9552 63.3266 13.2544 64.7445 11.0604 65.8899L15.1785 75.9622L20.3429 73.8508C20.5631 73.7607 20.789 73.7064 21.0142 73.685L16.0721 61.597ZM23.3519 74.9814L29.1481 72.6116L46.0549 113.964L40.265 116.331L23.4268 75.1467C23.4037 75.0902 23.3787 75.0351 23.3519 74.9814ZM68.4001 52.873L67.0116 49.4769C66.4753 48.1653 65.7879 47.732 64.8261 48.1252C63.8642 48.5184 63.6773 49.3093 64.2135 50.6209L65.602 54.017L68.4001 52.873ZM95.1551 64.8945L93.0882 59.839C92.0945 57.4087 90.5676 55.3839 88.6795 54.015L88.3546 53.2203L94.0777 50.8804L99.1411 63.2648L95.1551 64.8945ZM113.418 59.7427C113.452 59.8083 113.484 59.8761 113.512 59.946L120.683 77.4857L126.386 75.1541L119.13 57.4071L113.418 59.7427ZM105.273 23.5133L99.5701 25.8449L106.587 43.0086L112.29 40.677L105.273 23.5133Z" fill="white"/>
<path d="M69.5723 63.3641L76.3029 65.6706L76.3035 65.6687L69.5723 63.3641ZM71.6799 58.5889L77.7344 62.3257C79.3523 59.7043 79.0995 56.3395 77.108 53.9893C75.1165 51.6391 71.8387 50.8374 68.9874 52.0032L71.6799 58.5889ZM69.5045 63.562L62.9188 66.2545C64.0409 68.9988 66.7471 70.7597 69.7107 70.6738C72.6743 70.5879 75.2739 68.6732 76.2351 65.8684L69.5045 63.562ZM68.2427 60.4758L63.7759 54.9379C61.3286 56.9119 60.4672 60.2581 61.6571 63.1683L68.2427 60.4758ZM74.4486 103.409L76.6959 110.159C79.9247 109.084 81.9403 105.874 81.505 102.499C81.0697 99.1237 78.3055 96.5294 74.9097 96.3089L74.4486 103.409ZM60.1791 92.1743L53.5935 94.8668L60.1791 92.1743ZM46.2367 58.0728L52.8223 55.3802L46.2367 58.0728ZM48.3838 41.2466L53.9602 45.6651C56.0492 43.0288 56.0064 39.2898 53.8579 36.7018C51.7093 34.1139 48.0419 33.3842 45.0663 34.9526L48.3838 41.2466ZM40.3176 49.5548L33.7159 46.9018L33.7159 46.9019L40.3176 49.5548ZM40.0833 50.1831L33.3568 47.8647C32.7942 49.4968 32.8443 51.2778 33.4976 52.8757L40.0833 50.1831ZM61.7852 103.263L55.1996 105.956C55.858 107.567 57.0839 108.88 58.6452 109.648L61.7852 103.263ZM62.7199 103.676L65.3184 97.0525L65.3184 97.0525L62.7199 103.676ZM63.0347 106.32L65.0712 99.5026C62.4462 98.7184 59.6041 99.5111 57.7638 101.541C55.9236 103.57 55.4123 106.476 56.4491 109.012L63.0347 106.32ZM84.175 101.74L81.6706 95.0801C81.2632 95.2333 80.8707 95.4236 80.4981 95.6485L84.175 101.74ZM85.0716 101.388L82.3791 94.802L85.0716 101.388ZM88.3943 100.029L91.0869 106.615L88.3943 100.029ZM96.0507 67.0851L93.3582 60.4995C89.721 61.9866 87.9781 66.1405 89.4651 69.7777L96.0507 67.0851ZM111.324 60.8406L117.91 58.1481C117.196 56.4015 115.817 55.0101 114.077 54.28C112.337 53.5499 110.378 53.5409 108.631 54.255L111.324 60.8406ZM119.306 80.3633L112.72 83.0559C114.207 86.693 118.361 88.436 121.998 86.949L119.306 80.3633ZM139.219 72.2217L141.912 78.8073C145.549 77.3202 147.292 73.1663 145.805 69.5291L139.219 72.2217ZM139.203 72.1803L136.51 65.5946C132.873 67.0817 131.13 71.2357 132.617 74.8728L139.203 72.1803ZM147.073 68.9625L149.765 75.5482C153.402 74.0611 155.145 69.9071 153.658 66.27L147.073 68.9625ZM139.108 49.4812L136.415 42.8956C132.778 44.3827 131.035 48.5366 132.522 52.1738L139.108 49.4812ZM150.334 44.8913L153.027 51.477C154.773 50.7629 156.165 49.3842 156.895 47.6442C157.625 45.9042 157.634 43.9454 156.92 42.1988L150.334 44.8913ZM150.249 44.6841L147.557 38.0984C145.81 38.8126 144.419 40.1913 143.689 41.9313C142.959 43.6712 142.95 45.63 143.664 47.3766L150.249 44.6841ZM158.099 41.4746L160.792 48.0602C164.429 46.5732 166.172 42.4192 164.685 38.782L158.099 41.4746ZM151.259 24.7445L157.845 22.0519C156.358 18.4148 152.204 16.6718 148.567 18.1588L151.259 24.7445ZM132.183 32.5439L125.597 35.2364C127.084 38.8736 131.238 40.6166 134.875 39.1295L132.183 32.5439ZM124.217 13.0594L130.802 10.3668C129.315 6.72968 125.161 4.98668 121.524 6.47373L124.217 13.0594ZM104.324 21.1925L101.632 14.6068C99.8849 15.3209 98.4935 16.6996 97.7634 18.4396C97.0333 20.1796 97.0244 22.1384 97.7385 23.885L104.324 21.1925ZM104.377 21.3227L107.07 27.9083C108.817 27.1942 110.208 25.8155 110.938 24.0755C111.668 22.3355 111.677 20.3767 110.963 18.6301L104.377 21.3227ZM96.4862 24.549L93.7936 17.9633C90.1565 19.4504 88.4135 23.6044 89.9005 27.2415L96.4862 24.549ZM104.399 43.9033L107.092 50.4889C110.729 49.0019 112.472 44.8479 110.985 41.2107L104.399 43.9033ZM93.1119 48.5181L90.4194 41.9324C86.7822 43.4195 85.0392 47.5735 86.5263 51.2106L93.1119 48.5181ZM93.1821 48.6897L95.8746 55.2754C97.6213 54.5613 99.0127 53.1826 99.7428 51.4426C100.473 49.7026 100.482 47.7438 99.7677 45.9972L93.1821 48.6897ZM85.2707 51.9243L82.5781 45.3387C80.8315 46.0528 79.4401 47.4315 78.71 49.1715C77.9799 50.9115 77.9709 52.8703 78.685 54.6169L85.2707 51.9243ZM85.4867 52.4527L83.5571 59.3008C86.1747 60.0384 88.9839 59.2193 90.7948 57.1903C92.6057 55.1613 93.1015 52.2775 92.0723 49.7602L85.4867 52.4527ZM74.2434 55.5357L74.8073 62.6282C76.3295 62.5071 77.7725 61.8995 78.9228 60.8951L74.2434 55.5357ZM67.3156 58.2081L60.7299 60.9006C61.5544 62.9173 63.2575 64.4451 65.3516 65.0465C67.4457 65.6479 69.6999 65.2566 71.4689 63.9848L67.3156 58.2081ZM66.4977 56.2076L63.8051 49.622C60.168 51.109 58.425 55.263 59.912 58.9002L66.4977 56.2076ZM78.8668 51.1505L81.5593 57.7361C85.1964 56.2491 86.9394 52.0951 85.4524 48.458L78.8668 51.1505ZM78.7991 50.985L76.1066 44.3994C72.4694 45.8864 70.7264 50.0404 72.2135 53.6776L78.7991 50.985ZM86.716 47.7482L89.4086 54.3338C93.0457 52.8468 94.7887 48.6928 93.3017 45.0556L86.716 47.7482ZM84.428 42.152L91.0137 39.4595L84.428 42.152ZM54.5871 36.1042L56.8211 42.8592C57.2511 42.717 57.6665 42.534 58.0617 42.3129L54.5871 36.1042ZM38.8375 47.1363L32.2519 49.8288C33.2964 52.3835 35.7241 54.1037 38.4806 54.2421C41.2371 54.3806 43.825 52.9123 45.1202 50.4751L38.8375 47.1363ZM37.472 43.7964L44.0577 41.1038C43.3436 39.3572 41.9649 37.9658 40.2249 37.2357C38.4849 36.5056 36.5261 36.4966 34.7795 37.2107L37.472 43.7964ZM22.5198 49.9096L19.8273 43.324C16.3347 44.7519 14.5643 48.6579 15.7925 52.2256L22.5198 49.9096ZM22.5621 50.0343L25.2546 56.6199C28.7216 55.2024 30.4959 51.3396 29.3123 47.7859L22.5621 50.0343ZM14.5937 53.2921L11.9012 46.7065C8.40848 48.1345 6.63805 52.0408 7.8666 55.6086L14.5937 53.2921ZM8.5822 64.4432L5.79932 57.8952L5.7993 57.8952L8.5822 64.4432ZM8.01041 64.6769L5.40602 58.0559C3.6347 58.7527 2.21642 60.1301 1.46826 61.8804C0.720092 63.6306 0.704427 65.6076 1.42476 67.3695L8.01041 64.6769ZM13.8858 79.0475L7.3002 81.7401C8.78725 85.3772 12.9412 87.1202 16.5784 85.6332L13.8858 79.0475ZM21.2385 76.0414L27.8242 73.3488C26.3371 69.7117 22.1831 67.9687 18.546 69.4558L21.2385 76.0414ZM38.8104 119.02L32.2248 121.713C32.9389 123.459 34.3176 124.851 36.0576 125.581C37.7976 126.311 39.7564 126.32 41.503 125.606L38.8104 119.02ZM46.7886 115.758L53.3743 113.066C52.6602 111.319 51.2815 109.928 49.5415 109.198C47.8015 108.468 45.8427 108.459 44.0961 109.173L46.7886 115.758ZM46.8443 115.894L40.2586 118.587C40.9727 120.333 42.3514 121.725 44.0914 122.455C45.8314 123.185 47.7902 123.194 49.5368 122.48L46.8443 115.894ZM64.0699 108.852L66.7624 115.437C68.5091 114.723 69.9005 113.344 70.6306 111.604C71.3607 109.864 71.3696 107.906 70.6555 106.159L64.0699 108.852ZM23.0739 52.3818L30.1583 51.7245C29.9501 49.4799 28.6904 47.4668 26.7629 46.298C24.8353 45.1293 22.468 44.9431 20.3814 45.7962L23.0739 52.3818ZM17.392 54.7049L14.6995 48.1192C11.6199 49.3783 9.82405 52.6035 10.3757 55.8845L17.392 54.7049ZM16.4783 60.9057L22.76 64.2466L22.76 64.2466L16.4783 60.9057ZM16.3724 61.0995L10.171 57.6118C8.68262 60.2582 9.03771 63.5576 11.0552 65.8268C13.0726 68.096 16.3078 68.8348 19.1102 67.6664L16.3724 61.0995ZM16.0721 61.597L22.6577 58.9045C21.6544 56.4506 19.37 54.758 16.7303 54.5127C14.0906 54.2675 11.5334 55.5102 10.0952 57.7373L16.0721 61.597ZM11.0604 65.8899L7.7676 59.583C4.51141 61.283 3.08467 65.1824 4.47479 68.5825L11.0604 65.8899ZM15.1785 75.9622L8.59286 78.6548C10.0799 82.2919 14.2339 84.0349 17.871 82.5479L15.1785 75.9622ZM21.0142 73.685L21.6869 80.7679C23.9283 80.555 25.9367 79.2938 27.102 77.3673C28.2673 75.4408 28.4519 73.0765 27.5999 70.9924L21.0142 73.685ZM29.1481 72.6116L35.7337 69.9191C34.2467 66.2819 30.0927 64.5389 26.4556 66.026L29.1481 72.6116ZM23.3519 74.9814L20.6593 68.3958C18.8263 69.1452 17.3886 70.6246 16.6919 72.4783C15.9952 74.332 16.1026 76.3922 16.9883 78.1634L23.3519 74.9814ZM46.0549 113.964L48.7474 120.549C52.3846 119.062 54.1276 114.908 52.6405 111.271L46.0549 113.964ZM40.265 116.331L33.6793 119.023C35.1664 122.66 39.3204 124.403 42.9575 122.916L40.265 116.331ZM68.4001 52.873L71.0926 59.4586C74.7298 57.9716 76.4728 53.8176 74.9857 50.1804L68.4001 52.873ZM65.602 54.017L59.0164 56.7095C59.7305 58.4561 61.1092 59.8476 62.8492 60.5776C64.5892 61.3077 66.5479 61.3167 68.2946 60.6026L65.602 54.017ZM93.0882 59.839L99.6738 57.1465L93.0882 59.839ZM95.1551 64.8945L88.5695 67.587C89.2836 69.3337 90.6623 70.7251 92.4023 71.4552C94.1423 72.1853 96.101 72.1942 97.8476 71.4801L95.1551 64.8945ZM88.6795 54.015L82.0939 56.7076C82.5956 57.9346 83.4301 58.9971 84.5033 59.7752L88.6795 54.015ZM88.3546 53.2203L85.6621 46.6346C83.9154 47.3487 82.524 48.7275 81.7939 50.4674C81.0638 52.2074 81.0549 54.1662 81.769 55.9128L88.3546 53.2203ZM94.0777 50.8804L100.663 48.1878C99.1763 44.5507 95.0223 42.8077 91.3852 44.2947L94.0777 50.8804ZM99.1411 63.2648L101.834 69.8504C103.58 69.1363 104.972 67.7576 105.702 66.0176C106.432 64.2776 106.441 62.3189 105.727 60.5723L99.1411 63.2648ZM113.418 59.7427L110.725 53.157C108.872 53.9148 107.424 55.4186 106.736 57.2992C106.048 59.1797 106.185 61.2631 107.112 63.0378L113.418 59.7427ZM120.683 77.4857L114.098 80.1783C115.585 83.8154 119.739 85.5584 123.376 84.0713L120.683 77.4857ZM126.386 75.1541L129.079 81.7397C132.716 80.2527 134.459 76.0987 132.972 72.4615L126.386 75.1541ZM119.13 57.4071L125.716 54.7146C124.229 51.0774 120.075 49.3344 116.438 50.8215L119.13 57.4071ZM105.273 23.5133L111.859 20.8208C110.372 17.1836 106.218 15.4406 102.58 16.9277L105.273 23.5133ZM99.5701 25.8449L96.8776 19.2593C93.2404 20.7464 91.4974 24.9003 92.9845 28.5375L99.5701 25.8449ZM106.587 43.0086L100.002 45.7011C100.716 47.4478 102.095 48.8392 103.835 49.5693C105.575 50.2994 107.533 50.3083 109.28 49.5942L106.587 43.0086ZM112.29 40.677L114.983 47.2626C118.62 45.7756 120.363 41.6216 118.876 37.9844L112.29 40.677ZM76.3035 65.6687C76.7639 64.324 77.1402 63.2884 77.7344 62.3257L65.6254 54.852C64.0964 57.3294 63.2836 59.767 62.841 61.0596L76.3035 65.6687ZM76.2351 65.8684L76.3029 65.6706L62.8417 61.0576L62.7739 61.2555L76.2351 65.8684ZM61.6571 63.1683L62.9188 66.2545L76.0901 60.8694L74.8284 57.7833L61.6571 63.1683ZM68.2971 52.2855C66.5859 52.9851 65.0832 53.8834 63.7759 54.9379L72.7095 66.0137C72.9302 65.8357 73.2351 65.6395 73.6822 65.4567L68.2971 52.2855ZM68.9874 52.0032L68.2971 52.2855L73.6822 65.4567L74.3724 65.1745L68.9874 52.0032ZM74.9097 96.3089C71.5778 96.0925 68.7144 94.2504 66.7647 89.4817L53.5935 94.8668C57.1825 103.645 64.194 109.873 73.9875 110.509L74.9097 96.3089ZM66.7647 89.4817L52.8223 55.3802L39.651 60.7653L53.5935 94.8668L66.7647 89.4817ZM52.8223 55.3802C51.4596 52.0471 51.7112 48.5035 53.9602 45.6651L42.8073 36.8281C36.8402 44.359 36.6866 53.5147 39.651 60.7653L52.8223 55.3802ZM45.0663 34.9526C39.3848 37.9471 35.6309 42.1365 33.7159 46.9018L46.9194 52.2077C47.4436 50.9031 48.6707 49.1379 51.7012 47.5407L45.0663 34.9526ZM33.7159 46.9019C33.5877 47.221 33.468 47.5421 33.3568 47.8647L46.8097 52.5016C46.8437 52.4031 46.8802 52.3051 46.9194 52.2076L33.7159 46.9019ZM33.4976 52.8757L55.1996 105.956L68.3708 100.571L46.6689 47.4906L33.4976 52.8757ZM58.6452 109.648C59.1287 109.886 59.621 110.103 60.1214 110.299L65.3184 97.0525C65.1848 97.0001 65.0538 96.9423 64.9252 96.8791L58.6452 109.648ZM60.1213 110.299C65.1152 112.258 70.7923 112.125 76.6959 110.159L72.2013 96.6582C68.691 97.8268 66.5333 97.5292 65.3184 97.0525L60.1213 110.299ZM60.9983 113.137C66.9271 114.908 73.3894 114.156 79.8455 111.517L74.4604 98.3453C70.1386 100.112 67.0896 100.106 65.0712 99.5026L60.9983 113.137ZM79.8455 111.517L83.3468 110.085L77.9617 96.9138L74.4604 98.3453L79.8455 111.517ZM83.3468 110.085C84.935 109.436 86.44 108.683 87.8518 107.831L80.4981 95.6485C79.7426 96.1046 78.8986 96.5308 77.9617 96.9138L83.3468 110.085ZM82.3791 94.802C82.1396 94.8999 81.9034 94.9926 81.6706 95.0801L86.6794 108.399C87.0404 108.263 87.402 108.121 87.7641 107.973L82.3791 94.802ZM85.7018 93.4435L82.3791 94.802L87.7641 107.973L91.0869 106.615L85.7018 93.4435ZM93.1162 78.7079C94.3985 81.8441 94.2318 84.6721 93.1494 87.0024C92.0465 89.3769 89.7173 91.8017 85.7018 93.4435L91.0869 106.615C97.9139 103.824 103.223 99.0944 106.055 92.9968C108.908 86.8548 108.974 79.8924 106.288 73.3228L93.1162 78.7079ZM89.4651 69.7777L93.1162 78.7079L106.288 73.3228L102.636 64.3926L89.4651 69.7777ZM108.631 54.255L93.3582 60.4995L98.7433 73.6708L114.017 67.4263L108.631 54.255ZM125.892 77.6708L117.91 58.1481L104.738 63.5332L112.72 83.0559L125.892 77.6708ZM136.527 65.636L116.613 73.7777L121.998 86.949L141.912 78.8073L136.527 65.636ZM132.617 74.8728L132.634 74.9142L145.805 69.5291L145.788 69.4877L132.617 74.8728ZM141.895 78.7659L149.765 75.5482L144.38 62.3769L136.51 65.5946L141.895 78.7659ZM153.658 66.27L145.693 46.7887L132.522 52.1738L140.487 71.6551L153.658 66.27ZM147.642 38.3057L136.415 42.8956L141.8 56.0669L153.027 51.477L147.642 38.3057ZM143.664 47.3766L143.749 47.5839L156.92 42.1988L156.835 41.9915L143.664 47.3766ZM152.942 51.2697L160.792 48.0602L155.407 34.889L147.557 38.0984L152.942 51.2697ZM164.685 38.782L157.845 22.0519L144.674 27.437L151.514 44.1671L164.685 38.782ZM148.567 18.1588L129.49 25.9582L134.875 39.1295L153.952 31.3301L148.567 18.1588ZM138.769 29.8513L130.802 10.3668L117.631 15.7519L125.597 35.2364L138.769 29.8513ZM121.524 6.47373L101.632 14.6068L107.017 27.7781L126.909 19.645L121.524 6.47373ZM97.7385 23.885L97.7917 24.0152L110.963 18.6301L110.91 18.4999L97.7385 23.885ZM99.1787 31.1346L107.07 27.9083L101.685 14.737L93.7936 17.9633L99.1787 31.1346ZM110.985 41.2107L103.072 21.8564L89.9005 27.2415L97.8135 46.5958L110.985 41.2107ZM101.707 37.3176L90.4194 41.9324L95.8045 55.1037L107.092 50.4889L101.707 37.3176ZM86.5263 51.2106L86.5964 51.3823L99.7677 45.9972L99.6976 45.8255L86.5263 51.2106ZM87.9632 58.51L95.8746 55.2754L90.4895 42.1041L82.5781 45.3387L87.9632 58.51ZM92.0723 49.7602L91.8563 49.2318L78.685 54.6169L78.901 55.1452L92.0723 49.7602ZM81.4313 59.5344C82.4392 59.1223 83.1088 59.1745 83.5571 59.3008L87.4163 45.6046C83.7446 44.57 79.8234 44.8188 76.0462 46.3631L81.4313 59.5344ZM80.6443 59.8562L81.4313 59.5344L76.0462 46.3631L75.2592 46.6849L80.6443 59.8562ZM78.9228 60.8951C79.3413 60.5298 79.888 60.1654 80.6443 59.8562L75.2592 46.6849C73.0323 47.5954 71.1465 48.7945 69.5639 50.1763L78.9228 60.8951ZM73.6795 48.4433C71.8179 48.5913 69.9761 49.0422 68.1892 49.7727L73.5743 62.944C74.0832 62.7359 74.4927 62.6532 74.8073 62.6282L73.6795 48.4433ZM68.1892 49.7727L67.4014 50.0948L72.7865 63.2661L73.5743 62.944L68.1892 49.7727ZM67.4014 50.0948C65.8293 50.7376 64.4197 51.5273 63.1622 52.4314L71.4689 63.9848C71.8155 63.7356 72.244 63.4879 72.7865 63.2661L67.4014 50.0948ZM59.912 58.9002L60.7299 60.9006L73.9012 55.5155L73.0833 53.5151L59.912 58.9002ZM69.1902 62.7933L81.5593 57.7361L76.1742 44.5649L63.8051 49.622L69.1902 62.7933ZM85.4524 48.458L85.3847 48.2925L72.2135 53.6776L72.2811 53.843L85.4524 48.458ZM84.0235 41.1625L76.1066 44.3994L81.4916 57.5707L89.4086 54.3338L84.0235 41.1625ZM77.8424 44.8446L80.1304 50.4407L93.3017 45.0556L91.0137 39.4595L77.8424 44.8446ZM62.987 40.1325C68.1108 38.0377 71.2071 38.4134 72.9846 39.1713C74.8049 39.9474 76.5495 41.6822 77.8424 44.8446L91.0137 39.4595C88.7316 33.8779 84.7488 28.7182 78.5657 26.0819C72.3399 23.4273 65.157 23.8724 57.6019 26.9613L62.987 40.1325ZM60.4513 41.1693L62.987 40.1325L57.6019 26.9613L55.0662 27.998L60.4513 41.1693ZM58.0617 42.3129C58.7695 41.9168 59.563 41.5325 60.4513 41.1693L55.0662 27.998C53.671 28.5684 52.3527 29.2015 51.1125 29.8955L58.0617 42.3129ZM52.3532 29.3492C51.481 29.6376 50.6017 29.9633 49.7154 30.3257L55.1005 43.4969C55.6998 43.2519 56.2732 43.0404 56.8211 42.8592L52.3532 29.3492ZM49.7154 30.3257L47.177 31.3635L52.5621 44.5348L55.1005 43.4969L49.7154 30.3257ZM47.177 31.3635C40.3306 34.1626 35.3906 38.4614 32.5548 43.7974L45.1202 50.4751C46.1462 48.5445 48.2653 46.2915 52.5621 44.5348L47.177 31.3635ZM30.8864 46.4889L32.2519 49.8288L45.4232 44.4437L44.0577 41.1038L30.8864 46.4889ZM25.2124 56.4952L40.1646 50.382L34.7795 37.2107L19.8273 43.324L25.2124 56.4952ZM29.3123 47.7859C29.2908 47.7215 29.2691 47.6574 29.2471 47.5936L15.7925 52.2256C15.7992 52.245 15.8056 52.264 15.8118 52.2826L29.3123 47.7859ZM17.2863 59.8778L25.2546 56.6199L19.8695 43.4486L11.9012 46.7065L17.2863 59.8778ZM11.3651 70.9911C15.3379 69.3027 18.8975 66.7224 20.8521 62.7843C22.8665 58.7256 22.5415 54.5202 21.3209 50.9756L7.8666 55.6086C8.05547 56.1571 8.07166 56.4525 8.07075 56.5407C8.07019 56.5956 8.06736 56.536 8.10606 56.4581C8.18833 56.2923 7.94816 56.9819 5.79932 57.8952L11.3651 70.9911ZM10.6148 71.2979C10.8679 71.1984 11.118 71.0961 11.3651 70.9911L5.7993 57.8952C5.67384 57.9485 5.54281 58.0021 5.40602 58.0559L10.6148 71.2979ZM20.4715 76.355L14.5961 61.9844L1.42476 67.3695L7.3002 81.7401L20.4715 76.355ZM18.546 69.4558L11.1933 72.4619L16.5784 85.6332L23.9311 82.627L18.546 69.4558ZM45.3961 116.328L27.8242 73.3488L14.6529 78.7339L32.2248 121.713L45.3961 116.328ZM44.0961 109.173L36.1179 112.435L41.503 125.606L49.4812 122.344L44.0961 109.173ZM53.4299 113.202L53.3743 113.066L40.203 118.451L40.2586 118.587L53.4299 113.202ZM61.3773 102.266L44.1517 109.309L49.5368 122.48L66.7624 115.437L61.3773 102.266ZM56.4491 109.012L57.4842 111.544L70.6555 106.159L69.6204 103.627L56.4491 109.012ZM20.3814 45.7962L14.6995 48.1192L20.0846 61.2905L25.7665 58.9674L20.3814 45.7962ZM10.3757 55.8845C10.515 56.7128 10.3943 57.1933 10.1967 57.5648L22.76 64.2466C24.6674 60.6602 24.9773 56.9093 24.4084 53.5252L10.3757 55.8845ZM10.1967 57.5648C10.1885 57.5802 10.18 57.5958 10.171 57.6118L22.5737 64.5871C22.6369 64.4747 22.699 64.3612 22.76 64.2466L10.1967 57.5648ZM19.1102 67.6664C22.4053 66.2926 25.3996 64.3359 27.4874 61.4982C29.6838 58.513 30.4713 55.0981 30.1583 51.7245L15.9896 53.0391C16.0038 53.1929 15.9833 53.2098 16.001 53.1426C16.0208 53.0671 16.0497 53.0328 16.0258 53.0654C15.953 53.1643 15.4311 53.7835 13.6345 54.5325L19.1102 67.6664ZM10.0952 57.7373C9.817 58.1681 9.18817 58.8413 7.7676 59.583L14.3533 72.1969C17.3206 70.6476 20.0933 68.485 22.0489 65.4568L10.0952 57.7373ZM4.47479 68.5825L8.59286 78.6548L21.7641 73.2697L17.6461 63.1974L4.47479 68.5825ZM17.871 82.5479L23.0354 80.4364L17.6504 67.2651L12.486 69.3766L17.871 82.5479ZM23.0354 80.4364C22.6033 80.6131 22.1481 80.7241 21.6869 80.7679L20.3416 66.602C19.4299 66.6886 18.5228 66.9084 17.6504 67.2651L23.0354 80.4364ZM27.5999 70.9924L22.6577 58.9045L9.48643 64.2896L14.4286 76.3775L27.5999 70.9924ZM26.4556 66.026L20.6593 68.3958L26.0444 81.567L31.8406 79.1972L26.4556 66.026ZM52.6405 111.271L35.7337 69.9191L22.5625 75.3041L39.4692 116.656L52.6405 111.271ZM42.9575 122.916L48.7474 120.549L43.3623 107.378L37.5724 109.745L42.9575 122.916ZM16.8412 77.8393L33.6793 119.023L46.8506 113.638L30.0125 72.4542L16.8412 77.8393ZM16.9883 78.1634C16.9351 78.057 16.886 77.9488 16.8412 77.8393L30.0125 72.4542C29.9215 72.2316 29.8224 72.0132 29.7155 71.7994L16.9883 78.1634ZM74.9857 50.1804L73.5972 46.7843L60.4259 52.1694L61.8144 55.5655L74.9857 50.1804ZM73.5972 46.7843C73.1279 45.6365 72.0947 43.5235 69.8332 42.1184C67.0579 40.3941 64.1445 40.7174 62.1335 41.5396L67.5186 54.7108C67.0757 54.8919 66.3051 55.1262 65.2991 55.0981C64.2304 55.0682 63.1987 54.7488 62.3236 54.2051C61.5054 53.6967 61.0177 53.115 60.771 52.7663C60.5275 52.4222 60.4309 52.1816 60.4259 52.1694L73.5972 46.7843ZM62.1335 41.5396C60.1225 42.3618 57.8171 44.1722 57.0448 47.3469C56.4155 49.9339 57.1586 52.1656 57.6279 53.3134L70.7992 47.9283C70.8041 47.9405 70.9038 48.1799 70.9711 48.5959C71.0394 49.0176 71.0989 49.7744 70.8712 50.7104C70.6277 51.7114 70.1153 52.6621 69.3737 53.4322C68.6755 54.1571 67.9615 54.5298 67.5186 54.7108L62.1335 41.5396ZM57.6279 53.3134L59.0164 56.7095L72.1877 51.3244L70.7992 47.9283L57.6279 53.3134ZM68.2946 60.6026L71.0926 59.4586L65.7075 46.2873L62.9095 47.4313L68.2946 60.6026ZM86.5025 62.5316L88.5695 67.587L101.741 62.2019L99.6738 57.1465L86.5025 62.5316ZM84.5033 59.7752C85.1766 60.2634 85.94 61.1557 86.5025 62.5316L99.6738 57.1465C98.249 53.6617 95.9587 50.5045 92.8558 48.2549L84.5033 59.7752ZM81.769 55.9128L82.0939 56.7076L95.2652 51.3225L94.9403 50.5277L81.769 55.9128ZM91.3852 44.2947L85.6621 46.6346L91.0472 59.8059L96.7703 57.466L91.3852 44.2947ZM87.4921 53.5729L92.5555 65.9574L105.727 60.5723L100.663 48.1878L87.4921 53.5729ZM97.8476 71.4801L101.834 69.8504L96.4486 56.6792L92.4626 58.3089L97.8476 71.4801ZM107.112 63.0378C107.044 62.9074 106.982 62.7741 106.927 62.6385L120.098 57.2534C119.985 56.978 119.86 56.7092 119.724 56.4476L107.112 63.0378ZM106.927 62.6385L114.098 80.1783L127.269 74.7932L120.098 57.2534L106.927 62.6385ZM123.376 84.0713L129.079 81.7397L123.694 68.5684L117.991 70.9001L123.376 84.0713ZM112.545 60.0996L119.801 77.8466L132.972 72.4615L125.716 54.7146L112.545 60.0996ZM116.11 66.3283L121.823 63.9927L116.438 50.8215L110.725 53.157L116.11 66.3283ZM102.58 16.9277L96.8776 19.2593L102.263 32.4306L107.966 30.099L102.58 16.9277ZM92.9845 28.5375L100.002 45.7011L113.173 40.316L106.156 23.1524L92.9845 28.5375ZM109.598 34.0913L103.895 36.4229L109.28 49.5942L114.983 47.2626L109.598 34.0913ZM98.6874 26.2059L105.705 43.3695L118.876 37.9844L111.859 20.8208L98.6874 26.2059Z" fill="white"/>
<path d="M15.9993 78.7621L22.7455 76.0039L40.1666 118.614L40.4114 119.212L41.0101 118.968L58.2357 111.925L58.8344 111.68L58.5896 111.081L32.0373 46.1377L31.7926 45.539L31.1939 45.7838L16.2417 51.897L15.676 52.1283L15.8749 52.7062C16.649 54.9556 16.625 56.9492 15.7069 58.6696C14.7806 60.4056 12.8828 61.98 9.66481 63.2459L9.05485 63.4859L9.3029 64.0926L15.1558 78.4082L15.4006 79.0069L15.9993 78.7621ZM71.658 55.2197C66.5334 57.3149 64.5056 61.3531 63.4071 64.2824L58.7682 52.9361C58.5189 52.3263 58.4915 51.9568 58.5433 51.7446C58.5822 51.5855 58.6859 51.4271 59.0281 51.2872C59.3704 51.1473 59.5554 51.1876 59.6945 51.2739C59.8802 51.3891 60.1195 51.6719 60.3689 52.2817L62.5815 57.6937L62.8263 58.2924L63.425 58.0476L80.913 50.8976L81.5117 50.6528L81.2669 50.0541L78.9828 44.4676C77.1533 39.9928 74.1905 36.3967 69.9923 34.6109C65.7905 32.8236 60.4665 32.8987 54.0169 35.5357L51.4811 36.5724C45.0079 39.219 41.1672 43.2127 39.387 47.625C37.6108 52.0275 37.9158 56.773 39.5939 60.8774L53.5124 94.9205C55.6156 100.065 58.9746 103.731 63.3958 105.458C67.8123 107.184 73.1837 106.934 79.2367 104.459L82.5595 103.101C88.1082 100.832 92.0638 97.1536 94.1121 92.7535C96.1624 88.3492 96.2772 83.273 94.2326 78.272L87.6302 62.1234C86.3694 59.0397 84.2638 56.5477 81.6099 55.1674C78.9423 53.7801 75.7648 53.5407 72.445 54.898L71.658 55.2197ZM150.846 45.9103L151.445 45.6655L151.2 45.0668L144.372 28.3653L144.127 27.7666L143.528 28.0114L125.051 35.5661L117.343 16.7136L117.098 16.1149L116.499 16.3597L96.6069 24.4928L96.0082 24.7376L96.253 25.3363L103.961 44.1887L85.381 51.785L84.7823 52.0298L85.0271 52.6285L91.8555 69.33L92.1003 69.9287L92.699 69.6839L111.279 62.0876L119.07 81.1436L119.315 81.7423L119.913 81.4976L139.806 73.3645L140.405 73.1197L140.16 72.521L132.369 53.4649L150.846 45.9103ZM74.536 87.9695C73.9698 88.201 73.6461 88.1365 73.4268 88.0042C73.1648 87.846 72.9002 87.5014 72.651 86.8919L67.8688 75.1951C67.5529 74.4226 67.4996 73.8769 67.5863 73.5153C67.6623 73.1987 67.8645 72.941 68.3161 72.7564C68.6075 72.6372 68.8078 72.609 68.9455 72.618C69.0712 72.6262 69.1775 72.6669 69.289 72.755C69.5549 72.9649 69.8269 73.4181 70.169 74.2546L74.9512 85.9515C75.2162 86.5997 75.3033 87.0195 75.2537 87.3021C75.2192 87.4986 75.0992 87.7392 74.536 87.9695Z" fill="black" stroke="black" stroke-width="1.2936"/>
<path d="M22.0483 76.2126L28.7946 73.4544L46.2459 116.138L46.4907 116.737L47.0894 116.492L64.315 109.45L64.9137 109.205L64.669 108.606L38.0711 43.5509L37.8263 42.9522L37.2276 43.197L22.2754 49.3102L21.7097 49.5415L21.9086 50.1195C22.6845 52.3732 22.6616 54.3701 21.7443 56.0927C20.8188 57.8306 18.9216 59.4061 15.7038 60.6719L15.0938 60.9118L15.3419 61.5186L21.2048 75.8587L21.4496 76.4574L22.0483 76.2126ZM77.7074 52.6711C72.5827 54.7664 70.5568 58.8091 69.4598 61.7419L64.8126 50.3754C64.5628 49.7643 64.535 49.3938 64.5869 49.1809C64.6257 49.0213 64.7294 48.863 65.0712 48.7232C65.413 48.5835 65.598 48.6238 65.7375 48.7104C65.9236 48.8261 66.1634 49.1099 66.4133 49.721L68.6298 55.1422L68.8745 55.7409L69.4732 55.4961L86.9612 48.3462L87.5599 48.1014L87.3151 47.5027L85.0271 41.9066C83.1947 37.4246 80.2292 33.8217 76.0293 32.0309C71.8254 30.2385 66.5 30.3105 60.0501 32.9475L57.5143 33.9843C51.0408 36.631 47.2015 40.6284 45.4236 45.046C43.6496 49.4537 43.9576 54.2059 45.6384 58.3169L59.5808 92.4184C61.6874 97.5708 65.0491 101.244 69.4721 102.977C73.8907 104.707 79.2635 104.461 85.3168 101.986L88.6395 100.627C94.1885 98.3584 98.1429 94.6767 100.189 90.2713C102.237 85.862 102.349 80.7789 100.301 75.7699L93.6872 59.5936C92.4245 56.505 90.3172 54.0084 87.662 52.6247C84.9932 51.2338 81.8145 50.9919 78.4943 52.3494L77.7074 52.6711ZM156.909 43.3936L157.508 43.1488L157.263 42.5501L150.423 25.82L150.178 25.2213L149.579 25.466L131.101 33.0207L123.38 14.1349L123.135 13.5362L122.536 13.781L102.644 21.914L102.045 22.1588L102.29 22.7575L110.011 41.6433L91.4317 49.2397L90.833 49.4844L91.0778 50.0831L97.9179 66.8133L98.1627 67.412L98.7614 67.1672L117.341 59.5708L125.146 78.6607L125.391 79.2594L125.99 79.0146L145.882 70.8815L146.481 70.6367L146.236 70.038L138.431 50.9482L156.909 43.3936ZM80.6058 85.4708C80.0399 85.7022 79.7163 85.6375 79.4966 85.5047C79.2341 85.346 78.969 85.0002 78.7193 84.3895L73.9288 72.6725C73.6123 71.8985 73.5585 71.3515 73.6452 70.9891C73.721 70.6717 73.9231 70.414 74.3744 70.2295C74.6656 70.1104 74.8659 70.0823 75.0035 70.0914C75.1291 70.0996 75.2355 70.1405 75.3474 70.2289C75.6138 70.4396 75.8864 70.8941 76.229 71.7321L81.0195 83.449C81.285 84.0984 81.3725 84.5194 81.3229 84.8029C81.2885 85 81.1685 85.2407 80.6058 85.4708Z" fill="#8C73F4" stroke="black" stroke-width="1.2936"/>
</svg>
