<svg width="141" height="155" viewBox="0 0 141 155" fill="none" xmlns="http://www.w3.org/2000/svg">
<path d="M92.841 31.973C93.7412 30.9266 94.4425 29.6811 94.8487 28.2676C96.3561 23.0219 93.3257 17.5475 88.0801 16.0401C82.8345 14.5327 77.36 17.5632 75.8526 22.8088C75.4464 24.2224 75.3795 25.6502 75.5869 27.0148C78.0416 27.9447 80.9605 28.9128 84.12 29.8208C87.2796 30.7287 90.2671 31.4578 92.841 31.973Z" fill="white" stroke="white" stroke-width="16.8729" stroke-miterlimit="10" stroke-linejoin="round"/>
<path fill-rule="evenodd" clip-rule="evenodd" d="M75.2281 22.63C76.8345 17.0399 82.6684 13.8105 88.2585 15.4169C93.8486 17.0233 97.078 22.8572 95.4716 28.4473C95.0382 29.9554 94.2901 31.2831 93.3322 32.3967L93.0848 32.6842L92.7128 32.6098C90.1193 32.0907 87.1144 31.3571 83.94 30.4449C80.7656 29.5327 77.8296 28.5591 75.3562 27.6221L75.0015 27.4878L74.9445 27.1128C74.7238 25.6606 74.7947 24.1381 75.2281 22.63ZM87.9 16.6643C82.9989 15.2559 77.8839 18.0873 76.4755 22.9885C76.1332 24.1796 76.0488 25.3823 76.1785 26.5447C78.5378 27.4257 81.3083 28.3383 84.2985 29.1975C87.2886 30.0567 90.1209 30.7542 92.5879 31.2602C93.315 30.3439 93.8819 29.2799 94.2242 28.0888C95.6326 23.1876 92.8012 18.0727 87.9 16.6643Z" fill="white" stroke="white" stroke-width="16.8729" stroke-miterlimit="10" stroke-linejoin="round"/>
<path d="M101.524 113.071C101.59 112.854 101.664 112.641 101.727 112.421L111.547 78.2491C118.098 55.4526 106.31 32.059 85.218 25.9979L85.2179 25.9979C64.1258 19.9368 41.7168 33.5035 35.166 56.3L25.3462 90.4721C25.283 90.6917 25.2331 90.9114 25.1734 91.1311L101.524 113.071Z" fill="white" stroke="white" stroke-width="16.8729" stroke-miterlimit="10" stroke-linejoin="round"/>
<path fill-rule="evenodd" clip-rule="evenodd" d="M34.5434 56.1213C41.1799 33.0268 63.917 19.2017 85.3983 25.3747C106.88 31.5476 118.808 55.3344 112.172 78.4289L102.352 112.601C102.316 112.727 102.267 112.881 102.222 113.02C102.193 113.11 102.166 113.194 102.146 113.26L101.961 113.872L24.3804 91.5786L24.5483 90.9613C24.5663 90.8951 24.5881 90.8094 24.6116 90.7171C24.6475 90.5759 24.6874 90.4192 24.7236 90.2934L34.5434 56.1213ZM85.0398 26.6221C64.3369 20.6729 42.2561 33.9812 35.7908 56.4797L25.971 90.6519C25.968 90.6623 25.9651 90.6726 25.9622 90.6827L101.096 112.273C101.099 112.263 101.102 112.253 101.105 112.243L110.925 78.0704C117.39 55.5718 105.743 32.5713 85.0398 26.6221Z" fill="white" stroke="white" stroke-width="16.8729" stroke-miterlimit="10" stroke-linejoin="round"/>
<path d="M103.173 112.351C95.8478 106.297 81.9369 99.6818 65.3054 94.9025C48.5271 90.081 33.102 88.3127 23.7026 89.6191C14.6042 91.1742 13.8456 94.7488 13.012 97.6465C8.61086 112.944 54.6015 126.152 54.6015 126.152C54.6015 126.152 104.033 140.357 108.319 125.034C108.704 123.693 111.496 118.447 103.173 112.351Z" fill="white" stroke="white" stroke-width="16.8729" stroke-miterlimit="10" stroke-linejoin="round"/>
<path fill-rule="evenodd" clip-rule="evenodd" d="M23.6186 88.9769C33.1479 87.6525 48.6742 89.4472 65.49 94.2794C82.1486 99.0664 96.1494 105.707 103.577 111.84C107.832 114.96 109.338 117.936 109.661 120.392C109.929 122.437 109.349 124.068 109.066 124.865C109.015 125.009 108.974 125.125 108.949 125.212C107.765 129.437 103.506 131.485 98.2236 132.315C92.8955 133.152 86.2424 132.804 79.7767 131.984C73.3002 131.162 66.9641 129.86 62.2506 128.765C59.8929 128.217 57.939 127.721 56.5738 127.361C55.8911 127.181 55.3556 127.035 54.9902 126.934C54.8075 126.884 54.6674 126.845 54.5726 126.818L54.465 126.787L54.4302 126.777L54.4283 126.777C54.4279 126.777 54.4277 126.777 54.538 126.393C54.4276 126.777 54.4273 126.777 54.4269 126.776L54.4252 126.776L54.3927 126.767L54.2925 126.737C54.2045 126.712 54.0745 126.673 53.9053 126.623C53.5671 126.521 53.0726 126.371 52.4453 126.175C51.1909 125.782 49.405 125.204 47.2762 124.463C43.0205 122.981 37.3852 120.843 31.8826 118.222C26.3898 115.606 20.9844 112.488 17.2201 109.033C13.477 105.597 11.1872 101.661 12.3937 97.4676C12.4192 97.3788 12.4449 97.2886 12.4709 97.197C12.8615 95.8228 13.3337 94.1615 14.8014 92.6741C16.3661 91.0886 18.9814 89.7692 23.5986 88.98L23.6086 88.9783L23.6186 88.9769ZM23.8073 90.2611C19.3326 91.0272 17.0219 92.2718 15.7253 93.5858C14.4973 94.8301 14.1065 96.198 13.7082 97.5918C13.6859 97.67 13.6635 97.7482 13.641 97.8265C12.6469 101.282 14.4555 104.733 18.0978 108.077C21.719 111.4 26.986 114.453 32.4407 117.051C37.8856 119.644 43.4729 121.764 47.7029 123.237C49.817 123.973 51.5897 124.547 52.8332 124.936C53.4548 125.131 53.9441 125.279 54.2774 125.379C54.4441 125.429 54.5718 125.467 54.6575 125.492L54.7543 125.52L54.7784 125.527L54.7856 125.529L54.7879 125.53L54.8204 125.539L54.9249 125.569C55.0175 125.595 55.1554 125.633 55.3358 125.683C55.6966 125.783 56.2272 125.927 56.9046 126.106C58.2594 126.463 60.2009 126.956 62.5443 127.501C67.2332 128.59 73.5229 129.882 79.94 130.696C86.3679 131.512 92.8764 131.842 98.0221 131.033C103.213 130.217 106.739 128.295 107.699 124.86L107.701 124.856C107.74 124.717 107.796 124.557 107.859 124.376C108.149 123.542 108.597 122.258 108.374 120.561C108.108 118.538 106.852 115.847 102.795 112.875L102.78 112.864L102.765 112.852C95.5385 106.88 81.7251 100.295 65.1315 95.5268C48.3967 90.7178 33.0778 88.9754 23.8073 90.2611Z" fill="white"/>
<path d="M54.7856 125.529C54.7859 125.529 54.786 125.529 54.6068 126.153L54.7856 125.529ZM54.7856 125.529L54.7879 125.53L54.8204 125.539L54.9249 125.569C55.0175 125.595 55.1554 125.633 55.3358 125.683C55.6966 125.783 56.2272 125.927 56.9046 126.106C58.2594 126.463 60.2009 126.956 62.5443 127.501C67.2332 128.59 73.5229 129.882 79.94 130.696C86.3679 131.512 92.8764 131.842 98.0221 131.033C103.213 130.217 106.739 128.295 107.699 124.86L107.701 124.856C107.74 124.717 107.796 124.557 107.859 124.376C108.149 123.542 108.597 122.258 108.374 120.561C108.108 118.538 106.852 115.847 102.795 112.875L102.78 112.864L102.765 112.852C95.5385 106.88 81.7251 100.295 65.1315 95.5268C48.3967 90.7178 33.0778 88.9754 23.8073 90.2611C19.3326 91.0272 17.0219 92.2718 15.7253 93.5858C14.4973 94.8301 14.1065 96.198 13.7082 97.5918C13.6859 97.67 13.6635 97.7482 13.641 97.8265C12.6469 101.282 14.4555 104.733 18.0978 108.077C21.719 111.4 26.986 114.453 32.4407 117.051C37.8856 119.644 43.4729 121.764 47.7029 123.237C49.817 123.973 51.5897 124.547 52.8332 124.936C53.4548 125.131 53.9441 125.279 54.2774 125.379C54.4441 125.429 54.5718 125.467 54.6575 125.492L54.7543 125.52L54.7784 125.527L54.7856 125.529ZM65.49 94.2794C48.6742 89.4472 33.1479 87.6525 23.6186 88.9769L23.6086 88.9783L23.5986 88.98C18.9814 89.7692 16.3661 91.0886 14.8014 92.6741C13.3337 94.1615 12.8615 95.8228 12.4709 97.197C12.4449 97.2886 12.4192 97.3788 12.3937 97.4676C11.1872 101.661 13.477 105.597 17.2201 109.033C20.9844 112.488 26.3898 115.606 31.8826 118.222C37.3852 120.843 43.0205 122.981 47.2762 124.463C49.405 125.204 51.1909 125.782 52.4453 126.175C53.0726 126.371 53.5671 126.521 53.9053 126.623C54.0745 126.673 54.2045 126.712 54.2925 126.737L54.3927 126.767L54.4252 126.776L54.4269 126.776C54.4273 126.777 54.4276 126.777 54.538 126.393C54.4277 126.777 54.4279 126.777 54.4283 126.777L54.4302 126.777L54.465 126.787L54.5726 126.818C54.6674 126.845 54.8075 126.884 54.9902 126.934C55.3556 127.035 55.8911 127.181 56.5738 127.361C57.939 127.721 59.8929 128.217 62.2506 128.765C66.9641 129.86 73.3002 131.162 79.7767 131.984C86.2424 132.804 92.8955 133.152 98.2236 132.315C103.506 131.485 107.765 129.437 108.949 125.212C108.974 125.125 109.015 125.009 109.066 124.865C109.349 124.068 109.929 122.437 109.661 120.392C109.338 117.936 107.832 114.96 103.577 111.84C96.1494 105.707 82.1486 99.0664 65.49 94.2794Z" stroke="white" stroke-width="16.8729" stroke-miterlimit="10" stroke-linejoin="round"/>
<path fill-rule="evenodd" clip-rule="evenodd" d="M25.2872 105.768C25.2773 105.782 25.2752 105.788 25.2747 105.79L24.0273 105.432C24.2159 104.775 24.8372 104.434 25.4367 104.245C26.0718 104.046 26.9095 103.944 27.8947 103.914C29.8745 103.855 32.6133 104.086 35.8996 104.567C42.4818 105.531 51.3667 107.512 60.9997 110.28C70.6326 113.048 79.214 116.086 85.3033 118.764C88.3436 120.101 90.7873 121.359 92.4337 122.461C93.253 123.008 93.9087 123.54 94.341 124.046C94.7489 124.524 95.0942 125.143 94.9055 125.799L93.6581 125.441C93.6586 125.439 93.6606 125.432 93.6592 125.416C93.6578 125.398 93.6523 125.366 93.6341 125.318C93.5959 125.218 93.5125 125.075 93.3538 124.889C93.0348 124.515 92.4926 124.061 91.7121 123.539C90.159 122.501 87.7958 121.278 84.7808 119.952C78.7595 117.304 70.2363 114.285 60.6412 111.527C51.0462 108.77 42.2203 106.804 35.7117 105.852C32.4526 105.375 29.801 105.156 27.9334 105.212C26.9948 105.24 26.2945 105.336 25.8258 105.484C25.5926 105.557 25.4459 105.634 25.3605 105.699C25.3196 105.729 25.298 105.754 25.2872 105.768Z" fill="white" stroke="white" stroke-width="16.8729" stroke-miterlimit="10" stroke-linejoin="round"/>
<path fill-rule="evenodd" clip-rule="evenodd" d="M91.213 78.7852C85.2976 76.5904 68.7583 71.765 63.7094 70.8798L63.9335 69.6014C69.0862 70.5048 85.7056 75.3574 91.6645 77.5683L91.213 78.7852ZM118.079 93.8079C116.577 92.5533 114.291 91.0552 111.458 89.4509L112.098 88.3215C114.957 89.941 117.321 91.4838 118.911 92.8117C119.703 93.4728 120.333 94.1058 120.734 94.6917C121.108 95.24 121.392 95.9119 121.154 96.5645C120.751 97.9162 119.35 98.6448 117.432 98.9709C115.457 99.3067 112.667 99.2692 109.026 98.85L109.174 97.5606C112.775 97.9752 115.421 97.9963 117.215 97.6913C119.052 97.3788 119.744 96.7746 119.915 96.1799L119.923 96.1516L119.933 96.1242C119.947 96.0903 119.984 95.8953 119.662 95.424C119.36 94.982 118.834 94.4382 118.079 93.8079Z" fill="white" stroke="white" stroke-width="16.8729" stroke-miterlimit="10" stroke-linejoin="round"/>
<path fill-rule="evenodd" clip-rule="evenodd" d="M43.1266 45.9527C53.5661 47.3937 66.1271 50.1037 74.8537 53.4834L74.3849 54.6938C65.7899 51.3649 53.339 48.6726 42.9491 47.2384C37.7562 46.5216 33.1033 46.1227 29.7241 46.1122C28.029 46.1069 26.6872 46.1997 25.7673 46.3868C25.304 46.4811 24.9887 46.5914 24.797 46.6991C24.693 46.7575 24.6526 46.7987 24.6394 46.8154L24.6369 46.8298L24.6272 46.8633C24.5721 47.0552 24.5878 47.3211 24.8212 47.7089C25.0604 48.1065 25.5016 48.5822 26.2022 49.1316C27.6011 50.2286 29.8939 51.5123 33.1951 52.9844L32.6665 54.1698C29.3357 52.6846 26.927 51.3494 25.4013 50.153C24.6397 49.5557 24.0629 48.9661 23.7091 48.3781C23.3552 47.79 23.202 47.1611 23.3713 46.5354C23.4677 46.0677 23.8162 45.7612 24.1615 45.5674C24.5223 45.3648 24.9872 45.221 25.5086 45.1149C26.558 44.9015 28.0036 44.8089 29.7282 44.8143C33.1885 44.8251 37.9047 45.2319 43.1266 45.9527ZM24.6338 46.8238C24.6337 46.8238 24.6342 46.8226 24.6356 46.8205C24.6346 46.8227 24.6339 46.8238 24.6338 46.8238Z" fill="white" stroke="white" stroke-width="16.8729" stroke-miterlimit="10" stroke-linejoin="round"/>
<path d="M46.8566 107.585C45.4185 109.257 44.2982 111.246 43.6493 113.505C41.2412 121.885 46.0823 130.63 54.4623 133.038C62.8422 135.446 71.5876 130.605 73.9957 122.225C74.6446 119.967 74.7515 117.686 74.4203 115.506C70.4988 114.02 65.8358 112.474 60.7884 111.023C55.741 109.573 50.9684 108.408 46.8566 107.585Z" fill="white" stroke="white" stroke-width="16.8729" stroke-miterlimit="10" stroke-linejoin="round"/>
<path fill-rule="evenodd" clip-rule="evenodd" d="M46.9851 106.949C51.1165 107.776 55.9065 108.945 60.9688 110.4C66.031 111.855 70.7111 113.407 74.6513 114.899L75.006 115.034L75.063 115.409C75.4075 117.677 75.2966 120.052 74.6206 122.405C72.1135 131.129 63.0085 136.169 54.2842 133.662C45.5597 131.155 40.5196 122.05 43.0267 113.326C43.7028 110.973 44.8699 108.901 46.3658 107.162L46.6132 106.875L46.9851 106.949ZM47.107 108.298C45.8434 109.841 44.8589 111.649 44.2741 113.684C41.965 121.72 46.6071 130.106 54.6426 132.415C62.6781 134.724 71.064 130.082 73.3731 122.046C73.958 120.011 74.0837 117.956 73.832 115.978C70.0047 114.541 65.4892 113.05 60.6103 111.648C55.7314 110.246 51.1132 109.112 47.107 108.298Z" fill="white" stroke="white" stroke-width="16.8729" stroke-miterlimit="10" stroke-linejoin="round"/>
<path d="M28.0329 72.8394C30.7212 73.6119 33.5268 72.0588 34.2993 69.3705C35.0718 66.6822 33.5188 63.8767 30.8305 63.1041C28.1422 62.3316 25.3366 63.8847 24.5641 66.573C23.7916 69.2613 25.3446 72.0669 28.0329 72.8394Z" fill="white" stroke="white" stroke-width="16.8729" stroke-miterlimit="10" stroke-linejoin="round"/>
<path fill-rule="evenodd" clip-rule="evenodd" d="M30.6504 63.7283C28.3066 63.0548 25.8605 64.4089 25.187 66.7527C24.5135 69.0965 25.8675 71.5426 28.2113 72.2161C30.5551 72.8896 33.0012 71.5356 33.6747 69.1917C34.3483 66.8479 32.9942 64.4019 30.6504 63.7283ZM23.9396 66.3942C24.8111 63.3615 27.9761 61.6094 31.0089 62.4809C34.0416 63.3524 35.7937 66.5175 34.9222 69.5502C34.0507 72.583 30.8856 74.3351 27.8529 73.4636C24.8201 72.592 23.0681 69.427 23.9396 66.3942Z" fill="white" stroke="white" stroke-width="16.8729" stroke-miterlimit="10" stroke-linejoin="round"/>
<path d="M83.6886 87.8963C89.796 89.6514 91.975 88.9487 93.1794 84.7573L93.7042 82.9311C94.4613 80.2965 94.0611 78.9823 92.3126 77.9613L92.347 77.8415C94.1358 77.7073 95.3653 76.6994 95.9073 74.8133L96.131 74.0349C97.2752 70.0531 95.7718 68.2922 89.814 66.5802L88.7662 66.2791C81.9402 64.3175 80.3218 64.9868 78.6332 69.6225L78.4828 70.033L84.4406 71.745L84.5479 71.4842C85.2007 69.8892 86.0232 69.2829 87.4602 69.6958C88.7476 70.0658 89.1612 70.9949 88.7224 72.5218L88.6278 72.8511C88.2149 74.2881 87.4055 74.7362 85.9984 74.3318L84.1123 73.7898L83.1487 77.1429L84.5259 77.5387C84.945 77.6591 85.2743 77.7537 85.6677 77.964C86.5355 78.4403 86.7823 79.3863 86.3779 80.7934L86.0424 81.961C85.5262 83.7573 84.6439 84.3464 83.3266 83.9679C81.9195 83.5635 81.523 82.5745 81.8765 80.8935L82.0317 80.1278L76.0739 78.4158L75.9146 79.083C74.7218 84.0232 76.0243 85.6939 82.1617 87.4576L83.6886 87.8963Z" fill="white"/>
<path d="M113.516 82.8227C113.416 80.6874 111.694 79.3498 109.598 78.7476C107.563 78.1626 105.449 78.3005 103.876 79.5989L103.727 79.5559L106.058 71.4426L99.3518 69.5154L93.3296 90.4724L100.066 92.4081L102.053 85.4923C102.44 84.1451 102.981 83.166 103.696 82.5938C104.382 82.0129 105.118 81.9327 105.657 82.0876C106.226 82.2511 106.571 82.7394 106.288 83.7273C105.823 85.344 105.457 86.503 105.036 87.97C104.391 90.2154 103.973 91.7808 103.509 93.3974L110.185 95.316L113.033 85.4063C113.394 84.1489 113.541 83.4132 113.516 82.8227Z" fill="white"/>
<path d="M83.6886 87.8963C89.796 89.6514 91.975 88.9487 93.1794 84.7573L93.7042 82.9311C94.4613 80.2965 94.0611 78.9823 92.3126 77.9613L92.347 77.8415C94.1358 77.7073 95.3653 76.6994 95.9073 74.8133L96.131 74.0349C97.2752 70.0531 95.7718 68.2922 89.814 66.5802L88.7662 66.2791C81.9402 64.3175 80.3218 64.9868 78.6332 69.6225L78.4828 70.033L84.4406 71.745L84.5479 71.4842C85.2007 69.8892 86.0232 69.2829 87.4602 69.6958C88.7476 70.0658 89.1612 70.9949 88.7224 72.5218L88.6278 72.8511C88.2149 74.2881 87.4055 74.7362 85.9984 74.3318L84.1123 73.7898L83.1487 77.1429L84.5259 77.5387C84.945 77.6591 85.2743 77.7537 85.6677 77.964C86.5355 78.4403 86.7823 79.3863 86.3779 80.7934L86.0424 81.961C85.5262 83.7573 84.6439 84.3464 83.3266 83.9679C81.9195 83.5635 81.523 82.5745 81.8765 80.8935L82.0317 80.1278L76.0739 78.4158L75.9146 79.083C74.7218 84.0232 76.0243 85.6939 82.1617 87.4576L83.6886 87.8963Z" stroke="white" stroke-width="16.8729" stroke-linejoin="round"/>
<path d="M113.516 82.8227C113.416 80.6874 111.694 79.3498 109.598 78.7476C107.563 78.1626 105.449 78.3005 103.876 79.5989L103.727 79.5559L106.058 71.4426L99.3518 69.5154L93.3296 90.4724L100.066 92.4081L102.053 85.4923C102.44 84.1451 102.981 83.166 103.696 82.5938C104.382 82.0129 105.118 81.9327 105.657 82.0876C106.226 82.2511 106.571 82.7394 106.288 83.7273C105.823 85.344 105.457 86.503 105.036 87.97C104.391 90.2154 103.973 91.7808 103.509 93.3974L110.185 95.316L113.033 85.4063C113.394 84.1489 113.541 83.4132 113.516 82.8227Z" stroke="white" stroke-width="16.8729" stroke-linejoin="round"/>
<path fill-rule="evenodd" clip-rule="evenodd" d="M84.6187 64.6769C85.8077 64.8239 87.2273 65.161 88.9439 65.6542L89.9917 65.9553C92.9687 66.8108 95.0125 67.7196 96.129 69.0354C97.3121 70.4295 97.3508 72.1333 96.7532 74.213L96.5295 74.9914C96.2308 76.0308 95.7282 76.8754 95.0113 77.4795C94.6266 77.8037 94.1928 78.0479 93.7183 78.2165C94.1171 78.6216 94.4084 79.0936 94.5705 79.662C94.8448 80.6241 94.7157 81.7545 94.3264 83.1092L93.8016 84.9355C93.1776 87.1067 92.2386 88.5911 90.474 89.1721C88.8058 89.7212 86.5557 89.3948 83.5078 88.519L81.9809 88.0802C78.9254 87.2021 76.8581 86.2995 75.769 84.8503C74.6381 83.3455 74.6782 81.4314 75.282 78.9304C75.2821 78.9301 75.2819 78.9307 75.282 78.9304L75.5989 77.6034L82.7851 79.6684L82.51 81.0259C82.3446 81.8127 82.3838 82.3169 82.5306 82.6398C82.6613 82.9275 82.9265 83.177 83.5042 83.343C84.0346 83.4954 84.362 83.4269 84.6036 83.2526C84.88 83.0532 85.175 82.6232 85.4171 81.7806L85.7526 80.613C85.9374 79.9701 85.9502 79.5072 85.8692 79.188C85.7952 78.896 85.6352 78.687 85.3568 78.5334C85.0328 78.3606 84.7652 78.282 84.3451 78.1613L82.3442 77.5863L83.6662 72.9857L86.176 73.707C86.8011 73.8866 87.1529 73.8349 87.3669 73.7148C87.5829 73.5937 87.8177 73.3139 88.0025 72.6707L88.0972 72.3414C88.2966 71.6474 88.2652 71.2088 88.1444 70.9383C88.0356 70.6943 87.7999 70.468 87.2794 70.3184C86.6784 70.1457 86.3212 70.2139 86.0587 70.3822C85.761 70.5732 85.4564 70.9729 85.147 71.7289L84.818 72.5281L77.6322 70.4631L78.0219 69.3992C78.0219 69.3991 78.0218 69.3994 78.0219 69.3992C78.8686 67.0748 79.7821 65.4693 81.5619 64.8616C82.4258 64.5666 83.4306 64.53 84.6187 64.6769ZM79.3311 69.6009L84.0645 70.9611C84.3886 70.2452 84.7934 69.6518 85.3581 69.2896C86.0293 68.8593 86.8019 68.8308 87.6379 69.071C88.4048 69.2914 89.0196 69.7146 89.3297 70.4094C89.6279 71.0776 89.5839 71.867 89.3446 72.6999L89.25 73.0292C89.0218 73.8231 88.6455 74.4858 88.0018 74.8469C87.3561 75.209 86.5996 75.1791 85.8176 74.9544L84.5552 74.5917L83.9501 76.6973L84.7223 76.9192C85.132 77.0369 85.5179 77.1478 85.972 77.3906L85.9783 77.3939C86.566 77.7165 86.9624 78.2182 87.1274 78.8691C87.2857 79.4937 87.2197 80.2073 87.0001 80.9715L86.6645 82.1391C86.3905 83.0928 85.9862 83.8556 85.363 84.3052C84.7051 84.7798 83.9327 84.8166 83.1458 84.5905C82.3164 84.3521 81.6799 83.905 81.3489 83.1768C81.0343 82.4845 81.0518 81.6546 81.2393 80.7612C81.2395 80.7604 81.2397 80.7596 81.2398 80.7588L81.2751 80.585L76.5458 79.2259L76.5439 79.2342C75.955 81.673 76.0502 83.0641 76.8066 84.0705C77.6048 85.1326 79.2575 85.9471 82.3394 86.8328L83.8662 87.2715C86.9257 88.1507 88.8188 88.3505 90.0681 87.9392C91.2209 87.5597 91.9736 86.5971 92.5541 84.577L93.0789 82.7507C93.4467 81.4708 93.496 80.6269 93.3224 80.0179C93.1591 79.4452 92.7679 78.9784 91.9838 78.5206L91.5479 78.2661L91.8465 77.2271L92.2969 77.1933C93.0777 77.1347 93.6965 76.8902 94.175 76.487C94.6555 76.0821 95.0387 75.4797 95.282 74.633L95.5057 73.8546C96.0523 71.9525 95.9114 70.7849 95.1394 69.8752C94.3008 68.887 92.614 68.0593 89.6332 67.2028L88.5854 66.9017C86.8889 66.4142 85.5466 66.0994 84.4595 65.965C83.3716 65.8305 82.5863 65.8833 81.9813 66.0899C80.8647 66.4711 80.1365 67.4587 79.3311 69.6009ZM98.9058 68.7114L106.859 70.997L104.763 78.292C106.317 77.6026 108.106 77.6429 109.776 78.1228C111.986 78.7577 114.044 80.2467 114.162 82.7914L114.163 82.7944C114.192 83.5019 114.015 84.3299 113.655 85.5845L110.628 96.1178L102.704 93.8408L102.883 93.2171C103.096 92.4776 103.299 91.7488 103.519 90.9568L103.578 90.7445C103.821 89.87 104.087 88.9151 104.411 87.7896C104.617 87.0705 104.81 86.4252 105.007 85.768L105.022 85.7176C105.224 85.0424 105.431 84.3515 105.662 83.547C105.78 83.1366 105.734 82.9411 105.701 82.8678C105.675 82.813 105.625 82.7529 105.476 82.7102C105.148 82.616 104.636 82.6456 104.114 83.0878L104.107 83.0937L104.1 83.0994C103.536 83.5503 103.046 84.3792 102.675 85.6704L100.509 93.2099L92.5251 90.9157L98.9058 68.7114ZM99.7948 70.3173L94.131 90.0268L99.6197 91.604L101.428 85.312C101.83 83.9126 102.419 82.7858 103.282 82.0916C104.13 81.3773 105.087 81.2479 105.834 81.4628C106.255 81.5835 106.661 81.8493 106.88 82.3265C107.091 82.7852 107.076 83.3279 106.91 83.9055C106.676 84.7176 106.468 85.4146 106.266 86.0898L106.251 86.1377C106.054 86.7964 105.863 87.4359 105.658 88.1481C105.336 89.268 105.071 90.2185 104.828 91.0922L104.769 91.3061C104.61 91.8755 104.46 92.4155 104.309 92.9515L109.739 94.5119L112.407 85.226C112.769 83.9669 112.885 83.3235 112.866 82.8501C112.785 81.1252 111.399 79.9395 109.418 79.3702C107.507 78.8212 105.64 78.9819 104.288 80.0982L104.024 80.316L102.922 79.9993L105.254 71.8859L99.7948 70.3173Z" fill="white"/>
<path d="M75.282 78.9304C74.6782 81.4314 74.6381 83.3455 75.769 84.8503C76.8581 86.2995 78.9254 87.2021 81.9809 88.0802L83.5078 88.519C86.5557 89.3948 88.8058 89.7212 90.474 89.1721C92.2386 88.5911 93.1776 87.1067 93.8016 84.9355L94.3264 83.1092C94.7157 81.7545 94.8448 80.6241 94.5705 79.662C94.4084 79.0936 94.1171 78.6216 93.7183 78.2165C94.1928 78.0479 94.6266 77.8037 95.0113 77.4795C95.7282 76.8754 96.2308 76.0308 96.5295 74.9914L96.7532 74.213C97.3508 72.1333 97.3121 70.4295 96.129 69.0354C95.0125 67.7196 92.9687 66.8108 89.9917 65.9553L88.9439 65.6542C87.2273 65.161 85.8077 64.8239 84.6187 64.6769C83.4306 64.53 82.4258 64.5666 81.5619 64.8616C79.7821 65.4693 78.8686 67.0748 78.0219 69.3992M75.282 78.9304C75.2819 78.9307 75.2821 78.9301 75.282 78.9304ZM75.282 78.9304L75.5989 77.6034L82.7851 79.6684L82.51 81.0259C82.3446 81.8127 82.3838 82.3169 82.5306 82.6398C82.6613 82.9275 82.9265 83.177 83.5042 83.343C84.0346 83.4954 84.362 83.4269 84.6036 83.2526C84.88 83.0532 85.175 82.6232 85.4171 81.7806L85.7526 80.613C85.9374 79.9701 85.9502 79.5072 85.8692 79.188C85.7952 78.896 85.6352 78.687 85.3568 78.5334C85.0328 78.3606 84.7652 78.282 84.3451 78.1613L82.3442 77.5863L83.6662 72.9857L86.176 73.707C86.8011 73.8866 87.1529 73.8349 87.3669 73.7149C87.5829 73.5937 87.8177 73.3139 88.0025 72.6707L88.0972 72.3414C88.2966 71.6474 88.2652 71.2088 88.1444 70.9383C88.0356 70.6943 87.7999 70.468 87.2794 70.3184C86.6784 70.1457 86.3212 70.2139 86.0587 70.3822C85.761 70.5732 85.4564 70.9729 85.147 71.7289L84.818 72.5281L77.6322 70.4631L78.0219 69.3992M78.0219 69.3992C78.0218 69.3994 78.0219 69.3991 78.0219 69.3992ZM84.0645 70.9611L79.3311 69.6009C80.1365 67.4587 80.8647 66.4711 81.9813 66.0899C82.5863 65.8833 83.3716 65.8305 84.4595 65.965C85.5466 66.0994 86.8889 66.4142 88.5854 66.9017L89.6332 67.2028C92.614 68.0593 94.3008 68.887 95.1394 69.8752C95.9114 70.7849 96.0523 71.9525 95.5057 73.8546L95.282 74.633C95.0387 75.4797 94.6555 76.0821 94.175 76.487C93.6965 76.8902 93.0777 77.1347 92.2969 77.1933L91.8465 77.2271L91.5479 78.2661L91.9838 78.5206C92.7679 78.9784 93.1591 79.4452 93.3224 80.0179C93.496 80.6269 93.4467 81.4708 93.0789 82.7507L92.5541 84.577C91.9736 86.5971 91.2209 87.5597 90.0681 87.9392C88.8188 88.3505 86.9257 88.1507 83.8662 87.2715L82.3394 86.8328C79.2575 85.9471 77.6048 85.1326 76.8066 84.0705C76.0502 83.0641 75.955 81.673 76.5439 79.2342L76.5458 79.2259L81.2751 80.585L81.2398 80.7588C81.2397 80.7596 81.2395 80.7604 81.2393 80.7612C81.0518 81.6546 81.0343 82.4845 81.3489 83.1768C81.6799 83.905 82.3164 84.3521 83.1458 84.5905C83.9327 84.8166 84.7051 84.7798 85.363 84.3052C85.9862 83.8556 86.3905 83.0928 86.6645 82.1391L87.0001 80.9715C87.2197 80.2073 87.2857 79.4937 87.1274 78.8691C86.9624 78.2182 86.566 77.7165 85.9783 77.3939L85.972 77.3906C85.5179 77.1478 85.132 77.0369 84.7223 76.9192L83.9501 76.6973L84.5552 74.5917L85.8176 74.9544C86.5996 75.1791 87.3561 75.209 88.0018 74.8469C88.6455 74.4858 89.0218 73.8231 89.25 73.0292L89.3446 72.6999C89.5839 71.867 89.6279 71.0776 89.3297 70.4094C89.0196 69.7146 88.4048 69.2914 87.6379 69.071C86.8019 68.8308 86.0293 68.8593 85.3581 69.2896C84.7934 69.6518 84.3886 70.2452 84.0645 70.9611ZM98.9058 68.7114L106.859 70.997L104.763 78.292C106.317 77.6026 108.106 77.6429 109.776 78.1228C111.986 78.7577 114.044 80.2467 114.162 82.7914L114.163 82.7944C114.192 83.5019 114.015 84.3299 113.655 85.5845L110.628 96.1178L102.704 93.8408L102.883 93.2171C103.096 92.4776 103.299 91.7488 103.519 90.9568L103.578 90.7445C103.821 89.87 104.087 88.9151 104.411 87.7896C104.617 87.0705 104.81 86.4252 105.007 85.768L105.022 85.7176C105.224 85.0424 105.431 84.3515 105.662 83.547C105.78 83.1366 105.734 82.9411 105.701 82.8678C105.675 82.813 105.625 82.7529 105.476 82.7102C105.148 82.616 104.636 82.6456 104.114 83.0878L104.107 83.0937L104.1 83.0994C103.536 83.5503 103.046 84.3792 102.675 85.6704L100.509 93.2099L92.5251 90.9157L98.9058 68.7114ZM94.131 90.0268L99.7948 70.3173L105.254 71.8859L102.922 79.9993L104.024 80.316L104.288 80.0982C105.64 78.9819 107.507 78.8212 109.418 79.3702C111.399 79.9395 112.785 81.1252 112.866 82.8501C112.885 83.3235 112.769 83.9669 112.407 85.226L109.739 94.5119L104.309 92.9515C104.46 92.4155 104.61 91.8755 104.769 91.3061L104.828 91.0922C105.071 90.2185 105.336 89.268 105.658 88.1481C105.863 87.4359 106.054 86.7964 106.251 86.1377L106.266 86.0898C106.468 85.4146 106.676 84.7176 106.91 83.9055C107.076 83.3279 107.091 82.7852 106.88 82.3265C106.661 81.8493 106.255 81.5835 105.834 81.4628C105.087 81.2479 104.13 81.3773 103.282 82.0916C102.419 82.7858 101.83 83.9126 101.428 85.312L99.6197 91.604L94.131 90.0268Z" stroke="white" stroke-width="16.8729" stroke-linejoin="round"/>
<path d="M65.9693 63.6059L68.1375 56.0607L51.4107 51.254L51.463 51.0722C51.8464 50.9364 52.8668 50.6391 54.9524 50.4019L60.8065 49.7222C63.9187 49.3372 66.5242 49.0034 68.462 47.7396C70.1202 46.5923 71.2665 44.6582 71.9718 42.2037L72.4812 40.431C74.5842 33.1131 71.8789 30.7119 62.0156 27.8775C51.2432 24.7819 48.2213 25.5374 45.8964 33.628L45.387 35.4007L54.114 37.9085L54.545 36.4086C55.4071 33.4087 57.0324 32.5472 59.2596 33.1872C61.3505 33.788 62.0756 35.3742 61.4225 37.6468L61.318 38.0105C60.6519 40.3286 59.3646 41.0412 55.8553 41.9518L52.5539 42.8237C45.6847 44.6387 42.4089 45.764 40.8023 51.3548L39.4701 55.991L65.9693 63.6059Z" fill="white" stroke="white" stroke-width="16.8729" stroke-linejoin="round"/>
<path fill-rule="evenodd" clip-rule="evenodd" d="M55.3639 25.6876C57.2481 25.9322 59.4945 26.4764 62.1959 27.2527C64.6725 27.9643 66.7275 28.6564 68.3795 29.4147C70.0298 30.1723 71.3171 31.0133 72.2239 32.0429C74.0935 34.1657 74.1775 36.8808 73.1061 40.6091L72.5967 42.3818C71.8681 44.9174 70.6586 47.0086 68.8323 48.2721L68.8177 48.2822C66.7324 49.6423 63.964 49.9845 60.905 50.363L60.8873 50.3652L60.8825 50.3657L55.0269 51.0456C54.5107 51.1043 54.0631 51.1665 53.6769 51.2286L68.9416 55.6151L66.4149 64.4077L38.6682 56.4344L40.1798 51.1744C41.0181 48.2571 42.3205 46.4336 44.3549 45.1263C46.3352 43.8538 48.977 43.0968 52.3892 42.1952L55.6907 41.3232L55.6934 41.3225C57.4512 40.8664 58.5467 40.483 59.2856 39.9735C59.9777 39.4963 60.3934 38.8813 60.6954 37.8301L60.7999 37.4665C61.1005 36.4205 61.0547 35.632 60.7856 35.0687C60.524 34.521 59.9968 34.0728 59.0815 33.8098C58.0813 33.5223 57.328 33.6006 56.7429 33.9774C56.138 34.3669 55.58 35.1594 55.1698 36.5867L54.5596 38.7104L44.5851 35.8441L45.2738 33.4477C46.4417 29.3833 47.8554 26.8686 50.5805 25.9424C51.9094 25.4907 53.4818 25.4434 55.3639 25.6876ZM50.9981 27.1712C48.9379 27.8715 47.6782 29.7799 46.5212 33.8061L46.191 34.9551L53.6706 37.1045L53.9224 36.2282C54.3743 34.6556 55.0601 33.5173 56.0401 32.8862C57.04 32.2423 58.213 32.2097 59.44 32.5623C60.6155 32.9001 61.4963 33.5454 61.9567 34.5092C62.4097 35.4573 62.3999 36.5983 62.0474 37.8249L61.9429 38.1886C61.5788 39.4555 61.0177 40.3558 60.0223 41.0421C59.074 41.6959 57.7717 42.1241 56.021 42.5784C56.0205 42.5785 56.0199 42.5787 56.0194 42.5788L52.7208 43.45C52.7208 43.45 52.7208 43.45 52.7208 43.45C49.2639 44.3634 46.8332 45.0766 45.0566 46.2182C43.3342 47.3249 42.1954 48.8595 41.4272 51.5329L40.2741 55.5454L65.5259 62.8018L67.3357 56.504L50.6089 51.6974L50.9326 50.5709L51.2474 50.4594C51.6891 50.3029 52.7599 49.9971 54.8797 49.756C54.8799 49.756 54.8796 49.7561 54.8797 49.756L60.7279 49.0771C60.7287 49.077 60.7294 49.0769 60.7302 49.0768C63.8832 48.6867 66.316 48.3605 68.1011 47.1997C69.5877 46.1679 70.6683 44.3929 71.3493 42.0234L71.8587 40.2507C72.8902 36.661 72.673 34.5166 71.2499 32.9007C70.5103 32.061 69.4034 31.3129 67.838 30.5943C66.2745 29.8766 64.2926 29.2056 61.8375 28.5001C59.1527 27.7286 56.9817 27.2064 55.1969 26.9748C53.4101 26.7429 52.0618 26.8097 50.9981 27.1712Z" fill="white"/>
<path d="M52.7208 43.45L56.0194 42.5788C56.0199 42.5787 56.0205 42.5785 56.021 42.5784C57.7717 42.1241 59.074 41.6959 60.0223 41.0421C61.0177 40.3558 61.5788 39.4555 61.9429 38.1886L62.0474 37.8249C62.3999 36.5983 62.4097 35.4573 61.9567 34.5092C61.4963 33.5454 60.6155 32.9001 59.44 32.5623C58.213 32.2097 57.04 32.2423 56.0401 32.8862C55.0601 33.5173 54.3743 34.6556 53.9224 36.2282L53.6706 37.1045L46.191 34.9551L46.5212 33.8061C47.6782 29.7799 48.9379 27.8715 50.9981 27.1712C52.0618 26.8097 53.4101 26.7429 55.1969 26.9748C56.9817 27.2064 59.1527 27.7286 61.8375 28.5001C64.2926 29.2056 66.2745 29.8766 67.838 30.5943C69.4034 31.3129 70.5103 32.061 71.2499 32.9007C72.673 34.5166 72.8902 36.661 71.8587 40.2507L71.3493 42.0234C70.6683 44.3929 69.5877 46.1679 68.1011 47.1997C66.316 48.3605 63.8832 48.6867 60.7302 49.0768C60.7294 49.0769 60.7287 49.077 60.7279 49.0771L54.8797 49.756M52.7208 43.45C52.7208 43.45 52.7208 43.45 52.7208 43.45ZM52.7208 43.45C49.2639 44.3634 46.8332 45.0766 45.0566 46.2182C43.3342 47.3249 42.1954 48.8595 41.4272 51.5329L40.2741 55.5454L65.5259 62.8018L67.3357 56.504L50.6089 51.6974L50.9326 50.5709L51.2474 50.4594C51.6891 50.3029 52.7599 49.9971 54.8797 49.756M54.8797 49.756C54.8796 49.7561 54.8799 49.756 54.8797 49.756ZM62.1959 27.2527C59.4945 26.4764 57.2481 25.9322 55.3639 25.6876C53.4818 25.4434 51.9094 25.4907 50.5805 25.9424C47.8554 26.8686 46.4417 29.3833 45.2738 33.4477L44.5851 35.8441L54.5596 38.7104L55.1698 36.5867C55.58 35.1594 56.138 34.3669 56.7429 33.9774C57.328 33.6006 58.0813 33.5223 59.0815 33.8098C59.9968 34.0728 60.524 34.521 60.7856 35.0687C61.0547 35.632 61.1005 36.4205 60.7999 37.4665L60.6955 37.8301C60.3934 38.8813 59.9777 39.4963 59.2856 39.9735C58.5467 40.483 57.4512 40.8664 55.6934 41.3225L55.6907 41.3232L52.3892 42.1952C48.977 43.0968 46.3352 43.8538 44.3549 45.1263C42.3205 46.4336 41.0181 48.2571 40.1798 51.1744L38.6682 56.4344L66.4149 64.4077L68.9416 55.6151L53.6769 51.2286C54.0631 51.1665 54.5107 51.1043 55.0269 51.0456L60.8825 50.3657L60.8873 50.3652L60.905 50.363C63.964 49.9845 66.7324 49.6423 68.8178 48.2822L68.8323 48.2721C70.6586 47.0086 71.8681 44.9174 72.5967 42.3818L73.1061 40.6091C74.1775 36.8808 74.0935 34.1657 72.2239 32.0429C71.3171 31.0133 70.0298 30.1723 68.3795 29.4147C66.7275 28.6564 64.6725 27.9643 62.1959 27.2527Z" stroke="white" stroke-width="16.8729" stroke-linejoin="round"/>
<path d="M92.0383 32.4178C92.9385 31.3713 93.6398 30.1259 94.046 28.7123C95.5534 23.4667 92.523 17.9923 87.2774 16.4849C82.0318 14.9775 76.5573 18.0079 75.0499 23.2536C74.6437 24.6671 74.5768 26.0949 74.7842 27.4596C77.2389 28.3895 80.1578 29.3576 83.3173 30.2655C86.4769 31.1735 89.4644 31.9026 92.0383 32.4178Z" fill="#FCCB4C" stroke="black" stroke-width="1.29792" stroke-miterlimit="10"/>
<path d="M100.723 113.516C100.789 113.298 100.863 113.086 100.927 112.866L110.746 78.6939C117.297 55.8974 105.509 32.5038 84.4172 26.4427L84.4172 26.4427C63.325 20.3816 40.9161 33.9483 34.3652 56.7448L24.5454 90.9169C24.4823 91.1365 24.4323 91.3563 24.3726 91.5759L100.723 113.516Z" fill="#FCCB4C" stroke="black" stroke-width="1.29792" stroke-miterlimit="10"/>
<path d="M102.376 112.796C95.0509 106.742 81.1401 100.127 64.5085 95.3473C47.7302 90.5258 32.3051 88.7575 22.9057 90.0639C13.8073 91.6191 13.0488 95.1937 12.2151 98.0913C7.81399 113.389 53.8046 126.597 53.8046 126.597C53.8046 126.597 103.236 140.802 107.522 125.479C107.908 124.138 110.699 118.892 102.376 112.796Z" fill="#FCCB4C" stroke="black" stroke-width="1.29792" stroke-miterlimit="10"/>
<path d="M23.8491 106.054C24.5969 103.451 40.7905 105.821 60.0185 111.346C79.2466 116.872 94.2277 123.461 93.4799 126.063" stroke="black" stroke-width="1.29792" stroke-miterlimit="10"/>
<path d="M63.0166 70.6843C68.1174 71.5786 84.6967 76.4176 90.6339 78.6205M108.295 98.649C115.537 99.4829 119.169 98.766 119.733 96.8028C120.274 95.4114 116.665 92.5537 110.973 89.3299" stroke="black" stroke-width="1.29792" stroke-miterlimit="10"/>
<path d="M73.8172 54.5329C56.4956 47.8243 23.7935 43.7282 23.2014 47.1284C22.7258 48.7835 25.4967 51.0641 32.1287 54.0214" stroke="black" stroke-width="1.29792" stroke-miterlimit="10"/>
<path d="M46.0519 108.03C44.6138 109.702 43.4935 111.691 42.8446 113.949C40.4365 122.329 45.2776 131.075 53.6576 133.483C62.0375 135.891 70.7829 131.05 73.191 122.67C73.8399 120.412 73.9468 118.131 73.6156 115.951C69.6941 114.465 65.0311 112.919 59.9837 111.468C54.9363 110.018 50.1637 108.853 46.0519 108.03Z" fill="white" stroke="black" stroke-width="1.29792" stroke-miterlimit="10"/>
<path d="M121.622 53.8402C123.075 54.2576 124.591 53.4184 125.008 51.9659C125.426 50.5133 124.587 48.9973 123.134 48.5799C121.681 48.1625 120.166 49.0017 119.748 50.4543C119.331 51.9068 120.17 53.4227 121.622 53.8402Z" stroke="black" stroke-width="1.29792" stroke-miterlimit="10"/>
<path d="M27.2302 73.2841C29.9185 74.0567 32.724 72.5036 33.4965 69.8153C34.2691 67.127 32.716 64.3214 30.0277 63.5489C27.3394 62.7764 24.5339 64.3295 23.7614 67.0178C22.9889 69.7061 24.5419 72.5116 27.2302 73.2841Z" fill="black" stroke="black" stroke-width="1.29792" stroke-miterlimit="10"/>
<path d="M29.3501 130.221C30.6594 130.597 32.0259 129.841 32.4022 128.531C32.7784 127.222 32.022 125.856 30.7126 125.479C29.4033 125.103 28.0368 125.859 27.6605 127.169C27.2842 128.478 28.0407 129.845 29.3501 130.221Z" stroke="black" stroke-width="1.29792" stroke-miterlimit="10"/>
<path d="M18.5698 130.205C19.3554 130.431 20.1753 129.977 20.401 129.192C20.6268 128.406 20.1729 127.586 19.3873 127.36C18.6017 127.135 17.7818 127.588 17.5561 128.374C17.3303 129.16 17.7842 129.98 18.5698 130.205Z" stroke="black" stroke-width="1.29792" stroke-miterlimit="10"/>
<path d="M82.7614 88.7692C88.8688 90.5242 91.0478 89.8216 92.2522 85.6302L92.777 83.8039C93.5341 81.1693 93.1339 79.8551 91.3854 78.8341L91.4198 78.7144C93.2086 78.5802 94.4381 77.5723 94.9801 75.6861L95.2038 74.9077C96.348 70.9259 94.8446 69.1651 88.8868 67.453L87.839 67.1519C81.013 65.1904 79.3946 65.8597 77.706 70.4953L77.5556 70.9059L83.5134 72.6179L83.6207 72.357C84.2735 70.762 85.096 70.1557 86.533 70.5687C87.8204 70.9386 88.234 71.8677 87.7953 73.3946L87.7006 73.7239C87.2877 75.161 86.4783 75.609 85.0712 75.2047L83.1851 74.6626L82.2215 78.0158L83.5987 78.4115C84.0178 78.5319 84.3471 78.6266 84.7405 78.8368C85.6083 79.3131 85.8551 80.2591 85.4507 81.6662L85.1152 82.8338C84.599 84.6301 83.7167 85.2192 82.3994 84.8407C80.9923 84.4364 80.5958 83.4473 80.9493 81.7663L81.1045 81.0007L75.1467 79.2886L74.9874 79.9559C73.7946 84.8961 75.0971 86.5668 81.2345 88.3304L82.7614 88.7692Z" fill="#FCCB4C"/>
<path d="M112.589 83.6955C112.489 81.5603 110.767 80.2226 108.671 79.6204C106.635 79.0354 104.521 79.1734 102.949 80.4717L102.799 80.4287L105.131 72.3154L98.4247 70.3883L92.4024 91.3452L99.1386 93.2809L101.126 86.3651C101.513 85.0179 102.054 84.0389 102.769 83.4666C103.455 82.8857 104.191 82.8056 104.73 82.9604C105.298 83.1239 105.644 83.6122 105.36 84.6002C104.896 86.2168 104.53 87.3758 104.109 88.8428C103.463 91.0882 103.046 92.6536 102.581 94.2703L109.258 96.1888L112.105 86.2792C112.467 85.0218 112.613 84.286 112.589 83.6955Z" fill="black"/>
<path d="M91.3854 78.8341L90.7617 78.6549L90.6223 79.14L91.0582 79.3945L91.3854 78.8341ZM91.4199 78.7144L91.3713 78.0672L90.9209 78.101L90.7961 78.5351L91.4199 78.7144ZM77.706 70.4953L78.3154 70.7185L78.3158 70.7174L77.706 70.4953ZM77.5556 70.9059L76.9463 70.6826L76.7065 71.3371L77.3764 71.5296L77.5556 70.9059ZM83.5134 72.6179L83.3341 73.2416L83.8924 73.402L84.1135 72.8649L83.5134 72.6179ZM83.6207 72.357L84.2208 72.6041L84.2213 72.6029L83.6207 72.357ZM83.1851 74.6626L83.3643 74.0389L82.7406 73.8597L82.5613 74.4834L83.1851 74.6626ZM82.2215 78.0158L81.5978 77.8365L81.4186 78.4602L82.0423 78.6395L82.2215 78.0158ZM84.7405 78.8368L85.0527 78.2679L85.0464 78.2645L84.7405 78.8368ZM80.9493 81.7663L81.5844 81.8998L81.5853 81.8952L80.9493 81.7663ZM81.1045 81.0007L81.7405 81.1296L81.8595 80.5424L81.2837 80.3769L81.1045 81.0007ZM75.1467 79.2886L75.326 78.6649L74.6732 78.4773L74.5155 79.1379L75.1467 79.2886ZM74.9874 79.9559L75.6182 80.1082L75.6186 80.1066L74.9874 79.9559ZM82.5821 89.3929C85.6301 90.2688 87.8802 90.5952 89.5483 90.046C91.313 89.4651 92.252 87.9807 92.876 85.8094L91.6285 85.4509C91.048 87.471 90.2953 88.4337 89.1425 88.8132C87.8932 89.2244 86.0001 89.0247 82.9406 88.1455L82.5821 89.3929ZM92.876 85.8094L93.4007 83.9832L92.1533 83.6247L91.6285 85.4509L92.876 85.8094ZM93.4007 83.9832C93.79 82.6285 93.9192 81.498 93.6449 80.536C93.3602 79.5377 92.6771 78.8369 91.7127 78.2737L91.0582 79.3945C91.8422 79.8524 92.2334 80.3192 92.3967 80.8919C92.5704 81.5009 92.5211 82.3448 92.1533 83.6247L93.4007 83.9832ZM92.0092 79.0134L92.0436 78.8936L90.7961 78.5351L90.7617 78.6549L92.0092 79.0134ZM91.4684 79.3615C92.4763 79.2859 93.3667 78.9594 94.0857 78.3535C94.8026 77.7494 95.3052 76.9048 95.6039 75.8654L94.3564 75.5069C94.1131 76.3536 93.7299 76.956 93.2493 77.361C92.7709 77.7641 92.1521 78.0087 91.3713 78.0672L91.4684 79.3615ZM95.6039 75.8654L95.8275 75.087L94.5801 74.7285L94.3564 75.5069L95.6039 75.8654ZM95.8275 75.087C96.4252 73.0072 96.3865 71.3035 95.2034 69.9093C94.0869 68.5936 92.043 67.6848 89.0661 66.8293L88.7076 68.0767C91.6884 68.9333 93.3752 69.7609 94.2138 70.7491C94.9858 71.6589 95.1267 72.8265 94.5801 74.7285L95.8275 75.087ZM89.0661 66.8293L88.0182 66.5282L87.6598 67.7756L88.7076 68.0767L89.0661 66.8293ZM88.0182 66.5282C86.3017 66.0349 84.882 65.6978 83.6931 65.5508C82.505 65.404 81.5002 65.4405 80.6363 65.7355C78.8564 66.3433 77.9431 67.9485 77.0962 70.2732L78.3158 70.7174C79.1576 68.4065 79.8978 67.3592 81.0557 66.9638C81.6607 66.7572 82.4459 66.7045 83.5339 66.839C84.6209 66.9733 85.9633 67.2881 87.6598 67.7756L88.0182 66.5282ZM77.0966 70.2721L76.9463 70.6826L78.165 71.1291L78.3154 70.7185L77.0966 70.2721ZM77.3764 71.5296L83.3341 73.2416L83.6926 71.9942L77.7349 70.2821L77.3764 71.5296ZM84.1135 72.8649L84.2208 72.6041L83.0206 72.11L82.9133 72.3709L84.1135 72.8649ZM84.2213 72.6029C84.5308 71.8468 84.8353 71.4471 85.1331 71.2562C85.3956 71.0878 85.7527 71.0197 86.3538 71.1924L86.7123 69.9449C85.8763 69.7047 85.1037 69.7332 84.4325 70.1636C83.7966 70.5713 83.3635 71.2723 83.0201 72.1112L84.2213 72.6029ZM86.3538 71.1924C86.8742 71.3419 87.1099 71.5683 87.2188 71.8123C87.3395 72.0828 87.371 72.5213 87.1715 73.2154L88.419 73.5738C88.6583 72.741 88.7023 71.9516 88.4041 71.2833C88.094 70.5885 87.4792 70.1653 86.7123 69.9449L86.3538 71.1924ZM87.1715 73.2154L87.0769 73.5447L88.3243 73.9031L88.419 73.5738L87.1715 73.2154ZM87.0769 73.5447C86.8921 74.1879 86.6572 74.4676 86.4412 74.5888C86.2273 74.7088 85.8755 74.7606 85.2504 74.5809L84.892 75.8284C85.674 76.0531 86.4305 76.083 87.0762 75.7208C87.7199 75.3598 88.0962 74.697 88.3243 73.9031L87.0769 73.5447ZM85.2504 74.5809L83.3643 74.0389L83.0058 75.2864L84.892 75.8284L85.2504 74.5809ZM82.5613 74.4834L81.5978 77.8365L82.8452 78.195L83.8088 74.8419L82.5613 74.4834ZM82.0423 78.6395L83.4194 79.0352L83.7779 77.7878L82.4007 77.392L82.0423 78.6395ZM83.4194 79.0352C83.841 79.1564 84.109 79.2351 84.4345 79.4092L85.0464 78.2645C84.5853 78.018 84.1946 77.9075 83.7779 77.7878L83.4194 79.0352ZM84.4283 79.4058C84.7084 79.5595 84.8694 79.769 84.9436 80.0619C85.0245 80.3811 85.0118 80.844 84.827 81.487L86.0744 81.8454C86.294 81.0813 86.3601 80.3676 86.2017 79.743C86.0368 79.0921 85.6404 78.5905 85.0527 78.2679L84.4283 79.4058ZM84.827 81.487L84.4915 82.6546L85.7389 83.013L86.0744 81.8454L84.827 81.487ZM84.4915 82.6546C84.2493 83.4972 83.9544 83.9271 83.678 84.1265C83.4364 84.3008 83.109 84.3694 82.5786 84.217L82.2201 85.4644C83.0071 85.6905 83.7795 85.6538 84.4374 85.1791C85.0605 84.7295 85.4649 83.9667 85.7389 83.013L84.4915 82.6546ZM82.5786 84.217C82.0009 84.051 81.7357 83.8014 81.6049 83.5138C81.4582 83.1908 81.4189 82.6866 81.5843 81.8998L80.3142 81.6328C80.1262 82.5271 80.1084 83.3579 80.4233 84.0507C80.7542 84.779 81.3907 85.2261 82.2201 85.4644L82.5786 84.217ZM81.5853 81.8952L81.7405 81.1296L80.4685 80.8717L80.3132 81.6374L81.5853 81.8952ZM81.2837 80.3769L75.326 78.6649L74.9675 79.9123L80.9252 81.6244L81.2837 80.3769ZM74.5155 79.1379L74.3562 79.8051L75.6186 80.1066L75.7779 79.4393L74.5155 79.1379ZM74.3566 79.8036C73.7526 82.305 73.7123 84.2193 74.8434 85.7242C75.9325 87.1734 77.9997 88.0761 81.0553 88.9541L81.4137 87.7067C78.3319 86.8211 76.6792 86.0066 75.8809 84.9444C75.1246 83.9381 75.0294 82.5469 75.6182 80.1082L74.3566 79.8036ZM81.0553 88.9541L82.5821 89.3929L82.9406 88.1455L81.4137 87.7067L81.0553 88.9541ZM112.589 83.6955L113.237 83.6683L113.237 83.6653L112.589 83.6955ZM102.949 80.4717L102.77 81.0955L103.099 81.1899L103.362 80.9721L102.949 80.4717ZM102.799 80.4287L102.176 80.2495L101.996 80.8732L102.62 81.0524L102.799 80.4287ZM105.131 72.3154L105.755 72.4946L105.934 71.8709L105.31 71.6917L105.131 72.3154ZM98.4247 70.3883L98.6039 69.7646L97.9802 69.5853L97.8009 70.2091L98.4247 70.3883ZM92.4024 91.3452L91.7787 91.166L91.5995 91.7897L92.2232 91.9689L92.4024 91.3452ZM99.1386 93.2809L98.9593 93.9046L99.583 94.0839L99.7623 93.4602L99.1386 93.2809ZM102.769 83.4666L103.174 83.9734L103.182 83.9677L103.189 83.9617L102.769 83.4666ZM102.581 94.2703L101.958 94.0911L101.779 94.7148L102.402 94.894L102.581 94.2703ZM109.258 96.1888L109.079 96.8125L109.702 96.9918L109.881 96.368L109.258 96.1888ZM113.237 83.6653C113.118 81.1206 111.06 79.6317 108.85 78.9967L108.492 80.2441C110.474 80.8136 111.86 81.9999 111.94 83.7257L113.237 83.6653ZM108.85 78.9967C106.689 78.3757 104.329 78.4909 102.536 79.9713L103.362 80.9721C104.714 79.8559 106.581 79.6951 108.492 80.2441L108.85 78.9967ZM103.128 79.848L102.979 79.805L102.62 81.0524L102.77 81.0955L103.128 79.848ZM103.423 80.608L105.755 72.4946L104.507 72.1362L102.176 80.2495L103.423 80.608ZM105.31 71.6917L98.6039 69.7646L98.2454 71.012L104.952 72.9391L105.31 71.6917ZM97.8009 70.2091L91.7787 91.166L93.0261 91.5244L99.0484 70.5675L97.8009 70.2091ZM92.2232 91.9689L98.9593 93.9046L99.3178 92.6572L92.5816 90.7215L92.2232 91.9689ZM99.7623 93.4602L101.75 86.5444L100.502 86.1859L98.5148 93.1017L99.7623 93.4602ZM101.75 86.5444C102.121 85.2531 102.611 84.4242 103.174 83.9734L102.364 82.9598C101.496 83.6536 100.905 84.7827 100.502 86.1859L101.75 86.5444ZM103.189 83.9617C103.71 83.5195 104.222 83.4899 104.55 83.5841L104.909 82.3367C104.159 82.1212 103.199 82.252 102.35 82.9715L103.189 83.9617ZM104.55 83.5841C104.699 83.6269 104.75 83.6869 104.775 83.7418C104.809 83.8151 104.855 84.0106 104.737 84.4209L105.984 84.7794C106.15 84.2018 106.165 83.6592 105.955 83.2004C105.736 82.7233 105.329 82.4574 104.909 82.3367L104.55 83.5841ZM104.737 84.4209C104.505 85.2255 104.299 85.9163 104.097 86.5915C103.895 87.2662 103.697 87.9261 103.485 88.6636L104.732 89.0221C104.942 88.2926 105.138 87.6395 105.34 86.9637C105.542 86.2885 105.751 85.5915 105.984 84.7794L104.737 84.4209ZM103.485 88.6636C103.162 89.7891 102.895 90.744 102.652 91.6184C102.409 92.4936 102.189 93.286 101.958 94.0911L103.205 94.4495C103.438 93.6379 103.66 92.8393 103.903 91.9662C104.146 91.0924 104.411 90.142 104.732 89.0221L103.485 88.6636ZM102.402 94.894L109.079 96.8125L109.437 95.5651L102.761 93.6466L102.402 94.894ZM109.881 96.368L112.729 86.4584L111.482 86.0999L108.634 96.0096L109.881 96.368ZM112.729 86.4584C113.09 85.2039 113.267 84.3758 113.237 83.6683L111.94 83.7227C111.96 84.1962 111.844 84.8397 111.482 86.0999L112.729 86.4584Z" fill="black"/>
<path d="M65.1685 64.0508L67.3367 56.5056L50.6099 51.699L50.6622 51.5171C51.0457 51.3813 52.066 51.084 54.1516 50.8469L60.0057 50.1672C63.118 49.7822 65.7234 49.4483 67.6612 48.1845C69.3195 47.0372 70.4657 45.1031 71.1711 42.6487L71.6805 40.876C73.7834 33.558 71.0781 31.1568 61.2148 28.3225C50.4424 25.2269 47.4205 25.9823 45.0956 34.073L44.5862 35.8457L53.3132 38.3535L53.7442 36.8535C54.6063 33.8536 56.2316 32.9921 58.4588 33.6321C60.5497 34.2329 61.2748 35.8191 60.6218 38.0918L60.5173 38.4554C59.8511 40.7735 58.5638 41.4861 55.0545 42.3967L51.7531 43.2687C44.8839 45.0836 41.6081 46.209 40.0016 51.7997L38.6693 56.4359L65.1685 64.0508Z" fill="black"/>
<path fill-rule="evenodd" clip-rule="evenodd" d="M54.5612 26.1342C56.4453 26.3788 58.6918 26.923 61.3932 27.6993C63.8698 28.4109 65.9248 29.103 67.5768 29.8613C69.227 30.6189 70.5144 31.4599 71.4212 32.4895C73.2908 34.6123 73.3747 37.3274 72.3034 41.0557L71.794 42.8284C71.0653 45.364 69.8559 47.4552 68.0296 48.7187L68.015 48.7288C65.9297 50.0889 63.1612 50.4311 60.1022 50.8096L60.0846 50.8118L60.0797 50.8123L54.2241 51.4922C53.708 51.5509 53.2604 51.6131 52.8742 51.6752L68.1388 56.0616L65.6121 64.8543L37.8655 56.881L39.377 51.621C40.2153 48.7037 41.5177 46.8802 43.5522 45.5729C45.5325 44.3004 48.1742 43.5434 51.5865 42.6418L54.8879 41.7698L54.8907 41.7691C56.6484 41.313 57.744 40.9296 58.4829 40.4201C59.175 39.9429 59.5906 39.3279 59.8927 38.2767L59.9972 37.9131C60.2978 36.8671 60.252 36.0786 59.9829 35.5153C59.7212 34.9676 59.1941 34.5194 58.2788 34.2564C57.2786 33.9689 56.5253 34.0472 55.9401 34.424C55.3352 34.8135 54.7773 35.606 54.3671 37.0333L53.7568 39.1569L43.7824 36.2907L44.471 33.8943C45.639 29.8299 47.0527 27.3152 49.7777 26.389C51.1067 25.9372 52.679 25.89 54.5612 26.1342ZM50.1954 27.6178C48.1352 28.3181 46.8755 30.2265 45.7185 34.2527L45.3883 35.4017L52.8679 37.551L53.1197 36.6748C53.5716 35.1022 54.2573 33.9639 55.2374 33.3328C56.2373 32.6888 57.4102 32.6563 58.6372 33.0089C59.8127 33.3467 60.6936 33.992 61.154 34.9558C61.6069 35.9039 61.5971 37.0449 61.2446 38.2715L61.1402 38.6352C60.7761 39.9021 60.215 40.8024 59.2196 41.4887C58.2712 42.1425 56.969 42.5707 55.2182 43.025C55.2177 43.0251 55.2172 43.0253 55.2167 43.0254L51.9181 43.8966C51.918 43.8966 51.9181 43.8966 51.9181 43.8966C48.4612 44.81 46.0304 45.5232 44.2538 46.6648C42.5315 47.7715 41.3927 49.3061 40.6245 51.9795L39.4714 55.992L64.7232 63.2484L66.5329 56.9506L49.8062 52.144L50.1299 51.0175L50.4447 50.9059C50.8863 50.7495 51.9571 50.4437 54.077 50.2026C54.0772 50.2026 54.0768 50.2027 54.077 50.2026L59.9252 49.5237C59.926 49.5236 59.9267 49.5235 59.9275 49.5234C63.0805 49.1333 65.5133 48.807 67.2984 47.6463C68.7849 46.6145 69.8656 44.8395 70.5465 42.4699L71.0559 40.6973C72.0875 37.1076 71.8702 34.9631 70.4471 33.3473C69.7076 32.5076 68.6006 31.7595 67.0353 31.0409C65.4717 30.3232 63.4899 29.6522 61.0347 28.9467C58.35 28.1752 56.179 27.653 54.3942 27.4214C52.6073 27.1895 51.2591 27.2563 50.1954 27.6178Z" fill="black"/>
<path d="M48.7985 113.464C47.5463 116.255 46.4842 122.928 52.2539 127.286" stroke="black" stroke-width="1.29792"/>
</svg>
