<svg preserveAspectRatio="none" width="146" height="143" viewBox="0 0 146 143" fill="none" xmlns="http://www.w3.org/2000/svg">
<path fill-rule="evenodd" clip-rule="evenodd" d="M50.0325 6.00826C52.442 5.90963 54.675 6.69966 56.4226 8.08175C60.2315 10.446 62.7679 14.6665 62.7679 19.4793V39.1403H113.849L113.851 39.0491L117.54 39.1403H126.592C133.996 39.1403 139.997 45.1419 139.997 52.5452V105.271C139.997 112.675 133.996 118.676 126.592 118.676H100.688V136.338H62.4719L62.3769 135.43C64.2167 135.041 66.9587 133.731 69.1073 131.061C71.2237 128.432 72.7856 124.456 72.3077 118.676H39.4602C32.0569 118.676 26.0553 112.675 26.0553 105.271V101.249V100.331V95.8873H20.319C12.9157 95.8873 6.91406 89.8857 6.91406 82.4824V19.4793C6.91406 12.0759 12.9156 6.07435 20.319 6.07435H49.363C49.5886 6.07435 49.813 6.07993 50.0359 6.09095L50.0325 6.00826Z" fill="white"/>
<path d="M56.4226 8.08175L52.7218 12.761C52.8991 12.9012 53.0843 13.0313 53.2763 13.1505L56.4226 8.08175ZM50.0325 6.00826L49.7885 0.0474606C46.4965 0.182214 43.937 2.96015 44.0717 6.25218L50.0325 6.00826ZM62.7679 39.1403H56.8021C56.8021 42.4351 59.4731 45.1061 62.7679 45.1061V39.1403ZM113.849 39.1403V45.1061C117.086 45.1061 119.733 42.5243 119.813 39.288L113.849 39.1403ZM113.851 39.0491L113.999 33.0851C110.705 33.0037 107.969 35.6077 107.887 38.9014L113.851 39.0491ZM117.54 39.1403L117.393 45.1043C117.442 45.1055 117.491 45.1061 117.54 45.1061V39.1403ZM100.688 118.676V112.71C97.3932 112.71 94.7222 115.381 94.7222 118.676H100.688ZM100.688 136.338V142.303C103.983 142.303 106.654 139.632 106.654 136.338H100.688ZM62.4719 136.338L56.5385 136.958C56.8563 139.996 59.4174 142.303 62.4719 142.303V136.338ZM62.3769 135.43L61.1423 129.593C58.1539 130.225 56.1257 133.013 56.4435 136.05L62.3769 135.43ZM69.1073 131.061L64.4598 127.321L69.1073 131.061ZM72.3077 118.676L78.2532 118.185C77.9974 115.091 75.4119 112.71 72.3077 112.71V118.676ZM26.0553 95.8873H32.0211C32.0211 92.5925 29.3501 89.9215 26.0553 89.9215V95.8873ZM50.0359 6.09095L49.7413 12.0495C51.415 12.1322 53.0464 11.5072 54.2364 10.3273C55.4263 9.14739 56.0652 7.5214 55.9967 5.84703L50.0359 6.09095ZM60.1233 3.40252C57.3 1.16965 53.6785 -0.111767 49.7885 0.0474606L50.2765 11.9691C51.2056 11.931 52.05 12.2297 52.7218 12.761L60.1233 3.40252ZM68.7337 19.4793C68.7337 12.5178 65.0574 6.41988 59.5688 3.01303L53.2763 13.1505C55.4057 14.4722 56.8021 16.8151 56.8021 19.4793H68.7337ZM68.7337 39.1403V19.4793H56.8021V39.1403H68.7337ZM113.849 33.1745H62.7679V45.1061H113.849V33.1745ZM107.887 38.9014L107.885 38.9926L119.813 39.288L119.815 39.1968L107.887 38.9014ZM117.688 33.1763L113.999 33.0851L113.704 45.0131L117.393 45.1043L117.688 33.1763ZM126.592 33.1745H117.54V45.1061H126.592V33.1745ZM145.963 52.5452C145.963 41.8471 137.29 33.1745 126.592 33.1745V45.1061C130.701 45.1061 134.031 48.4367 134.031 52.5452H145.963ZM145.963 105.271V52.5452H134.031V105.271H145.963ZM126.592 124.642C137.29 124.642 145.963 115.969 145.963 105.271H134.031C134.031 109.38 130.701 112.71 126.592 112.71V124.642ZM100.688 124.642H126.592V112.71H100.688V124.642ZM106.654 136.338V118.676H94.7222V136.338H106.654ZM62.4719 142.303H100.688V130.372H62.4719V142.303ZM56.4435 136.05L56.5385 136.958L68.4053 135.717L68.3103 134.809L56.4435 136.05ZM64.4598 127.321C63.2294 128.849 61.7271 129.469 61.1423 129.593L63.6116 141.266C66.7062 140.612 70.688 138.612 73.7548 134.802L64.4598 127.321ZM66.3622 119.168C66.7243 123.548 65.5412 125.977 64.4598 127.321L73.7548 134.802C76.9062 130.886 78.8469 125.365 78.2532 118.185L66.3622 119.168ZM39.4602 124.642H72.3077V112.71H39.4602V124.642ZM20.0895 105.271C20.0895 115.969 28.7621 124.642 39.4602 124.642V112.71C35.3517 112.71 32.0211 109.38 32.0211 105.271H20.0895ZM20.0895 101.249V105.271H32.0211V101.249H20.0895ZM32.0211 101.249V100.331H20.0895V101.249H32.0211ZM20.0895 95.8873V100.331H32.0211V95.8873H20.0895ZM20.319 101.853H26.0553V89.9215H20.319V101.853ZM0.94827 82.4824C0.94827 93.1805 9.62085 101.853 20.319 101.853V89.9215C16.2105 89.9215 12.8799 86.5909 12.8799 82.4824H0.94827ZM0.94827 19.4793V82.4824H12.8799V19.4793H0.94827ZM20.319 0.10856C9.62083 0.10856 0.94827 8.78113 0.94827 19.4793H12.8799C12.8799 15.3708 16.2105 12.0401 20.319 12.0401V0.10856ZM49.363 0.10856H20.319V12.0401H49.363V0.10856ZM50.3305 0.132434C50.0095 0.116565 49.6869 0.10856 49.363 0.10856V12.0401C49.4903 12.0401 49.6164 12.0433 49.7413 12.0495L50.3305 0.132434ZM44.0717 6.25218L44.0751 6.33487L55.9967 5.84703L55.9933 5.76434L44.0717 6.25218Z" fill="white"/>
<rect x="6.45891" y="6.52428" width="54.936" height="88.8951" rx="12.946" fill="#8C73F4" stroke="black" stroke-width="0.917814"/>
<path d="M61.5586 135.869C65.4311 135.05 72.9081 130.418 71.8357 118.442H94.1772H99.3158V135.869H83.4533H61.5586Z" fill="#FCCB4C"/>
<path d="M83.4533 135.869H99.3158V118.442H94.1772M83.4533 135.869H61.5586C65.4311 135.05 72.9081 130.418 71.8357 118.442H94.1772M83.4533 135.869C87.4748 135.273 95.2496 130.954 94.1772 118.442" stroke="black" stroke-width="0.917814"/>
<rect x="25.5995" y="39.5892" width="113.024" height="78.618" rx="12.946" fill="#FCCB4C" stroke="black" stroke-width="0.917814"/>
<rect x="25.5995" y="39.5892" width="113.024" height="78.618" rx="12.946" fill="#FCCB4C" stroke="black" stroke-width="0.917814"/>
<path d="M112.926 39.4991L118.414 39.6348C125.686 39.8146 131.487 45.7613 131.487 53.0356V104.567C131.487 111.971 125.486 117.972 118.082 117.972H114.991" stroke="black" stroke-width="0.917814"/>
<line x1="25.1406" y1="100.78" x2="131.933" y2="100.78" stroke="black" stroke-width="0.917814"/>
<circle cx="99.7611" cy="93.1976" r="2.22208" stroke="black" stroke-width="0.917814"/>
<circle cx="88.1419" cy="93.1976" r="2.22208" stroke="black" stroke-width="0.917814"/>
<circle cx="76.5286" cy="93.1976" r="2.22208" stroke="black" stroke-width="0.917814"/>
<path d="M39.959 66.5743H58.3153V86.7662C58.3153 91.3283 54.617 95.0265 50.0549 95.0265H39.959V66.5743Z" fill="#43C37E"/>
<path fill-rule="evenodd" clip-rule="evenodd" d="M59.2344 39.9584V82.3834C59.2344 89.7868 53.2328 95.7884 45.8295 95.7884H25.2754V53.3633C25.2754 45.96 31.277 39.9584 38.6803 39.9584H59.2344Z" fill="#43C37E"/>
<circle cx="64.9095" cy="93.1976" r="2.22208" stroke="black" stroke-width="0.917814"/>
<circle cx="34.1515" cy="84.2602" r="4.45623" stroke="black" stroke-width="0.917814"/>
<circle cx="80.548" cy="109.729" r="4.45623" stroke="black" stroke-width="0.917814"/>
<path d="M64.1636 81.2675C67.804 82.2868 73.0094 81.7763 77.5535 80.7121C81.0146 79.9015 84.6523 79.8732 88.0603 80.8842C102.867 85.2769 107.641 81.0347 110.675 73.3117C114.041 64.7438 107.309 56.7879 102.107 55.5639C96.9052 54.3399 89.2553 58.6239 82.8294 58.6239C76.4034 58.6239 64.1636 48.0723 56.5137 58.6239C47.6399 70.8638 56.5137 79.1256 64.1636 81.2675Z" fill="white" stroke="black" stroke-width="0.917814"/>
<path d="M83.4395 54.034C83.8474 51.28 86.2546 45.7109 92.6193 45.4661C91.8033 48.3221 88.825 54.034 83.4395 54.034Z" fill="#43C37E" stroke="black" stroke-width="0.917814"/>
<rect x="59.2344" y="50.0541" width="1.83563" height="32.1235" fill="#FCCB4C"/>
<rect x="6.45891" y="6.52428" width="54.936" height="88.8951" rx="12.946" stroke="black" stroke-width="0.917814"/>
<path d="M49.1366 6.45787V6.45787C54.3677 6.24374 58.7254 10.4267 58.7254 15.6621V85.823C58.7254 91.3118 54.1623 95.7001 48.6777 95.4858V95.4858" stroke="black" stroke-width="0.917814"/>
<rect x="25.5995" y="39.5892" width="113.024" height="78.618" rx="12.946" stroke="black" stroke-width="0.917814"/>
</svg>
