<svg  preserveAspectRatio="none" width="185" height="109" viewBox="0 0 185 109" fill="none" xmlns="http://www.w3.org/2000/svg">
<path d="M64.0967 26.8189C64.0967 26.8189 78.4205 18.0042 100.733 20.4833" stroke="white" stroke-width="0.881467"/>
<g filter="url(#filter0_d_568_2567)">
<path d="M104.692 94.2609C104.28 94.9892 103.237 95.9892 101.366 94.8131L94.7015 90.4196C93.5107 89.7662 91.0467 88.204 91.5418 92.6409C91.8078 95.0256 88.7308 99.9246 83.5431 95.598C79.6812 92.3773 82.4111 87.9804 84.7353 87.7943C84.7525 87.7929 87.1698 87.247 87.1844 87.2384C88.2363 86.6198 87.2712 85.4644 85.9372 84.5274L76.4852 78.1717C75.8378 77.7137 75.6563 76.4066 76.0509 75.7187L83.5829 65.0223C83.8481 64.5768 84.3825 64.3666 84.8774 64.5211C85.9461 64.8548 87.0644 65.9845 87.7897 68.0364C88.6811 70.558 89.3568 67.7514 90.6756 65.0223C91.9943 62.2931 94.453 60.9803 91.8812 61.3071C89.4884 61.6112 87.2554 60.5648 87.1934 59.3958C87.1542 58.6566 90.9584 52.6177 93.141 49.4419C93.8596 48.3964 95.3004 48.1259 96.3475 48.8421L119.237 64.4986C120.1 65.0888 120.37 66.2396 119.86 67.1518L104.692 94.2609Z" fill="white" stroke="white" stroke-width="8.26375" stroke-linecap="round" stroke-linejoin="round"/>
<path d="M49.4352 98.5455C48.9716 98.4677 47.9076 98.2316 48.1702 97.0176L49.5862 91.7306C49.7032 90.9763 50.0562 89.3753 47.8073 90.4872C46.5986 91.0848 43.421 90.3982 44.7123 86.8286C45.6735 84.1714 48.5193 84.7708 49.0631 85.9629C49.0671 85.9717 49.8187 87.144 49.8261 87.1501C50.3545 87.5872 50.7798 86.8559 51.0191 85.9717L52.565 79.7607C52.6829 79.3309 53.3386 78.9845 53.7775 79.0611L60.8714 80.9899C61.1575 81.0446 61.371 81.2866 61.3842 81.5777C61.4127 82.2062 61.0303 83.0134 60.0854 83.7898C58.9242 84.7439 60.2038 86.717 61.8982 86.8906C63.5926 87.0642 65.0897 85.9573 64.4242 84.6614C63.805 83.4557 63.9298 82.0756 64.5354 81.8188C64.9184 81.6565 68.8375 82.5086 70.9333 83.053C71.6233 83.2322 72.0424 83.9414 71.8647 84.6318L67.9811 99.7238C67.4214 103.123 66.0249 102.333 65.4453 102.239L49.4352 98.5455Z" fill="white" stroke="white" stroke-width="8.26375" stroke-miterlimit="10" stroke-linecap="round" stroke-linejoin="round"/>
<path d="M5.21417 72.4959C5.21417 72.4959 25.6267 79.5907 34.4321 61.0294" stroke="white" stroke-width="8.26375" stroke-miterlimit="10" stroke-linecap="round" stroke-linejoin="round"/>
<path d="M9.47732 92.946C9.47732 92.946 30.4528 95.3728 41.4741 69.9738" stroke="white" stroke-width="8.26375" stroke-miterlimit="10" stroke-linecap="round" stroke-linejoin="round"/>
<path d="M38.557 68.5185C38.557 68.5185 44.0886 73.8016 53.7952 68.3376C63.5018 62.8737 66.0786 51.8593 66.4003 48.9346C66.7258 45.9751 66.5684 29.2523 63.9927 30.5161C61.417 31.7799 39.4771 45.1122 32.4499 51.8868" fill="white"/>
<path d="M38.557 68.5185C38.557 68.5185 44.0886 73.8016 53.7952 68.3376C63.5018 62.8737 66.0786 51.8593 66.4003 48.9346C66.7258 45.9751 66.5684 29.2523 63.9927 30.5161C61.417 31.7799 39.4771 45.1122 32.4499 51.8868" stroke="white" stroke-width="8.26375" stroke-miterlimit="10" stroke-linecap="round" stroke-linejoin="round"/>
<path d="M50.2124 49.8252C54.1856 44.6376 54.4594 39.8382 54.4594 39.8382C54.5342 39.3438 54.5745 38.8521 54.5842 38.3731C54.6774 33.7237 50.044 31.6086 47.7172 38.5131C45.1506 46.1289 37.994 53.5095 37.994 53.5095L32.7159 49.9642C30.8645 50.9033 29.2685 56.2109 34.3086 61.1296" fill="white"/>
<path d="M50.2124 49.8252C54.1856 44.6376 54.4594 39.8382 54.4594 39.8382C54.5342 39.3438 54.5745 38.8521 54.5842 38.3731C54.6774 33.7237 50.044 31.6086 47.7172 38.5131C45.1506 46.1289 37.994 53.5095 37.994 53.5095L32.7159 49.9642C30.8645 50.9033 29.2685 56.2109 34.3086 61.1296" stroke="white" stroke-width="8.26375" stroke-miterlimit="10" stroke-linecap="round" stroke-linejoin="round"/>
<path d="M60.2691 45.7005C60.2691 45.7005 62.0766 40.4729 59.1253 38.2365C56.1739 36.0001 54.5821 38.3731 54.5821 38.3731" stroke="white" stroke-width="8.26375" stroke-miterlimit="10" stroke-linecap="round" stroke-linejoin="round"/>
<path d="M39.1054 54.2075L31.3037 49.0165C30.686 48.5849 30.6547 47.0747 31.513 45.93L49.8326 20.4694C50.3223 19.7881 51.2339 18.7276 53.2292 20.1911L62.9927 27.6967C62.9927 27.6967 63.3266 29.4965 61.0079 30.3692C58.6892 31.2418 57.6861 35.0747 60.8547 37.0616C62.4685 38.0735 67.1814 38.2299 66.5969 33.2766C66.3459 32.2498 67.8026 30.6783 68.7439 31.3129L79.1238 38.1719C79.8772 38.6697 80.3615 40.2266 79.8466 40.9742L73.5926 50.2541C73.5926 50.2541 72.1813 52.6488 75.9957 53.0625C76.3843 53.1047 76.8957 53.1952 77.3906 53.1794C79.2702 53.1193 82.0886 54.3946 79.8924 58.7984C76.3985 63.4133 73.543 61.0234 73.1869 58.7378C72.9154 56.996 70.5677 55.3264 69.4638 56.5968C69.4793 56.5783 69.4482 56.6147 69.4638 56.5968C68.255 58.0401 64.0373 63.7178 62.2261 66.4924C61.7749 67.1836 60.704 67.6435 60.0372 67.1644L57.8541 65.6266" fill="white"/>
<path d="M39.1054 54.2074L31.3037 49.0165C30.686 48.5849 30.6547 47.0747 31.513 45.93L49.8326 20.4694C50.3223 19.7881 51.2339 18.7276 53.2292 20.1911L62.9927 27.6967C62.9927 27.6967 63.3266 29.4965 61.0079 30.3692C58.6892 31.2418 57.6861 35.0747 60.8547 37.0616C62.4685 38.0735 67.1814 38.2299 66.5969 33.2766C66.3459 32.2498 67.8026 30.6783 68.7439 31.3129L79.1238 38.1719C79.8772 38.6697 80.3615 40.2266 79.8466 40.9742L73.5926 50.2541C73.5926 50.2541 72.1813 52.6488 75.9957 53.0625C76.3843 53.1047 76.8957 53.1952 77.3906 53.1794C79.2702 53.1193 82.0886 54.3946 79.8924 58.7984C76.3985 63.4133 73.543 61.0234 73.1869 58.7378C72.9154 56.996 70.5677 55.3264 69.4638 56.5968M69.4638 56.5968C69.4482 56.6147 69.4793 56.5783 69.4638 56.5968ZM69.4638 56.5968C68.255 58.0401 64.0373 63.7178 62.2261 66.4924C61.7749 67.1836 60.704 67.6435 60.0372 67.1644L57.8541 65.6266" stroke="white" stroke-width="8.26375" stroke-miterlimit="10" stroke-linecap="round" stroke-linejoin="round"/>
<path d="M81.8906 20.9304C81.512 21.143 81.3062 22.337 81.5367 22.7077C82.462 24.1956 84.9162 27.7967 85.3379 28.6985C85.3433 28.71 85.3328 28.687 85.3379 28.6985C85.7002 29.5114 84.3756 30.2637 83.4801 30.0047C82.3051 29.6649 80.5218 30.4997 81.9533 33.2051C83.5735 35.2414 84.8142 34.1754 85.2053 33.2611C85.3082 33.0204 85.4659 32.7955 85.5729 32.6187C86.6232 30.8828 87.4557 32.0942 87.4557 32.0942L90.5066 37.1645C90.7499 37.5783 91.6043 37.6939 92.0112 37.444L97.6172 34.001C98.1316 33.6916 97.7038 32.6424 97.1556 32.5333C94.6509 31.7071 95.7786 29.4831 96.6241 28.9357C98.2841 27.8608 99.8972 29.1977 99.7975 30.5039C99.6978 31.8102 100.635 32.0522 100.635 32.0522L106.413 29.0491C107.56 28.4197 107.256 27.7458 107.039 27.359L98.9274 12.8913C98.5705 12.2243 97.8396 11.902 97.4948 12.1016L81.8906 20.9304Z" fill="white" stroke="white" stroke-width="8.26375" stroke-miterlimit="10" stroke-linecap="round" stroke-linejoin="round"/>
<path d="M171.127 49.1856C171.127 49.1856 164.371 66.7171 143.09 65.0036" stroke="white" stroke-width="8.26375" stroke-miterlimit="10" stroke-linecap="round" stroke-linejoin="round"/>
<path d="M142.164 68.6742C142.164 68.6742 145.572 60.8947 139.865 56.5481C136.218 53.771 130.401 54.4533 126.676 55.3082C124.013 55.9193 116.632 53.3307 116.632 53.3307C116.632 53.3307 113.751 52.8826 111.767 49.2802C109.298 44.7961 104.707 50.5727 107.039 55.1647C107.969 56.9955 109.203 58.8761 116.38 63.1962C117.119 63.6406 117.349 64.5656 116.9 65.2777C113.33 70.9484 99.4639 93.6376 102.924 98.602C106.885 104.287 117.13 83.0344 117.13 83.0344" fill="white"/>
<path d="M142.164 68.6742C142.164 68.6742 145.572 60.8947 139.865 56.5481C136.218 53.771 130.401 54.4533 126.676 55.3082C124.013 55.9193 116.632 53.3307 116.632 53.3307C116.632 53.3307 113.751 52.8826 111.767 49.2802C109.298 44.7961 104.707 50.5727 107.039 55.1647C107.969 56.9955 109.203 58.8761 116.38 63.1962C117.119 63.6406 117.349 64.5656 116.9 65.2777C113.33 70.9484 99.4639 93.6376 102.924 98.602C106.885 104.287 117.13 83.0344 117.13 83.0344" stroke="white" stroke-width="8.26375" stroke-miterlimit="10" stroke-linecap="round" stroke-linejoin="round"/>
<path d="M124.636 88.5452C116.212 94.4419 116.993 78.9555 116.993 78.9555C116.993 78.9555 118.033 67.174 125.376 75.5134" fill="white"/>
<path d="M124.636 88.5452C116.212 94.4419 116.993 78.9555 116.993 78.9555C116.993 78.9555 118.033 67.174 125.376 75.5134" stroke="white" stroke-width="8.26375" stroke-miterlimit="10" stroke-linecap="round" stroke-linejoin="round"/>
<path d="M147.511 72.894C149.512 79.408 138.91 98.47 133.265 90.494C127.669 82.5858 131.339 72.2869 134.662 71.1127C137.986 69.9384 140.599 75.93 140.129 79.2776" fill="white"/>
<path d="M147.511 72.894C149.512 79.408 138.91 98.47 133.265 90.494C127.669 82.5858 131.339 72.2869 134.662 71.1127C137.986 69.9384 140.599 75.93 140.129 79.2776" stroke="white" stroke-width="8.26375" stroke-miterlimit="10" stroke-linecap="round" stroke-linejoin="round"/>
<path d="M133.264 90.4939C133.264 90.4939 128.381 95.9232 125.453 90.3846C123.118 85.9694 123.273 75.8289 127.247 73.3219C131.221 70.815 131.458 74.8011 131.458 74.8011" fill="white"/>
<path d="M133.264 90.4939C133.264 90.4939 128.381 95.9232 125.453 90.3846C123.118 85.9694 123.273 75.8289 127.247 73.3219C131.221 70.815 131.458 74.8011 131.458 74.8011" stroke="white" stroke-width="8.26375" stroke-miterlimit="10" stroke-linecap="round" stroke-linejoin="round"/>
<path d="M178.963 63.6478C178.963 63.6478 167.326 78.9457 147.755 75.0249L178.963 63.6478Z" fill="white"/>
<path d="M178.963 63.6478C178.963 63.6478 167.326 78.9457 147.755 75.0249" stroke="white" stroke-width="8.26375" stroke-miterlimit="10" stroke-linecap="round" stroke-linejoin="round"/>
<path d="M116.38 63.1963C116.38 63.1963 117.314 64.1966 120.338 65.2432L116.38 63.1963Z" fill="white"/>
<path d="M116.38 63.1963C116.38 63.1963 117.314 64.1966 120.338 65.2432" stroke="white" stroke-width="8.26375" stroke-miterlimit="10" stroke-linecap="round" stroke-linejoin="round"/>
<path d="M60.308 8.64863L68.6611 16.4294C69.043 16.7852 69.6136 16.3429 69.417 15.8434L65.1179 4.91765C64.9986 4.61449 64.6462 4.50982 64.3966 4.70343L60.3427 7.84844C60.0932 8.04196 60.0763 8.43279 60.308 8.64863Z" fill="white" stroke="white" stroke-width="8.26375" stroke-miterlimit="10" stroke-linecap="round" stroke-linejoin="round"/>
<path d="M72.311 15.2518L70.9898 8.58633C70.9578 8.42494 71.0811 8.27605 71.2348 8.2904L73.7346 8.52383L72.3255 15.2518C72.3238 15.2602 72.3127 15.2601 72.311 15.2518Z" fill="white" stroke="white" stroke-width="8.26375" stroke-miterlimit="10" stroke-linecap="round" stroke-linejoin="round"/>
<path d="M6.41088 95.4493L2.43084 72.0057C12.2959 75.4813 22.1943 72.9437 24.9513 71.005L40.0088 58.6968L41.7416 67.5203C34.977 86.5689 20.0557 98.5373 6.41088 95.4493Z" fill="white" stroke="white" stroke-width="0.881467"/>
<path d="M146.577 65.1298L137.687 69.861C134.368 71.3588 131.447 74.908 146.311 77.1231C161.175 79.3381 176.138 68.7134 181.761 63.1242L173.322 47.5097C169.596 60.969 153.368 64.8518 146.577 65.1298Z" fill="white" stroke="white" stroke-width="0.881467"/>
<path d="M104.691 94.261C104.28 94.9893 103.236 95.9894 101.365 94.8132L94.7005 90.4197C93.5097 89.7663 91.0457 88.2042 91.5408 92.641C91.8069 95.0257 88.7298 99.9247 83.5421 95.5981C79.6802 92.3774 82.4101 87.9805 84.7344 87.7944C84.7515 87.793 87.1688 87.2471 87.1834 87.2385C88.2354 86.6199 87.2702 85.4645 85.9362 84.5275L76.4842 78.1718C75.8368 77.7138 75.6553 76.4067 76.0499 75.7188L83.5819 65.0224C83.8471 64.5769 84.3815 64.3667 84.8764 64.5212C85.9452 64.8549 87.0634 65.9847 87.7887 68.0365C88.6801 70.5582 92.7574 69.615 94.0762 66.8859C95.395 64.1567 94.452 60.9805 91.8802 61.3072C89.4874 61.6113 87.2545 60.5649 87.1925 59.3959C87.1533 58.6567 90.9574 52.6178 93.1401 49.4421C93.8586 48.3966 95.2994 48.126 96.3465 48.8422L119.236 64.4988C120.099 65.0889 120.369 66.2398 119.859 67.152L104.691 94.261Z" fill="black"/>
<path d="M49.4254 98.9739C48.9618 98.896 47.8978 98.66 48.1604 97.4459L49.5765 92.1589C49.6934 91.4047 50.0464 89.8037 47.7976 90.9155C46.5889 91.5131 43.4113 90.8266 44.7025 87.257C45.6637 84.5998 48.5096 85.1991 49.0533 86.3913C49.0573 86.4 49.809 87.5723 49.8163 87.5784C50.3447 88.0155 50.77 87.2842 51.0094 86.4L52.5552 80.189C52.6731 79.7592 53.3288 79.4129 53.7678 79.4895L60.8616 81.4183C61.1477 81.473 61.3612 81.715 61.3744 82.006C61.4029 82.6345 61.0205 83.4417 60.0756 84.2181C58.9144 85.1722 60.194 87.1453 61.8884 87.3189C63.5828 87.4925 65.0799 86.3857 64.4144 85.0898C63.7952 83.8841 63.9201 82.504 64.5257 82.2472C64.9087 82.0848 68.8277 82.937 70.9236 83.4813C71.6136 83.6605 72.0326 84.3698 71.855 85.0601L67.9713 100.152C67.4116 103.552 66.0152 102.762 65.4355 102.667L49.4254 98.9739Z" fill="black" stroke="black" stroke-width="0.881467" stroke-miterlimit="10"/>
<path d="M5.20734 72.9246C5.20734 72.9246 25.6199 80.0194 34.4253 61.4581L5.20734 72.9246Z" fill="white"/>
<path d="M5.20734 72.9246C5.20734 72.9246 25.6199 80.0194 34.4253 61.4581" stroke="black" stroke-width="0.881467" stroke-miterlimit="10"/>
<path d="M9.4656 93.3746C9.4656 93.3746 30.4411 95.8014 41.4624 70.4024L9.4656 93.3746Z" fill="white"/>
<path d="M9.4656 93.3746C9.4656 93.3746 30.4411 95.8014 41.4624 70.4024" stroke="black" stroke-width="0.881467" stroke-miterlimit="10"/>
<path d="M38.5445 68.9472C38.5445 68.9472 44.0761 74.2303 53.7827 68.7663C63.4893 63.3024 66.0661 52.288 66.3878 49.3633C66.7133 46.4037 63.9448 43.6425 61.3691 44.9063C58.7934 46.1701 61.701 49.1663 54.6739 55.9409" fill="white"/>
<path d="M38.5445 68.9472C38.5445 68.9472 44.0761 74.2303 53.7827 68.7663C63.4893 63.3024 66.0661 52.288 66.3878 49.3633C66.7133 46.4037 63.9448 43.6425 61.3691 44.9063C58.7934 46.1701 61.701 49.1663 54.6739 55.9409" stroke="black" stroke-width="0.881467" stroke-miterlimit="10"/>
<path d="M50.1997 50.2538C54.1729 45.0661 54.4467 40.2667 54.4467 40.2667C54.5215 39.7724 54.5618 39.2807 54.5715 38.8017C54.6647 34.1523 50.0313 32.0372 47.7045 38.9417C45.1379 46.5575 37.9813 53.938 37.9813 53.938L32.7032 50.3927C30.8518 51.3319 29.2558 56.6395 34.2959 61.5582" fill="white"/>
<path d="M50.1997 50.2538C54.173 45.0661 54.4467 40.2667 54.4467 40.2667C54.5215 39.7724 54.5618 39.2807 54.5715 38.8017C54.6647 34.1523 50.0313 32.0372 47.7045 38.9417C45.1379 46.5575 37.9813 53.938 37.9813 53.938L32.7032 50.3927C30.8518 51.3319 29.2558 56.6395 34.2959 61.5582" stroke="black" stroke-width="0.881467" stroke-miterlimit="10"/>
<path d="M60.2593 46.1293C60.2593 46.1293 62.0669 40.9017 59.1155 38.6653C56.1641 36.4289 54.5723 38.8019 54.5723 38.8019" fill="white"/>
<path d="M60.2593 46.1293C60.2593 46.1293 62.0669 40.9017 59.1155 38.6653C56.1641 36.4289 54.5723 38.8019 54.5723 38.8019" stroke="black" stroke-width="0.881467" stroke-miterlimit="10"/>
<path d="M39.0927 54.6359L31.2911 49.445C30.6733 49.0134 30.642 47.5032 31.5003 46.3585L49.8199 20.8978C50.3096 20.2166 51.2213 19.1561 53.2165 20.6196L62.98 28.1252C62.98 28.1252 63.3139 29.925 60.9952 30.7977C58.6765 31.6703 57.6734 35.5032 60.842 37.49C62.4558 38.5019 67.1687 38.6584 66.5842 33.7051C66.3332 32.6782 67.7899 31.1068 68.7312 31.7414L79.1111 38.6004C79.8645 39.0982 80.3488 40.655 79.8339 41.4027L73.5799 50.6826C73.5799 50.6826 72.1686 53.0773 75.983 53.491C76.3716 53.5331 76.883 53.6237 77.3779 53.6079C79.2575 53.5478 82.0759 54.823 79.8797 59.2269C76.3858 63.8418 73.5304 61.4519 73.1742 59.1663C72.9027 57.4245 70.555 55.7549 69.4511 57.0253M69.4511 57.0253C69.4355 57.0432 69.4666 57.0068 69.4511 57.0253ZM69.4511 57.0253C68.2423 58.4685 64.0246 64.1462 62.2134 66.9208C61.7622 67.612 60.6913 68.0719 60.0245 67.5928L57.8415 66.0551" stroke="black" stroke-width="0.881467" stroke-miterlimit="10"/>
<path d="M81.8789 21.3586C81.5003 21.5712 81.2945 22.7653 81.525 23.1359C82.4503 24.6238 84.9045 28.2249 85.3262 29.1267C85.3316 29.1382 85.3211 29.1152 85.3262 29.1267C85.6885 29.9396 84.3638 30.6919 83.4684 30.4329C82.2934 30.0931 80.5101 30.9279 81.9416 33.6333C83.5617 35.6697 84.8025 34.6037 85.1935 33.6893C85.2965 33.4486 85.4541 33.2237 85.5611 33.0469C86.6115 31.311 87.444 32.5224 87.444 32.5224L90.4949 37.5927C90.7382 38.0065 91.5926 38.1221 91.9994 37.8722L97.6055 34.4292C98.1199 34.1198 97.6921 33.0706 97.1439 32.9615C94.6392 32.1353 95.7669 29.9114 96.6124 29.3639C98.2724 28.289 99.8854 29.6259 99.7858 30.9322C99.6861 32.2384 100.623 32.4804 100.623 32.4804L106.402 29.4773C107.549 28.8479 107.244 28.1741 107.027 27.7872L98.9157 13.3196C98.5588 12.6525 97.8279 12.3302 97.4831 12.5298L81.8789 21.3586Z" fill="black" stroke="black" stroke-width="0.881467" stroke-miterlimit="10"/>
<path d="M171.114 49.614C171.114 49.614 164.359 67.1454 143.077 65.4319" stroke="black" stroke-width="0.881467" stroke-miterlimit="10"/>
<path d="M142.152 69.1026C142.152 69.1026 145.56 61.3232 139.852 56.9765C136.205 54.1995 130.389 54.8818 126.663 55.7366C124 56.3477 116.619 53.7592 116.619 53.7592C116.619 53.7592 113.739 53.3111 111.755 49.7086C109.285 45.2246 104.694 51.0012 107.026 55.5931C107.956 57.424 109.191 59.3045 116.368 63.6246C117.106 64.0691 117.336 64.9941 116.888 65.7061C113.318 71.3769 99.4512 94.0661 102.911 99.0304C106.872 104.715 117.117 83.4629 117.117 83.4629" stroke="black" stroke-width="0.881467" stroke-miterlimit="10"/>
<path d="M124.621 88.9735C116.196 94.8702 116.977 79.3839 116.977 79.3839C116.977 79.3839 118.017 67.6023 125.361 75.9418" stroke="black" stroke-width="0.881467" stroke-miterlimit="10"/>
<path d="M147.498 73.3225C149.5 79.8365 138.897 98.8985 133.253 90.9224C127.656 83.0143 131.326 72.7154 134.65 71.5412C137.973 70.3669 140.586 76.3585 140.116 79.7061" stroke="black" stroke-width="0.881467" stroke-miterlimit="10"/>
<path d="M133.251 90.9224C133.251 90.9224 128.368 96.3517 125.44 90.8131C123.105 86.3978 123.26 76.2574 127.234 73.7504C131.208 71.2435 131.445 75.2296 131.445 75.2296" stroke="black" stroke-width="0.881467" stroke-miterlimit="10"/>
<path d="M178.951 64.0762C178.951 64.0762 167.314 79.374 147.742 75.4533" stroke="black" stroke-width="0.881467" stroke-miterlimit="10"/>
<path d="M126.322 67.3113C126.322 67.3113 123.401 69.4541 122.782 73.2604" stroke="black" stroke-width="0.881466" stroke-miterlimit="10"/>
<path d="M111.243 63.455C111.243 63.455 112.498 64.441 116.542 65.4889" stroke="black" stroke-width="0.881467" stroke-miterlimit="10"/>
<path d="M60.3119 8.64863L68.665 16.4294C69.0469 16.7852 69.6175 16.3429 69.4209 15.8434L65.1218 4.91765C65.0025 4.61449 64.6501 4.50982 64.4005 4.70343L60.3466 7.84844C60.0971 8.04196 60.0802 8.43279 60.3119 8.64863Z" fill="black" stroke="black" stroke-width="0.881467" stroke-miterlimit="10"/>
<path d="M72.311 15.2518L70.9898 8.58633C70.9578 8.42494 71.0811 8.27605 71.2348 8.2904L73.7346 8.52383L72.3255 15.2518C72.3238 15.2602 72.3127 15.2601 72.311 15.2518Z" fill="black" stroke="black" stroke-width="0.881467" stroke-miterlimit="10"/>
</g>
<defs>
<filter id="filter0_d_568_2567" x="0.530138" y="0.462158" width="184.218" height="108.258" filterUnits="userSpaceOnUse" color-interpolation-filters="sRGB">
<feFlood flood-opacity="0" result="BackgroundImageFix"/>
<feColorMatrix in="SourceAlpha" type="matrix" values="0 0 0 0 0 0 0 0 0 0 0 0 0 0 0 0 0 0 127 0" result="hardAlpha"/>
<feOffset dx="0.550917" dy="1.10183"/>
<feGaussianBlur stdDeviation="0.550917"/>
<feComposite in2="hardAlpha" operator="out"/>
<feColorMatrix type="matrix" values="0 0 0 0 0 0 0 0 0 0 0 0 0 0 0 0 0 0 0.25 0"/>
<feBlend mode="normal" in2="BackgroundImageFix" result="effect1_dropShadow_568_2567"/>
<feBlend mode="normal" in="SourceGraphic" in2="effect1_dropShadow_568_2567" result="shape"/>
</filter>
</defs>
</svg>
