<svg  preserveAspectRatio="none" width="106" height="134" viewBox="0 0 106 134" fill="none" xmlns="http://www.w3.org/2000/svg">
<g filter="url(#filter0_d_568_2419)">
<path d="M67.1523 74.245C70.875 75.5648 73.5413 79.1171 73.5413 83.2921C73.5413 86.1193 72.3188 88.6608 70.3735 90.417" fill="white"/>
<path d="M67.1523 74.245C70.875 75.5648 73.5413 79.1171 73.5413 83.2921C73.5413 86.1193 72.3188 88.6608 70.3735 90.417" stroke="white" stroke-width="10.8784" stroke-miterlimit="10" stroke-linecap="round" stroke-linejoin="round"/>
<path d="M34.9268 62.5135H69.1731V29.9505C69.1731 22.7838 66.4623 15.8205 61.3936 10.7538C58.7256 8.08692 55.5269 5.99976 52.0499 5.99976C48.573 5.99976 45.3743 8.08692 42.7063 10.7538C37.6376 15.8204 34.9268 22.7838 34.9268 29.9505V62.5135Z" fill="white" stroke="white" stroke-width="10.8784" stroke-miterlimit="10" stroke-linecap="round" stroke-linejoin="round"/>
<path d="M34.9272 32.1732L25.6298 44.6062C23.7897 47.0669 22.5976 49.9507 22.163 52.9925L19.7944 69.5729C19.6116 70.8523 21.0273 71.7462 22.1038 71.0312L34.9272 62.5136V32.1732Z" fill="white" stroke="white" stroke-width="10.8784" stroke-miterlimit="10" stroke-linecap="round" stroke-linejoin="round"/>
<path d="M69.1729 32.1732L78.4703 44.6062C80.3104 47.0669 81.5025 49.9507 81.937 52.9925L84.3057 69.5729C84.4885 70.8523 83.0728 71.7462 81.9963 71.0312L69.1729 62.5136V32.1732Z" fill="white" stroke="white" stroke-width="10.8784" stroke-miterlimit="10" stroke-linecap="round" stroke-linejoin="round"/>
<path d="M52.0498 38.2357C55.398 38.2357 58.1123 35.5214 58.1123 32.1732C58.1123 28.825 55.398 26.1107 52.0498 26.1107C48.7016 26.1107 45.9873 28.825 45.9873 32.1732C45.9873 35.5214 48.7016 38.2357 52.0498 38.2357Z" fill="white" stroke="white" stroke-width="10.8784" stroke-miterlimit="10" stroke-linecap="round" stroke-linejoin="round"/>
<path d="M66.0065 68.0265H38.0934C36.3445 68.0265 34.9268 66.6087 34.9268 64.8598V62.5135H69.1732V64.8598C69.1732 66.6087 67.7554 68.0265 66.0065 68.0265Z" fill="white" stroke="white" stroke-width="10.8784" stroke-miterlimit="10" stroke-linecap="round" stroke-linejoin="round"/>
<path d="M38.0937 68.0265L25.8506 125.586H77.7615L66.0068 68.0265H38.0937Z" fill="white" stroke="white" stroke-width="10.8784" stroke-miterlimit="10" stroke-linecap="round" stroke-linejoin="round"/>
<path d="M34.9267 85.6176C37.9168 85.6176 40.3407 83.1936 40.3407 80.2036C40.3407 77.2135 37.9168 74.7896 34.9267 74.7896C31.9366 74.7896 29.5127 77.2135 29.5127 80.2036C29.5127 83.1936 31.9366 85.6176 34.9267 85.6176Z" fill="white" stroke="white" stroke-width="10.8784" stroke-miterlimit="10" stroke-linecap="round" stroke-linejoin="round"/>
<path d="M28.7969 113.454L26.3125 125.134H38.2552C38.2552 119.391 34.1996 114.598 28.7969 113.454Z" fill="white" stroke="white" stroke-width="10.8784" stroke-miterlimit="10" stroke-linecap="round" stroke-linejoin="round"/>
<path d="M48.306 109.44C53.7238 109.44 58.1158 105.048 58.1158 99.6304C58.1158 94.2126 53.7238 89.8206 48.306 89.8206C42.8881 89.8206 38.4961 94.2126 38.4961 99.6304C38.4961 105.048 42.8881 109.44 48.306 109.44Z" fill="white" stroke="white" stroke-width="10.8784" stroke-miterlimit="10" stroke-linecap="round" stroke-linejoin="round"/>
<path d="M54.3477 125.586C55.3558 121.957 58.6836 119.294 62.6334 119.294C66.4435 119.294 69.5726 122.154 70.7014 125.586" fill="white"/>
<path d="M54.3477 125.586C55.3558 121.957 58.6836 119.294 62.6334 119.294C66.4435 119.294 69.5726 122.154 70.7014 125.586" stroke="white" stroke-width="10.8784" stroke-miterlimit="10" stroke-linecap="round" stroke-linejoin="round"/>
<path d="M66.6709 115.718C67.8171 115.718 68.7462 114.789 68.7462 113.643C68.7462 112.497 67.8171 111.568 66.6709 111.568C65.5248 111.568 64.5957 112.497 64.5957 113.643C64.5957 114.789 65.5248 115.718 66.6709 115.718Z" fill="white" stroke="white" stroke-width="10.8784" stroke-miterlimit="10" stroke-linecap="round" stroke-linejoin="round"/>
<path d="M37.0527 19.2496H67.153" stroke="white" stroke-width="10.8784" stroke-miterlimit="10" stroke-linecap="round" stroke-linejoin="round"/>
<path d="M64.5957 72.4001L70.3446 101.7" stroke="white" stroke-width="10.8784" stroke-miterlimit="10" stroke-linecap="round" stroke-linejoin="round"/>
<path d="M34.9275 93.4192L32.2842 107.432" stroke="white" stroke-width="10.8784" stroke-miterlimit="10" stroke-linecap="round" stroke-linejoin="round"/>
<line x1="5.66966" y1="124.561" x2="97.0075" y2="124.561" stroke="white" stroke-width="10.8784" stroke-linecap="round" stroke-linejoin="round"/>
<path d="M66.5967 74.245C70.3194 75.5648 72.9856 79.1171 72.9856 83.2921C72.9856 86.1193 71.7631 88.6608 69.8178 90.417" fill="white"/>
<path d="M66.5967 74.245C70.3194 75.5648 72.9856 79.1171 72.9856 83.2921C72.9856 86.1193 71.7631 88.6608 69.8178 90.417" stroke="#262626" stroke-width="0.725225" stroke-miterlimit="10"/>
<path d="M34.3721 62.5135H68.6185V29.9505C68.6185 22.7838 65.9076 15.8205 60.8389 10.7538C58.1709 8.08692 54.9722 5.99976 51.4953 5.99976C48.0183 5.99976 44.8196 8.08692 42.1516 10.7538C37.0829 15.8204 34.3721 22.7838 34.3721 29.9505V62.5135Z" stroke="#262626" stroke-width="0.725225" stroke-miterlimit="10"/>
<path d="M34.3725 32.1732L25.0751 44.6062C23.235 47.0669 22.0429 49.9507 21.6083 52.9925L19.2397 69.5729C19.0569 70.8523 20.4726 71.7462 21.5491 71.0312L34.3725 62.5136V32.1732Z" fill="#262626" stroke="#262626" stroke-width="0.725225" stroke-miterlimit="10"/>
<path d="M68.6182 32.1732L77.9156 44.6062C79.7557 47.0669 80.9478 49.9507 81.3823 52.9925L83.751 69.5729C83.9338 70.8523 82.5181 71.7462 81.4416 71.0312L68.6182 62.5136V32.1732Z" fill="#262626" stroke="#262626" stroke-width="0.725225" stroke-miterlimit="10"/>
<path d="M51.4951 38.2357C54.8433 38.2357 57.5576 35.5214 57.5576 32.1732C57.5576 28.825 54.8433 26.1107 51.4951 26.1107C48.1469 26.1107 45.4326 28.825 45.4326 32.1732C45.4326 35.5214 48.1469 38.2357 51.4951 38.2357Z" fill="#262626" stroke="#262626" stroke-width="0.725225" stroke-miterlimit="10"/>
<path d="M65.4518 68.0265H37.5387C35.7898 68.0265 34.3721 66.6087 34.3721 64.8598V62.5135H68.6185V64.8598C68.6185 66.6087 67.2007 68.0265 65.4518 68.0265Z" fill="#262626" stroke="#262626" stroke-width="0.725225" stroke-miterlimit="10"/>
<path d="M37.539 68.0265L25.2959 125.586H77.2068L65.4521 68.0265H37.539Z" stroke="#262626" stroke-width="0.725225" stroke-miterlimit="10"/>
<path d="M34.373 85.6176C37.3631 85.6176 39.787 83.1936 39.787 80.2036C39.787 77.2135 37.3631 74.7896 34.373 74.7896C31.3829 74.7896 28.959 77.2135 28.959 80.2036C28.959 83.1936 31.3829 85.6176 34.373 85.6176Z" fill="white" stroke="#262626" stroke-width="0.725225" stroke-miterlimit="10"/>
<path d="M28.2412 113.454L25.7568 125.134H37.6995C37.6995 119.39 33.6439 114.598 28.2412 113.454Z" fill="#262626" stroke="#262626" stroke-width="0.725225" stroke-miterlimit="10"/>
<path d="M47.7483 109.44C53.1662 109.44 57.5582 105.048 57.5582 99.6304C57.5582 94.2126 53.1662 89.8206 47.7483 89.8206C42.3305 89.8206 37.9385 94.2126 37.9385 99.6304C37.9385 105.048 42.3305 109.44 47.7483 109.44Z" fill="#262626" stroke="#262626" stroke-width="0.725225" stroke-miterlimit="10"/>
<path d="M53.793 125.586C54.8011 121.957 58.1289 119.294 62.0787 119.294C65.8888 119.294 69.0179 122.154 70.1467 125.586" fill="white"/>
<path d="M53.793 125.586C54.8011 121.957 58.1289 119.294 62.0787 119.294C65.8888 119.294 69.0179 122.154 70.1467 125.586" stroke="#262626" stroke-width="0.725225" stroke-miterlimit="10"/>
<path d="M66.1163 115.718C67.2624 115.718 68.1915 114.789 68.1915 113.643C68.1915 112.497 67.2624 111.568 66.1163 111.568C64.9701 111.568 64.041 112.497 64.041 113.643C64.041 114.789 64.9701 115.718 66.1163 115.718Z" fill="#262626" stroke="#262626" stroke-width="0.725225" stroke-miterlimit="10"/>
<path d="M36.498 19.2496H66.5984" stroke="#262626" stroke-width="0.725225" stroke-miterlimit="10"/>
<path d="M64.041 72.4L69.7899 101.699" stroke="#262626" stroke-width="0.725225" stroke-miterlimit="10"/>
<path d="M34.3728 93.4192L31.7295 107.432" stroke="#262626" stroke-width="0.725225" stroke-miterlimit="10"/>
<line x1="4.7002" y1="125.727" x2="97.4209" y2="125.727" stroke="#262626" stroke-width="0.725225"/>
</g>
<defs>
<filter id="filter0_d_568_2419" x="0.230469" y="0.560547" width="105.117" height="133.367" filterUnits="userSpaceOnUse" color-interpolation-filters="sRGB">
<feFlood flood-opacity="0" result="BackgroundImageFix"/>
<feColorMatrix in="SourceAlpha" type="matrix" values="0 0 0 0 0 0 0 0 0 0 0 0 0 0 0 0 0 0 127 0" result="hardAlpha"/>
<feOffset dx="1.45045" dy="1.45045"/>
<feGaussianBlur stdDeviation="0.725225"/>
<feComposite in2="hardAlpha" operator="out"/>
<feColorMatrix type="matrix" values="0 0 0 0 0 0 0 0 0 0 0 0 0 0 0 0 0 0 0.25 0"/>
<feBlend mode="normal" in2="BackgroundImageFix" result="effect1_dropShadow_568_2419"/>
<feBlend mode="normal" in="SourceGraphic" in2="effect1_dropShadow_568_2419" result="shape"/>
</filter>
</defs>
</svg>
