<svg width="16" height="14" viewBox="0 0 16 14" fill="none" xmlns="http://www.w3.org/2000/svg">
<path d="M15.6979 0.192459C15.4249 -0.0301416 14.9963 -0.0619917 14.553 0.109159H14.5523C14.0861 0.289059 1.35691 5.54047 0.838721 5.75503C0.74447 5.78653 -0.078672 6.08193 0.00611675 6.73993C0.081808 7.33318 0.743379 7.57888 0.824165 7.60723L4.06033 8.67298C4.27503 9.36039 5.06651 11.8965 5.24155 12.4383C5.35072 12.776 5.52867 13.2198 5.84053 13.3112C6.11418 13.4127 6.38638 13.3199 6.56251 13.1869L8.54103 11.4219L11.735 13.8176L11.811 13.8614C12.0279 13.9538 12.2357 14 12.434 14C12.5872 14 12.7343 13.9724 12.8747 13.917C13.3533 13.728 13.5447 13.2895 13.5647 13.2398L15.9504 1.31281C16.096 0.675811 15.8936 0.35171 15.6979 0.192459ZM6.9144 9.09929L5.8227 11.8993L4.731 8.39928L13.1007 2.44927L6.9144 9.09929Z" fill="white"/>
</svg>
