<svg preserveAspectRatio="none" width="113" height="136" viewBox="0 0 113 136" fill="none" xmlns="http://www.w3.org/2000/svg">
<g filter="url(#filter0_d_568_2459)">
<path fill-rule="evenodd" clip-rule="evenodd" d="M76.0848 16.0184C76.077 14.5039 75.9593 9.06062 74.7048 6.13353C71.5665 4.54805 66.1835 5.08861 66.1835 5.08861C66.1835 5.08861 61.853 12.2102 54.7286 6.13353L44.4486 8.05997C44.4486 8.05997 42.1561 16.89 33.1542 11.0718C33.1542 11.0718 27.6978 12.2102 25.2486 15.7332C26.189 20.9651 28.8491 24.8908 29.517 25.8131C29.8643 26.4425 30.9587 26.7447 33.7942 26.7372L38.4873 32.6924C38.0434 32.9208 38.0431 32.9203 38.0429 32.9199L38.0436 32.9212L38.0535 32.9415C38.0633 32.9617 38.0793 32.9957 38.1011 33.044C38.1448 33.1405 38.2115 33.2945 38.2972 33.5115C38.4686 33.9456 38.716 34.6316 39.0071 35.6142C39.5893 37.5798 40.3456 40.7306 41.0176 45.4234C42.3617 54.8105 43.3664 70.3545 41.9717 94.9012L42.8488 94.9511C42.8478 94.9714 42.8569 94.9923 42.8766 95.0051L45.3473 96.6024C42.6336 97.5542 40.4246 98.4968 38.8978 99.3822C38.1131 99.8372 37.4629 100.303 37.0179 100.779C36.6741 101.147 36.3587 101.626 36.3268 102.177C36.2537 102.455 36.168 102.808 36.0819 103.226C35.8597 104.303 35.6331 105.814 35.6148 107.56C35.5793 110.936 36.3247 115.248 39.4589 118.942C19.5515 119.521 5 121.361 5 123.54C5 126.184 26.4047 128.327 52.8087 128.327C79.2128 128.327 100.617 126.184 100.617 123.54C100.617 120.969 80.372 118.871 54.972 118.758C60.1899 118.144 66.4513 117.185 73.153 115.933C89.3701 112.903 102.562 109.202 104.496 107.233L105.49 107.349C106.035 102.705 105.215 98.3589 104.27 95.1902C103.797 93.6025 103.289 92.3012 102.899 91.3941C102.704 90.9403 102.537 90.5845 102.419 90.3402C102.36 90.218 102.312 90.1236 102.279 90.0587L102.275 90.0513C102.09 89.409 101.536 89.0095 101.003 88.7598C100.408 88.4814 99.6269 88.2856 98.7224 88.1479C97.0774 87.8976 94.8594 87.8164 92.2183 87.8885L93.0729 85.2236C93.0906 85.1685 93.0758 85.1129 93.0417 85.0738L93.1399 85.014C93.8375 84.589 93.8374 84.5889 93.8373 84.5887L93.8366 84.5876L93.8337 84.5827L93.8216 84.5628L93.7731 84.4826L93.7008 84.3626L93.5823 84.1651C93.4148 83.8852 93.1688 83.4713 92.8554 82.9368C92.2287 81.8677 91.333 80.3164 90.2586 78.3908C88.1095 74.5387 85.2476 69.192 82.3954 63.2119C80.3121 58.8441 78.2372 54.145 76.4494 49.4481L73.8897 42.0292C72.1912 36.4666 71.1426 31.2102 71.2026 26.8278L70.8036 26.8224L72.48 19.1271C75.2622 17.9573 76.3645 17.0787 76.2062 16.2761C76.188 16.1834 76.1472 16.0976 76.0848 16.0184ZM69.6784 29.8236C69.6098 28.9811 69.5718 28.1588 69.567 27.3597C69.3482 27.3383 69.0952 27.3171 68.807 27.2981L69.6784 29.8236ZM65.1727 27.2428C64.1496 27.2688 62.9729 27.3279 61.6341 27.436L61.6408 27.4725C61.6485 27.5142 61.6583 27.5675 61.6703 27.632L65.1727 27.2428ZM60.0424 27.8128L60.0342 27.7686L60.0183 27.6823L60.0143 27.6602L60.0132 27.6544L60.013 27.6529C60.0129 27.6526 60.0129 27.6523 60.8166 27.5068L60.8208 27.506C58.8265 27.6882 56.5016 27.9758 53.8213 28.4147C53.3136 28.4978 52.8218 28.5824 52.3457 28.668L60.0424 27.8128ZM40.7742 31.9517C40.3127 32.1685 39.9453 32.3632 39.6589 32.5278C39.7035 32.6315 39.7564 32.7589 39.8166 32.9114C40.0068 33.3928 40.2697 34.1244 40.5735 35.1502C40.8737 36.1636 41.2139 37.4644 41.5636 39.0953L40.7742 31.9517ZM44.0544 61.6336C44.2496 66.3043 44.3302 71.6465 44.24 77.7379L44.3069 77.7042C44.7025 77.5053 45.1853 77.2724 45.7542 77.0149L44.0544 61.6336ZM45.9433 78.7263C45.6015 78.8863 45.3006 79.0332 45.0409 79.1638C44.6857 79.3423 44.4076 79.4905 44.2076 79.6005C44.116 84.1689 43.93 89.1427 43.6277 94.5522C44.4001 94.203 45.7018 93.6449 47.5173 92.9689L45.9433 78.7263ZM88.7806 85.1877C89.9023 85.1297 91.0434 85.0811 92.2036 85.0427L92.1803 85.0039C92.0105 84.72 91.762 84.3019 91.446 83.7629C90.8142 82.6851 89.9126 81.1237 88.832 79.1867C87.1194 76.1172 84.9559 72.1023 82.7027 67.572L88.7806 85.1877ZM68.5119 92.4094C77.3697 90.7462 85.4804 89.7766 91.4272 89.5491C94.4068 89.4351 96.8077 89.5091 98.4766 89.763C99.3163 89.8908 99.921 90.0571 100.31 90.2393C100.642 90.3948 100.703 90.5053 100.708 90.5147L100.709 90.5154L100.708 90.5118C100.707 90.5095 100.706 90.5061 100.705 90.5015L101.503 90.3393L100.845 90.6904L100.786 90.7223C100.784 90.7233 100.784 90.7233 100.784 90.7232L100.784 90.7234L100.785 90.7261L100.792 90.7399C100.799 90.753 100.81 90.7734 100.824 90.8012C100.852 90.8567 100.895 90.9413 100.949 91.0533C101.058 91.2772 101.214 91.6105 101.398 92.0399C101.768 92.8991 102.252 94.1401 102.705 95.657C103.544 98.4714 104.263 102.203 103.96 106.193C100.689 105.293 87.508 106.619 71.9556 109.525C56.2539 112.459 43.3879 116.022 40.8312 118.033C37.9299 114.705 37.215 110.761 37.2484 107.577C37.2654 105.96 37.4758 104.555 37.6819 103.556C37.7848 103.057 37.8862 102.661 37.961 102.393C37.9978 102.261 38.0281 102.16 38.0489 102.093C38.0858 102.039 38.138 101.973 38.2118 101.894C38.4977 101.588 38.9899 101.217 39.7173 100.795C41.1625 99.9574 43.3567 99.0208 46.162 98.0485C51.7601 96.1083 59.6539 94.0727 68.5119 92.4094ZM40.1917 118.922L40.4597 118.915C40.4177 118.864 40.3901 118.811 40.3773 118.755L40.1917 118.922Z" fill="white"/>
<path d="M74.7048 6.13353L78.4589 4.52465C78.0806 3.6421 77.4035 2.92103 76.5465 2.48807L74.7048 6.13353ZM76.0848 16.0184L72.0007 16.0394C72.0053 16.9487 72.3133 17.8304 72.8757 18.5448L76.0848 16.0184ZM66.1835 5.08861L65.7754 1.02481C64.5005 1.15284 63.3595 1.87177 62.6938 2.96659L66.1835 5.08861ZM54.7286 6.13353L57.379 3.0261C56.4401 2.22521 55.1893 1.89185 53.9763 2.11916L54.7286 6.13353ZM44.4486 8.05997L43.6963 4.04561C42.1405 4.33717 40.8932 5.50149 40.4954 7.03362L44.4486 8.05997ZM33.1542 11.0718L35.3712 7.64166C34.4685 7.05822 33.3723 6.85414 32.3201 7.07366L33.1542 11.0718ZM25.2486 15.7332L21.8951 13.4018C21.2768 14.2912 21.0371 15.3897 21.2287 16.4558L25.2486 15.7332ZM29.517 25.8131L33.0931 23.8401C33.0124 23.6939 32.9229 23.5527 32.8249 23.4174L29.517 25.8131ZM33.7942 26.7372L37.0021 24.2092C36.2252 23.2234 35.0383 22.6496 33.7833 22.6529L33.7942 26.7372ZM38.4873 32.6924L40.356 36.324C41.4407 35.7659 42.2192 34.7521 42.4783 33.56C42.7375 32.368 42.4502 31.1225 41.6952 30.1644L38.4873 32.6924ZM38.0429 32.9199L41.6692 31.0408C40.6389 29.0524 38.1994 28.2646 36.2007 29.2748C34.2019 30.285 33.3894 32.7163 34.3793 34.7252L38.0429 32.9199ZM38.0436 32.9212L41.7126 31.1269L41.7072 31.116L38.0436 32.9212ZM38.0535 32.9415L41.7317 31.1662C41.7286 31.1598 41.7255 31.1535 41.7224 31.1471L38.0535 32.9415ZM38.1011 33.044L34.3792 34.7257L34.3793 34.7259L38.1011 33.044ZM38.2972 33.5115L42.0959 32.0112L42.0959 32.0112L38.2972 33.5115ZM39.0071 35.6142L42.9232 34.4543L39.0071 35.6142ZM41.0176 45.4234L36.9746 46.0023L36.9746 46.0023L41.0176 45.4234ZM41.9717 94.9012L37.894 94.6695C37.8326 95.751 38.2033 96.8126 38.9245 97.6207C39.6458 98.4289 40.6586 98.9174 41.74 98.9789L41.9717 94.9012ZM42.8488 94.9511L46.9276 95.1623C47.0439 92.9177 45.3246 91.0009 43.0805 90.8734L42.8488 94.9511ZM42.8766 95.0051L40.6585 98.4345L40.6591 98.4349L42.8766 95.0051ZM45.3473 96.6024L46.6991 100.456C48.17 99.9405 49.219 98.6323 49.403 97.0844C49.5869 95.5365 48.8738 94.0189 47.5648 93.1726L45.3473 96.6024ZM38.8978 99.3822L36.8489 95.849L36.8489 95.849L38.8978 99.3822ZM37.0179 100.779L34.0333 97.9913L34.0332 97.9913L37.0179 100.779ZM36.3268 102.177L40.2763 103.218C40.3457 102.954 40.3886 102.685 40.4043 102.413L36.3268 102.177ZM36.0819 103.226L40.0819 104.051V104.051L36.0819 103.226ZM35.6148 107.56L31.5308 107.517L35.6148 107.56ZM39.4589 118.942L39.5775 123.025C41.1466 122.979 42.5508 122.039 43.1896 120.605C43.8285 119.171 43.5889 117.498 42.5735 116.3L39.4589 118.942ZM54.972 118.758L54.4948 114.702C52.3503 114.954 50.7727 116.832 50.8942 118.988C51.0158 121.144 52.7945 122.833 54.9538 122.842L54.972 118.758ZM73.153 115.933L73.9032 119.948L73.153 115.933ZM104.496 107.233L104.972 103.176C103.718 103.029 102.466 103.47 101.581 104.371L104.496 107.233ZM105.49 107.349L105.014 111.406C107.254 111.669 109.283 110.066 109.546 107.826L105.49 107.349ZM104.27 95.1902L108.184 94.0234V94.0234L104.27 95.1902ZM102.899 91.3941L106.651 89.7796L106.651 89.7795L102.899 91.3941ZM102.419 90.3402L98.7442 92.1228L98.7443 92.1229L102.419 90.3402ZM102.279 90.0587L105.917 88.2023L105.917 88.202L102.279 90.0587ZM102.275 90.0513L98.3509 91.1823C98.423 91.4328 98.5191 91.6758 98.6376 91.908L102.275 90.0513ZM101.003 88.7598L99.2706 92.4585L99.2707 92.4585L101.003 88.7598ZM98.7224 88.1479L98.108 92.1857H98.108L98.7224 88.1479ZM92.2183 87.8885L88.3291 86.6413C87.9247 87.9023 88.1568 89.2811 88.9518 90.3403C89.7467 91.3994 91.0059 92.0074 92.3297 91.9713L92.2183 87.8885ZM93.0729 85.2236L89.1838 83.9762L89.1838 83.9763L93.0729 85.2236ZM93.0417 85.0738L90.9166 81.586C89.888 82.2127 89.1885 83.2614 89.0051 84.4518C88.8217 85.6422 89.173 86.8528 89.9652 87.7601L93.0417 85.0738ZM93.1399 85.014L95.2651 88.5018L95.2651 88.5018L93.1399 85.014ZM93.8373 84.5887L97.3509 82.5065C97.343 82.4932 97.335 82.4799 97.327 82.4666L93.8373 84.5887ZM93.8366 84.5876L97.3263 82.4655L97.3261 82.4652L93.8366 84.5876ZM93.8337 84.5827L90.3429 86.7029L90.3442 86.7051L93.8337 84.5827ZM93.8216 84.5628L90.3274 86.6775L90.3308 86.683L93.8216 84.5628ZM93.7731 84.4826L90.2747 86.5904L90.2789 86.5973L93.7731 84.4826ZM93.7008 84.3626L90.1983 86.4635L90.2024 86.4704L93.7008 84.3626ZM93.5823 84.1651L90.0774 86.2621L90.0798 86.2659L93.5823 84.1651ZM92.8554 82.9368L89.3319 85.0022L89.3319 85.0022L92.8554 82.9368ZM90.2586 78.3908L86.6919 80.3807H86.6919L90.2586 78.3908ZM82.3954 63.2119L86.0818 61.4537V61.4537L82.3954 63.2119ZM76.4494 49.4481L72.5885 50.7802C72.6024 50.8207 72.6171 50.8609 72.6323 50.901L76.4494 49.4481ZM73.8897 42.0292L69.9835 43.2219C69.9977 43.2687 70.0128 43.3152 70.0288 43.3613L73.8897 42.0292ZM71.2026 26.8278L75.2865 26.8838C75.3174 24.6283 73.514 22.7749 71.2585 22.744L71.2026 26.8278ZM70.8036 26.8224L66.8129 25.953C66.552 27.1509 66.8429 28.4028 67.6055 29.3628C68.3682 30.3228 69.5217 30.8894 70.7476 30.9062L70.8036 26.8224ZM72.48 19.1271L70.897 15.3621C69.6708 15.8777 68.7725 16.9581 68.4894 18.2578L72.48 19.1271ZM76.2062 16.2761L80.2133 15.486L80.2133 15.4859L76.2062 16.2761ZM69.567 27.3597L73.6512 27.3351C73.6386 25.2429 72.047 23.4986 69.9648 23.2948L69.567 27.3597ZM69.6784 29.8236L65.8175 31.1557C66.4887 33.1011 68.5025 34.2433 70.5166 33.8209C72.5308 33.3985 73.9161 31.5435 73.7491 29.4923L69.6784 29.8236ZM68.807 27.2981L69.0753 23.2227C67.7103 23.1328 66.3911 23.7322 65.5609 24.8194C64.7307 25.9066 64.5 27.3371 64.9461 28.6302L68.807 27.2981ZM61.6341 27.436L61.3052 23.365C60.1541 23.458 59.0962 24.034 58.3933 24.9503C57.6905 25.8667 57.4084 27.0378 57.617 28.1736L61.6341 27.436ZM65.1727 27.2428L65.6238 31.3021C67.7983 31.0604 69.3962 29.1481 69.2476 26.9652C69.0988 24.7823 67.2564 23.1043 65.0691 23.1599L65.1727 27.2428ZM61.6408 27.4725L57.6237 28.2101L57.6242 28.2127L61.6408 27.4725ZM61.6703 27.632L57.6551 28.3795C58.0467 30.4828 59.995 31.9275 62.1214 31.6912L61.6703 27.632ZM60.0342 27.7686L56.017 28.506L56.0182 28.5123L60.0342 27.7686ZM60.0424 27.8128L60.4934 31.8721C61.621 31.7468 62.6457 31.1581 63.3219 30.2471C63.9981 29.3361 64.2649 28.1848 64.0583 27.0692L60.0424 27.8128ZM60.0183 27.6823L56.0003 28.4147L56.0012 28.4196L60.0183 27.6823ZM60.0143 27.6602L55.996 28.3912L55.9963 28.3926L60.0143 27.6602ZM60.0132 27.6544L64.0315 26.9234L64.0311 26.9212L60.0132 27.6544ZM60.013 27.6529L55.9876 28.3442C55.9901 28.3582 55.9925 28.3722 55.9951 28.3862L60.013 27.6529ZM60.8166 27.5068L61.5444 31.5257L61.5448 31.5256L60.8166 27.5068ZM60.8208 27.506L61.5489 31.5249C63.6996 31.1352 65.1623 29.1214 64.8677 26.9557C64.5732 24.7899 62.6258 23.2399 60.4492 23.4387L60.8208 27.506ZM53.8213 28.4147L54.4813 32.4453L53.8213 28.4147ZM52.3457 28.668L51.6226 24.6483C49.4553 25.0382 47.9872 27.0761 48.3039 29.2554C48.6206 31.4347 50.608 32.9705 52.7967 32.7273L52.3457 28.668ZM39.6589 32.5278L37.6237 28.9867C35.8256 30.0202 35.0874 32.2372 35.9073 34.1423L39.6589 32.5278ZM40.7742 31.9517L44.8337 31.5031C44.6889 30.1929 43.9207 29.0332 42.7708 28.3888C41.6209 27.7444 40.2306 27.6946 39.0376 28.2551L40.7742 31.9517ZM39.8166 32.9114L43.6153 31.411L43.6153 31.411L39.8166 32.9114ZM40.5735 35.1502L44.4896 33.9903V33.9903L40.5735 35.1502ZM41.5636 39.0953L37.5701 39.9515C38.0262 42.0786 40.0694 43.4749 42.2169 43.127C44.3643 42.779 45.8621 40.8089 45.6231 38.6467L41.5636 39.0953ZM44.0544 61.6336L48.1139 61.185C47.8721 58.9969 45.9396 57.3942 43.7446 57.5612C41.5495 57.7281 39.8817 59.6048 39.9737 61.8042L44.0544 61.6336ZM44.24 77.7379L40.1562 77.6775C40.1351 79.1061 40.862 80.4418 42.073 81.1999C43.2841 81.9579 44.8032 82.0281 46.0789 81.3848L44.24 77.7379ZM44.3069 77.7042L42.4721 74.0553L42.468 74.0574L44.3069 77.7042ZM45.7542 77.0149L47.4385 80.7356C49.0493 80.0065 50.0079 78.3237 49.8137 76.5662L45.7542 77.0149ZM45.9433 78.7263L50.0028 78.2776C49.8581 76.9683 49.0908 75.8092 47.9421 75.1645C46.7934 74.5199 45.4042 74.4688 44.2113 75.0275L45.9433 78.7263ZM45.0409 79.1638L46.8757 82.8127L46.8757 82.8126L45.0409 79.1638ZM44.2076 79.6005L42.2402 76.0213C40.9603 76.7248 40.1534 78.0584 40.1241 79.5187L44.2076 79.6005ZM43.6277 94.5522L39.5498 94.3243C39.4701 95.7497 40.1405 97.1133 41.318 97.9207C42.4955 98.7281 44.0091 98.862 45.3101 98.2738L43.6277 94.5522ZM47.5173 92.9689L48.9424 96.7965C50.6968 96.1433 51.7825 94.381 51.5768 92.5203L47.5173 92.9689ZM88.7806 85.1877L84.9197 86.5198C85.5134 88.2404 87.1739 89.3605 88.9916 89.2665L88.7806 85.1877ZM92.2036 85.0427L92.3386 89.1247C93.7844 89.0769 95.097 88.2679 95.7895 86.9978C96.482 85.7277 96.4509 84.186 95.7079 82.9448L92.2036 85.0427ZM92.1803 85.0039L88.6755 87.1008L88.6761 87.1018L92.1803 85.0039ZM91.446 83.7629L87.9226 85.8284V85.8284L91.446 83.7629ZM88.832 79.1867L92.3986 77.1968V77.1968L88.832 79.1867ZM82.7027 67.572L86.3596 65.7532C85.4007 63.8253 83.1098 62.9729 81.1239 63.8053C79.1381 64.6376 78.1395 66.8687 78.8418 68.9042L82.7027 67.572ZM91.4272 89.5491L91.2711 85.4678H91.2711L91.4272 89.5491ZM68.5119 92.4094L69.2656 96.4235H69.2656L68.5119 92.4094ZM98.4766 89.763L99.0911 85.7253L99.091 85.7253L98.4766 89.763ZM100.31 90.2393L102.042 86.5405L102.042 86.5405L100.31 90.2393ZM100.708 90.5147L97.1311 92.4856C97.1553 92.5296 97.1803 92.573 97.2061 92.616L100.708 90.5147ZM100.709 90.5154L97.2065 92.6167C98.2721 94.3927 100.498 95.0899 102.387 94.239C104.275 93.3882 105.227 91.2586 104.603 89.2839L100.709 90.5154ZM100.708 90.5118L96.7945 91.6818C96.8006 91.7023 96.8069 91.7228 96.8134 91.7433L100.708 90.5118ZM100.705 90.5015L99.8918 86.499C97.6821 86.948 96.2543 89.1028 96.7021 91.3127L100.705 90.5015ZM101.503 90.3393L103.427 93.9424C105.216 92.9875 106.033 90.8646 105.346 88.9565C104.66 87.0484 102.677 85.933 100.69 86.3368L101.503 90.3393ZM100.845 90.6904L102.762 94.2971L102.769 94.2935L100.845 90.6904ZM100.786 90.7223L102.673 94.3443C102.683 94.3392 102.692 94.334 102.702 94.3289L100.786 90.7223ZM100.784 90.7232L104.437 88.8967C103.478 86.9797 101.201 86.1297 99.2206 86.9499C97.2405 87.7701 96.2312 89.9815 96.9089 92.0148L100.784 90.7232ZM100.784 90.7234L97.1306 92.5499C97.145 92.5787 97.1597 92.6073 97.1748 92.6358L100.784 90.7234ZM100.785 90.7261L104.401 88.8275C104.399 88.8229 104.396 88.8183 104.394 88.8137L100.785 90.7261ZM100.792 90.7399L104.413 88.8492L104.409 88.8414L100.792 90.7399ZM100.824 90.8012L97.1858 92.6573L97.1859 92.6575L100.824 90.8012ZM100.949 91.0533L97.2743 92.8358L97.2745 92.836L100.949 91.0533ZM101.398 92.0399L97.6468 93.6543L97.6468 93.6544L101.398 92.0399ZM102.705 95.657L98.7905 96.8238L102.705 95.657ZM103.96 106.193L102.877 110.131C104.054 110.454 105.314 110.235 106.311 109.533C107.309 108.83 107.941 107.718 108.033 106.502L103.96 106.193ZM71.9556 109.525L71.2054 105.51L71.9556 109.525ZM40.8312 118.033L37.7527 120.717C39.1822 122.356 41.6461 122.588 43.356 121.243L40.8312 118.033ZM37.2484 107.577L41.3324 107.62L37.2484 107.577ZM37.6819 103.556L41.6819 104.381V104.381L37.6819 103.556ZM37.961 102.393L34.0266 101.296L34.0266 101.297L37.961 102.393ZM38.0489 102.093L34.6891 99.7704C34.4531 100.112 34.2705 100.487 34.1477 100.884L38.0489 102.093ZM38.2118 101.894L35.2271 99.1065L35.227 99.1066L38.2118 101.894ZM39.7173 100.795L41.7661 104.329L41.7661 104.329L39.7173 100.795ZM46.162 98.0485L44.8245 94.1895H44.8244L46.162 98.0485ZM40.4597 118.915L40.57 122.997C42.1358 122.955 43.5395 122.021 44.1832 120.593C44.8269 119.165 44.5972 117.495 43.5919 116.293L40.4597 118.915ZM40.1917 118.922L37.458 115.887C36.1869 117.033 35.7642 118.849 36.399 120.437C37.0339 122.026 38.5917 123.051 40.302 123.005L40.1917 118.922ZM40.3773 118.755L44.3605 117.852C44.0401 116.438 42.9943 115.3 41.6127 114.862C40.2311 114.423 38.7206 114.75 37.6436 115.72L40.3773 118.755ZM70.9508 7.7424C71.3142 8.59032 71.6161 10.1469 71.7975 12.0029C71.9677 13.7453 71.9971 15.3471 72.0007 16.0394L80.169 15.9974C80.1648 15.1751 80.1314 13.298 79.9272 11.2085C79.7342 9.23246 79.3499 6.60382 78.4589 4.52465L70.9508 7.7424ZM66.1835 5.08861C66.5916 9.15241 66.5909 9.15248 66.5903 9.15255C66.5901 9.15257 66.5894 9.15263 66.5891 9.15267C66.5883 9.15274 66.5876 9.15281 66.587 9.15287C66.5858 9.15299 66.5849 9.15308 66.5843 9.15314C66.5831 9.15326 66.5832 9.15325 66.5844 9.15313C66.587 9.15289 66.5943 9.1522 66.6063 9.15113C66.6303 9.149 66.6725 9.14539 66.7313 9.14091C66.8491 9.13194 67.0316 9.1196 67.2645 9.1087C67.7343 9.08672 68.3888 9.07158 69.1192 9.09807C70.7336 9.15663 72.1192 9.40311 72.8632 9.77898L76.5465 2.48807C74.1521 1.27846 71.277 1.00248 69.4153 0.934956C68.4077 0.898405 67.5204 0.919309 66.8828 0.949141C66.562 0.964147 66.2994 0.981653 66.1106 0.996046C66.016 1.00325 65.9396 1.00971 65.8832 1.01472C65.8549 1.01723 65.8317 1.01938 65.8137 1.02109C65.8047 1.02194 65.7969 1.02269 65.7906 1.02331C65.7874 1.02362 65.7845 1.0239 65.782 1.02415C65.7807 1.02428 65.7795 1.02439 65.7784 1.0245C65.7779 1.02456 65.7771 1.02463 65.7769 1.02466C65.7761 1.02473 65.7754 1.02481 66.1835 5.08861ZM52.0781 9.24096C54.3163 11.15 56.6322 12.2701 58.9866 12.5826C61.3594 12.8976 63.4073 12.3436 65.0044 11.5174C66.5593 10.7129 67.6994 9.64898 68.4264 8.8441C68.7987 8.43192 69.0877 8.05988 69.2923 7.77712C69.3952 7.63496 69.4783 7.51315 69.5416 7.41737C69.5732 7.36941 69.6 7.32777 69.6219 7.29314C69.6329 7.27582 69.6427 7.26023 69.6512 7.24645C69.6555 7.23957 69.6594 7.23313 69.6631 7.22716C69.6649 7.22417 69.6667 7.2213 69.6684 7.21855C69.6692 7.21717 69.6704 7.21519 69.6709 7.2145C69.672 7.21256 69.6732 7.21064 66.1835 5.08861C62.6938 2.96659 62.6949 2.96472 62.6961 2.96288C62.6964 2.9623 62.6975 2.96048 62.6982 2.95932C62.6996 2.957 62.701 2.95478 62.7023 2.95265C62.7049 2.9484 62.7073 2.94453 62.7095 2.94104C62.7138 2.93407 62.7172 2.9286 62.7198 2.92457C62.7249 2.91652 62.7265 2.91413 62.7247 2.91684C62.721 2.92242 62.7042 2.94767 62.6747 2.98838C62.6147 3.07134 62.5097 3.20821 62.3647 3.36873C62.0571 3.70925 61.6692 4.04592 61.251 4.26229C60.8749 4.45685 60.5043 4.54392 60.0615 4.48514C59.6002 4.4239 58.703 4.15539 57.379 3.0261L52.0781 9.24096ZM45.2009 12.0743L55.4809 10.1479L53.9763 2.11916L43.6963 4.04561L45.2009 12.0743ZM30.9372 14.502C33.6238 16.2384 36.2294 17.1563 38.7432 17.1399C41.3386 17.123 43.3851 16.1127 44.8606 14.8266C46.27 13.5983 47.1323 12.1513 47.6281 11.1237C47.8846 10.5921 48.0668 10.1231 48.1888 9.77334C48.2502 9.59724 48.2976 9.44796 48.3324 9.33203C48.3499 9.27397 48.3642 9.22397 48.3757 9.18283C48.3814 9.16225 48.3865 9.14386 48.3908 9.12775C48.393 9.11969 48.395 9.1122 48.3968 9.10529C48.3977 9.10184 48.3986 9.09853 48.3994 9.09537C48.3998 9.09379 48.4004 9.09152 48.4006 9.09073C48.4012 9.08851 48.4018 9.08631 44.4486 8.05997C40.4954 7.03362 40.496 7.0315 40.4965 7.02941C40.4967 7.02875 40.4972 7.02669 40.4976 7.02538C40.4982 7.02275 40.4989 7.02024 40.4995 7.01785C40.5008 7.01308 40.5019 7.00878 40.503 7.00495C40.505 6.99728 40.5066 6.99146 40.5078 6.98741C40.51 6.97933 40.5104 6.97821 40.5089 6.9834C40.5057 6.99397 40.495 7.02872 40.4762 7.0827C40.4377 7.19307 40.3704 7.36846 40.2713 7.57383C40.056 8.02 39.7826 8.41692 39.4936 8.66877C39.2708 8.86296 39.0563 8.96922 38.6901 8.9716C38.2422 8.97451 37.1855 8.81431 35.3712 7.64166L30.9372 14.502ZM28.602 18.0645C29.1872 17.2228 30.3421 16.4373 31.746 15.8279C32.3936 15.5468 32.9884 15.3488 33.4162 15.2229C33.6278 15.1607 33.7921 15.1179 33.8938 15.0928C33.9444 15.0803 33.979 15.0723 33.9956 15.0686C34.0038 15.0667 34.0075 15.0659 34.0064 15.0661C34.0059 15.0663 34.0041 15.0666 34.0011 15.0673C33.9996 15.0676 33.9978 15.068 33.9957 15.0684C33.9946 15.0687 33.9935 15.0689 33.9923 15.0691C33.9917 15.0693 33.9907 15.0695 33.9904 15.0695C33.9894 15.0698 33.9884 15.07 33.1542 11.0718C32.3201 7.07366 32.319 7.07388 32.3179 7.0741C32.3176 7.07418 32.3165 7.07441 32.3157 7.07458C32.3141 7.0749 32.3125 7.07525 32.3108 7.07561C32.3073 7.07633 32.3035 7.07714 32.2994 7.07802C32.2912 7.07978 32.2815 7.08184 32.2706 7.08423C32.2487 7.08899 32.2214 7.09501 32.1891 7.10234C32.1245 7.11698 32.0395 7.13688 31.9362 7.16238C31.7299 7.21329 31.4488 7.28704 31.1105 7.38657C30.4388 7.58423 29.5163 7.89097 28.4937 8.33484C26.5571 9.17541 23.7591 10.7206 21.8951 13.4018L28.602 18.0645ZM32.8249 23.4174C32.3067 22.702 30.0509 19.364 29.2684 15.0106L21.2287 16.4558C22.3271 22.5662 25.3915 27.0796 26.2091 28.2087L32.8249 23.4174ZM33.7833 22.6529C33.1412 22.6547 32.6498 22.6385 32.2768 22.6111C31.8956 22.5832 31.7009 22.548 31.6316 22.5322C31.5512 22.5138 31.7344 22.5429 32.025 22.7162C32.3596 22.9157 32.7818 23.2758 33.0931 23.8401L25.9409 27.786C26.9496 29.6142 28.7088 30.2436 29.8134 30.4958C30.9552 30.7564 32.3193 30.8254 33.8051 30.8214L33.7833 22.6529ZM41.6952 30.1644L37.0021 24.2092L30.5864 29.2652L35.2795 35.2204L41.6952 30.1644ZM34.4166 34.799C34.3812 34.7306 34.5996 35.1963 34.9983 35.6423C35.4932 36.1958 36.1336 36.6081 36.8539 36.8273C37.9784 37.1695 38.9135 36.9113 38.9991 36.8907C39.2578 36.8284 39.4523 36.7539 39.5103 36.7315C39.593 36.6997 39.6573 36.6718 39.689 36.6579C39.7531 36.6297 39.8027 36.6058 39.8172 36.5988C39.8385 36.5886 39.8557 36.5801 39.8652 36.5754C39.8968 36.5597 39.9313 36.5421 39.9565 36.5292C40.0184 36.4976 40.1347 36.4379 40.356 36.324L36.6186 29.0607C36.396 29.1752 36.2903 29.2295 36.2409 29.2547C36.2106 29.2702 36.2172 29.2667 36.2348 29.258C36.2408 29.255 36.2555 29.2477 36.2747 29.2385C36.2873 29.2324 36.3356 29.2092 36.3988 29.1814C36.43 29.1676 36.494 29.1399 36.5764 29.1082C36.6342 29.0859 36.8285 29.0114 37.0871 28.9492C37.2202 28.9171 37.4621 28.8655 37.7699 28.8449C38.0662 28.825 38.6008 28.8205 39.232 29.0126C39.9524 29.2318 40.5927 29.6441 41.0876 30.1976C41.4863 30.6435 41.7047 31.1092 41.6692 31.0408L34.4166 34.799ZM41.7072 31.116L41.7065 31.1147L34.3793 34.7252L34.38 34.7265L41.7072 31.116ZM41.7224 31.1471L41.7125 31.1269L34.3746 34.7156L34.3845 34.7359L41.7224 31.1471ZM41.8231 31.3622C41.7873 31.2831 41.7567 31.2179 41.7317 31.1662L34.3752 34.7167C34.3698 34.7055 34.3713 34.7083 34.3792 34.7257L41.8231 31.3622ZM42.0959 32.0112C41.9867 31.7349 41.8945 31.5203 41.823 31.362L34.3793 34.7259C34.395 34.7608 34.4362 34.8541 34.4985 35.0119L42.0959 32.0112ZM42.9232 34.4543C42.6002 33.3638 42.3141 32.5637 42.0959 32.0112L34.4985 35.0119C34.6231 35.3274 34.8319 35.8994 35.091 36.7742L42.9232 34.4543ZM45.0606 44.8445C44.3643 39.9818 43.5689 36.6343 42.9232 34.4543L35.091 36.7742C35.6097 38.5253 36.3269 41.4794 36.9746 46.0023L45.0606 44.8445ZM46.0494 95.1329C47.4553 70.3888 46.4523 54.564 45.0606 44.8445L36.9746 46.0023C38.2711 55.0571 39.2775 70.3202 37.894 94.6695L46.0494 95.1329ZM43.0805 90.8734L42.2034 90.8236L41.74 98.9789L42.6171 99.0287L43.0805 90.8734ZM45.0947 91.5756C46.3776 92.4053 46.9973 93.8161 46.9276 95.1623L38.77 94.7398C38.6982 96.1266 39.3363 97.5793 40.6585 98.4345L45.0947 91.5756ZM47.5648 93.1726L45.0941 91.5752L40.6591 98.4349L43.1298 100.032L47.5648 93.1726ZM40.9466 102.915C42.1476 102.219 44.0786 101.376 46.6991 100.456L43.9955 92.7484C41.1887 93.7328 38.7015 94.7747 36.8489 95.849L40.9466 102.915ZM40.0026 103.567C40.0023 103.568 40.007 103.563 40.0176 103.552C40.0282 103.542 40.0437 103.528 40.0649 103.51C40.108 103.472 40.1692 103.423 40.2521 103.362C40.4207 103.237 40.649 103.088 40.9466 102.915L36.8489 95.849C35.9204 96.3874 34.8759 97.0893 34.0333 97.9913L40.0026 103.567ZM40.4043 102.413C40.3788 102.854 40.2443 103.173 40.1548 103.34C40.1095 103.424 40.0692 103.483 40.0448 103.515C40.0202 103.548 40.0045 103.565 40.0026 103.567L34.0332 97.9913C33.4264 98.641 32.362 99.9937 32.2494 101.941L40.4043 102.413ZM40.0819 104.051C40.1519 103.711 40.2204 103.43 40.2763 103.218L32.3774 101.137C32.2871 101.479 32.1841 101.905 32.0818 102.401L40.0819 104.051ZM39.6988 107.603C39.7138 106.178 39.8998 104.933 40.0819 104.051L32.0818 102.401C31.8197 103.672 31.5525 105.451 31.5308 107.517L39.6988 107.603ZM42.5735 116.3C40.2884 113.607 39.6696 110.386 39.6988 107.603L31.5308 107.517C31.4891 111.485 32.3609 116.889 36.3443 121.585L42.5735 116.3ZM9.08424 123.54C9.08424 124.618 8.61761 125.377 8.30232 125.755C8.01142 126.103 7.75677 126.248 7.75354 126.25C7.74961 126.252 8.00892 126.114 8.72706 125.905C10.1015 125.505 12.2992 125.084 15.2961 124.69C21.2331 123.911 29.697 123.312 39.5775 123.025L39.3403 114.86C29.3135 115.151 20.5479 115.762 14.2323 116.591C11.1029 117.003 8.41845 117.487 6.4424 118.062C5.48528 118.341 4.45222 118.709 3.57475 119.231C3.01206 119.566 0.915757 120.888 0.915757 123.54H9.08424ZM52.8087 124.243C39.6982 124.243 27.8883 123.71 19.4098 122.861C15.1459 122.434 11.8549 121.94 9.6979 121.429C8.58633 121.166 7.99473 120.948 7.76639 120.836C7.64244 120.776 7.83583 120.847 8.11431 121.121C8.39918 121.402 9.08424 122.222 9.08424 123.54H0.915757C0.915757 125.189 1.76804 126.335 2.37936 126.938C2.98427 127.535 3.66332 127.923 4.17621 128.174C5.22159 128.685 6.50851 129.068 7.8162 129.378C10.4977 130.013 14.2082 130.55 18.5959 130.989C27.4208 131.873 39.5152 132.412 52.8087 132.412V124.243ZM96.5332 123.54C96.5332 122.222 97.2183 121.402 97.5031 121.121C97.7816 120.847 97.975 120.776 97.8511 120.836C97.6227 120.948 97.0311 121.166 95.9195 121.429C93.7625 121.94 90.4716 122.434 86.2077 122.861C77.7292 123.71 65.9193 124.243 52.8087 124.243V132.412C66.1022 132.412 78.1967 131.873 87.0215 130.989C91.4093 130.55 95.1198 130.013 97.8013 129.378C99.1089 129.068 100.396 128.685 101.441 128.174C101.954 127.923 102.633 127.535 103.238 126.938C103.849 126.335 104.702 125.189 104.702 123.54H96.5332ZM54.9538 122.842C67.5658 122.899 78.8343 123.448 86.8956 124.29C90.9515 124.713 94.0616 125.197 96.089 125.692C97.1356 125.948 97.6721 126.154 97.8615 126.249C97.9643 126.301 97.7588 126.219 97.476 125.932C97.1821 125.634 96.5332 124.821 96.5332 123.54H104.702C104.702 121.938 103.895 120.807 103.292 120.196C102.7 119.596 102.035 119.205 101.534 118.953C100.517 118.441 99.2737 118.061 98.0255 117.757C95.4631 117.131 91.9244 116.602 87.7439 116.165C79.3324 115.287 67.7782 114.731 54.9902 114.674L54.9538 122.842ZM72.4028 111.918C65.7767 113.157 59.6074 114.1 54.4948 114.702L55.4492 122.814C60.7724 122.188 67.1258 121.214 73.9032 119.948L72.4028 111.918ZM101.581 104.371C101.816 104.133 101.881 104.165 101.398 104.412C101 104.616 100.412 104.874 99.6092 105.18C98.0104 105.789 95.8058 106.493 93.085 107.25C87.6583 108.762 80.4253 110.419 72.4028 111.918L73.9032 119.948C82.0978 118.417 89.5693 116.709 95.2763 115.12C98.1224 114.327 100.592 113.547 102.517 112.813C103.477 112.448 104.363 112.071 105.12 111.683C105.791 111.34 106.692 110.825 107.41 110.094L101.581 104.371ZM105.966 103.293L104.972 103.176L104.019 111.289L105.014 111.406L105.966 103.293ZM100.356 96.3571C101.205 99.2053 101.892 102.964 101.433 106.873L109.546 107.826C110.178 102.446 109.224 97.5125 108.184 94.0234L100.356 96.3571ZM99.1475 93.0086C99.4863 93.7959 99.9356 94.9466 100.356 96.3571L108.184 94.0234C107.658 92.2584 107.093 90.8065 106.651 89.7796L99.1475 93.0086ZM98.7443 92.1229C98.8381 92.3163 98.9785 92.6159 99.1475 93.0086L106.651 89.7795C106.429 89.2647 106.237 88.8528 106.094 88.5575L98.7443 92.1229ZM98.6412 91.9151C98.6623 91.9564 98.6974 92.0262 98.7442 92.1228L106.094 88.5575C106.022 88.4097 105.962 88.2907 105.917 88.2023L98.6412 91.9151ZM98.6376 91.908L98.6413 91.9153L105.917 88.202L105.913 88.1947L98.6376 91.908ZM99.2707 92.4585C99.295 92.4699 99.1716 92.4189 98.9952 92.2556C98.7992 92.0741 98.506 91.7207 98.3509 91.1823L106.2 88.9203C105.52 86.5606 103.62 85.4753 102.735 85.061L99.2707 92.4585ZM98.108 92.1857C98.8497 92.2985 99.1897 92.4206 99.2706 92.4585L102.735 85.061C101.627 84.5421 100.404 84.2726 99.3368 84.1102L98.108 92.1857ZM92.3297 91.9713C94.8688 91.9019 96.8107 91.9883 98.108 92.1857L99.3368 84.1102C97.344 83.8069 94.8501 83.7309 92.1068 83.8058L92.3297 91.9713ZM89.1838 83.9763L88.3291 86.6413L96.1074 89.1358L96.9621 86.4708L89.1838 83.9763ZM89.9652 87.7601C89.1273 86.8005 88.733 85.3818 89.1838 83.9762L96.9621 86.4709C97.4482 84.9552 97.0244 83.4254 96.1182 82.3876L89.9652 87.7601ZM91.0148 81.5262L90.9166 81.586L95.1668 88.5616L95.2651 88.5018L91.0148 81.5262ZM90.3237 86.6708C90.3373 86.6938 89.5412 85.523 89.8086 83.9177C90.0134 82.6882 90.7172 81.9475 90.8345 81.8202C91.0472 81.5896 91.2393 81.4364 91.2972 81.3905C91.3789 81.3256 91.4458 81.2776 91.4785 81.2545C91.5445 81.2078 91.5974 81.1735 91.6111 81.1646C91.6323 81.1508 91.649 81.1402 91.6567 81.1354C91.6804 81.1204 91.6994 81.1088 91.6903 81.1144C91.685 81.1177 91.668 81.128 91.6234 81.1552C91.5373 81.2078 91.3638 81.3135 91.0147 81.5262L95.2651 88.5018C95.6135 88.2895 95.7889 88.1826 95.877 88.1288C95.9196 88.1029 95.9463 88.0866 95.9627 88.0765C95.9645 88.0754 95.9889 88.0605 96.0153 88.0438C96.0236 88.0386 96.0409 88.0276 96.0624 88.0136C96.0765 88.0045 96.1297 87.9699 96.1958 87.9231C96.2285 87.9 96.2956 87.852 96.3773 87.787C96.4352 87.7411 96.6274 87.5879 96.84 87.3572C96.9574 87.2299 97.6613 86.4892 97.8661 85.2597C98.1334 83.6544 97.3373 82.4836 97.3509 82.5065L90.3237 86.6708ZM90.347 86.7096L90.3476 86.7108L97.327 82.4666L97.3263 82.4655L90.347 86.7096ZM90.3442 86.7051L90.3471 86.7099L97.3261 82.4652L97.3232 82.4604L90.3442 86.7051ZM90.3308 86.683L90.3429 86.7029L97.3245 82.4625L97.3124 82.4426L90.3308 86.683ZM90.2789 86.5973L90.3274 86.6775L97.3157 82.4481L97.2672 82.3679L90.2789 86.5973ZM90.2024 86.4704L90.2747 86.5904L97.2714 82.3749L97.1991 82.2549L90.2024 86.4704ZM90.0798 86.2659L90.1983 86.4635L97.2033 82.2618L97.0847 82.0642L90.0798 86.2659ZM89.3319 85.0022C89.6518 85.5478 89.9041 85.9723 90.0774 86.2621L97.0871 82.0681C96.9255 81.7981 96.6857 81.3947 96.3789 80.8713L89.3319 85.0022ZM86.6919 80.3807C87.7821 82.3346 88.6924 83.9111 89.3319 85.0022L96.3789 80.8713C95.7651 79.8242 94.8839 78.2983 93.8253 76.4008L86.6919 80.3807ZM78.709 64.9702C81.6085 71.0495 84.5133 76.4758 86.6919 80.3807L93.8253 76.4008C91.7057 72.6016 88.8867 67.3346 86.0818 61.4537L78.709 64.9702ZM72.6323 50.901C74.4694 55.7273 76.5917 60.5311 78.709 64.9702L86.0818 61.4537C84.0325 57.1572 82.005 52.5626 80.2665 47.9952L72.6323 50.901ZM70.0288 43.3613L72.5885 50.7802L80.3103 48.1159L77.7506 40.6971L70.0288 43.3613ZM67.1187 26.7719C67.0503 31.7664 68.2327 37.4879 69.9835 43.2219L77.7959 40.8365C76.1497 35.4453 75.2348 30.654 75.2865 26.8838L67.1187 26.7719ZM70.7476 30.9062L71.1467 30.9117L71.2585 22.744L70.8595 22.7385L70.7476 30.9062ZM68.4894 18.2578L66.8129 25.953L74.7942 27.6917L76.4706 19.9965L68.4894 18.2578ZM72.1992 17.0662C72.1151 16.6397 72.1169 16.2032 72.1993 15.7874C72.2796 15.3818 72.423 15.0626 72.5542 14.8377C72.794 14.4266 73.0263 14.272 72.9491 14.3317C72.8956 14.373 72.7213 14.4942 72.3537 14.688C71.9963 14.8764 71.5195 15.1004 70.897 15.3621L74.063 22.8921C75.5288 22.2758 76.9035 21.5988 77.9425 20.7962C78.8029 20.1316 80.7716 18.3173 80.2133 15.486L72.1992 17.0662ZM72.8757 18.5448C72.5744 18.162 72.3166 17.6617 72.1992 17.0663L80.2133 15.4859C80.0593 14.7051 79.7201 14.0333 79.2939 13.492L72.8757 18.5448ZM65.4828 27.3842C65.4883 28.2954 65.5315 29.2205 65.6076 30.1548L73.7491 29.4923C73.6881 28.7418 73.6553 28.0222 73.6512 27.3351L65.4828 27.3842ZM68.5387 31.3735C68.7843 31.3897 68.9941 31.4074 69.1692 31.4245L69.9648 23.2948C69.7023 23.2692 69.4061 23.2444 69.0753 23.2227L68.5387 31.3735ZM64.9461 28.6302L65.8175 31.1557L73.5393 28.4915L72.6679 25.966L64.9461 28.6302ZM61.963 31.507C63.2293 31.4047 64.3309 31.3497 65.2764 31.3257L65.0691 23.1599C63.9683 23.1878 62.7165 23.251 61.3052 23.365L61.963 31.507ZM65.6579 26.7349L65.6512 26.6984L57.617 28.1736L57.6237 28.2101L65.6579 26.7349ZM65.6856 26.8844C65.674 26.8224 65.6646 26.7716 65.6574 26.7324L57.6242 28.2127C57.6323 28.2569 57.6426 28.3126 57.6551 28.3795L65.6856 26.8844ZM62.1214 31.6912L65.6238 31.3021L64.7217 23.1835L61.2193 23.5727L62.1214 31.6912ZM56.0182 28.5123L56.0264 28.5565L64.0583 27.0692L64.0501 27.025L56.0182 28.5123ZM56.0012 28.4196L56.017 28.506L64.0513 27.0313L64.0354 26.9449L56.0012 28.4196ZM55.9963 28.3926L56.0003 28.4147L64.0363 26.9498L64.0323 26.9277L55.9963 28.3926ZM55.995 28.3855L55.996 28.3912L64.0326 26.9291L64.0315 26.9234L55.995 28.3855ZM55.9951 28.3862L55.9954 28.3877L64.0311 26.9212L64.0308 26.9196L55.9951 28.3862ZM60.0889 23.4879C59.6875 23.5606 59.4844 23.5974 59.3815 23.6162C59.3329 23.625 59.298 23.6314 59.274 23.6359C59.2672 23.6372 59.257 23.6391 59.2453 23.6414C59.2371 23.6429 59.2112 23.6479 59.1788 23.6547C59.1629 23.658 59.1301 23.665 59.0889 23.6745C59.0616 23.6809 58.9613 23.7042 58.8352 23.7421C58.7724 23.7611 58.6468 23.8003 58.4928 23.8621C58.3727 23.9103 58.0345 24.0497 57.6546 24.3183C57.2617 24.5963 56.5002 25.242 56.1269 26.3961C55.7751 27.4839 56.0054 28.4477 55.9876 28.3442L64.0383 26.9617C64.0205 26.8582 64.2508 27.822 63.899 28.9097C63.5258 30.0638 62.7643 30.7096 62.3713 30.9875C61.9915 31.2561 61.6534 31.3955 61.5333 31.4436C61.3793 31.5054 61.2538 31.5446 61.1911 31.5635C61.0652 31.6014 60.9652 31.6247 60.9383 31.6309C60.8975 31.6404 60.8654 31.6472 60.8502 31.6504C60.8194 31.6568 60.7958 31.6613 60.7912 31.6622C60.783 31.6638 60.7775 31.6648 60.777 31.6649C60.7758 31.6651 60.7794 31.6645 60.7921 31.6622C60.8039 31.66 60.821 31.6569 60.8453 31.6524C60.9433 31.6346 61.142 31.5985 61.5444 31.5257L60.0889 23.4879ZM60.0926 23.4872L60.0885 23.488L61.5448 31.5256L61.5489 31.5249L60.0926 23.4872ZM54.4813 32.4453C57.0708 32.0213 59.2995 31.7463 61.1923 31.5734L60.4492 23.4387C58.3536 23.6302 55.9324 23.9304 53.1614 24.3841L54.4813 32.4453ZM53.0688 32.6877C53.5235 32.6059 53.9942 32.525 54.4813 32.4453L53.1614 24.3841C52.6329 24.4707 52.1202 24.5588 51.6226 24.6483L53.0688 32.6877ZM52.7967 32.7273L60.4934 31.8721L59.5913 23.7536L51.8947 24.6088L52.7967 32.7273ZM41.694 36.0689C41.8782 35.963 42.1457 35.8199 42.5107 35.6484L39.0376 28.2551C38.4797 28.5172 38.0123 28.7634 37.6237 28.9867L41.694 36.0689ZM43.6153 31.411C43.5403 31.2211 43.4717 31.0556 43.4104 30.9133L35.9073 34.1423C35.9353 34.2074 35.9726 34.2968 36.018 34.4118L43.6153 31.411ZM44.4896 33.9903C44.1538 32.8566 43.8523 32.011 43.6153 31.411L36.018 34.4117C36.1613 34.7747 36.3856 35.3923 36.6575 36.3102L44.4896 33.9903ZM45.5571 38.2391C45.1869 36.5127 44.8213 35.1102 44.4896 33.9903L36.6575 36.3102C36.9261 37.217 37.2409 38.4162 37.5701 39.9515L45.5571 38.2391ZM45.6231 38.6467L44.8337 31.5031L36.7146 32.4004L37.5041 39.5439L45.6231 38.6467ZM39.9737 61.8042C40.1655 66.3922 40.2453 71.6571 40.1562 77.6775L48.3238 77.7984C48.415 71.6359 48.3338 66.2164 48.135 61.463L39.9737 61.8042ZM46.0789 81.3848L46.1459 81.351L42.468 74.0574L42.4011 74.0911L46.0789 81.3848ZM46.1418 81.3531C46.4889 81.1785 46.9215 80.9697 47.4385 80.7356L44.0699 73.2941C43.449 73.5751 42.9161 73.832 42.4721 74.0553L46.1418 81.3531ZM49.8137 76.5662L48.1139 61.185L39.9948 62.0823L41.6946 77.4635L49.8137 76.5662ZM44.2113 75.0275C43.8344 75.2039 43.4992 75.3675 43.206 75.5149L46.8757 82.8126C47.102 82.6989 47.3687 82.5687 47.6753 82.4251L44.2113 75.0275ZM43.2061 75.5148C42.8053 75.7164 42.483 75.8878 42.2402 76.0213L46.1749 83.1797C46.3322 83.0932 46.5661 82.9683 46.8757 82.8127L43.2061 75.5148ZM40.1241 79.5187C40.0336 84.0358 39.8496 88.9607 39.5498 94.3243L47.7055 94.7802C48.0105 89.3246 48.1984 84.302 48.291 79.6823L40.1241 79.5187ZM45.3101 98.2738C46.0016 97.9612 47.2175 97.4387 48.9424 96.7965L46.0921 89.1414C44.186 89.8511 42.7986 90.4448 41.9453 90.8306L45.3101 98.2738ZM51.5768 92.5203L50.0028 78.2776L41.8838 79.1749L43.4578 93.4176L51.5768 92.5203ZM88.9916 89.2665C90.0881 89.2098 91.2038 89.1623 92.3386 89.1247L92.0686 80.9607C90.8829 80.9999 89.7165 81.0496 88.5696 81.1089L88.9916 89.2665ZM95.7079 82.9448L95.6846 82.906L88.6761 87.1018L88.6993 87.1406L95.7079 82.9448ZM95.6852 82.9069C95.5213 82.633 95.279 82.2254 94.9695 81.6974L87.9226 85.8284C88.245 86.3784 88.4997 86.8071 88.6755 87.1008L95.6852 82.9069ZM94.9695 81.6975C94.3505 80.6416 93.4636 79.1055 92.3986 77.1968L85.2653 81.1766C86.3617 83.1418 87.2778 84.7285 87.9226 85.8284L94.9695 81.6975ZM92.3986 77.1968C90.7103 74.1706 88.5781 70.2138 86.3596 65.7532L79.0458 69.3909C81.3336 73.9908 83.5286 78.0639 85.2653 81.1767L92.3986 77.1968ZM78.8418 68.9042L84.9197 86.5198L92.6415 83.8556L86.5636 66.2399L78.8418 68.9042ZM91.2711 85.4678C85.0686 85.7051 76.7504 86.7068 67.7581 88.3953L69.2656 96.4235C77.989 94.7855 85.8922 93.848 91.5833 93.6303L91.2711 85.4678ZM99.091 85.7253C97.0461 85.4141 94.3473 85.3502 91.2711 85.4678L91.5833 93.6303C94.4664 93.5201 96.5692 93.604 97.8622 93.8008L99.091 85.7253ZM102.042 86.5405C101.139 86.1175 100.092 85.8776 99.0911 85.7253L97.8622 93.8008C98.1708 93.8477 98.3856 93.8943 98.5214 93.9301C98.6674 93.9686 98.669 93.9807 98.5779 93.938L102.042 86.5405ZM104.286 88.5438C103.727 87.5301 102.854 86.9208 102.042 86.5405L98.5778 93.938C98.5054 93.9041 98.2819 93.7919 98.0046 93.5589C97.8623 93.4394 97.7014 93.2843 97.5396 93.0881C97.3592 92.8694 97.2263 92.6584 97.1311 92.4856L104.286 88.5438ZM104.211 88.414L104.211 88.4134L97.2061 92.616L97.2065 92.6167L104.211 88.414ZM96.8134 91.7433L96.8145 91.7468L104.603 89.2839L104.602 89.2803L96.8134 91.7433ZM96.7021 91.3127C96.7299 91.4498 96.762 91.5732 96.7945 91.6818L104.621 89.3418C104.652 89.4458 104.682 89.5624 104.708 89.6903L96.7021 91.3127ZM100.69 86.3368L99.8918 86.499L101.518 94.5039L102.317 94.3417L100.69 86.3368ZM102.769 94.2935L103.427 93.9424L99.5802 86.7362L98.9223 87.0873L102.769 94.2935ZM102.702 94.3289L102.762 94.2971L98.9289 87.0838L98.869 87.1156L102.702 94.3289ZM96.9089 92.0148C96.9113 92.0218 96.9282 92.0729 96.9518 92.1369C96.9764 92.2037 97.016 92.3056 97.0716 92.4268C97.1837 92.6712 97.377 93.0293 97.6993 93.4006C98.4415 94.2556 99.3804 94.6374 100.151 94.7582C100.794 94.8591 101.304 94.7795 101.51 94.7425C101.754 94.6983 101.942 94.6409 102.038 94.6101C102.229 94.5486 102.372 94.4861 102.413 94.4683C102.473 94.4422 102.52 94.42 102.544 94.4089C102.591 94.3863 102.627 94.3678 102.638 94.3622C102.654 94.3542 102.666 94.3477 102.673 94.3443L98.8983 87.1002C98.9039 87.0973 98.9157 87.0912 98.9309 87.0835C98.9412 87.0782 98.9772 87.0598 99.0241 87.0374C99.0473 87.0264 99.0942 87.0042 99.1543 86.9781C99.1951 86.9603 99.3387 86.8979 99.5294 86.8364C99.6248 86.8055 99.8134 86.7482 100.058 86.704C100.263 86.667 100.773 86.5874 101.416 86.6883C102.187 86.8091 103.126 87.1909 103.868 88.0459C104.19 88.4172 104.383 88.7753 104.496 89.0197C104.551 89.1409 104.591 89.2428 104.615 89.3096C104.639 89.3736 104.656 89.4247 104.658 89.4317L96.9089 92.0148ZM104.437 88.8969L104.437 88.8967L97.1305 92.5498L97.1306 92.5499L104.437 88.8969ZM104.394 88.8137L104.393 88.811L97.1748 92.6358L97.1762 92.6384L104.394 88.8137ZM104.409 88.8414L104.401 88.8275L97.1689 92.6246L97.1762 92.6385L104.409 88.8414ZM104.462 88.9451C104.442 88.9057 104.425 88.8736 104.413 88.8492L97.1721 92.6307C97.173 92.6323 97.1776 92.6412 97.1858 92.6573L104.462 88.9451ZM104.624 89.2707C104.557 89.1329 104.502 89.0238 104.462 88.9449L97.1859 92.6575C97.2023 92.6897 97.2325 92.7496 97.2743 92.8358L104.624 89.2707ZM105.15 90.4254C104.939 89.935 104.757 89.5454 104.624 89.2705L97.2745 92.836C97.3584 93.009 97.4883 93.2861 97.6468 93.6543L105.15 90.4254ZM106.619 94.4901C106.113 92.7961 105.571 91.4044 105.15 90.4254L97.6468 93.6544C97.965 94.3937 98.3911 95.4842 98.7905 96.8238L106.619 94.4901ZM108.033 106.502C108.385 101.86 107.548 97.607 106.619 94.4901L98.7905 96.8238C99.5393 99.3357 100.141 102.547 99.8879 105.884L108.033 106.502ZM72.7058 113.54C80.398 112.103 87.4683 111.063 92.9821 110.494C95.7434 110.21 98.0664 110.048 99.8574 110.008C100.753 109.989 101.475 110 102.028 110.035C102.302 110.052 102.514 110.074 102.669 110.095C102.831 110.118 102.891 110.135 102.877 110.131L105.044 102.255C103.589 101.855 101.61 101.799 99.6755 101.842C97.589 101.888 95.0313 102.071 92.1444 102.369C86.3618 102.965 79.0656 104.042 71.2054 105.51L72.7058 113.54ZM43.356 121.243C43.3176 121.273 43.4753 121.152 43.9999 120.905C44.4814 120.678 45.134 120.409 45.9683 120.103C47.6354 119.493 49.8567 118.801 52.5448 118.064C57.9111 116.591 64.9394 114.991 72.7058 113.54L71.2054 105.51C63.2701 106.993 56.0145 108.641 50.3833 110.187C47.5725 110.958 45.1167 111.717 43.1616 112.432C41.3743 113.086 39.5161 113.871 38.3065 114.822L43.356 121.243ZM33.1644 107.534C33.1246 111.321 33.9714 116.379 37.7527 120.717L43.9098 115.349C41.8884 113.03 41.3053 110.201 41.3324 107.62L33.1644 107.534ZM33.6819 102.731C33.4357 103.924 33.1847 105.597 33.1644 107.534L41.3324 107.62C41.346 106.323 41.5159 105.186 41.6819 104.381L33.6819 102.731ZM34.0266 101.297C33.9296 101.644 33.8055 102.131 33.6819 102.731L41.6819 104.381C41.7641 103.983 41.8428 103.678 41.8953 103.489L34.0266 101.297ZM34.1477 100.884C34.1159 100.986 34.0745 101.125 34.0266 101.296L41.8953 103.489C41.9211 103.397 41.9403 103.333 41.95 103.302L34.1477 100.884ZM35.227 99.1066C35.0393 99.3076 34.8566 99.528 34.6891 99.7704L41.4086 104.415C41.315 104.55 41.2368 104.639 41.1965 104.682L35.227 99.1066ZM37.6685 97.2623C36.7986 97.7667 35.9112 98.3742 35.2271 99.1065L41.1964 104.682C41.1178 104.767 41.1049 104.762 41.2198 104.678C41.3257 104.6 41.5017 104.482 41.7661 104.329L37.6685 97.2623ZM44.8244 94.1895C41.9282 95.1933 39.448 96.2303 37.6685 97.2623L41.7661 104.329C42.877 103.684 44.7853 102.848 47.4995 101.908L44.8244 94.1895ZM67.7581 88.3953C58.7661 90.0838 50.6662 92.1648 44.8245 94.1895L47.4995 101.908C52.8541 100.052 60.5418 98.0616 69.2656 96.4235L67.7581 88.3953ZM40.3495 114.832L40.0814 114.839L40.302 123.005L40.57 122.997L40.3495 114.832ZM36.3941 119.658C36.5698 120.432 36.9303 121.061 37.3276 121.536L43.5919 116.293C43.9052 116.668 44.2105 117.19 44.3605 117.852L36.3941 119.658ZM42.9254 121.956L43.111 121.789L37.6436 115.72L37.458 115.887L42.9254 121.956Z" fill="white"/>
<path d="M39.8645 118.436L36.3956 101.958H35.5283L73.1663 88.7765L101.265 90.3375L102.999 105.601L39.8645 118.436Z" fill="white"/>
<path d="M76.0848 16.5474C76.0848 16.5474 76.1721 9.68494 74.7053 6.26243C71.567 4.67695 66.184 5.21752 66.184 5.21752C66.184 5.21752 61.8535 12.3391 54.7291 6.26243L44.4491 8.18888C44.4491 8.18888 42.1566 17.0189 33.1547 11.2007C33.1547 11.2007 27.6982 12.3391 25.249 15.8621C26.3281 21.8652 30.0071 25.713 30.0071 25.713" stroke="#262626" stroke-width="0.871305" stroke-miterlimit="10" stroke-linecap="round" stroke-linejoin="round"/>
<path d="M38.7695 32.6759C38.7695 32.6759 45.581 45.9041 42.7871 95.0764" stroke="#262626" stroke-width="0.871305" stroke-miterlimit="10"/>
<path d="M93.1404 85.1429C93.1404 85.1429 70.1069 47.3409 70.3863 26.9456" stroke="#262626" stroke-width="0.871305" stroke-miterlimit="10"/>
<path d="M37.1516 102.551C36.6159 99.9142 50.5866 95.0721 68.3561 91.7355C86.1255 88.3989 100.965 87.8313 101.5 90.4678" stroke="#262626" stroke-width="0.871305" stroke-miterlimit="10"/>
<path d="M73.1504 116.062C90.9227 112.741 105.062 108.615 104.731 106.845C104.401 105.076 89.7253 106.333 71.953 109.654C54.1807 112.975 40.0415 117.102 40.3721 118.871C40.7028 120.641 55.3781 119.383 73.1504 116.062Z" fill="#262626" stroke="#262626" stroke-width="0.871305" stroke-miterlimit="10"/>
<path d="M37.303 101.864C37.303 101.864 33.9477 111.747 40.3758 118.882" stroke="#262626" stroke-width="0.871305" stroke-miterlimit="10"/>
<path d="M101.502 90.4677C101.502 90.4677 105.732 98.3887 104.676 107.383" stroke="#262626" stroke-width="0.871305" stroke-miterlimit="10"/>
<path d="M52.8087 128.456C79.2128 128.456 100.617 126.313 100.617 123.669C100.617 121.025 79.2128 118.882 52.8087 118.882C26.4047 118.882 5 121.025 5 123.669C5 126.313 26.4047 128.456 52.8087 128.456Z" fill="#262626"/>
<path d="M46.2041 30.1631C46.2041 30.1631 55.6637 55.4266 54.8468 90.7035" stroke="#262626" stroke-width="0.871305" stroke-miterlimit="10"/>
<path d="M60.8164 27.6356C60.8164 27.6356 67.9626 67.0992 79.3292 86.0598" stroke="#262626" stroke-width="0.871305" stroke-miterlimit="10"/>
<path d="M41.6895 44.6753C41.6895 44.6753 54.2828 39.0498 72.2202 39.2894" stroke="#262626" stroke-width="0.871305" stroke-miterlimit="10"/>
<path d="M58.6406 59.5557C58.6406 59.5557 72.0119 55.7839 78.5167 56.8476" stroke="#262626" stroke-width="0.871305" stroke-miterlimit="10"/>
<path d="M43.3994 79.2501C43.3994 79.2501 50.2577 75.062 63.2493 72.9666" stroke="#262626" stroke-width="0.871305" stroke-miterlimit="10"/>
<path d="M53.5143 24.6097L72.4796 19.256L70.6541 27.6356C70.6541 27.6356 65.7648 26.5879 53.8209 28.5436C41.8771 30.4993 38.8038 33.2233 38.8038 33.2233L33.7938 26.866C30.5289 26.8748 29.5723 26.4727 29.4068 25.6334C29.0158 23.6505 38.8038 19.3237 52.0983 17.4288C65.1385 15.57 75.8148 14.422 76.2058 16.405C76.3641 17.2076 75.2618 18.0862 72.4796 19.256" fill="#262626"/>
<path d="M53.5143 24.6097L72.4796 19.256L70.6541 27.6356C70.6541 27.6356 65.7648 26.5879 53.8209 28.5436C41.8771 30.4993 38.8038 33.2233 38.8038 33.2233L33.7938 26.866C30.5289 26.8748 29.5723 26.4727 29.4068 25.6334C29.0158 23.6505 38.8038 19.3237 52.0983 17.4288C65.1385 15.57 75.8148 14.422 76.2058 16.405C76.3641 17.2076 75.2618 18.0862 72.4796 19.256" stroke="#262626" stroke-width="0.871305" stroke-miterlimit="10"/>
<path d="M91.9109 88.8431C90.8949 88.8623 71.8537 89.3241 46.2767 97.3066C46.2597 97.3119 46.2412 97.3094 46.2263 97.2997L42.8765 95.134C42.8373 95.1086 42.8398 95.0505 42.8818 95.03C44.3042 94.3336 61.8234 86.058 92.9195 85.1494C93.0267 85.1462 93.1056 85.2503 93.0728 85.3525L91.9667 88.8014C91.9589 88.8258 91.9366 88.8426 91.9109 88.8431Z" fill="#262626" stroke="#262626" stroke-width="0.871305" stroke-miterlimit="10"/>
</g>
<defs>
<filter id="filter0_d_568_2459" x="0.916016" y="0.915527" width="111.734" height="134.397" filterUnits="userSpaceOnUse" color-interpolation-filters="sRGB">
<feFlood flood-opacity="0" result="BackgroundImageFix"/>
<feColorMatrix in="SourceAlpha" type="matrix" values="0 0 0 0 0 0 0 0 0 0 0 0 0 0 0 0 0 0 127 0" result="hardAlpha"/>
<feOffset dx="1.45045" dy="1.45045"/>
<feGaussianBlur stdDeviation="0.725225"/>
<feComposite in2="hardAlpha" operator="out"/>
<feColorMatrix type="matrix" values="0 0 0 0 0 0 0 0 0 0 0 0 0 0 0 0 0 0 0.25 0"/>
<feBlend mode="normal" in2="BackgroundImageFix" result="effect1_dropShadow_568_2459"/>
<feBlend mode="normal" in="SourceGraphic" in2="effect1_dropShadow_568_2459" result="shape"/>
</filter>
</defs>
</svg>
