<svg  preserveAspectRatio="none" width="130" height="134" viewBox="0 0 130 134" fill="none" xmlns="http://www.w3.org/2000/svg">
<g filter="url(#filter0_d_568_2504)">
<path fill-rule="evenodd" clip-rule="evenodd" d="M46.7165 7.24098C46.7006 7.23298 46.6852 7.22535 46.6702 7.21807C46.6689 7.25287 46.668 7.29017 46.6677 7.33013C46.6625 7.97916 46.8079 8.96045 47.1542 10.2961C47.6437 12.184 48.4859 14.6 49.6504 17.4583C51.3393 16.634 53.0888 15.9147 54.8905 15.309C52.5839 12.5186 50.5765 10.3496 48.967 8.90929C48.0048 8.04823 47.2537 7.51073 46.7165 7.24098ZM58.0837 14.3695C55.392 11.045 52.9831 8.38799 51.0119 6.62408C49.9731 5.69453 48.9864 4.94937 48.0928 4.50057C47.2984 4.10161 46.0644 3.68204 44.9495 4.3539C43.8029 5.04476 43.6087 6.3816 43.6012 7.30528C43.5928 8.34979 43.8143 9.63294 44.1858 11.0657C44.7367 13.1905 45.6717 15.8438 46.9297 18.9068C38.7424 23.6423 32.224 30.9422 28.4728 39.7083C25.0155 39.8668 21.9603 40.1792 19.6788 40.6515C18.4744 40.9008 17.3996 41.2116 16.5778 41.6128C15.8802 41.9534 14.8003 42.6311 14.6521 43.8833L17.8626 44.3988L14.6521 43.8833C14.5397 44.8337 14.8982 45.6697 15.4823 46.3401C16.0341 46.9735 16.8235 47.5093 17.755 47.9929C19.438 48.8664 21.9447 49.7485 25.3918 50.7071C25.0982 52.7587 24.9463 54.856 24.9463 56.9888C24.9463 74.1325 34.7595 88.9843 49.0751 96.2333L45.2413 104.585L48.0283 105.865L51.8578 97.522C57.1009 99.7302 62.8621 100.951 68.9084 100.951C77.7205 100.951 85.9271 98.3581 92.8069 93.8938C94.0275 95.2517 95.1542 96.4069 96.1683 97.3326C97.2615 98.3306 98.2925 99.1259 99.2199 99.6065C100.04 100.031 101.313 100.484 102.459 99.7935C103.262 99.3096 103.713 98.5368 103.895 97.6657C104.065 96.8471 104.011 95.9043 103.827 94.8833C103.483 92.9719 102.602 90.356 101.158 86.8661C107.543 79.9771 111.748 71.0386 112.676 61.1474C116.38 61.0415 119.124 60.7824 121.046 60.3387C122.151 60.0838 123.107 59.7417 123.836 59.2456C124.605 58.7221 125.19 57.9705 125.308 56.9748C125.456 55.7232 124.604 54.7995 123.963 54.2659C123.239 53.662 122.233 53.0945 121.066 52.5572C118.887 51.554 115.853 50.5246 112.239 49.5224C110.178 37.4753 103.215 27.1014 93.4757 20.5266C93.2656 18.0402 91.905 15.8814 89.9283 14.5845L93.7459 6.26772L90.959 4.98841L87.0827 13.4329C86.6012 13.3413 86.1043 13.2934 85.5961 13.2934C84.1805 13.2934 82.8518 13.6653 81.7024 14.3168L81.3451 13.695C81.2117 13.7693 81.0798 13.8474 80.9495 13.9292L80.9292 13.9413L80.9215 13.9469C80.6636 14.1104 80.4123 14.2888 80.1689 14.4822C76.575 13.5327 72.8007 13.0268 68.9084 13.0268C65.173 13.0268 61.5465 13.4927 58.0837 14.3695ZM17.8626 44.3988C17.8817 44.389 17.9018 44.3789 17.9231 44.3685C18.4074 44.1321 19.1932 43.8836 20.3004 43.6544C22.081 43.2858 24.4723 43.0104 27.272 42.8424C26.7378 44.4151 26.2902 46.0277 25.935 47.6747C22.704 46.7661 20.5299 45.9781 19.1678 45.2711C18.4707 44.9093 18.0738 44.6123 17.8626 44.3988ZM91.4155 27.6786C89.0744 29.8213 85.8763 30.4381 83.0436 29.583L70.9858 55.8512C79.5941 56.8257 88.3814 57.4787 96.1075 57.829C93.3633 52.5789 92.1677 45.9549 96.6463 42.813C101.15 39.6532 102.771 36.7975 103.324 34.8882C100.588 30.6372 97.0863 26.9259 93.0136 23.9494C92.7446 24.6752 92.3721 25.3508 91.914 25.9582L92.5452 26.4239C92.2159 26.8702 91.8391 27.2909 91.4155 27.6786ZM79.1598 27.1363C79.0512 27.0177 78.9466 26.8969 78.8459 26.7741C76.4018 26.4113 73.8705 25.7566 71.4629 25.1338L71.4629 25.1338C69.1787 24.543 67.0059 23.981 65.1248 23.7245C59.7745 22.9949 57.8665 24.9253 54.9713 27.8547C54.8382 27.9894 54.703 28.1262 54.5652 28.265C58.2452 35.7443 63.0335 44.5163 68.5704 53.7623L80.3098 28.1878C79.9027 27.8777 79.5175 27.5271 79.1598 27.1363ZM93.9193 79.6484C93.9193 81.7224 93.4324 83.6826 92.5666 85.4211C94.0879 86.1402 95.1185 87.0819 95.7632 87.832C102.564 81.9058 107.386 73.7673 109.108 64.538C107.896 64.8498 106.034 65.2036 103.59 65.3033C102.078 65.3651 99.9517 63.593 98.0544 60.9807C90.0976 60.668 80.8629 60.0226 71.7722 59.0244C73.514 61.8417 75.2427 64.5644 76.9411 67.171C79.2556 66.4186 81.8078 66.3084 84.332 66.9928C89.794 68.4738 93.49 73.2322 93.8754 78.5742C93.9045 78.9284 93.9193 79.2867 93.9193 79.6484ZM74.1295 68.4726C72.4246 65.8497 70.6922 63.1146 68.9488 60.2888L65.6638 67.4453C68.6159 67.0991 71.3929 67.4904 73.2761 69.0466C73.5531 68.844 73.8378 68.6526 74.1295 68.4726ZM61.928 68.233L66.4434 58.3961C52.0092 56.5784 37.7413 53.8682 28.3784 51.4979C28.1374 53.2939 28.0129 55.1268 28.0129 56.9888C28.0129 62.4084 29.0671 67.5817 30.9817 72.315C31.8101 67.9948 34.235 60.9142 40.9369 66.2483C41.713 66.866 42.4211 67.4358 43.0713 67.959C50.1802 73.6796 50.3787 73.8393 57.0015 70.268C58.5066 69.4563 60.1961 68.7498 61.928 68.233ZM28.9021 48.4669C37.9098 50.7621 51.7488 53.4142 65.8765 55.2326C60.5456 46.3249 55.893 37.8349 52.2421 30.4853C51.1939 31.4151 49.9758 32.3861 48.4933 33.3632C42.3695 37.3994 38.1111 34.2541 36.2916 32.3156C32.7341 37.0111 30.1672 42.4986 28.9021 48.4669ZM120.357 57.3506C118.764 57.7181 116.345 57.9654 112.857 58.0739C112.866 57.7133 112.87 57.3516 112.87 56.9888C112.87 55.5877 112.805 54.2019 112.677 52.8343C115.64 53.6955 118.055 54.547 119.783 55.3427C120.855 55.8363 121.58 56.2711 122 56.6217C122.04 56.6551 122.075 56.6857 122.106 56.7136C121.831 56.8997 121.299 57.1333 120.357 57.3506ZM98.8047 89.2205C97.7006 90.2451 96.5437 91.2137 95.3387 92.1217C96.4037 93.2942 97.3739 94.281 98.2358 95.0678C99.2548 95.9981 100.054 96.5851 100.631 96.8837C100.739 96.9397 100.827 96.98 100.899 97.0088C100.949 96.7352 100.956 96.2421 100.809 95.4262C100.558 94.034 99.9259 92.0314 98.8047 89.2205ZM46.257 7.06827C46.2568 7.06799 46.2608 7.06801 46.2694 7.06918C46.2614 7.06915 46.2571 7.06856 46.257 7.06827ZM100.839 97.2008C100.839 97.2019 100.839 97.2024 100.839 97.2025C100.839 97.2026 100.842 97.1992 100.847 97.1907C100.843 97.1953 100.84 97.1988 100.839 97.2008ZM101.13 97.0802C101.137 97.0802 101.14 97.0806 101.14 97.0808C101.14 97.081 101.137 97.081 101.13 97.0802ZM46.7275 6.79664C46.7299 6.79021 46.7314 6.78736 46.7316 6.78755C46.7317 6.78773 46.7305 6.79094 46.7275 6.79664ZM69.9751 126.564C92.7588 126.564 111.229 124.67 111.229 122.333C111.229 119.996 92.7588 118.102 69.9751 118.102C47.1913 118.102 28.7215 119.996 28.7215 122.333C28.7215 124.67 47.1913 126.564 69.9751 126.564ZM17.5603 44.591C17.5598 44.5909 17.5635 44.5866 17.573 44.5783C17.5655 44.587 17.5608 44.5911 17.5603 44.591ZM122.303 56.9303C122.302 56.9303 122.302 56.9292 122.3 56.9271L122.298 56.922L122.295 56.9172L122.299 56.9238L122.302 56.928C122.303 56.9295 122.303 56.9303 122.303 56.9303ZM122.272 56.5742C122.276 56.5642 122.28 56.5593 122.281 56.5594C122.282 56.5594 122.28 56.5644 122.272 56.5742ZM17.6959 44.1894C17.6918 44.1808 17.691 44.1768 17.6915 44.1769C17.6921 44.177 17.6941 44.1813 17.6959 44.1894ZM6 89.9684C6 86.4382 8.86184 83.5764 12.3921 83.5764C15.9223 83.5764 18.7842 86.4382 18.7842 89.9684C18.7842 93.4987 15.9223 96.3605 12.3921 96.3605C8.86184 96.3605 6 93.4987 6 89.9684Z" fill="white"/>
<path d="M46.6702 7.21807L48.3444 3.76978C47.1787 3.20383 45.806 3.26511 44.6954 3.93267C43.5848 4.60023 42.8866 5.7837 42.8395 7.07864L46.6702 7.21807ZM46.7165 7.24098L44.996 10.6664L44.9962 10.6665L46.7165 7.24098ZM46.6677 7.33013L42.8346 7.29903V7.29909L46.6677 7.33013ZM47.1542 10.2961L50.8647 9.33395L50.8647 9.33394L47.1542 10.2961ZM49.6504 17.4583L46.1005 18.9046C46.5009 19.8875 47.291 20.6603 48.2824 21.0391C49.2738 21.4179 50.3779 21.3686 51.3317 20.9031L49.6504 17.4583ZM54.8905 15.309L56.112 18.9424C57.3086 18.5401 58.2304 17.5745 58.5767 16.3605C58.923 15.1465 58.6493 13.8398 57.845 12.8668L54.8905 15.309ZM48.967 8.90929L51.5231 6.05278V6.05278L48.967 8.90929ZM51.0119 6.62408L53.5681 3.76757L53.5681 3.76756L51.0119 6.62408ZM58.0837 14.3695L55.1045 16.7816C56.0452 17.9434 57.5755 18.4524 59.0246 18.0854L58.0837 14.3695ZM48.0928 4.50057L49.8131 1.07506L49.8131 1.07506L48.0928 4.50057ZM44.9495 4.3539L42.9711 1.07067L42.9711 1.07068L44.9495 4.3539ZM43.6012 7.30528L47.4343 7.33635V7.33634L43.6012 7.30528ZM44.1858 11.0657L40.4753 12.0279L40.4753 12.0279L44.1858 11.0657ZM46.9297 18.9068L48.8489 22.225C50.5092 21.2647 51.2042 19.2249 50.4755 17.4506L46.9297 18.9068ZM28.4728 39.7083L28.6484 43.5375C30.1174 43.4701 31.4184 42.5683 31.9969 41.2163L28.4728 39.7083ZM19.6788 40.6515L20.4559 44.4051H20.4559L19.6788 40.6515ZM16.5778 41.6128L18.2595 45.0575H18.2595L16.5778 41.6128ZM14.6521 43.8833L10.8454 43.433C10.604 45.474 12.0152 47.3423 14.0444 47.6681L14.6521 43.8833ZM14.6521 43.8833L15.2598 40.0986C14.2288 39.9331 13.1749 40.1953 12.3417 40.8246C11.5085 41.454 10.9681 42.396 10.8454 43.433L14.6521 43.8833ZM15.4823 46.3401L18.3725 43.8221L18.3725 43.822L15.4823 46.3401ZM17.755 47.9929L19.5209 44.5907L17.755 47.9929ZM25.3918 50.7071L29.1863 51.25C29.4591 49.3432 28.2745 47.5301 26.4187 47.014L25.3918 50.7071ZM49.0751 96.2333L52.5588 97.8325C53.4181 95.9605 52.6444 93.7441 50.8068 92.8136L49.0751 96.2333ZM45.2413 104.585L41.7575 102.986C40.8744 104.91 41.7181 107.186 43.6422 108.069L45.2413 104.585ZM48.0283 105.865L46.4291 109.348C47.3531 109.772 48.4077 109.812 49.3609 109.459C50.3141 109.105 51.0879 108.388 51.512 107.464L48.0283 105.865ZM51.8578 97.522L53.3456 93.9893C51.4382 93.186 49.2375 94.0419 48.374 95.9229L51.8578 97.522ZM92.8069 93.8938L95.6577 91.3312C94.3967 89.9284 92.3026 89.6515 90.7203 90.6782L92.8069 93.8938ZM96.1683 97.3326L98.7527 94.5016L96.1683 97.3326ZM99.2199 99.6065L100.983 96.203H100.983L99.2199 99.6065ZM102.459 99.7935L104.438 103.077L104.438 103.077L102.459 99.7935ZM103.895 97.6657L100.142 96.8841L103.895 97.6657ZM103.827 94.8833L100.054 95.5619V95.5619L103.827 94.8833ZM101.158 86.8661L98.3464 84.2604C97.3286 85.3585 97.0433 86.9487 97.6159 88.3321L101.158 86.8661ZM112.676 61.1474L112.567 57.3157C110.631 57.371 109.041 58.8613 108.86 60.7893L112.676 61.1474ZM121.046 60.3387L121.908 64.0738H121.908L121.046 60.3387ZM123.836 59.2456L121.678 56.0772L121.678 56.0772L123.836 59.2456ZM125.308 56.9748L121.501 56.5244L121.501 56.5245L125.308 56.9748ZM123.963 54.2659L126.417 51.3212L126.417 51.3212L123.963 54.2659ZM121.066 52.5572L122.669 49.0754L121.066 52.5572ZM112.239 49.5224L108.461 50.1689C108.711 51.6323 109.784 52.8195 111.215 53.2163L112.239 49.5224ZM93.4757 20.5266L89.6561 20.8494C89.7538 22.0052 90.3695 23.0546 91.3309 23.7036L93.4757 20.5266ZM89.9283 14.5845L86.4446 12.9854C85.6538 14.708 86.2408 16.7499 87.8256 17.7896L89.9283 14.5845ZM93.7459 6.26772L97.2297 7.86684C97.6538 6.9429 97.6935 5.88832 97.3401 4.9351C96.9866 3.98188 96.269 3.2081 95.3451 2.78398L93.7459 6.26772ZM90.959 4.98841L92.5581 1.50468C91.6341 1.08056 90.5796 1.04086 89.6263 1.39429C88.6731 1.74772 87.8993 2.46534 87.4752 3.38929L90.959 4.98841ZM87.0827 13.4329L86.3664 17.1986C88.0981 17.528 89.8311 16.634 90.5664 15.032L87.0827 13.4329ZM81.7024 14.3168L78.3787 16.2265C79.429 18.0545 81.7584 18.6912 83.5925 17.6517L81.7024 14.3168ZM81.3451 13.695L84.6688 11.7854C83.6243 9.96746 81.313 9.32599 79.481 10.3456L81.3451 13.695ZM80.9495 13.9292L82.9046 17.2264C82.9331 17.2095 82.9613 17.1922 82.9893 17.1746L80.9495 13.9292ZM80.9292 13.9413L78.9741 10.6441C78.867 10.7076 78.7631 10.7763 78.6627 10.8499L80.9292 13.9413ZM80.9215 13.9469L82.9738 17.1844C83.0468 17.1382 83.1183 17.0894 83.188 17.0383L80.9215 13.9469ZM80.1689 14.4822L79.1897 18.1883C80.3593 18.4973 81.6061 18.2361 82.5533 17.4836L80.1689 14.4822ZM17.9231 44.3685L19.6046 47.8133L19.6049 47.8132L17.9231 44.3685ZM20.3004 43.6544L19.5234 39.9008H19.5234L20.3004 43.6544ZM27.272 42.8424L30.9015 44.0752C31.3121 42.8665 31.094 41.5326 30.3197 40.5176C29.5455 39.5026 28.3167 38.9396 27.0424 39.0161L27.272 42.8424ZM25.935 47.6747L24.8972 51.3648C25.9154 51.6511 27.0066 51.504 27.9126 50.9583C28.8187 50.4127 29.459 49.5169 29.682 48.483L25.935 47.6747ZM19.1678 45.2711L20.9337 41.8689L20.9337 41.8689L19.1678 45.2711ZM83.0436 29.583L84.1514 25.9133C82.3186 25.36 80.3586 26.2439 79.5599 27.9838L83.0436 29.583ZM91.4155 27.6786L94.0036 30.5063L94.0037 30.5062L91.4155 27.6786ZM70.9858 55.8512L67.5021 54.252C66.9892 55.3693 67.0433 56.6648 67.6476 57.7354C68.2519 58.806 69.333 59.5217 70.5546 59.66L70.9858 55.8512ZM96.1075 57.829L95.9339 61.6582C97.3043 61.7204 98.6034 61.0455 99.3404 59.8885C100.077 58.7316 100.14 57.269 99.5046 56.0533L96.1075 57.829ZM96.6463 42.813L98.8477 45.951L98.8477 45.951L96.6463 42.813ZM103.324 34.8882L107.006 35.9536C107.314 34.8899 107.146 33.7451 106.547 32.8139L103.324 34.8882ZM93.0136 23.9494L95.2754 20.8546C94.3054 20.1457 93.0591 19.9325 91.9087 20.2788C90.7583 20.6251 89.8367 21.4907 89.4192 22.6173L93.0136 23.9494ZM91.914 25.9582L88.8535 23.6502C88.2372 24.4674 87.9734 25.4972 88.1207 26.5101C88.2681 27.523 88.8145 28.4349 89.6381 29.0426L91.914 25.9582ZM92.5452 26.4239L95.6297 28.6999C96.2333 27.8818 96.4872 26.8575 96.3356 25.8522C96.184 24.847 95.6392 23.9431 94.8211 23.3395L92.5452 26.4239ZM78.8459 26.7741L81.81 24.3435C81.2064 23.6074 80.3504 23.1222 79.4087 22.9824L78.8459 26.7741ZM79.1598 27.1363L81.9875 24.5483L81.9874 24.5483L79.1598 27.1363ZM71.4629 25.1338L72.4228 21.4227C72.4128 21.4201 72.4027 21.4176 72.3926 21.415L71.4629 25.1338ZM71.4629 25.1338L70.503 28.8449C70.513 28.8475 70.5231 28.8501 70.5332 28.8526L71.4629 25.1338ZM65.1248 23.7245L64.6069 27.5225H64.6069L65.1248 23.7245ZM54.9713 27.8547L57.6977 30.5493L57.6977 30.5493L54.9713 27.8547ZM54.5652 28.265L51.8447 25.5646C50.6924 26.7255 50.4037 28.4896 51.1258 29.9573L54.5652 28.265ZM68.5704 53.7623L65.2818 55.7317C66.0126 56.9522 67.3592 57.6675 68.7797 57.5899C70.2001 57.5122 71.4607 56.6543 72.0541 55.3615L68.5704 53.7623ZM80.3098 28.1878L83.7936 29.7869C84.5419 28.1566 84.0595 26.2253 82.6324 25.1383L80.3098 28.1878ZM92.5666 85.4211L89.1353 83.7123C88.6761 84.6345 88.6074 85.7028 88.9447 86.6762C89.2821 87.6497 89.9971 88.4464 90.9285 88.8867L92.5666 85.4211ZM95.7632 87.832L92.8561 90.3305C93.5217 91.1049 94.4688 91.5818 95.4873 91.6553C96.5059 91.7288 97.5117 91.3928 98.2815 90.7219L95.7632 87.832ZM109.108 64.538L112.877 65.2412C113.117 63.9536 112.683 62.6325 111.726 61.738C110.77 60.8435 109.422 60.4993 108.154 60.8255L109.108 64.538ZM103.59 65.3033L103.434 61.4733H103.434L103.59 65.3033ZM98.0544 60.9807L101.156 58.7281C100.466 57.7779 99.3783 57.1965 98.2049 57.1504L98.0544 60.9807ZM71.7722 59.0244L72.1906 55.2141C70.7339 55.0541 69.3134 55.7387 68.531 56.9778C67.7486 58.217 67.7411 59.7937 68.5118 61.0402L71.7722 59.0244ZM76.9411 67.171L73.7296 69.2636C74.6756 70.7155 76.4781 71.3521 78.1262 70.8164L76.9411 67.171ZM84.332 66.9928L85.3351 63.2932L85.3351 63.2932L84.332 66.9928ZM93.8754 78.5742L90.0521 78.8501C90.053 78.8626 90.054 78.875 90.055 78.8875L93.8754 78.5742ZM68.9488 60.2888L72.2111 58.2761C71.469 57.0732 70.125 56.3763 68.7142 56.4628C67.3034 56.5493 66.0547 57.4051 65.4651 58.6897L68.9488 60.2888ZM74.1295 68.4726L76.1418 71.7352C77.0204 71.1932 77.6434 70.3198 77.8696 69.3125C78.0957 68.3052 77.9061 67.2493 77.3435 66.3837L74.1295 68.4726ZM65.6638 67.4453L62.18 65.8462C61.602 67.1054 61.7485 68.5785 62.5632 69.6992C63.378 70.82 64.734 71.4138 66.1102 71.2524L65.6638 67.4453ZM73.2761 69.0466L70.8344 72.0015C72.1863 73.1186 74.1239 73.1758 75.5393 72.1404L73.2761 69.0466ZM66.4434 58.3961L69.9271 59.9952C70.4365 58.8856 70.3868 57.5998 69.7933 56.5328C69.1999 55.4659 68.1337 54.7454 66.9223 54.5929L66.4434 58.3961ZM61.928 68.233L63.0241 71.9062C64.0814 71.5907 64.9514 70.8349 65.4117 69.8321L61.928 68.233ZM28.3784 51.4979L29.3191 47.7819C28.2596 47.5136 27.136 47.7104 26.2307 48.3228C25.3254 48.9351 24.7246 49.9048 24.5792 50.988L28.3784 51.4979ZM30.9817 72.315L27.4282 73.7524C28.0653 75.3276 29.6635 76.2954 31.3547 76.13C33.0459 75.9647 34.4263 74.7057 34.7463 73.0368L30.9817 72.315ZM40.9369 66.2483L43.324 63.2491L43.324 63.2491L40.9369 66.2483ZM43.0713 67.959L45.4744 64.9727V64.9727L43.0713 67.959ZM57.0015 70.268L55.1821 66.894L57.0015 70.268ZM65.8765 55.2326L65.3871 59.0344C66.8435 59.2219 68.2789 58.5609 69.0833 57.3325C69.8877 56.1041 69.9197 54.5241 69.1656 53.2641L65.8765 55.2326ZM28.9021 48.4669L25.1522 47.6721C24.7258 49.6839 25.9628 51.6737 27.9556 52.1815L28.9021 48.4669ZM52.2421 30.4853L55.6751 28.78C55.1441 27.711 54.1454 26.9504 52.9738 26.7226C51.8022 26.4947 50.5913 26.8257 49.6984 27.6177L52.2421 30.4853ZM48.4933 33.3632L50.6028 36.5638L50.6028 36.5638L48.4933 33.3632ZM36.2916 32.3156L39.0866 29.6923C38.3138 28.869 37.2174 28.4282 36.0898 28.4877C34.9622 28.5471 33.9182 29.1007 33.2363 30.0007L36.2916 32.3156ZM112.857 58.0739L109.025 57.9811C109 59.0342 109.409 60.0515 110.156 60.7938C110.904 61.5361 111.924 61.9381 112.977 61.9053L112.857 58.0739ZM120.357 57.3506L119.495 53.6156H119.495L120.357 57.3506ZM112.677 52.8343L113.746 49.1534C112.528 48.7992 111.213 49.0712 110.235 49.8797C109.256 50.6882 108.742 51.9285 108.86 53.1921L112.677 52.8343ZM119.783 55.3427L121.387 51.8609L121.387 51.8609L119.783 55.3427ZM122 56.6217L124.454 53.677L124.454 53.677L122 56.6217ZM122.106 56.7136L124.254 59.8886C125.227 59.2303 125.844 58.162 125.929 56.9902C126.014 55.8183 125.557 54.6722 124.688 53.8807L122.106 56.7136ZM95.3387 92.1217L93.0319 89.0603C92.1712 89.7088 91.6233 90.6897 91.5223 91.7626C91.4213 92.8356 91.7767 93.9015 92.5013 94.6992L95.3387 92.1217ZM98.8047 89.2205L102.365 87.8003C101.897 86.6265 100.88 85.7588 99.6472 85.481C98.4143 85.2033 97.1237 85.5511 96.1973 86.4107L98.8047 89.2205ZM98.2358 95.0678L100.82 92.2368H100.82L98.2358 95.0678ZM100.631 96.8837L102.394 93.4803L102.394 93.4803L100.631 96.8837ZM100.899 97.0088L99.4598 100.562C100.528 100.994 101.734 100.923 102.745 100.368C103.755 99.8132 104.462 98.8331 104.669 97.6993L100.899 97.0088ZM100.809 95.4262L97.0361 96.1047V96.1048L100.809 95.4262ZM46.257 7.06827L42.8034 8.73153C42.8097 8.74474 42.8162 8.7579 42.8227 8.77103L46.257 7.06827ZM46.2694 7.06918L46.2519 10.9024C48.2711 10.9116 49.9513 9.35281 50.0932 7.33855C50.2351 5.32429 48.7901 3.54535 46.7895 3.2714L46.2694 7.06918ZM100.839 97.2025L100.087 100.961C100.096 100.963 100.106 100.965 100.115 100.967L100.839 97.2025ZM100.839 97.2008L104.273 98.905L104.273 98.9044L100.839 97.2008ZM100.847 97.1907L104.244 98.9658C105.137 97.2567 104.621 95.1502 103.04 94.0469C101.458 92.9436 99.3032 93.187 98.0076 94.6153L100.847 97.1907ZM101.13 97.0802V93.2469C99.1031 93.2469 97.4263 94.8255 97.3041 96.8491C97.1819 98.8727 98.6565 100.642 100.669 100.886L101.13 97.0802ZM101.14 97.0808L97.6374 98.6376C97.6686 98.7078 97.702 98.7771 97.7373 98.8453L101.14 97.0808ZM46.7275 6.79664L43.1469 5.42801C42.4228 7.32247 43.2996 9.45314 45.1475 10.2891C46.9953 11.1251 49.1746 10.377 50.1194 8.58232L46.7275 6.79664ZM46.7316 6.78755L49.8288 4.52912C49.8182 4.51457 49.8075 4.50009 49.7967 4.48569L46.7316 6.78755ZM17.5603 44.591L16.8071 48.3495L16.8085 48.3498L17.5603 44.591ZM17.573 44.5783L20.4871 47.0685C21.7946 45.5385 21.6961 43.2579 20.2617 41.8462C18.8273 40.4345 16.5454 40.3725 15.0365 41.7042L17.573 44.5783ZM122.3 56.9271L118.94 58.7711C118.961 58.8095 118.983 58.8476 119.005 58.8852L122.3 56.9271ZM122.303 56.9303L122.552 53.1052C122.543 53.1046 122.533 53.104 122.523 53.1034L122.303 56.9303ZM122.298 56.922L118.861 58.619C118.885 58.6686 118.911 58.7176 118.937 58.766L122.298 56.922ZM122.295 56.9172L125.537 54.8711C124.448 53.1466 122.2 52.5763 120.421 53.5733C118.642 54.5703 117.955 56.7856 118.858 58.6142L122.295 56.9172ZM122.299 56.9238L125.638 55.0408C125.607 54.9856 125.575 54.9312 125.541 54.8777L122.299 56.9238ZM122.302 56.928L125.712 55.1768C125.689 55.1324 125.665 55.0885 125.641 55.045L122.302 56.928ZM122.272 56.5742L118.721 55.1324C117.999 56.9089 118.702 58.945 120.365 59.8991C122.028 60.8532 124.14 60.4319 125.31 58.9128L122.272 56.5742ZM122.281 56.5594L122.533 52.7344C122.527 52.734 122.522 52.7337 122.516 52.7333L122.281 56.5594ZM17.6959 44.1894L14.2272 45.821C15.0584 47.5879 17.0848 48.4476 18.9329 47.8175C20.781 47.1874 21.8602 45.2687 21.4388 43.3621L17.6959 44.1894ZM17.6915 44.1769L18.5539 40.4419C18.5454 40.44 18.5369 40.438 18.5284 40.4361L17.6915 44.1769ZM15.2598 40.0986C13.1695 39.763 11.203 41.1854 10.8674 43.2757C10.5317 45.3659 11.9542 47.3325 14.0444 47.6681L15.2598 40.0986ZM17.2549 48.1835C19.3452 48.5192 21.3117 47.0967 21.6473 45.0065C21.9829 42.9162 20.5605 40.9497 18.4703 40.614L17.2549 48.1835ZM44.996 10.6664L44.996 10.6664L48.437 3.81556C48.406 3.79997 48.3751 3.78471 48.3444 3.76978L44.996 10.6664ZM50.5008 7.36123C50.5009 7.35604 50.5009 7.35487 50.5009 7.3575L42.8395 7.07864C42.8368 7.15086 42.8352 7.22431 42.8346 7.29903L50.5008 7.36123ZM50.8647 9.33394C50.7149 8.75614 50.6199 8.29817 50.5642 7.94971C50.5065 7.58944 50.5005 7.40615 50.5008 7.36118L42.8346 7.29909C42.8254 8.44301 43.0661 9.80201 43.4437 11.2582L50.8647 9.33394ZM53.2003 16.012C52.0676 13.2318 51.2943 10.9908 50.8647 9.33395L43.4437 11.2582C43.9931 13.3771 44.9042 15.9682 46.1005 18.9046L53.2003 16.012ZM53.669 11.6756C51.7089 12.3346 49.8058 13.117 47.9691 14.0135L51.3317 20.9031C52.8727 20.151 54.4687 19.4949 56.112 18.9424L53.669 11.6756ZM46.4108 11.7658C47.8139 13.0214 49.6816 15.024 51.936 17.7512L57.845 12.8668C55.4862 10.0132 53.3392 7.67784 51.5231 6.05278L46.4108 11.7658ZM44.9962 10.6665C44.9958 10.6663 45.0055 10.6712 45.0258 10.6828C45.0459 10.6943 45.0742 10.7111 45.111 10.7344C45.1855 10.7815 45.2856 10.8491 45.4124 10.9422C45.668 11.1301 46.0001 11.3983 46.4108 11.7658L51.5231 6.05278C50.466 5.1068 49.4202 4.30929 48.4368 3.81547L44.9962 10.6665ZM48.4558 9.48059C50.2027 11.0439 52.4625 13.5184 55.1045 16.7816L61.0629 11.9574C58.3215 8.57157 55.7634 5.7321 53.5681 3.76757L48.4558 9.48059ZM46.3725 7.92608C46.8209 8.15128 47.5133 8.6372 48.4558 9.4806L53.5681 3.76756C52.433 2.75186 51.152 1.74745 49.8131 1.07506L46.3725 7.92608ZM46.9279 7.63712C46.7767 7.72821 46.608 7.78773 46.4479 7.81522C46.2968 7.84116 46.1906 7.83254 46.1496 7.82723C46.1112 7.82226 46.1156 7.81854 46.1668 7.83631C46.2167 7.85362 46.2854 7.88234 46.3725 7.92608L49.8131 1.07506C48.8423 0.587497 45.918 -0.705066 42.9711 1.07067L46.9279 7.63712ZM47.4343 7.33634C47.4352 7.22836 47.4415 7.144 47.4502 7.08213C47.459 7.01873 47.4662 7.00899 47.4552 7.03969C47.4432 7.073 47.4039 7.16957 47.3111 7.29194C47.2124 7.4222 47.0802 7.54532 46.9279 7.63712L42.9711 1.07068C39.9532 2.88917 39.777 6.18222 39.7681 7.27422L47.4343 7.33634ZM47.8963 10.1036C47.5565 8.79306 47.4299 7.88694 47.4343 7.33635L39.7681 7.27422C39.7557 8.81264 40.072 10.4728 40.4753 12.0279L47.8963 10.1036ZM50.4755 17.4506C49.2501 14.4666 48.386 11.9921 47.8963 10.1036L40.4753 12.0279C41.0875 14.3889 42.0934 17.2209 43.3838 20.363L50.4755 17.4506ZM31.9969 41.2163C35.42 33.2169 41.3723 26.5493 48.8489 22.225L45.0105 15.5886C36.1124 20.7352 29.0279 28.6675 24.9487 38.2002L31.9969 41.2163ZM20.4559 44.4051C22.4537 43.9915 25.2817 43.6918 28.6484 43.5375L28.2972 35.8791C24.7493 36.0418 21.4669 36.3668 18.9017 36.8979L20.4559 44.4051ZM18.2595 45.0575C18.6597 44.8621 19.3736 44.6292 20.4559 44.4051L18.9017 36.8979C17.5752 37.1725 16.1396 37.5611 14.8961 38.1682L18.2595 45.0575ZM18.4588 44.3337C18.4351 44.5338 18.3704 44.7219 18.2862 44.877C18.2068 45.0233 18.1275 45.109 18.0931 45.1427C18.0604 45.1748 18.0538 45.1743 18.0915 45.1497C18.1278 45.1262 18.1822 45.0952 18.2595 45.0575L14.8961 38.1682C14.1041 38.5549 11.248 40.0305 10.8454 43.433L18.4588 44.3337ZM18.4703 40.614L15.2598 40.0986L14.0444 47.6681L17.2549 48.1835L18.4703 40.614ZM14.0444 47.6681L17.2549 48.1836L18.4702 40.614L15.2598 40.0986L14.0444 47.6681ZM18.3725 43.822C18.34 43.7847 18.3741 43.8114 18.4115 43.915C18.4542 44.0334 18.4763 44.1858 18.4588 44.3337L10.8454 43.433C10.5767 45.7047 11.4789 47.5804 12.5921 48.8581L18.3725 43.822ZM19.5209 44.5907C18.779 44.2055 18.4706 43.9347 18.3725 43.8221L12.5921 48.8581C13.5977 50.0123 14.8679 50.8131 15.989 51.3951L19.5209 44.5907ZM26.4187 47.014C23.0297 46.0715 20.8377 45.2741 19.5209 44.5907L15.989 51.3951C18.0382 52.4587 20.8596 53.4254 24.3648 54.4002L26.4187 47.014ZM28.7796 56.9888C28.7796 55.0382 28.9184 53.1223 29.1863 51.25L21.5972 50.1642C21.278 52.3951 21.1131 54.6738 21.1131 56.9888H28.7796ZM50.8068 92.8136C37.73 86.1918 28.7796 72.6322 28.7796 56.9888H21.1131C21.1131 75.6329 31.789 91.7767 47.3434 99.6531L50.8068 92.8136ZM48.725 106.184L52.5588 97.8325L45.5913 94.6342L41.7575 102.986L48.725 106.184ZM49.6274 102.381L46.8404 101.102L43.6422 108.069L46.4291 109.348L49.6274 102.381ZM48.374 95.9229L44.5445 104.265L51.512 107.464L55.3415 99.1211L48.374 95.9229ZM68.9084 97.1176C63.3822 97.1176 58.1263 96.0028 53.3456 93.9893L50.3699 101.055C56.0755 103.458 62.342 104.784 68.9084 104.784V97.1176ZM90.7203 90.6782C84.443 94.7516 76.9578 97.1176 68.9084 97.1176V104.784C78.4832 104.784 87.4113 101.965 94.8935 97.1093L90.7203 90.6782ZM98.7527 94.5016C97.859 93.6858 96.8229 92.6275 95.6577 91.3312L89.9561 96.4563C91.2322 97.8759 92.4495 99.128 93.584 100.164L98.7527 94.5016ZM100.983 96.203C100.495 95.9497 99.7526 95.4144 98.7527 94.5016L93.584 100.164C94.7704 101.247 96.0904 102.302 97.4564 103.01L100.983 96.203ZM100.481 96.5103C100.633 96.4185 100.804 96.3591 100.965 96.3327C101.117 96.3079 101.22 96.3182 101.255 96.3232C101.288 96.3278 101.276 96.3296 101.216 96.3078C101.157 96.2866 101.079 96.2527 100.983 96.203L97.4564 103.01C98.426 103.512 101.42 104.895 104.438 103.077L100.481 96.5103ZM100.142 96.8841C100.134 96.9241 100.137 96.8772 100.197 96.785C100.264 96.6817 100.365 96.5798 100.481 96.5103L104.438 103.077C106.338 101.932 107.296 100.133 107.647 98.4472L100.142 96.8841ZM100.054 95.5619C100.199 96.3662 100.169 96.755 100.142 96.8841L107.647 98.4472C107.961 96.9392 107.822 95.4425 107.6 94.2047L100.054 95.5619ZM97.6159 88.3321C99.0408 91.7746 99.7869 94.0756 100.054 95.5619L107.6 94.2047C107.179 91.8683 106.164 88.9373 104.7 85.4001L97.6159 88.3321ZM108.86 60.7893C108.013 69.8123 104.179 77.9681 98.3464 84.2604L103.969 89.4719C110.908 81.9862 115.483 72.2649 116.493 61.5055L108.86 60.7893ZM120.185 56.6036C118.643 56.9594 116.207 57.2117 112.567 57.3157L112.786 64.979C116.553 64.8714 119.605 64.6054 121.908 64.0738L120.185 56.6036ZM121.678 56.0772C121.518 56.1867 121.09 56.3946 120.185 56.6036L121.908 64.0738C123.212 63.7729 124.697 63.2967 125.994 62.414L121.678 56.0772ZM121.501 56.5245C121.509 56.4583 121.526 56.3842 121.555 56.3093C121.583 56.2352 121.617 56.175 121.647 56.1304C121.706 56.0443 121.737 56.0371 121.678 56.0772L125.994 62.414C127.423 61.4405 128.834 59.7975 129.115 57.4251L121.501 56.5245ZM121.509 57.2106C121.576 57.2658 121.622 57.3099 121.651 57.3414C121.681 57.374 121.674 57.3731 121.651 57.3347C121.627 57.2941 121.575 57.1968 121.536 57.0456C121.495 56.886 121.48 56.7046 121.501 56.5244L129.115 57.4251C129.51 54.0831 127.21 51.9814 126.417 51.3212L121.509 57.2106ZM119.463 56.0391C120.51 56.5215 121.164 56.9231 121.509 57.2106L126.417 51.3212C125.313 50.4008 123.955 49.6675 122.669 49.0754L119.463 56.0391ZM111.215 53.2163C114.747 54.1958 117.556 55.1609 119.463 56.0391L122.669 49.0754C120.218 47.947 116.959 46.8534 113.263 45.8286L111.215 53.2163ZM91.3309 23.7036C100.229 29.7106 106.581 39.1832 108.461 50.1689L116.017 48.876C113.775 35.7674 106.201 24.4922 95.6205 17.3496L91.3309 23.7036ZM87.8256 17.7896C88.8535 18.4639 89.5487 19.5784 89.6561 20.8494L97.2953 20.2038C96.9825 16.5019 94.9566 13.2988 92.031 11.3795L87.8256 17.7896ZM90.2622 4.66859L86.4446 12.9854L93.412 16.1837L97.2297 7.86684L90.2622 4.66859ZM89.3598 8.47215L92.1468 9.75145L95.3451 2.78398L92.5581 1.50468L89.3598 8.47215ZM90.5664 15.032L94.4427 6.58754L87.4752 3.38929L83.599 11.8338L90.5664 15.032ZM85.5961 17.1266C85.8627 17.1266 86.1199 17.1517 86.3664 17.1986L87.799 9.6672C87.0826 9.53093 86.3458 9.46017 85.5961 9.46017V17.1266ZM83.5925 17.6517C84.1807 17.3183 84.8602 17.1266 85.5961 17.1266V9.46017C83.5008 9.46017 81.5229 10.0124 79.8122 10.982L83.5925 17.6517ZM78.0214 15.6046L78.3787 16.2265L85.0261 12.4072L84.6688 11.7854L78.0214 15.6046ZM82.9893 17.1746C83.0618 17.1291 83.1351 17.0857 83.2092 17.0445L79.481 10.3456C79.2882 10.4529 79.0977 10.5656 78.9097 10.6838L82.9893 17.1746ZM82.8843 17.2384L82.9046 17.2264L78.9944 10.6321L78.9741 10.6441L82.8843 17.2384ZM83.188 17.0383L83.1956 17.0327L78.6627 10.8499L78.655 10.8555L83.188 17.0383ZM82.5533 17.4836C82.69 17.375 82.8303 17.2754 82.9738 17.1844L78.8692 10.7094C78.4968 10.9454 78.1347 11.2027 77.7844 11.4809L82.5533 17.4836ZM68.9084 16.8601C72.4673 16.8601 75.9125 17.3224 79.1897 18.1883L81.1481 10.7762C77.2374 9.74295 73.1341 9.19361 68.9084 9.19361V16.8601ZM59.0246 18.0854C62.1823 17.2859 65.4929 16.8601 68.9084 16.8601V9.19361C64.8532 9.19361 60.9106 9.6995 57.1428 10.6535L59.0246 18.0854ZM16.2417 40.9238C16.1991 40.9446 16.1572 40.9655 16.116 40.9866L19.6091 47.811C19.6061 47.8126 19.6046 47.8133 19.6046 47.8133L16.2417 40.9238ZM19.5234 39.9008C18.2957 40.1549 17.1482 40.4812 16.2414 40.9239L19.6049 47.8132C19.5999 47.8156 19.6281 47.8017 19.6985 47.7751C19.7674 47.749 19.8647 47.7153 19.9942 47.6759C20.2556 47.5964 20.6126 47.5043 21.0775 47.408L19.5234 39.9008ZM27.0424 39.0161C24.1522 39.1895 21.5575 39.4796 19.5234 39.9008L21.0775 47.408C22.6046 47.0919 24.7924 46.8313 27.5015 46.6688L27.0424 39.0161ZM29.682 48.483C30.0061 46.9806 30.4143 45.5096 30.9015 44.0752L23.6424 41.6096C23.0613 43.3205 22.5744 45.0749 22.1879 46.8664L29.682 48.483ZM17.4018 48.6733C19.1243 49.5674 21.6078 50.4397 24.8972 51.3648L26.9727 43.9846C23.8002 43.0924 21.9354 42.3888 20.9337 41.8689L17.4018 48.6733ZM15.1375 47.0946C15.7367 47.7004 16.5168 48.2139 17.4018 48.6733L20.9337 41.8689C20.6983 41.7467 20.564 41.6614 20.5035 41.6198C20.4373 41.5743 20.4838 41.598 20.5877 41.703L15.1375 47.0946ZM81.9358 33.2526C86.009 34.4822 90.6245 33.599 94.0036 30.5063L88.8275 24.8509C87.5243 26.0437 85.7435 26.3939 84.1514 25.9133L81.9358 33.2526ZM74.4695 57.4503L86.5273 31.1821L79.5599 27.9838L67.5021 54.252L74.4695 57.4503ZM96.2811 53.9997C88.6328 53.653 79.9319 53.0062 71.417 52.0423L70.5546 59.66C79.2564 60.6452 88.1301 61.3045 95.9339 61.6582L96.2811 53.9997ZM94.4448 39.6749C90.8332 42.2087 89.729 46.0918 89.8369 49.6467C89.9422 53.1177 91.1729 56.6632 92.7104 59.6047L99.5046 56.0533C98.2979 53.7447 97.5587 51.3531 97.4998 49.4141C97.4435 47.559 97.9808 46.5592 98.8477 45.951L94.4448 39.6749ZM99.6414 33.8227C99.3828 34.7163 98.3995 36.9005 94.4448 39.6749L98.8477 45.951C103.901 42.406 106.159 38.8786 107.006 35.9536L99.6414 33.8227ZM90.7518 27.0442C94.4448 29.7432 97.6202 33.1088 100.1 36.9625L106.547 32.8139C103.556 28.1655 99.7278 24.1085 95.2754 20.8546L90.7518 27.0442ZM94.9745 28.2662C95.6537 27.3656 96.2074 26.362 96.6079 25.2815L89.4192 22.6173C89.2817 22.9884 89.0904 23.336 88.8535 23.6502L94.9745 28.2662ZM94.8211 23.3395L94.1899 22.8737L89.6381 29.0426L90.2693 29.5084L94.8211 23.3395ZM94.0037 30.5062C94.6111 29.9502 95.1539 29.3446 95.6297 28.6999L89.4608 24.148C89.2779 24.3959 89.0672 24.6316 88.8274 24.851L94.0037 30.5062ZM75.8817 29.2046C76.0265 29.3811 76.1766 29.5544 76.3321 29.7243L81.9874 24.5483C81.9258 24.481 81.8667 24.4127 81.81 24.3435L75.8817 29.2046ZM70.503 28.8449C72.8717 29.4576 75.6029 30.1679 78.2831 30.5658L79.4087 22.9824C77.2008 22.6547 74.8693 22.0555 72.4228 21.4227L70.503 28.8449ZM70.5332 28.8526L70.5332 28.8526L72.3926 21.415L72.3926 21.415L70.5332 28.8526ZM64.6069 27.5225C66.218 27.7422 68.1526 28.237 70.503 28.8449L72.4228 21.4227C70.2048 20.849 67.7939 20.2197 65.6428 19.9264L64.6069 27.5225ZM57.6977 30.5493C59.2505 28.9781 60.0082 28.2648 60.8485 27.8426C61.4916 27.5194 62.4813 27.2327 64.6069 27.5225L65.6428 19.9264C62.418 19.4867 59.7786 19.8003 57.4063 20.9923C55.2312 22.0853 53.5874 23.8019 52.245 25.1601L57.6977 30.5493ZM57.2858 30.9654C57.4269 30.8232 57.5649 30.6835 57.6977 30.5493L52.245 25.1601C52.1114 25.2953 51.979 25.4292 51.8447 25.5646L57.2858 30.9654ZM71.859 51.793C66.3674 42.6225 61.6312 33.9435 58.0047 26.5727L51.1258 29.9573C54.8591 37.5452 59.6995 46.41 65.2818 55.7317L71.859 51.793ZM76.8261 26.5886L65.0867 52.1632L72.0541 55.3615L83.7936 29.7869L76.8261 26.5886ZM76.3321 29.7243C76.8448 30.2845 77.3992 30.7894 77.9872 31.2372L82.6324 25.1383C82.4062 24.966 82.1901 24.7698 81.9875 24.5483L76.3321 29.7243ZM95.9979 87.1299C97.1221 84.8725 97.7525 82.3285 97.7525 79.6484H90.0861C90.0861 81.1162 89.7427 82.4927 89.1353 83.7123L95.9979 87.1299ZM98.6703 85.3336C97.744 84.2557 96.2993 82.9456 94.2047 81.9555L90.9285 88.8867C91.8765 89.3347 92.4931 89.9081 92.8561 90.3305L98.6703 85.3336ZM105.34 63.8348C103.781 72.1897 99.4143 79.566 93.2449 84.9421L98.2815 90.7219C105.713 84.2457 110.991 75.3449 112.877 65.2412L105.34 63.8348ZM103.746 69.1334C106.482 69.0217 108.611 68.6238 110.063 68.2505L108.154 60.8255C107.181 61.0757 105.587 61.3854 103.434 61.4733L103.746 69.1334ZM94.9529 63.2333C96.0405 64.7308 97.2774 66.1081 98.5806 67.1447C99.7405 68.0673 101.575 69.222 103.746 69.1334L103.434 61.4733C103.824 61.4574 104.01 61.563 103.924 61.5244C103.851 61.4913 103.657 61.3865 103.353 61.1448C102.741 60.6578 101.966 59.8429 101.156 58.7281L94.9529 63.2333ZM71.3538 62.8347C80.5395 63.8434 89.8639 64.495 97.9039 64.811L98.2049 57.1504C90.3314 56.841 81.1863 56.2019 72.1906 55.2141L71.3538 62.8347ZM80.1527 65.0783C78.4713 62.4978 76.7589 59.8008 75.0326 57.0086L68.5118 61.0402C70.2692 63.8827 72.0141 66.631 73.7296 69.2636L80.1527 65.0783ZM85.3351 63.2932C82.0702 62.4079 78.7576 62.5498 75.7561 63.5255L78.1262 70.8164C79.7536 70.2874 81.5455 70.2089 83.3289 70.6925L85.3351 63.2932ZM97.6987 78.2984C97.1998 71.3825 92.4176 65.2135 85.3351 63.2932L83.3289 70.6925C87.1704 71.7341 89.7803 75.0819 90.0521 78.8501L97.6987 78.2984ZM97.7525 79.6484C97.7525 79.182 97.7334 78.7193 97.6958 78.261L90.055 78.8875C90.0755 79.1376 90.0861 79.3913 90.0861 79.6484H97.7525ZM65.6865 62.3015C67.4453 65.1523 69.1938 67.9128 70.9155 70.5616L77.3435 66.3837C75.6554 63.7866 73.9391 61.0769 72.2111 58.2761L65.6865 62.3015ZM69.1475 69.0444L72.4325 61.8879L65.4651 58.6897L62.18 65.8462L69.1475 69.0444ZM75.7179 66.0917C72.6593 63.5642 68.6098 63.2404 65.2174 63.6381L66.1102 71.2524C68.622 70.9579 70.1266 71.4166 70.8344 72.0015L75.7179 66.0917ZM72.1171 65.2101C71.7398 65.4428 71.3715 65.6905 71.013 65.9528L75.5393 72.1404C75.7347 71.9975 75.9357 71.8623 76.1418 71.7352L72.1171 65.2101ZM62.9597 56.7969L58.4442 66.6339L65.4117 69.8321L69.9271 59.9952L62.9597 56.7969ZM27.4376 55.2138C36.9765 57.6288 51.4013 60.3653 65.9645 62.1993L66.9223 54.5929C52.6171 52.7914 38.5061 50.1077 29.3191 47.7819L27.4376 55.2138ZM31.8461 56.9888C31.8461 55.2978 31.9591 53.6352 32.1776 52.0077L24.5792 50.988C24.3156 52.9526 24.1797 54.9558 24.1797 56.9888H31.8461ZM34.5352 70.8776C32.8023 66.5933 31.8461 61.9075 31.8461 56.9888H24.1797C24.1797 62.9093 25.332 68.5702 27.4282 73.7524L34.5352 70.8776ZM43.324 63.2491C41.2926 61.6323 39.0824 60.543 36.7315 60.5056C34.2349 60.4659 32.2995 61.6173 30.9661 63.0334C29.7051 64.3725 28.8947 66.0193 28.3581 67.4404C27.8068 68.9005 27.4494 70.3816 27.2171 71.5931L34.7463 73.0368C34.9282 72.0883 35.1845 71.0642 35.5303 70.1484C35.8909 69.1935 36.2609 68.5934 36.5474 68.2891C36.6726 68.1562 36.7307 68.1348 36.708 68.1457C36.6963 68.1512 36.6749 68.1595 36.6481 68.1654C36.6209 68.1714 36.6057 68.171 36.6096 68.1711C36.6242 68.1713 37.2303 68.1973 38.5498 69.2475L43.324 63.2491ZM45.4744 64.9727C44.8248 64.4499 44.1092 63.8741 43.324 63.2491L38.5498 69.2475C39.3167 69.858 40.0173 70.4217 40.6682 70.9454L45.4744 64.9727ZM55.1821 66.894C53.4697 67.8174 52.4549 68.3403 51.6847 68.6291C51.3349 68.7603 51.1326 68.8041 51.0259 68.8191C50.9378 68.8314 50.903 68.8262 50.8785 68.8219C50.7921 68.8068 50.431 68.719 49.4727 68.0667C48.5075 67.4096 47.3008 66.4423 45.4744 64.9727L40.6682 70.9454C42.3963 72.3361 43.8803 73.5339 45.1586 74.4041C46.4438 75.279 47.8792 76.0805 49.5589 76.374C51.3364 76.6846 52.9249 76.3518 54.3765 75.8075C55.7283 75.3006 57.2218 74.5042 58.8209 73.6419L55.1821 66.894ZM60.8318 64.5599C58.8466 65.1523 56.9149 65.9596 55.1821 66.894L58.8209 73.6419C60.0982 72.9531 61.5456 72.3474 63.0241 71.9062L60.8318 64.5599ZM66.3658 51.4307C52.363 49.6284 38.6798 47.0026 29.8486 44.7524L27.9556 52.1815C37.1398 54.5216 51.1346 57.2 65.3871 59.0344L66.3658 51.4307ZM48.8091 32.1907C52.5107 39.6422 57.2127 48.2204 62.5873 57.201L69.1656 53.2641C63.8784 44.4294 59.2753 36.0275 55.6751 28.78L48.8091 32.1907ZM50.6028 36.5638C52.2587 35.4724 53.6212 34.386 54.7858 33.3529L49.6984 27.6177C48.7667 28.4441 47.6928 29.2999 46.3838 30.1626L50.6028 36.5638ZM33.4966 34.9389C34.6724 36.1916 36.7963 38.0212 39.8321 38.7945C43.0372 39.6109 46.7319 39.1151 50.6028 36.5638L46.3838 30.1626C44.1309 31.6475 42.6345 31.5971 41.7245 31.3653C40.6454 31.0904 39.7303 30.3781 39.0866 29.6923L33.4966 34.9389ZM32.652 49.2618C33.7974 43.8583 36.1216 38.8875 39.3469 34.6304L33.2363 30.0007C29.3466 35.1347 26.537 41.1389 25.1522 47.6721L32.652 49.2618ZM112.977 61.9053C116.527 61.7948 119.25 61.5399 121.219 61.0857L119.495 53.6156C118.278 53.8963 116.162 54.136 112.738 54.2426L112.977 61.9053ZM109.037 56.9888C109.037 57.3206 109.033 57.6514 109.025 57.9811L116.689 58.1668C116.699 57.7752 116.704 57.3825 116.704 56.9888H109.037ZM108.86 53.1921C108.977 54.4409 109.037 55.7074 109.037 56.9888H116.704C116.704 55.4681 116.632 53.9629 116.493 52.4766L108.86 53.1921ZM121.387 51.8609C119.412 50.9518 116.793 50.0389 113.746 49.1534L111.607 56.5153C114.487 57.3522 116.698 58.1422 118.18 58.8246L121.387 51.8609ZM124.454 53.677C123.653 53.0093 122.576 52.4086 121.387 51.8609L118.18 58.8246C118.63 59.0317 118.966 59.208 119.206 59.3478C119.457 59.4937 119.551 59.5701 119.546 59.5664L124.454 53.677ZM124.688 53.8807C124.613 53.8125 124.535 53.7446 124.454 53.677L119.546 59.5664C119.545 59.5655 119.537 59.559 119.524 59.5465L124.688 53.8807ZM121.219 61.0857C122.357 60.823 123.414 60.4566 124.254 59.8886L119.958 53.5386C120.053 53.4748 120.118 53.4409 120.139 53.4302C120.163 53.4187 120.157 53.4231 120.115 53.4392C120.027 53.4726 119.833 53.5377 119.495 53.6156L121.219 61.0857ZM97.6454 95.1832C98.9552 94.1963 100.212 93.1437 101.412 92.0303L96.1973 86.4107C95.1889 87.3466 94.1323 88.2311 93.0319 89.0603L97.6454 95.1832ZM100.82 92.2368C100.072 91.5534 99.1874 90.6577 98.176 89.5443L92.5013 94.6992C93.6201 95.9307 94.6762 97.0086 95.6514 97.8988L100.82 92.2368ZM102.394 93.4803C102.354 93.4596 102.195 93.3686 101.904 93.1493C101.622 92.9371 101.261 92.6392 100.82 92.2368L95.6514 97.8988C96.7625 98.9131 97.8515 99.7609 98.8672 100.287L102.394 93.4803ZM102.338 93.4559C102.389 93.4769 102.409 93.488 102.394 93.4803L98.8672 100.287C99.0685 100.391 99.2656 100.483 99.4598 100.562L102.338 93.4559ZM97.0361 96.1048C97.0848 96.3752 97.0954 96.5241 97.0974 96.5743C97.0984 96.5979 97.0969 96.588 97.0991 96.5493C97.1011 96.5121 97.1074 96.432 97.1282 96.3183L104.669 97.6993C104.837 96.785 104.767 95.7793 104.581 94.7476L97.0361 96.1048ZM95.2443 90.6407C96.3406 93.3893 96.8559 95.1026 97.0361 96.1047L104.581 94.7476C104.261 92.9654 103.511 90.6735 102.365 87.8003L95.2443 90.6407ZM49.7105 5.40501C50.1599 6.33807 50.2614 7.54169 49.7361 8.67738C49.3017 9.61654 48.6199 10.1083 48.3134 10.3031C47.7128 10.6849 47.1542 10.7961 47.0656 10.8152C46.7317 10.8872 46.4625 10.8962 46.4133 10.8982C46.2331 10.9055 46.0927 10.8981 46.0444 10.8953C45.915 10.8881 45.8118 10.8755 45.7494 10.867L46.7895 3.2714C46.7185 3.26168 46.609 3.24854 46.4754 3.24102C46.4251 3.23818 46.2831 3.2307 46.102 3.23807C46.0523 3.24009 45.7828 3.24909 45.4486 3.32119C45.3599 3.34032 44.8012 3.45148 44.2006 3.8333C43.8941 4.02812 43.2122 4.51993 42.7778 5.45911C42.2526 6.59482 42.354 7.79846 42.8034 8.73153L49.7105 5.40501ZM46.2869 3.236C46.3658 3.23636 46.4734 3.23937 46.6014 3.25081C46.6561 3.25569 46.772 3.26706 46.9177 3.29252C46.9764 3.30279 47.1406 3.33226 47.3451 3.39279C47.4356 3.41958 47.66 3.48858 47.9289 3.6189C48.0631 3.68396 48.3017 3.80866 48.5693 4.01105C48.7976 4.18372 49.3181 4.61284 49.6912 5.36552L42.8227 8.77103C43.1959 9.52372 43.7163 9.95286 43.9447 10.1256C44.2123 10.328 44.4509 10.4527 44.5852 10.5178C44.8542 10.6481 45.0786 10.7172 45.1693 10.744C45.3741 10.8046 45.5387 10.8342 45.598 10.8445C45.7448 10.8702 45.8623 10.8818 45.919 10.8868C46.0512 10.8986 46.165 10.902 46.2519 10.9024L46.2869 3.236ZM101.591 93.4437C102.485 93.6226 103.299 94.1179 103.871 94.8572C104.385 95.5218 104.559 96.1925 104.623 96.5936C104.743 97.3347 104.608 97.9165 104.571 98.0758C104.471 98.5037 104.318 98.8133 104.273 98.905L97.4057 95.4966C97.3597 95.5894 97.2068 95.8998 97.1065 96.3282C97.0691 96.4879 96.935 97.0698 97.0542 97.8111C97.1187 98.2123 97.2927 98.8831 97.8067 99.5477C98.3786 100.287 99.1925 100.782 100.087 100.961L101.591 93.4437ZM97.4493 95.4156C97.4982 95.322 97.5849 95.1655 97.7136 94.9838C97.7687 94.9061 97.8957 94.7318 98.0864 94.5349C98.1705 94.4481 98.3741 94.2442 98.6761 94.0378C98.8264 93.9351 99.1054 93.7591 99.4897 93.6146C99.8352 93.4846 100.599 93.2528 101.563 93.4382L100.115 100.967C101.079 101.152 101.843 100.92 102.188 100.79C102.573 100.646 102.852 100.47 103.002 100.367C103.305 100.16 103.509 99.9561 103.593 99.8689C103.785 99.6712 103.913 99.4955 103.969 99.4159C104.101 99.2304 104.191 99.068 104.244 98.9658L97.4493 95.4156ZM104.273 98.9044C104.151 99.1511 104.026 99.3347 103.95 99.4407C103.861 99.5636 103.771 99.6718 103.686 99.7661L98.0076 94.6153C97.8676 94.7697 97.6189 95.0669 97.4054 95.4972L104.273 98.9044ZM101.13 100.913C101.056 100.913 100.954 100.911 100.834 100.902C100.783 100.898 100.674 100.888 100.537 100.866C100.483 100.858 100.325 100.832 100.129 100.778C100.044 100.755 99.819 100.691 99.5478 100.568C99.4146 100.507 99.1607 100.382 98.8746 100.173C98.6445 100.004 98.0308 99.5228 97.6374 98.6376L104.643 95.524C104.25 94.6388 103.636 94.1574 103.406 93.9888C103.12 93.7792 102.866 93.6548 102.733 93.5939C102.461 93.4701 102.236 93.4065 102.152 93.3834C101.955 93.3295 101.797 93.3037 101.742 93.2951C101.604 93.2731 101.494 93.2634 101.441 93.2592C101.318 93.2494 101.212 93.2469 101.13 93.2469V100.913ZM97.7373 98.8453C97.204 97.8167 97.1169 96.4781 97.7586 95.2759C98.2571 94.3418 98.9878 93.8941 99.2555 93.743C99.8249 93.4215 100.34 93.3313 100.413 93.3173C100.713 93.2593 100.954 93.2519 100.997 93.2503C101.158 93.2444 101.283 93.2502 101.327 93.2523C101.442 93.258 101.535 93.2679 101.592 93.2748L100.669 100.886C100.733 100.893 100.83 100.904 100.949 100.909C100.994 100.912 101.121 100.917 101.282 100.911C101.326 100.91 101.567 100.903 101.868 100.844C101.94 100.83 102.456 100.74 103.025 100.419C103.293 100.268 104.023 99.8198 104.522 98.8857C105.164 97.6835 105.077 96.3449 104.543 95.3163L97.7373 98.8453ZM50.308 8.16527C50.2871 8.21996 50.2519 8.30843 50.2017 8.41554C50.1828 8.45584 50.1285 8.57079 50.0468 8.71171C50.0239 8.75109 49.9046 8.95971 49.7127 9.19714C49.6631 9.25851 49.3496 9.65903 48.8147 10.0053C48.5622 10.1688 47.8626 10.5867 46.8537 10.6188C45.5604 10.66 44.3887 10.0512 43.6664 9.0894L49.7967 4.48569C49.0744 3.52386 47.9027 2.91504 46.6094 2.95626C45.6005 2.98842 44.9009 3.4063 44.6483 3.5698C44.1134 3.91609 43.7999 4.31666 43.7502 4.3781C43.5582 4.61568 43.4387 4.82454 43.4157 4.86426C43.3335 5.00587 43.2786 5.1219 43.2591 5.16369C43.2075 5.27379 43.1703 5.36689 43.1469 5.42801L50.308 8.16527ZM43.6343 9.04598C43.0831 8.29004 42.9646 7.54764 42.9299 7.27817C42.8862 6.93969 42.8976 6.66766 42.9073 6.52587C42.927 6.23762 42.9758 6.01631 42.9949 5.93259C43.0394 5.73846 43.0895 5.59107 43.107 5.54034C43.1511 5.41217 43.1927 5.31397 43.2124 5.2685C43.2587 5.16136 43.3024 5.07396 43.3356 5.01095L50.1194 8.58232C50.1555 8.51362 50.2013 8.42177 50.249 8.31155C50.2693 8.26454 50.3114 8.16515 50.3558 8.03615C50.3734 7.985 50.4237 7.83729 50.4682 7.64293C50.4873 7.55908 50.5361 7.33768 50.5558 7.04936C50.5656 6.90754 50.5769 6.63547 50.5333 6.29698C50.4985 6.02749 50.38 5.28506 49.8288 4.52912L43.6343 9.04598ZM107.395 122.333C107.395 121.121 108.012 120.352 108.292 120.069C108.562 119.796 108.761 119.715 108.673 119.759C108.511 119.84 108.032 120.025 107.083 120.255C105.247 120.7 102.428 121.135 98.7546 121.512C91.4556 122.26 81.2789 122.731 69.9751 122.731V130.397C81.4549 130.397 91.905 129.921 99.5368 129.138C103.329 128.749 106.551 128.272 108.89 127.705C110.029 127.429 111.17 127.083 112.108 126.613C112.569 126.382 113.187 126.02 113.74 125.463C114.301 124.895 115.062 123.837 115.062 122.333H107.395ZM69.9751 121.935C81.2789 121.935 91.4556 122.406 98.7546 123.154C102.428 123.531 105.247 123.966 107.083 124.411C108.032 124.641 108.511 124.826 108.673 124.907C108.761 124.952 108.562 124.871 108.292 124.598C108.012 124.314 107.395 123.545 107.395 122.333H115.062C115.062 120.829 114.301 119.771 113.739 119.203C113.187 118.646 112.569 118.285 112.108 118.053C111.17 117.583 110.029 117.237 108.89 116.961C106.551 116.394 103.329 115.917 99.5368 115.528C91.905 114.745 81.4549 114.269 69.9751 114.269V121.935ZM32.5547 122.333C32.5547 123.545 31.9386 124.314 31.6584 124.598C31.388 124.871 31.1887 124.952 31.2772 124.907C31.4386 124.826 31.9177 124.641 32.8667 124.411C34.703 123.966 37.5224 123.531 41.1955 123.154C48.4945 122.406 58.6712 121.935 69.9751 121.935V114.269C58.4952 114.269 48.0451 114.745 40.4133 115.528C36.6209 115.917 33.3989 116.394 31.0601 116.961C29.9216 117.237 28.7797 117.583 27.842 118.053C27.381 118.285 26.7626 118.646 26.2106 119.203C25.6487 119.771 24.8883 120.829 24.8883 122.333H32.5547ZM69.9751 122.731C58.6712 122.731 48.4945 122.26 41.1955 121.512C37.5224 121.135 34.703 120.7 32.8667 120.255C31.9177 120.025 31.4386 119.84 31.2772 119.759C31.1887 119.715 31.388 119.796 31.6584 120.069C31.9386 120.352 32.5547 121.121 32.5547 122.333H24.8883C24.8883 123.837 25.6487 124.895 26.2106 125.463C26.7626 126.02 27.381 126.382 27.842 126.613C28.7797 127.083 29.9216 127.429 31.0601 127.705C33.3989 128.272 36.6209 128.749 40.4133 129.138C48.0451 129.921 58.4952 130.397 69.9751 130.397V122.731ZM18.3134 40.8325C19.1509 41.0003 20.1469 41.5055 20.8035 42.5478C21.386 43.4723 21.4137 44.3713 21.3865 44.8217C21.3372 45.6406 21.029 46.2253 20.9851 46.3125C20.8128 46.6554 20.625 46.8937 20.5944 46.9334C20.4742 47.089 20.3686 47.2001 20.3338 47.2365C20.2385 47.3361 20.1574 47.4099 20.1094 47.4523L15.0365 41.7042C14.9791 41.7549 14.8914 41.8351 14.792 41.939C14.7552 41.9775 14.6482 42.0902 14.5271 42.2469C14.4961 42.2871 14.308 42.5259 14.1355 42.8691C14.0916 42.9565 13.7834 43.5412 13.734 44.3603C13.7068 44.8107 13.7346 45.7097 14.317 46.6343C14.9737 47.6766 15.9697 48.1817 16.8071 48.3495L18.3134 40.8325ZM14.6588 42.088C14.7136 42.0238 14.7901 41.9389 14.8877 41.8437C14.9297 41.8027 15.0179 41.7183 15.138 41.6203C15.1875 41.58 15.3204 41.4728 15.5044 41.3559C15.5879 41.3028 15.7845 41.1813 16.0545 41.066C16.1907 41.0078 16.4269 40.9158 16.7337 40.848C17.0038 40.7884 17.5879 40.6874 18.3121 40.8323L16.8085 48.3498C17.5327 48.4947 18.1169 48.3937 18.387 48.3341C18.6938 48.2663 18.9302 48.1742 19.0664 48.116C19.3365 48.0006 19.5333 47.8791 19.617 47.8259C19.8014 47.7087 19.9347 47.6012 19.9848 47.5603C20.1062 47.4613 20.1962 47.3753 20.2403 47.3322C20.3423 47.2328 20.4248 47.1414 20.4871 47.0685L14.6588 42.088ZM119.005 58.8852C119.035 58.935 119.097 59.0382 119.186 59.162C119.222 59.2127 119.322 59.3497 119.467 59.5095C119.532 59.5815 119.69 59.7507 119.92 59.9334C120.036 60.0253 120.242 60.1783 120.524 60.326C120.771 60.4551 121.323 60.7134 122.082 60.7572L122.523 53.1034C123.282 53.1472 123.835 53.4055 124.081 53.5345C124.363 53.6822 124.569 53.8352 124.685 53.927C124.915 54.1097 125.073 54.2788 125.138 54.3507C125.283 54.5102 125.382 54.6468 125.418 54.697C125.506 54.8197 125.567 54.9213 125.596 54.969L119.005 58.8852ZM118.937 58.766L118.94 58.7711L125.661 55.0831L125.658 55.078L118.937 58.766ZM118.858 58.6142L118.861 58.619L125.735 55.225L125.732 55.2201L118.858 58.6142ZM125.541 54.8777L125.537 54.8711L119.054 58.9632L119.058 58.9698L125.541 54.8777ZM125.641 55.045L125.638 55.0408L118.961 58.8068L118.963 58.811L125.641 55.045ZM122.053 60.7554C122.759 60.8014 123.681 60.658 124.535 60.0466C125.353 59.4607 125.745 58.7043 125.924 58.1869C126.232 57.3009 126.12 56.5518 126.101 56.4169C126.041 55.9668 125.909 55.6307 125.891 55.5818C125.813 55.3744 125.734 55.2198 125.712 55.1768L118.892 58.6792C118.871 58.6377 118.792 58.4843 118.714 58.2776C118.696 58.2292 118.565 57.8933 118.504 57.4434C118.486 57.3086 118.374 56.5596 118.681 55.6736C118.861 55.1563 119.253 54.3999 120.071 53.8139C120.924 53.2026 121.847 53.0592 122.552 53.1052L122.053 60.7554ZM125.824 58.0161C125.757 58.1817 125.659 58.3884 125.517 58.6129C125.453 58.7133 125.331 58.8976 125.146 59.1052C125.063 59.1988 124.88 59.3975 124.608 59.6051C124.473 59.7086 124.23 59.8805 123.896 60.0359C123.603 60.1717 122.936 60.44 122.046 60.3854L122.516 52.7333C121.626 52.6787 120.959 52.947 120.666 53.0829C120.331 53.2384 120.088 53.4104 119.953 53.514C119.681 53.7219 119.497 53.9211 119.413 54.0153C119.228 54.2241 119.104 54.4102 119.039 54.5131C118.894 54.7426 118.792 54.9568 118.721 55.1324L125.824 58.0161ZM122.029 60.3843C120.958 60.3139 119.892 59.786 119.187 58.8225C118.6 58.0197 118.487 57.2193 118.459 56.8523C118.404 56.1328 118.573 55.5832 118.607 55.466C118.719 55.0905 118.864 54.8201 118.91 54.736C119.037 54.5011 119.163 54.3292 119.235 54.2357L125.31 58.9128C125.389 58.8094 125.52 58.6302 125.65 58.3903C125.697 58.3037 125.843 58.0314 125.955 57.6547C125.99 57.5368 126.158 56.9867 126.103 56.2669C126.075 55.8998 125.962 55.0993 125.375 54.2964C124.67 53.3328 123.604 52.8049 122.533 52.7344L122.029 60.3843ZM21.1645 42.5577C21.2065 42.647 21.278 42.8078 21.3449 43.0182C21.3684 43.0921 21.4454 43.336 21.4895 43.6599C21.501 43.7443 21.5777 44.2524 21.4585 44.8857C21.406 45.1651 21.221 46.0246 20.4746 46.8127C19.4754 47.8678 18.0674 48.189 16.8546 47.9176L18.5284 40.4361C17.3156 40.1648 15.9075 40.486 14.9082 41.5411C14.1618 42.3293 13.9768 43.1888 13.9242 43.4684C13.8051 44.1019 13.8817 44.6103 13.8933 44.6952C13.9376 45.0201 14.0148 45.2656 14.039 45.3415C14.1072 45.5561 14.1812 45.7232 14.2272 45.821L21.1645 42.5577ZM16.8291 47.9118C15.9215 47.7023 15.349 47.2213 15.1612 47.0563C14.9132 46.8383 14.746 46.6339 14.6593 46.5218C14.482 46.2926 14.3704 46.0933 14.3219 46.0039C14.2127 45.8024 14.1447 45.6331 14.1104 45.5428C14.0331 45.3397 13.9845 45.1593 13.953 45.0166L21.4388 43.3621C21.4054 43.2113 21.3549 43.0248 21.2761 42.8175C21.2409 42.7251 21.1722 42.5542 21.0624 42.3516C21.0137 42.2616 20.9018 42.062 20.7243 41.8325C20.6375 41.7202 20.4702 41.5157 20.222 41.2976C20.0342 41.1325 19.4616 40.6515 18.5539 40.4419L16.8291 47.9118ZM12.3921 79.7431C6.74481 79.7431 2.16677 84.3211 2.16677 89.9684H9.83323C9.83323 88.5552 10.9789 87.4096 12.3921 87.4096V79.7431ZM22.6174 89.9684C22.6174 84.3211 18.0393 79.7431 12.3921 79.7431V87.4096C13.8053 87.4096 14.9509 88.5552 14.9509 89.9684H22.6174ZM12.3921 100.194C18.0393 100.194 22.6174 95.6157 22.6174 89.9684H14.9509C14.9509 91.3816 13.8053 92.5273 12.3921 92.5273V100.194ZM2.16677 89.9684C2.16677 95.6157 6.74481 100.194 12.3921 100.194V92.5273C10.9789 92.5273 9.83323 91.3816 9.83323 89.9684H2.16677ZM14.0444 47.6681L17.2549 48.1835L18.4703 40.614L15.2598 40.0986L14.0444 47.6681Z" fill="white"/>
<circle cx="69.328" cy="56.8717" r="41.2196" fill="white"/>
<path d="M69.9772 126.563C92.7609 126.563 111.231 124.669 111.231 122.332C111.231 119.995 92.7609 118.101 69.9772 118.101C47.1935 118.101 28.7236 119.995 28.7236 122.332C28.7236 124.669 47.1935 126.563 69.9772 126.563Z" fill="black" stroke="black" stroke-width="0.817755" stroke-miterlimit="10"/>
<path d="M68.9102 99.4165C92.3429 99.4165 111.339 80.4205 111.339 56.9878C111.339 33.5551 92.3429 14.5591 68.9102 14.5591C45.4774 14.5591 26.4814 33.5551 26.4814 56.9878C26.4814 80.4205 45.4774 99.4165 68.9102 99.4165Z" stroke="black" stroke-width="0.817755" stroke-miterlimit="10"/>
<path d="M99.4291 86.6992C102.686 94.4202 103.135 97.5965 101.67 98.4791C98.4519 100.418 83.3231 81.2137 67.8792 55.5841C52.4354 29.9545 42.5248 7.60543 45.7432 5.66604C47.2894 4.73438 51.6415 8.76492 57.3992 15.9604" stroke="black" stroke-width="0.817755" stroke-miterlimit="10"/>
<path d="M110.959 50.7606C118.903 52.8991 123.986 55.1131 123.787 56.7935C123.575 58.5861 120.083 59.5151 110.868 59.6514C100.901 59.7988 84.6233 59.0114 69.1826 57.1846C52.989 55.2688 36.6686 52.1354 26.9728 49.5469C18.8765 47.3854 15.9758 45.7604 16.1767 44.0624C16.3641 42.4784 21.8147 41.5022 29.2191 41.2101" stroke="black" stroke-width="0.817755" stroke-miterlimit="10"/>
<path d="M35.3057 31.0813C35.3057 31.0813 40.1816 38.843 48.4974 33.3621C56.8132 27.8812 56.8132 22.5894 65.129 23.7234C73.4447 24.8573 87.4603 31.9614 91.6032 21.133C91.6032 21.133 79.7972 12.0045 60.2621 15.4413C44.3395 18.2425 35.3057 31.0813 35.3057 31.0813Z" fill="black" stroke="black" stroke-width="0.817755" stroke-miterlimit="10"/>
<path d="M30.5859 75.2105C30.5859 75.2105 31.6802 58.8764 40.941 66.2472C50.2017 73.618 49.777 74.1649 57.0056 70.2669C64.2341 66.3689 75.716 64.8963 75.716 75.2105C75.716 85.5247 66.3477 90.8166 79.5366 85.9027C92.7256 80.9888 96.6496 89.095 96.6496 89.095C96.6496 89.095 85.7328 99.7006 68.9122 99.4165C52.0917 99.1324 43.1841 90.7282 43.1841 90.7282C43.1841 90.7282 33.4196 83.097 30.5859 75.2105Z" fill="black" stroke="black" stroke-width="0.817755" stroke-miterlimit="10"/>
<path d="M103.529 32.4509C103.529 32.4509 104.73 37.142 96.6485 42.8119C88.5666 48.4817 98.9626 65.4912 103.592 65.3023C108.222 65.1133 110.761 64.0128 110.761 64.0128C110.761 64.0128 114.901 48.5493 103.529 32.4509Z" fill="black" stroke="black" stroke-width="0.817755" stroke-miterlimit="10"/>
<path d="M46.6367 105.224L92.3544 5.62683" stroke="black" stroke-width="0.817755" stroke-miterlimit="10"/>
<path d="M85.5974 29.1083C89.9649 29.1083 93.5054 25.5678 93.5054 21.2003C93.5054 16.8329 89.9649 13.2924 85.5974 13.2924C81.23 13.2924 77.6895 16.8329 77.6895 21.2003C77.6895 25.5678 81.23 29.1083 85.5974 29.1083Z" fill="white" stroke="black" stroke-width="0.817755" stroke-miterlimit="10"/>
<path d="M91.6001 26.3846C88.4803 29.657 83.1595 29.4188 80.2264 26.2142C77.2933 23.0095 77.2353 17.6018 81.354 14.5806L81.7195 14.3639C81.1906 14.6583 80.6873 15.0185 80.2212 15.445C76.9995 18.3938 76.7781 23.3959 79.7269 26.6177C82.6756 29.8394 87.6778 30.0608 90.8995 27.112C91.2863 26.758 91.6299 26.3743 91.9299 25.9677" stroke="black" stroke-width="0.817755" stroke-miterlimit="10"/>
<path d="M81.2712 16.2468C83.8383 13.9764 87.9508 14.1215 90.3088 16.7876C92.6667 19.4537 92.6591 23.4043 89.5105 26.0499L89.3777 26.1824C89.6569 25.9977 89.9253 25.7889 90.18 25.5557C92.8082 23.1503 92.9887 19.0697 90.5833 16.4415C88.1779 13.8134 84.0973 13.6328 81.4691 16.0383C81.3458 16.1512 81.2278 16.2678 81.1152 16.3877" stroke="black" stroke-width="0.817755" stroke-miterlimit="10"/>
<path d="M85.8065 27.2954C89.3693 27.2954 92.2575 24.4072 92.2575 20.8444C92.2575 17.2816 89.3693 14.3934 85.8065 14.3934C82.2437 14.3934 79.3555 17.2816 79.3555 20.8444C79.3555 24.4072 82.2437 27.2954 85.8065 27.2954Z" stroke="black" stroke-width="0.817755" stroke-miterlimit="10"/>
<path d="M82.6689 17.4144C84.432 15.8552 87.2563 15.9548 88.8757 17.7858" stroke="black" stroke-width="0.817755" stroke-miterlimit="10"/>
<path d="M89.1562 18.2275C89.7042 18.8468 90.0474 19.5971 90.1827 20.3801" stroke="black" stroke-width="0.817755" stroke-miterlimit="10"/>
<path d="M12.394 96.3593C15.9243 96.3593 18.7861 93.4975 18.7861 89.9673C18.7861 86.437 15.9243 83.5752 12.394 83.5752C8.86379 83.5752 6.00195 86.437 6.00195 89.9673C6.00195 93.4975 8.86379 96.3593 12.394 96.3593Z" fill="white" stroke="black" stroke-width="0.715535" stroke-miterlimit="10" stroke-linecap="round" stroke-linejoin="round"/>
<path d="M18.2798 87.4298C19.5599 90.8529 17.5107 94.639 14.1456 95.6425C10.7805 96.6459 6.82675 94.7814 6.08148 90.7205L6.05273 90.3782C6.08036 90.8667 6.16492 91.3598 6.31084 91.8491C7.31965 95.2322 10.88 97.1569 14.263 96.1481C17.646 95.1392 19.5707 91.5789 18.5619 88.1959C18.4408 87.7897 18.2829 87.4046 18.0929 87.043" stroke="black" stroke-width="0.715535" stroke-miterlimit="10" stroke-linecap="round" stroke-linejoin="round"/>
<path d="M7.26651 91.3691C6.52024 88.7014 8.07581 85.7614 10.8464 84.9863C13.617 84.2113 16.4877 85.6098 17.3019 88.8327L17.3515 88.976C17.3156 88.7079 17.2583 88.439 17.1785 88.1715C16.3556 85.4117 13.4512 83.8417 10.6915 84.6646C7.93175 85.4876 6.36168 88.3919 7.18463 91.1516C7.22326 91.2812 7.26646 91.4081 7.31404 91.5323" stroke="black" stroke-width="0.715535" stroke-miterlimit="10" stroke-linecap="round" stroke-linejoin="round"/>
<path d="M12.2115 94.9041C15.0913 94.9041 17.4258 92.5696 17.4258 89.6897C17.4258 86.8099 15.0913 84.4753 12.2115 84.4753C9.33163 84.4753 6.99707 86.8099 6.99707 89.6897C6.99707 92.5696 9.33163 94.9041 12.2115 94.9041Z" stroke="black" stroke-width="0.715535" stroke-miterlimit="10" stroke-linecap="round" stroke-linejoin="round"/>
<path d="M8.60945 90.7638C8.09692 88.9317 9.16525 86.9125 11.068 86.3802" stroke="black" stroke-width="0.715535" stroke-miterlimit="10" stroke-linecap="round" stroke-linejoin="round"/>
<path d="M11.4863 86.3317C12.1299 86.1515 12.7967 86.1664 13.4139 86.3441" stroke="black" stroke-width="0.715535" stroke-miterlimit="10" stroke-linecap="round" stroke-linejoin="round"/>
<path d="M80.9551 92.6153C88.1165 92.6153 93.922 86.8099 93.922 79.6485C93.922 72.4871 88.1165 66.6816 80.9551 66.6816C73.7937 66.6816 67.9883 72.4871 67.9883 79.6485C67.9883 86.8099 73.7937 92.6153 80.9551 92.6153Z" fill="white" stroke="black" stroke-width="0.817755" stroke-miterlimit="10"/>
<path d="M68.092 77.7359C69.5408 70.4652 77.1192 66.1249 83.9943 67.989C90.8695 69.8532 95.6962 77.2921 92.6435 85.0915L92.3275 85.7125C92.8017 84.8405 93.1826 83.8998 93.4537 82.9C95.3277 75.9882 91.2438 68.8658 84.332 66.9917C77.4202 65.1177 70.2978 69.2016 68.4237 76.1134C68.1987 76.9433 68.0596 77.7762 68.001 78.6027" fill="black"/>
<path d="M68.092 77.7359C69.5408 70.4652 77.1192 66.1249 83.9943 67.989C90.8695 69.8532 95.6962 77.2921 92.6435 85.0915L92.3275 85.7125C92.8017 84.8405 93.1826 83.8998 93.4537 82.9C95.3277 75.9882 91.2438 68.8658 84.332 66.9917C77.4202 65.1177 70.2978 69.2016 68.4237 76.1134C68.1987 76.9433 68.0596 77.7762 68.001 78.6027" stroke="black" stroke-width="0.817755" stroke-miterlimit="10"/>
<path d="M91.2977 82.7099C89.735 88.1077 83.9118 91.5163 78.3058 89.8933C72.6999 88.2703 69.2431 82.7919 71.2818 76.3641L71.3495 76.064C71.1249 76.5648 70.9365 77.0897 70.7882 77.6362C69.2595 83.2746 72.591 89.0847 78.2293 90.6135C83.8677 92.1423 89.6779 88.8108 91.2066 83.1725C91.2784 82.9078 91.3395 82.6428 91.39 82.3778" fill="black"/>
<path d="M91.2977 82.7099C89.735 88.1077 83.9118 91.5163 78.3058 89.8933C72.6999 88.2703 69.2431 82.7919 71.2818 76.3641L71.3495 76.064C71.1249 76.5648 70.9365 77.0897 70.7882 77.6362C69.2595 83.2746 72.591 89.0847 78.2293 90.6135C83.8677 92.1423 89.6779 88.8108 91.2066 83.1725C91.2784 82.9078 91.3395 82.6428 91.39 82.3778" stroke="black" stroke-width="0.817755" stroke-miterlimit="10"/>
<path d="M80.9792 90.9028C86.8211 90.9028 91.557 86.167 91.557 80.325C91.557 74.483 86.8211 69.7472 80.9792 69.7472C75.1372 69.7472 70.4014 74.483 70.4014 80.325C70.4014 86.167 75.1372 90.9028 80.9792 90.9028Z" stroke="black" stroke-width="0.817755" stroke-miterlimit="10"/>
<path d="M74.0171 83.4007C72.1547 80.0205 73.3273 75.5373 76.8378 73.6031" stroke="black" stroke-width="0.817755" stroke-miterlimit="10"/>
<path d="M77.6436 73.3119C78.8309 72.6574 80.1545 72.3775 81.4559 72.4419" stroke="black" stroke-width="0.817755" stroke-miterlimit="10"/>
</g>
<defs>
<filter id="filter0_d_568_2504" x="0.633702" y="0.162964" width="129.038" height="133.301" filterUnits="userSpaceOnUse" color-interpolation-filters="sRGB">
<feFlood flood-opacity="0" result="BackgroundImageFix"/>
<feColorMatrix in="SourceAlpha" type="matrix" values="0 0 0 0 0 0 0 0 0 0 0 0 0 0 0 0 0 0 127 0" result="hardAlpha"/>
<feOffset dx="-0.511097" dy="2.04439"/>
<feGaussianBlur stdDeviation="0.511097"/>
<feComposite in2="hardAlpha" operator="out"/>
<feColorMatrix type="matrix" values="0 0 0 0 0 0 0 0 0 0 0 0 0 0 0 0 0 0 0.25 0"/>
<feBlend mode="normal" in2="BackgroundImageFix" result="effect1_dropShadow_568_2504"/>
<feBlend mode="normal" in="SourceGraphic" in2="effect1_dropShadow_568_2504" result="shape"/>
</filter>
</defs>
</svg>
