<svg width="78" height="56" viewBox="0 0 78 56" fill="none" xmlns="http://www.w3.org/2000/svg">
<path d="M67.3636 7C67.3636 7 59.2357 0.721 49.6364 0L48.7713 1.708C57.4505 3.8045 61.4321 6.80925 65.5909 10.5C58.4202 6.88625 51.34 3.5 39 3.5C26.66 3.5 19.5798 6.88625 12.4091 10.5C16.5679 6.80925 21.3046 3.47375 29.2287 1.708L28.3636 0C18.2928 0.93975 10.6364 7 10.6364 7C10.6364 7 1.55823 19.9937 0 45.5C9.15082 55.9178 23.0455 56 23.0455 56L25.951 52.1762C21.0192 50.484 15.4493 47.4618 10.6364 42C16.3765 46.2875 25.0398 50.75 39 50.75C52.9602 50.75 61.6235 46.2875 67.3636 42C62.5507 47.4618 56.9808 50.484 52.049 52.1762L54.9545 56C54.9545 56 68.8492 55.9178 78 45.5C76.4418 19.9937 67.3636 7 67.3636 7ZM27.4773 38.5C24.0506 38.5 21.2727 35.3657 21.2727 31.5C21.2727 27.6343 24.0506 24.5 27.4773 24.5C30.904 24.5 33.6818 27.6343 33.6818 31.5C33.6818 35.3657 30.904 38.5 27.4773 38.5ZM50.5227 38.5C47.096 38.5 44.3182 35.3657 44.3182 31.5C44.3182 27.6343 47.096 24.5 50.5227 24.5C53.9494 24.5 56.7273 27.6343 56.7273 31.5C56.7273 35.3657 53.9494 38.5 50.5227 38.5Z" fill="white"/>
</svg>
