<svg width="62" height="54" viewBox="0 0 62 54" fill="none" xmlns="http://www.w3.org/2000/svg">
<path d="M60.8292 0.742342C59.7716 -0.11626 58.1105 -0.239111 56.393 0.421041H56.3902C54.5838 1.11494 5.25804 21.3704 3.25004 22.198C2.88482 22.3195 -0.304854 23.4589 0.0237024 25.9969C0.317006 28.2851 2.88059 29.2328 3.19364 29.3422L15.7338 33.4529C16.5657 36.1043 19.6327 45.8865 20.311 47.9763C20.734 49.279 21.4236 50.9908 22.6321 51.3432C23.6925 51.7347 24.7472 51.3769 25.4297 50.8639L33.0965 44.0559L45.4731 53.2966L45.7678 53.4654C46.6082 53.8218 47.4134 54 48.1819 54C48.7756 54 49.3453 53.8934 49.8896 53.68C51.7439 52.951 52.4856 51.2595 52.5631 51.0678L61.8078 5.06371C62.3719 2.6067 61.5879 1.35659 60.8292 0.742342ZM26.7933 35.0972L22.563 45.8973L18.3326 32.3972L50.7652 9.44717L26.7933 35.0972Z" fill="white"/>
</svg>
