<svg preserveAspectRatio="none" width="64" height="52" viewBox="0 0 64 52" fill="none" xmlns="http://www.w3.org/2000/svg">
<path d="M64 6.15514C61.6444 7.2011 59.114 7.90496 56.4581 8.22244C59.1707 6.59813 61.2506 4.02632 62.2302 0.959819C59.6949 2.46353 56.884 3.55625 53.8909 4.14691C51.4959 1.59477 48.0843 0 44.3084 0C37.057 0 31.1791 5.8795 31.1791 13.1274C31.1791 14.1561 31.2973 15.1602 31.5188 16.1176C20.6072 15.5712 10.9337 10.3439 4.45521 2.39955C3.32787 4.33887 2.68051 6.59321 2.68051 9.0026C2.68051 13.5556 4.99673 17.5745 8.51906 19.9273C6.36776 19.8584 4.34199 19.2677 2.57221 18.2858C2.57221 18.3424 2.57221 18.3941 2.57221 18.4507C2.57221 24.8125 7.09634 30.1186 13.1047 31.3221C12.0045 31.6223 10.8427 31.7823 9.64394 31.7823C8.79966 31.7823 7.97508 31.6986 7.17511 31.5485C8.84643 36.7635 13.6955 40.5609 19.4405 40.6668C14.9483 44.1885 9.28703 46.2878 3.13342 46.2878C2.075 46.2878 1.02888 46.2263 0 46.1033C5.81147 49.8269 12.7109 52 20.1272 52C44.2789 52 57.4821 31.9964 57.4821 14.6483C57.4821 14.0798 57.4698 13.5137 57.4452 12.9502C60.0125 11.097 62.2401 8.78603 64 6.15514Z" fill="white"/>
</svg>
