<svg width="20" height="17" viewBox="0 0 20 17" fill="none" xmlns="http://www.w3.org/2000/svg">
<path d="M20 2.01226C19.2639 2.3542 18.4731 2.58432 17.6432 2.68811C18.4908 2.15708 19.1408 1.3163 19.4469 0.313787C18.6547 0.805386 17.7762 1.16262 16.8409 1.35572C16.0925 0.521369 15.0263 0 13.8464 0C11.5803 0 9.74347 1.92215 9.74347 4.29164C9.74347 4.62795 9.78039 4.95622 9.84962 5.2692C6.43975 5.09059 3.41679 3.38166 1.39225 0.784467C1.03996 1.41848 0.83766 2.15547 0.83766 2.94316C0.83766 4.43163 1.56148 5.74552 2.66221 6.5147C1.98992 6.49217 1.35687 6.29907 0.803815 5.97804C0.803815 5.99655 0.803815 6.01344 0.803815 6.03195C0.803815 8.11179 2.21761 9.84647 4.09523 10.2399C3.75139 10.3381 3.38833 10.3904 3.01373 10.3904C2.74989 10.3904 2.49221 10.363 2.24222 10.3139C2.76451 12.0188 4.27984 13.2603 6.07515 13.2949C4.67136 14.4463 2.9022 15.1326 0.979193 15.1326C0.648437 15.1326 0.321526 15.1125 0 15.0722C1.81608 16.2896 3.97216 17 6.28976 17C13.8372 17 17.9632 10.4604 17.9632 4.78887C17.9632 4.60301 17.9593 4.41796 17.9516 4.23371C18.7539 3.62786 19.45 2.87236 20 2.01226Z" fill="white"/>
</svg>
