<svg width="863" height="430" viewBox="0 0 863 430" fill="none" xmlns="http://www.w3.org/2000/svg">
<path d="M431.5 0L444.117 267.165L497.368 5.05701L469.054 271.017L561.692 20.1095L493.112 278.631L622.965 44.8046L515.725 289.827L679.75 78.5635L536.364 304.344L730.716 120.595L554.546 321.842L774.669 169.914L569.843 341.91L810.578 225.364L581.897 364.078L837.602 285.646L590.427 387.826L855.107 349.346L595.231 412.598L862.683 414.972L596.197 437.813L860.153 480.986L593.304 462.88L847.575 545.84L586.617 487.211L825.245 608.013L576.295 510.237L793.686 666.049L562.579 531.417L753.638 718.588L545.79 550.255L706.039 764.398L526.323 566.31L652.005 802.404L504.633 579.205L592.802 831.717L481.229 588.637L529.819 851.65L456.659 594.387L464.531 861.734L431.5 596.318L398.469 861.734L406.341 594.387L333.181 851.65L381.771 588.637L270.198 831.717L358.367 579.205L210.995 802.404L336.677 566.31L156.961 764.398L317.21 550.255L109.362 718.588L300.421 531.417L69.3138 666.049L286.705 510.237L37.7547 608.013L276.383 487.211L15.4246 545.84L269.696 462.88L2.84698 480.986L266.803 437.813L0.31665 414.972L267.769 412.598L7.89285 349.346L272.573 387.826L25.3981 285.646L281.103 364.078L52.422 225.364L293.157 341.91L88.3311 169.914L308.454 321.842L132.284 120.595L326.636 304.344L183.25 78.5635L347.275 289.827L240.035 44.8046L369.888 278.631L301.308 20.1095L393.946 271.017L365.632 5.05701L418.883 267.165L431.5 0Z" fill="white"/>
</svg>
